<?xml version='1.0' encoding='ascii'?>
<svg xmlns="http://www.w3.org/2000/svg" version="1.1" width="600" height="400">
    <g id="ViewLayer_LineSet" xmlns:inkscape="http://www.inkscape.org/namespaces/inkscape" inkscape:groupmode="lineset" inkscape:label="ViewLayer_LineSet">
        <g xmlns:inkscape="http://www.inkscape.org/namespaces/inkscape" inkscape:groupmode="layer" id="strokes" inkscape:label="strokes">
            <path fill="none" stroke-width="3.0" stroke-linecap="butt" stroke-opacity="1.0" stroke="rgb(0, 0, 0)" stroke-linejoin="round" d=" M 332.315, 59.033 328.571, 58.806 324.822, 58.627 321.069, 58.496 317.314, 58.413 313.558, 58.378 309.803, 58.390 306.049, 58.451 302.299, 58.559 298.554, 58.715 298.533, 58.716 294.790, 58.921 291.054, 59.173 287.328, 59.473 287.293, 59.476 283.572, 59.824 279.864, 60.220 279.819, 60.225 276.120, 60.669 276.071, 60.675 272.382, 61.168 268.709, 61.708 268.651, 61.717 264.992, 62.305 264.929, 62.316 261.285, 62.952 261.218, 62.965 257.590, 63.650 257.518, 63.664 253.908, 64.398 253.832, 64.414 250.241, 65.196 250.160, 65.214 246.591, 66.045 246.506, 66.065 242.958, 66.944 242.869, 66.966 239.346, 67.893 239.252, 67.918 239.158, 67.944 235.656, 68.920 235.558, 68.949 232.083, 69.973 231.981, 70.004 228.535, 71.077 228.428, 71.110 228.322, 71.144 224.902, 72.267 224.791, 72.304 221.403, 73.474 221.288, 73.514 221.174, 73.554 217.815, 74.774 217.696, 74.818 217.577, 74.863 214.250, 76.132 214.127, 76.180 214.004, 76.228 210.710, 77.547 210.583, 77.599 210.457, 77.652 207.197, 79.020 207.066, 79.076 206.936, 79.133 203.712, 80.551 203.578, 80.611 203.443, 80.673 200.258, 82.140 200.120, 82.205 199.982, 82.271 196.836, 83.788 196.695, 83.857 196.553, 83.928 193.449, 85.494 193.304, 85.568 193.158, 85.644 190.099, 87.259 189.950, 87.338 189.801, 87.418 189.652, 87.500 186.634, 89.166 186.481, 89.251 186.329, 89.338 183.358, 91.054 183.202, 91.144 183.047, 91.236 182.891, 91.330 179.966, 93.096 179.807, 93.194 179.648, 93.293 176.775, 95.108 176.612, 95.211 176.450, 95.315 176.288, 95.421 173.464, 97.288 173.299, 97.398 173.134, 97.509 172.969, 97.623 170.197, 99.540 170.029, 99.658 169.861, 99.777 169.693, 99.898 166.975, 101.866 166.804, 101.991 166.633, 102.118 166.462, 102.247 163.800, 104.267 163.626, 104.400 163.453, 104.535 163.280, 104.672 160.676, 106.742 160.500, 106.884 160.324, 107.028 160.148, 107.173 157.604, 109.294 157.426, 109.444 157.247, 109.597 157.069, 109.751 154.588, 111.922 154.407, 112.082 154.227, 112.243 154.046, 112.407 151.630, 114.628 151.447, 114.797 151.264, 114.969 151.082, 115.142 150.900, 115.318 148.548, 117.592 148.363, 117.773 148.178, 117.957 147.994, 118.144 145.712, 120.467 145.525, 120.659 145.339, 120.854 145.153, 121.051 142.943, 123.424 142.754, 123.627 142.566, 123.833 142.379, 124.042 142.192, 124.253 140.053, 126.678 139.863, 126.896 139.674, 127.117 139.486, 127.341 137.423, 129.815 137.233, 130.045 137.042, 130.279 136.853, 130.515 136.664, 130.756 134.678, 133.281 134.487, 133.529 134.296, 133.779 134.106, 134.034 132.202, 136.607 132.010, 136.869 131.818, 137.135 131.628, 137.404 131.438, 137.678 129.615, 140.303 129.423, 140.584 129.232, 140.870 129.042, 141.160 127.306, 143.832 127.114, 144.131 126.923, 144.434 126.732, 144.743 125.086, 147.461 124.894, 147.779 124.703, 148.101 124.513, 148.430 124.324, 148.763 122.767, 151.532 122.577, 151.875 122.388, 152.225 122.200, 152.582 120.737, 155.395 120.548, 155.762 120.360, 156.137 120.174, 156.518 118.808, 159.376 118.621, 159.770 118.435, 160.171 118.250, 160.582 118.067, 161.001 116.800, 163.907 116.616, 164.340 116.435, 164.783 116.255, 165.236 115.090, 168.185 114.910, 168.654 114.733, 169.136 113.674, 172.123 113.497, 172.622 113.322, 173.134 113.150, 173.662 112.199, 176.691 112.028, 177.239 111.860, 177.805 111.696, 178.391 110.854, 181.460 110.692, 182.071 110.534, 182.707 109.805, 185.810 109.651, 186.477 109.501, 187.173 109.357, 187.903 108.743, 191.045 108.605, 191.819 108.474, 192.639 107.979, 195.814 107.857, 196.694 107.746, 197.642 107.372, 200.848 107.274, 201.887 107.023, 205.117 106.945, 206.276 106.893, 207.597 106.767, 210.856 106.759, 212.444 106.760, 215.725 106.843, 217.858 106.973, 221.159 107.233, 224.472 107.625, 227.793 108.150, 231.122 109.570, 239.650 110.230, 242.993 111.024, 246.338 111.954, 249.684 112.566, 251.707 113.632, 255.048 114.152, 256.526 115.353, 259.859 115.828, 261.068 117.165, 264.391 117.611, 265.432 119.084, 268.741 119.509, 269.663 121.117, 272.956 121.525, 273.787 121.922, 274.550 123.663, 277.819 124.049, 278.522 124.426, 279.178 126.300, 282.422 126.668, 283.034 128.676, 286.253 129.036, 286.826 129.390, 287.369 131.529, 290.556 131.876, 291.068 132.219, 291.555 134.487, 294.708 134.823, 295.170 135.156, 295.611 137.552, 298.726 137.878, 299.146 138.202, 299.549 140.724, 302.624 141.041, 303.007 141.357, 303.376 144.003, 306.408 144.312, 306.759 144.619, 307.098 147.389, 310.085 147.690, 310.408 147.989, 310.720 150.879, 313.658 151.172, 313.956 151.464, 314.243 151.754, 314.522 154.758, 317.405 155.042, 317.670 155.325, 317.928 158.446, 320.757 158.722, 321.002 158.997, 321.240 162.232, 324.013 162.501, 324.239 162.769, 324.458 166.115, 327.173 166.377, 327.381 166.637, 327.583 170.092, 330.237 170.346, 330.429 170.599, 330.615 174.161, 333.204 174.407, 333.381 174.653, 333.552 178.317, 336.076 178.555, 336.237 178.793, 336.394 182.557, 338.850 182.789, 338.998 183.019, 339.141 186.880, 341.526 187.103, 341.660 187.326, 341.791 191.280, 344.103 191.495, 344.226 195.546, 346.467 195.754, 346.581 195.961, 346.692 200.098, 348.856 200.298, 348.959 200.498, 349.058 204.717, 351.143 204.909, 351.235 209.215, 353.243 209.399, 353.329 209.583, 353.410 213.964, 355.336 214.140, 355.411 218.600, 357.255 218.767, 357.323 218.934, 357.389 223.462, 359.147 223.620, 359.206 228.219, 360.880 228.369, 360.933 233.034, 362.521 233.176, 362.569 237.905, 364.068 238.038, 364.110 238.171, 364.150 242.949, 365.558 243.074, 365.592 247.907, 366.910 252.799, 368.138 252.905, 368.165 257.843, 369.301 257.940, 369.323 262.919, 370.364 263.008, 370.382 268.023, 371.329 268.103, 371.342 273.150, 372.194 278.235, 372.950 278.296, 372.958 283.404, 373.618 288.539, 374.181 293.697, 374.646 293.730, 374.649 298.897, 375.017 304.077, 375.286 309.267, 375.457 314.461, 375.530 319.655, 375.504 324.843, 375.380 330.021, 375.157 330.054, 375.155 335.227, 374.834 340.381, 374.414 345.511, 373.897 345.573, 373.891 350.683, 373.276 355.760, 372.565 355.840, 372.554 360.889, 371.746 360.979, 371.731 365.994, 370.827 366.093, 370.808 371.070, 369.808 371.178, 369.784 376.113, 368.690 380.993, 367.505 381.119, 367.474 381.245, 367.441 386.082, 366.161 386.217, 366.122 390.998, 364.751 391.142, 364.707 395.864, 363.246 396.016, 363.196 400.674, 361.646 400.835, 361.591 405.424, 359.954 405.594, 359.893 405.764, 359.829 410.289, 358.103 410.467, 358.033 414.916, 356.223 415.102, 356.146 415.290, 356.066 419.666, 354.171 419.861, 354.084 424.153, 352.108 424.356, 352.014 424.560, 351.916 428.772, 349.859 428.984, 349.754 429.196, 349.644 433.324, 347.507 433.544, 347.390 437.576, 345.178 437.804, 345.053 438.032, 344.924 441.974, 342.636 442.209, 342.499 442.446, 342.356 446.292, 339.994 446.536, 339.843 446.781, 339.687 450.529, 337.254 450.781, 337.089 451.034, 336.918 454.681, 334.415 454.940, 334.235 455.201, 334.049 458.744, 331.478 459.011, 331.282 459.280, 331.080 462.715, 328.444 462.990, 328.231 463.267, 328.011 466.592, 325.313 466.875, 325.082 467.160, 324.843 470.372, 322.085 470.663, 321.834 470.956, 321.575 474.052, 318.759 474.352, 318.487 474.653, 318.205 474.956, 317.914 477.938, 315.039 478.248, 314.734 478.559, 314.417 481.422, 311.490 481.740, 311.158 482.061, 310.813 484.801, 307.836 485.128, 307.473 485.458, 307.097 488.073, 304.073 488.410, 303.677 488.750, 303.264 491.239, 300.196 491.586, 299.760 491.937, 299.305 494.298, 296.196 494.656, 295.714 495.019, 295.209 497.251, 292.061 497.623, 291.525 498.000, 290.958 500.101, 287.774 500.488, 287.168 502.454, 283.956 502.851, 283.306 503.258, 282.609 505.091, 279.367 505.510, 278.610 505.943, 277.784 507.643, 274.515 508.094, 273.599 509.657, 270.309 510.133, 269.273 511.559, 265.966 512.068, 264.761 513.358, 261.440 513.919, 259.967 515.071, 256.634 515.738, 254.615 516.754, 251.273 517.633, 247.928 518.375, 244.582 520.013, 236.040 520.619, 232.705 521.090, 229.374 521.428, 226.049 521.562, 223.898 521.767, 220.588 521.841, 217.288 521.871, 215.691 521.850, 214.355 521.795, 211.080 521.743, 209.913 521.561, 206.658 521.488, 205.611 521.397, 204.650 521.091, 201.422 520.988, 200.534 520.558, 197.330 520.445, 196.502 520.323, 195.720 519.773, 192.546 519.644, 191.809 519.509, 191.105 519.368, 190.431 518.701, 187.293 518.556, 186.651 518.406, 186.032 517.623, 182.927 517.471, 182.334 517.315, 181.761 517.155, 181.206 516.260, 178.139 516.099, 177.604 515.934, 177.085 515.767, 176.579 514.763, 173.552 514.594, 173.064 514.424, 172.588 514.251, 172.124 513.140, 169.137 512.967, 168.687 512.792, 168.248 512.615, 167.818 511.400, 164.873 511.223, 164.456 511.045, 164.048 510.864, 163.649 509.548, 160.745 509.368, 160.357 509.187, 159.977 509.004, 159.604 507.589, 156.743 507.407, 156.381 507.224, 156.025 507.040, 155.675 505.528, 152.858 505.344, 152.518 505.160, 152.184 504.975, 151.856 504.788, 151.533 503.185, 148.765 503.000, 148.450 502.814, 148.141 502.627, 147.837 500.932, 145.114 500.747, 144.818 500.560, 144.526 500.373, 144.239 500.185, 143.956 498.404, 141.283 498.218, 141.008 498.031, 140.737 497.843, 140.470 495.977, 137.843 495.791, 137.583 495.604, 137.327 495.417, 137.075 495.229, 136.826 493.282, 134.249 493.096, 134.007 492.909, 133.768 492.722, 133.533 490.694, 131.003 490.509, 130.774 490.324, 130.548 490.137, 130.326 488.031, 127.844 487.847, 127.627 487.663, 127.414 487.478, 127.203 487.293, 126.995 485.114, 124.565 484.931, 124.363 484.747, 124.163 484.563, 123.967 482.311, 121.585 482.130, 121.394 481.948, 121.205 481.766, 121.019 481.583, 120.835 479.263, 118.506 479.083, 118.328 478.902, 118.152 478.721, 117.978 476.332, 115.697 476.154, 115.529 475.976, 115.363 475.797, 115.199 473.342, 112.968 473.166, 112.809 472.990, 112.652 472.813, 112.497 470.294, 110.316 470.120, 110.166 469.946, 110.018 469.772, 109.872 467.191, 107.740 467.020, 107.599 466.848, 107.460 466.677, 107.322 464.037, 105.241 463.868, 105.108 463.699, 104.977 463.529, 104.848 460.832, 102.816 460.666, 102.692 460.500, 102.568 460.333, 102.447 457.581, 100.466 457.417, 100.349 457.254, 100.234 457.090, 100.120 454.285, 98.190 454.124, 98.080 453.963, 97.972 453.802, 97.866 450.947, 95.986 450.789, 95.883 450.631, 95.783 447.723, 93.951 447.569, 93.854 447.414, 93.759 447.259, 93.665 444.305, 91.884 444.154, 91.794 444.002, 91.705 441.000, 89.973 440.852, 89.888 440.704, 89.805 440.556, 89.723 437.510, 88.042 437.366, 87.963 437.221, 87.886 434.132, 86.254 433.991, 86.180 433.850, 86.108 430.717, 84.524 430.580, 84.455 430.443, 84.388 427.270, 82.853 427.136, 82.789 427.002, 82.726 423.790, 81.241 423.660, 81.181 423.531, 81.122 420.282, 79.686 420.156, 79.631 420.029, 79.576 416.745, 78.190 416.623, 78.138 416.501, 78.088 413.183, 76.751 413.065, 76.704 412.946, 76.658 409.597, 75.370 409.483, 75.327 409.368, 75.285 405.989, 74.046 405.879, 74.007 402.467, 72.816 402.361, 72.780 402.255, 72.744 398.816, 71.603 398.714, 71.570 395.246, 70.476 395.149, 70.446 395.051, 70.417 391.560, 69.373 391.466, 69.346 387.949, 68.350 387.860, 68.325 384.318, 67.377 384.233, 67.355 380.669, 66.456 380.589, 66.436 377.003, 65.584 376.927, 65.566 373.321, 64.763 373.250, 64.747 369.626, 63.992 369.559, 63.978 365.918, 63.272 365.856, 63.260 362.200, 62.601 362.142, 62.591 358.473, 61.981 354.787, 61.418 354.738, 61.411 351.041, 60.896 350.997, 60.891 347.291, 60.424 343.572, 60.006 343.537, 60.002 339.813, 59.632 336.078, 59.309 332.336, 59.034 332.315, 59.033 " />
            <path fill="none" stroke-width="3.0" stroke-linecap="butt" stroke-opacity="1.0" stroke="rgb(0, 0, 0)" stroke-linejoin="round" d=" M 332.315, 59.033 328.571, 58.806 324.822, 58.627 321.069, 58.496 317.314, 58.413 313.558, 58.378 309.803, 58.390 306.049, 58.451 302.299, 58.559 298.554, 58.715 298.533, 58.716 294.790, 58.921 291.054, 59.173 287.328, 59.473 287.293, 59.476 283.572, 59.824 279.864, 60.220 279.819, 60.225 276.120, 60.669 276.071, 60.675 272.382, 61.168 268.709, 61.708 268.651, 61.717 264.992, 62.305 264.929, 62.316 261.285, 62.952 261.218, 62.965 257.590, 63.650 257.518, 63.664 253.908, 64.398 253.832, 64.414 250.241, 65.196 250.160, 65.214 246.591, 66.045 246.506, 66.065 242.958, 66.944 242.869, 66.966 239.346, 67.893 239.252, 67.918 239.158, 67.944 235.656, 68.920 235.558, 68.949 232.083, 69.973 231.981, 70.004 228.535, 71.077 228.428, 71.110 228.322, 71.144 224.902, 72.267 224.791, 72.304 221.403, 73.474 221.288, 73.514 221.174, 73.554 217.815, 74.774 217.696, 74.818 217.577, 74.863 214.250, 76.132 214.127, 76.180 214.004, 76.228 210.710, 77.547 210.583, 77.599 210.457, 77.652 207.197, 79.020 207.066, 79.076 206.936, 79.133 203.712, 80.551 203.578, 80.611 203.443, 80.673 200.258, 82.140 200.120, 82.205 199.982, 82.271 196.836, 83.788 196.695, 83.857 196.553, 83.928 193.449, 85.494 193.304, 85.568 193.158, 85.644 190.099, 87.259 189.950, 87.338 189.801, 87.418 189.652, 87.500 186.634, 89.166 186.481, 89.251 186.329, 89.338 183.358, 91.054 183.202, 91.144 183.047, 91.236 182.891, 91.330 179.966, 93.096 179.807, 93.194 179.648, 93.293 176.775, 95.108 176.612, 95.211 176.450, 95.315 176.288, 95.421 173.464, 97.288 173.299, 97.398 173.134, 97.509 172.969, 97.623 170.197, 99.540 170.029, 99.658 169.861, 99.777 169.693, 99.898 166.975, 101.866 166.804, 101.991 166.633, 102.118 166.462, 102.247 163.800, 104.267 163.626, 104.400 163.453, 104.535 163.280, 104.672 160.676, 106.742 160.500, 106.884 160.324, 107.028 160.148, 107.173 157.604, 109.294 157.426, 109.444 157.247, 109.597 157.069, 109.751 154.588, 111.922 154.407, 112.082 154.227, 112.243 154.046, 112.407 151.630, 114.628 151.447, 114.797 151.264, 114.969 151.082, 115.142 150.900, 115.318 148.548, 117.592 148.363, 117.773 148.178, 117.957 147.994, 118.144 145.712, 120.467 145.525, 120.659 145.339, 120.854 145.153, 121.051 142.943, 123.424 142.754, 123.627 142.566, 123.833 142.379, 124.042 142.192, 124.253 140.053, 126.678 139.863, 126.896 139.674, 127.117 139.486, 127.341 137.423, 129.815 137.233, 130.045 137.042, 130.279 136.853, 130.515 136.664, 130.756 134.678, 133.281 134.487, 133.529 134.296, 133.779 134.106, 134.034 132.202, 136.607 132.010, 136.869 131.818, 137.135 131.628, 137.404 131.438, 137.678 129.615, 140.303 129.423, 140.584 129.232, 140.870 129.042, 141.160 127.306, 143.832 127.114, 144.131 126.923, 144.434 126.732, 144.743 125.086, 147.461 124.894, 147.779 124.703, 148.101 124.513, 148.430 124.324, 148.763 122.767, 151.532 122.577, 151.875 122.388, 152.225 122.200, 152.582 120.737, 155.395 120.548, 155.762 120.360, 156.137 120.174, 156.518 118.808, 159.376 118.621, 159.770 118.435, 160.171 118.250, 160.582 118.067, 161.001 116.800, 163.907 116.616, 164.340 116.435, 164.783 116.255, 165.236 115.090, 168.185 114.910, 168.654 114.733, 169.136 113.674, 172.123 113.497, 172.622 113.322, 173.134 113.150, 173.662 112.199, 176.691 112.028, 177.239 111.860, 177.805 111.696, 178.391 110.854, 181.460 110.692, 182.071 110.534, 182.707 109.805, 185.810 109.651, 186.477 109.501, 187.173 109.357, 187.903 108.743, 191.045 108.605, 191.819 108.474, 192.639 107.979, 195.814 107.857, 196.694 107.746, 197.642 107.372, 200.848 107.274, 201.887 107.023, 205.117 106.945, 206.276 106.893, 207.597 106.767, 210.856 106.759, 212.444 106.760, 215.725 106.843, 217.858 106.973, 221.159 107.233, 224.472 107.625, 227.793 108.150, 231.122 109.570, 239.650 110.230, 242.993 111.024, 246.338 111.954, 249.684 112.566, 251.707 113.632, 255.048 114.152, 256.526 115.353, 259.859 115.828, 261.068 117.165, 264.391 117.611, 265.432 119.084, 268.741 119.509, 269.663 121.117, 272.956 121.525, 273.787 121.922, 274.550 123.663, 277.819 124.049, 278.522 124.426, 279.178 126.300, 282.422 126.668, 283.034 128.676, 286.253 129.036, 286.826 129.390, 287.369 131.529, 290.556 131.876, 291.068 132.219, 291.555 134.487, 294.708 134.823, 295.170 135.156, 295.611 137.552, 298.726 137.878, 299.146 138.202, 299.549 140.724, 302.624 141.041, 303.007 141.357, 303.376 144.003, 306.408 144.312, 306.759 144.619, 307.098 147.389, 310.085 147.690, 310.408 147.989, 310.720 150.879, 313.658 151.172, 313.956 151.464, 314.243 151.754, 314.522 154.758, 317.405 155.042, 317.670 155.325, 317.928 158.446, 320.757 158.722, 321.002 158.997, 321.240 162.232, 324.013 162.501, 324.239 162.769, 324.458 166.115, 327.173 166.377, 327.381 166.637, 327.583 170.092, 330.237 170.346, 330.429 170.599, 330.615 174.161, 333.204 174.407, 333.381 174.653, 333.552 178.317, 336.076 178.555, 336.237 178.793, 336.394 182.557, 338.850 182.789, 338.998 183.019, 339.141 186.880, 341.526 187.103, 341.660 187.326, 341.791 191.280, 344.103 191.495, 344.226 195.546, 346.467 195.754, 346.581 195.961, 346.692 200.098, 348.856 200.298, 348.959 200.498, 349.058 204.717, 351.143 204.909, 351.235 209.215, 353.243 209.399, 353.329 209.583, 353.410 213.964, 355.336 214.140, 355.411 218.600, 357.255 218.767, 357.323 218.934, 357.389 223.462, 359.147 223.620, 359.206 228.219, 360.880 228.369, 360.933 233.034, 362.521 233.176, 362.569 237.905, 364.068 238.038, 364.110 238.171, 364.150 242.949, 365.558 243.074, 365.592 247.907, 366.910 252.799, 368.138 252.905, 368.165 257.843, 369.301 257.940, 369.323 262.919, 370.364 263.008, 370.382 268.023, 371.329 268.103, 371.342 273.150, 372.194 278.235, 372.950 278.296, 372.958 283.404, 373.618 288.539, 374.181 293.697, 374.646 293.730, 374.649 298.897, 375.017 304.077, 375.286 309.267, 375.457 314.461, 375.530 319.655, 375.504 324.843, 375.380 330.021, 375.157 330.054, 375.155 335.227, 374.834 340.381, 374.414 345.511, 373.897 345.573, 373.891 350.683, 373.276 355.760, 372.565 355.840, 372.554 360.889, 371.746 360.979, 371.731 365.994, 370.827 366.093, 370.808 371.070, 369.808 371.178, 369.784 376.113, 368.690 380.993, 367.505 381.119, 367.474 381.245, 367.441 386.082, 366.161 386.217, 366.122 390.998, 364.751 391.142, 364.707 395.864, 363.246 396.016, 363.196 400.674, 361.646 400.835, 361.591 405.424, 359.954 405.594, 359.893 405.764, 359.829 410.289, 358.103 410.467, 358.033 414.916, 356.223 415.102, 356.146 415.290, 356.066 419.666, 354.171 419.861, 354.084 424.153, 352.108 424.356, 352.014 424.560, 351.916 428.772, 349.859 428.984, 349.754 429.196, 349.644 433.324, 347.507 433.544, 347.390 437.576, 345.178 437.804, 345.053 438.032, 344.924 441.974, 342.636 442.209, 342.499 442.446, 342.356 446.292, 339.994 446.536, 339.843 446.781, 339.687 450.529, 337.254 450.781, 337.089 451.034, 336.918 454.681, 334.415 454.940, 334.235 455.201, 334.049 458.744, 331.478 459.011, 331.282 459.280, 331.080 462.715, 328.444 462.990, 328.231 463.267, 328.011 466.592, 325.313 466.875, 325.082 467.160, 324.843 470.372, 322.085 470.663, 321.834 470.956, 321.575 474.052, 318.759 474.352, 318.487 474.653, 318.205 474.956, 317.914 477.938, 315.039 478.248, 314.734 478.559, 314.417 481.422, 311.490 481.740, 311.158 482.061, 310.813 484.801, 307.836 485.128, 307.473 485.458, 307.097 488.073, 304.073 488.410, 303.677 488.750, 303.264 491.239, 300.196 491.586, 299.760 491.937, 299.305 494.298, 296.196 494.656, 295.714 495.019, 295.209 497.251, 292.061 497.623, 291.525 498.000, 290.958 500.101, 287.774 500.488, 287.168 502.454, 283.956 502.851, 283.306 503.258, 282.609 505.091, 279.367 505.510, 278.610 505.943, 277.784 507.643, 274.515 508.094, 273.599 509.657, 270.309 510.133, 269.273 511.559, 265.966 512.068, 264.761 513.358, 261.440 513.919, 259.967 515.071, 256.634 515.738, 254.615 516.754, 251.273 517.633, 247.928 518.375, 244.582 520.013, 236.040 520.619, 232.705 521.090, 229.374 521.428, 226.049 521.562, 223.898 521.767, 220.588 521.841, 217.288 521.871, 215.691 521.850, 214.355 521.795, 211.080 521.743, 209.913 521.561, 206.658 521.488, 205.611 521.397, 204.650 521.091, 201.422 520.988, 200.534 520.558, 197.330 520.445, 196.502 520.323, 195.720 519.773, 192.546 519.644, 191.809 519.509, 191.105 519.368, 190.431 518.701, 187.293 518.556, 186.651 518.406, 186.032 517.623, 182.927 517.471, 182.334 517.315, 181.761 517.155, 181.206 516.260, 178.139 516.099, 177.604 515.934, 177.085 515.767, 176.579 514.763, 173.552 514.594, 173.064 514.424, 172.588 514.251, 172.124 513.140, 169.137 512.967, 168.687 512.792, 168.248 512.615, 167.818 511.400, 164.873 511.223, 164.456 511.045, 164.048 510.864, 163.649 509.548, 160.745 509.368, 160.357 509.187, 159.977 509.004, 159.604 507.589, 156.743 507.407, 156.381 507.224, 156.025 507.040, 155.675 505.528, 152.858 505.344, 152.518 505.160, 152.184 504.975, 151.856 504.788, 151.533 503.185, 148.765 503.000, 148.450 502.814, 148.141 502.627, 147.837 500.932, 145.114 500.747, 144.818 500.560, 144.526 500.373, 144.239 500.185, 143.956 498.404, 141.283 498.218, 141.008 498.031, 140.737 497.843, 140.470 495.977, 137.843 495.791, 137.583 495.604, 137.327 495.417, 137.075 495.229, 136.826 493.282, 134.249 493.096, 134.007 492.909, 133.768 492.722, 133.533 490.694, 131.003 490.509, 130.774 490.324, 130.548 490.137, 130.326 488.031, 127.844 487.847, 127.627 487.663, 127.414 487.478, 127.203 487.293, 126.995 485.114, 124.565 484.931, 124.363 484.747, 124.163 484.563, 123.967 482.311, 121.585 482.130, 121.394 481.948, 121.205 481.766, 121.019 481.583, 120.835 479.263, 118.506 479.083, 118.328 478.902, 118.152 478.721, 117.978 476.332, 115.697 476.154, 115.529 475.976, 115.363 475.797, 115.199 473.342, 112.968 473.166, 112.809 472.990, 112.652 472.813, 112.497 470.294, 110.316 470.120, 110.166 469.946, 110.018 469.772, 109.872 467.191, 107.740 467.020, 107.599 466.848, 107.460 466.677, 107.322 464.037, 105.241 463.868, 105.108 463.699, 104.977 463.529, 104.848 460.832, 102.816 460.666, 102.692 460.500, 102.568 460.333, 102.447 457.581, 100.466 457.417, 100.349 457.254, 100.234 457.090, 100.120 454.285, 98.190 454.124, 98.080 453.963, 97.972 453.802, 97.866 450.947, 95.986 450.789, 95.883 450.631, 95.783 447.723, 93.951 447.569, 93.854 447.414, 93.759 447.259, 93.665 444.305, 91.884 444.154, 91.794 444.002, 91.705 441.000, 89.973 440.852, 89.888 440.704, 89.805 440.556, 89.723 437.510, 88.042 437.366, 87.963 437.221, 87.886 434.132, 86.254 433.991, 86.180 433.850, 86.108 430.717, 84.524 430.580, 84.455 430.443, 84.388 427.270, 82.853 427.136, 82.789 427.002, 82.726 423.790, 81.241 423.660, 81.181 423.531, 81.122 420.282, 79.686 420.156, 79.631 420.029, 79.576 416.745, 78.190 416.623, 78.138 416.501, 78.088 413.183, 76.751 413.065, 76.704 412.946, 76.658 409.597, 75.370 409.483, 75.327 409.368, 75.285 405.989, 74.046 405.879, 74.007 402.467, 72.816 402.361, 72.780 402.255, 72.744 398.816, 71.603 398.714, 71.570 395.246, 70.476 395.149, 70.446 395.051, 70.417 391.560, 69.373 391.466, 69.346 387.949, 68.350 387.860, 68.325 384.318, 67.377 384.233, 67.355 380.669, 66.456 380.589, 66.436 377.003, 65.584 376.927, 65.566 373.321, 64.763 373.250, 64.747 369.626, 63.992 369.559, 63.978 365.918, 63.272 365.856, 63.260 362.200, 62.601 362.142, 62.591 358.473, 61.981 354.787, 61.418 354.738, 61.411 351.041, 60.896 350.997, 60.891 347.291, 60.424 343.572, 60.006 343.537, 60.002 339.813, 59.632 336.078, 59.309 332.336, 59.034 332.315, 59.033 " />
        </g>
    </g>
</svg>
