<?xml version="1.0" encoding="UTF-8" standalone="no"?>
<!-- Created with Inkscape (http://www.inkscape.org/) -->

<svg
   width="154.04907mm"
   height="109.10529mm"
   viewBox="0 0 154.04907 109.10529"
   version="1.1"
   id="svg1"
   inkscape:version="1.4.2 (f4327f4, 2025-05-13)"
   sodipodi:docname="axial_ery.svg"
   xmlns:inkscape="http://www.inkscape.org/namespaces/inkscape"
   xmlns:sodipodi="http://sodipodi.sourceforge.net/DTD/sodipodi-0.dtd"
   xmlns="http://www.w3.org/2000/svg"
   xmlns:svg="http://www.w3.org/2000/svg">
  <sodipodi:namedview
     id="namedview1"
     pagecolor="#ffffff"
     bordercolor="#000000"
     borderopacity="0.25"
     inkscape:showpageshadow="2"
     inkscape:pageopacity="0.0"
     inkscape:pagecheckerboard="0"
     inkscape:deskcolor="#d1d1d1"
     inkscape:document-units="mm"
     inkscape:zoom="0.72426347"
     inkscape:cx="379.69608"
     inkscape:cy="540.54915"
     inkscape:window-width="1920"
     inkscape:window-height="1094"
     inkscape:window-x="2038"
     inkscape:window-y="-11"
     inkscape:window-maximized="1"
     inkscape:current-layer="layer1" />
  <defs
     id="defs1">
    <clipPath
       id="clip1-3">
      <path
         d="m 2,53 h 356 v 67.23828 H 2 Z m 0,0"
         id="path1-3" />
    </clipPath>
    <inkscape:path-effect
       effect="spiro"
       id="path-effect11"
       is_visible="true"
       lpeversion="1" />
  </defs>
  <g
     inkscape:label="Layer 1"
     inkscape:groupmode="layer"
     id="layer1"
     transform="translate(-4.352807,-5.4084793)">
    <g
       id="g11"
       transform="matrix(0.26458333,0,0,0.26458333,-33.415004,-61.080886)">
      <g
         id="g9"
         transform="matrix(0.93908158,0.70361006,-0.48208146,1.1247504,-62.928804,-278.20443)"
         style="stroke:#000000;stroke-width:0.994015;stroke-dasharray:none;stroke-opacity:1">
        <g
           id="surface56"
           style="fill:none;stroke:#000000;stroke-width:0.745511;stroke-dasharray:none;stroke-opacity:1"
           transform="matrix(1.3333333,0,0,1.3333333,360.13617,204.53333)">
          <path
             style="fill:none;stroke:#000000;stroke-width:0.745511;stroke-linecap:square;stroke-linejoin:miter;stroke-miterlimit:3.25;stroke-dasharray:none;stroke-opacity:1"
             d="M 9.554688,59.445313 9.636719,57.25 9.742188,55.921875 9.851563,54.933594 9.957031,54.109375 10.0625,53.386719 l 0.105469,-0.648438 0.105469,-0.59375 0.105468,-0.550781 0.214844,-1.007812 0.105469,-0.460938 0.105469,-0.441406 0.210937,-0.828125 0.425781,-1.488281 0.105469,-0.34375 0.105469,-0.335938 0.210937,-0.644531 0.425782,-1.199219 0.210937,-0.5625 0.210938,-0.539062 0.425781,-1.027344 0.847656,-1.871094 0.113281,-0.238281 0.117188,-0.234375 0.226562,-0.460938 0.460938,-0.882812 0.917969,-1.644531 0.117187,-0.195313 0.113281,-0.195312 0.230469,-0.378907 0.460938,-0.742187 0.917968,-1.398438 0.117188,-0.167968 0.113281,-0.167969 0.230469,-0.328125 0.460937,-0.644531 L 19.5,31.9375 l 1.839844,-2.25 0.105469,-0.125 0.105468,-0.121094 0.214844,-0.246093 0.429688,-0.480469 0.859375,-0.925781 1.714843,-1.734375 0.109375,-0.105469 0.105469,-0.101563 0.214844,-0.207031 0.429687,-0.402344 0.859375,-0.785156 1.714844,-1.476562 0.105469,-0.08594 0.105469,-0.08984 0.210937,-0.171875 0.421875,-0.339843 0.839844,-0.660157 1.683594,-1.253906 0.105468,-0.07813 0.738282,-0.519531 0.839843,-0.574219 1.683594,-1.097656 0.113281,-0.07422 0.113282,-0.07031 0.230468,-0.140625 0.457032,-0.28125 0.910156,-0.546875 1.828125,-1.035157 0.453125,-0.25 0.457031,-0.242187 0.914063,-0.472656 1.824218,-0.902344 0.109375,-0.05078 0.105469,-0.05078 0.210938,-0.09766 0.425781,-0.199219 0.855469,-0.386718 1.703125,-0.734375 0.210937,-0.08594 0.214844,-0.08984 0.425781,-0.171875 0.851563,-0.335937 1.703125,-0.640625 0.117187,-0.04297 0.113281,-0.04297 0.230469,-0.08203 0.464844,-0.160156 0.921875,-0.316406 1.847656,-0.59375 0.113281,-0.039063 0.117188,-0.035156 0.230469,-0.070313 0.460937,-0.136718 0.921875,-0.269532 1.847656,-0.5 0.113282,-0.03125 0.113281,-0.027343 0.226562,-0.058594 0.453125,-0.113281 0.90625,-0.21875 1.8125,-0.410157 0.113282,-0.023437 0.113281,-0.027344 0.679687,-0.140625 0.90625,-0.179687 1.8125,-0.332032 0.105469,-0.015625 0.105469,-0.019531 0.214844,-0.035156 0.421875,-0.070313 0.84375,-0.132812 0.421875,-0.0625 0.425781,-0.0625 0.84375,-0.117188 0.210937,-0.03125 0.210938,-0.027343 0.425781,-0.054688 0.84375,-0.101562 0.84375,-0.09375 L 70.457031,6.484375 70.570313,6.472656 70.6875,6.460938 70.914063,6.4375 71.375,6.398438 71.488281,6.386719 71.601563,6.378906 71.832031,6.359375 72.289063,6.320313 72.40625,6.3125 72.519531,6.300781 72.75,6.285156 73.207031,6.25 74.125,6.191406 74.351563,6.175781 74.582031,6.164063 75.039063,6.140625 75.15625,6.132813 75.269531,6.128906 75.5,6.117188 75.957031,6.09375 76.074219,6.08984 76.1875,6.08593 76.417969,6.07812 76.53125,6.07421 76.644531,6.0664 76.875,6.05859 76.988281,6.05468 77.105469,6.05077 77.332031,6.04686 77.792969,6.031235 h 0.105469 l 0.105468,-0.00391 0.214844,-0.00391 0.109375,-0.00391 h 0.105469 l 0.214844,-0.00391 0.105468,-0.00391 h 0.214844 l 0.105469,-0.00391 h 0.214844 l 0.105468,-0.00391 H 79.71875 L 79.824219,6 H 81 l 0.109375,0.00391 h 0.425781 l 0.109375,0.00391 h 0.210938 l 0.214844,0.00391 0.109375,0.00391 h 0.105468 L 82.5,6.019531 l 0.105469,0.00391 h 0.105469 l 0.214843,0.00391 0.109375,0.00391 0.105469,0.00391 0.214844,0.00391 0.105469,0.00391 0.109375,0.00391 0.210937,0.00391 0.109375,0.00391 0.105469,0.00391 0.214844,0.00781 0.425781,0.015625 0.210937,0.00781 0.210938,0.011719 0.417969,0.015625 0.105468,0.00781 0.105469,0.00391 0.210938,0.011719 0.417968,0.019531 0.105469,0.00781 0.105469,0.00391 0.207031,0.011719 0.421875,0.027344 0.839844,0.054687 0.105469,0.00391 0.101562,0.00781 0.210938,0.015625 0.417968,0.03125 0.839844,0.070312 0.210938,0.015625 0.210937,0.019532 0.417969,0.035156 0.839844,0.082031 0.113281,0.011719 0.113281,0.00781 0.226563,0.023438 0.457031,0.050781 0.910156,0.097656 1.820313,0.222657 0.226562,0.03125 0.230469,0.027343 0.453125,0.0625 0.910156,0.128907 1.820313,0.277343 0.109375,0.015625 0.105468,0.019532 0.210938,0.035156 0.425781,0.070312 0.847655,0.144532 1.69922,0.304687 0.10547,0.019531 0.10937,0.019532 0.21094,0.042968 0.42578,0.082032 0.84766,0.167968 1.69922,0.351563 0.11719,0.023437 0.11328,0.027344 0.23047,0.046875 0.46093,0.101563 0.92188,0.207031 1.83984,0.433594 3.6836,0.945312 0.11328,0.02734 0.33984,0.09375 0.44922,0.125 0.90625,0.25 1.80859,0.523437 3.61328,1.109375 6.7461,2.292969 7.3125,2.757813 6.82812,2.761718 7.39844,3.066407 7.26562,2.90625 0.21094,0.07813 0.21094,0.08203 0.42578,0.160156 0.84375,0.316406 1.69531,0.617188 0.10547,0.03516 0.10547,0.03906 0.21094,0.07422 0.42578,0.148438 0.84766,0.289062 1.6914,0.558594 0.11719,0.03906 0.11328,0.03516 0.23047,0.07422 0.45703,0.140625 0.92188,0.28125 1.83593,0.519531 0.11328,0.03125 0.11719,0.03125 0.22656,0.0625 0.46094,0.117187 0.91797,0.230469 1.83594,0.414063 0.10937,0.02344 0.10547,0.02344 0.64453,0.128906 0.85547,0.160156 0.10938,0.01953 0.10547,0.01953 0.64453,0.105468 0.85547,0.132813 0.10937,0.01563 0.10547,0.01563 0.21484,0.03125 0.42969,0.05469 0.10547,0.01563 0.10937,0.01172 0.21094,0.02734 0.42969,0.05078 0.10937,0.01172 0.10547,0.0078 0.21485,0.02344 0.42968,0.04297 0.10547,0.0078 0.10938,0.01172 0.21094,0.01953 0.42968,0.03125 0.52735,0.03906 0.10547,0.0039 0.20703,0.01172 0.10547,0.0078 0.10546,0.0039 0.21094,0.01172 0.21094,0.0078 0.21094,0.01172 0.10156,0.0039 0.10547,0.0039 h 0.10547 l 0.3164,0.01172 h 0.10547 l 0.10547,0.0039 h 0.10547 l 0.10547,0.0039 h 0.10156 L 179.5,31.957 h 0.94531 l 0.10547,-0.0039 h 0.21094 l 0.10547,-0.0039 h 0.10547 l 0.21093,-0.0078 h 0.10547 l 0.10156,-0.0039 0.73829,-0.02734 0.10546,-0.0078 0.20704,-0.0078 0.10546,-0.0078 0.10547,-0.0039 0.21094,-0.01563 0.42188,-0.02734 0.22656,-0.01563 0.22656,-0.01953 0.45703,-0.03906 0.11328,-0.0078 0.11328,-0.01172 0.23047,-0.02344 0.45703,-0.04687 0.11329,-0.01172 0.11328,-0.01563 0.22656,-0.02344 0.45703,-0.05859 0.91016,-0.125 0.11718,-0.01563 0.11329,-0.01953 0.22656,-0.03516 0.45703,-0.07422 0.91016,-0.15625 0.11718,-0.01953 0.11328,-0.02344 0.22657,-0.04297 0.45703,-0.08984 0.91015,-0.1875 0.10938,-0.02344 0.31641,-0.07031 0.42578,-0.09766 0.85156,-0.199219 1.70312,-0.441406 0.21094,-0.05469 0.21485,-0.05859 0.42578,-0.121093 0.84765,-0.246094 1.70313,-0.519531 0.11719,-0.03906 0.11328,-0.03516 0.23047,-0.07422 1.38281,-0.457031 1.84765,-0.640625 3.6875,-1.371094 7.24219,-2.90625 6.75781,-2.800781 7.32813,-2.964844 6.83984,-2.582031 6.70313,-2.289063 0.11328,-0.03906 0.11719,-0.03516 0.22656,-0.07422 0.45312,-0.144531 0.91016,-0.28125 1.82031,-0.550782 3.63672,-1.035156 0.10547,-0.03125 0.10547,-0.02734 0.21094,-0.05859 0.42578,-0.113282 0.84765,-0.222656 1.69922,-0.429687 0.10547,-0.023438 0.10547,-0.027344 0.21094,-0.050781 0.42578,-0.101562 0.84766,-0.203125 1.69921,-0.386719 0.11329,-0.023438 0.11718,-0.027343 0.22657,-0.050782 0.46093,-0.097656 0.92188,-0.191406 1.83984,-0.367188 0.22656,-0.046875 0.69141,-0.128906 0.92188,-0.164062 1.83984,-0.3125 0.10547,-0.019532 0.10937,-0.015625 0.21485,-0.035156 0.42578,-0.066406 0.85937,-0.132813 1.71875,-0.242187 0.10938,-0.011719 L 264.71094,7 l 0.64453,-0.082031 0.85937,-0.105469 1.71875,-0.195312 0.10547,-0.00781 0.10547,-0.011719 0.20703,-0.023437 0.42188,-0.039063 0.84375,-0.082031 0.21093,-0.015625 0.21094,-0.019531 0.41797,-0.035156 0.84375,-0.066407 0.94922,-0.070312 0.10156,-0.00391 0.21094,-0.015625 0.42187,-0.027344 0.10547,-0.00391 0.10547,-0.00781 0.63281,-0.035156 0.83985,-0.039063 0.11719,-0.00781 0.33984,-0.011719 0.45703,-0.019531 0.11328,-0.00391 0.11719,-0.00391 0.22656,-0.00781 0.45703,-0.015625 0.11328,-0.00391 h 0.11329 l 0.23046,-0.00781 h 0.11329 l 0.11328,-0.00391 0.23047,-0.00391 0.22656,-0.00781 h 0.11719 l 0.11328,-0.00391 h 0.22656 l 0.11328,-0.00391 h 0.23047 l 0.11328,-0.00391 h 0.34375 L 279.00781,6 h 1.14063 l 0.11718,0.00391 h 0.33985 l 0.11328,0.00391 h 0.23047 l 0.11328,0.00391 h 0.11328 l 0.11719,0.00391 0.22656,0.00391 h 0.11328 l 0.11719,0.00391 0.22656,0.00391 0.10547,0.00391 h 0.10938 l 0.3164,0.011719 h 0.10938 l 0.21093,0.00781 0.10938,0.00391 0.31641,0.011718 0.42968,0.015625 0.21094,0.00781 0.21484,0.00781 0.42579,0.019532 0.10546,0.00391 0.10547,0.00781 0.21485,0.011719 0.42578,0.023438 0.10547,0.00391 0.10937,0.00781 0.21094,0.011719 0.42578,0.027344 0.85156,0.058594 0.10938,0.00781 0.10547,0.00781 0.21484,0.015625 0.42578,0.035156 0.85156,0.074219 0.11719,0.00781 0.11328,0.011719 0.23047,0.023437 0.46094,0.042969 0.92578,0.097656 0.11719,0.011719 0.11328,0.015625 0.23047,0.027344 0.46094,0.050781 0.92578,0.117188 0.11718,0.015625 0.11329,0.015625 0.6914,0.09375 0.92578,0.132812 1.84766,0.296875 0.45312,0.078125 0.45313,0.082031 0.90625,0.167969 1.81641,0.367188 0.11328,0.027343 0.33984,0.070313 0.45313,0.101562 0.90625,0.210938 1.8164,0.445312 0.42188,0.109375 0.42187,0.113282 0.84766,0.234375 1.6914,0.492187 0.10547,0.035156 0.31641,0.09375 0.42578,0.132813 0.84375,0.273437 1.69141,0.574219 0.11718,0.03906 0.11329,0.03906 0.23046,0.08203 0.45704,0.167969 0.91796,0.339844 1.83594,0.726562 0.22656,0.09375 0.23047,0.09375 0.46094,0.191407 0.91406,0.398437 1.83594,0.835938 0.10938,0.05078 0.10546,0.05078 0.21485,0.101563 0.42578,0.207031 0.85937,0.425781 1.71094,0.894531 0.10938,0.05469 0.10547,0.05859 0.21484,0.117187 0.42578,0.238281 0.85938,0.484375 1.71093,1.019532 0.10547,0.0625 0.10547,0.06641 0.21094,0.128906 0.41797,0.265625 0.83984,0.542969 1.67969,1.136719 0.42187,0.296875 0.41797,0.304687 0.83985,0.617188 1.67968,1.308593 0.11328,0.08984 0.33985,0.28125 0.45703,0.375 0.91016,0.78125 1.82421,1.65625 0.11329,0.105469 0.33984,0.328125 0.45703,0.449219 0.91016,0.921875 1.82422,1.980468 0.10546,0.121094 0.10547,0.125 0.21094,0.246094 0.42578,0.503906 0.85156,1.046875 0.10547,0.132813 0.10547,0.136718 0.21485,0.273438 0.42187,0.558594 0.85156,1.167968 0.10547,0.148438 0.10547,0.152344 0.21484,0.308593 0.42579,0.628907 0.84765,1.324218 0.10547,0.171875 0.10938,0.175782 0.21093,0.351562 0.42578,0.726563 0.84766,1.542968 0.12109,0.226563 0.11719,0.230469 0.23828,0.46875 0.47266,0.976562 0.12109,0.253906 0.11719,0.257813 0.23828,0.527344 0.47266,1.113281 0.12109,0.289062 0.11719,0.296875 0.23828,0.613282 0.47266,1.316406 0.12109,0.347656 0.11719,0.359375 0.23828,0.75 0.47266,1.664063 0.11718,0.460937 0.1211,0.480469 0.11718,0.503906 0.1211,0.535156 0.11719,0.566407 0.11718,0.613281 0.1211,0.664062 0.11718,0.730469 0.11719,0.828125 0.1211,0.972656 0.11718,1.234375 0.11719,2.082032 0.0195,0.742187"
             id="path2" />
          <g
             clip-path="url(#clip1-3)"
             clip-rule="nonzero"
             id="g3"
             style="fill:none;stroke:#000000;stroke-width:0.745511;stroke-dasharray:none;stroke-opacity:1">
            <path
               style="fill:none;stroke:#000000;stroke-width:0.745511;stroke-linecap:square;stroke-linejoin:miter;stroke-miterlimit:3.25;stroke-dasharray:none;stroke-opacity:1"
               d="M 9.554688,60.554688 9.636719,62.75 l 0.105469,1.328125 0.109375,0.988281 0.105468,0.824219 0.105469,0.722656 0.105469,0.648438 0.105469,0.59375 0.105468,0.550781 0.214844,1.007813 0.105469,0.460937 0.105469,0.441406 0.210937,0.828125 0.425781,1.488282 0.105469,0.34375 0.105469,0.335937 0.210937,0.644531 0.425782,1.199219 0.210937,0.5625 0.210938,0.539063 0.425781,1.027343 0.847656,1.871094 0.113281,0.238281 0.117188,0.234375 0.226562,0.460938 0.460938,0.882812 0.917969,1.644532 0.117187,0.195312 0.113281,0.195313 0.230469,0.378906 0.460938,0.742187 0.917968,1.398438 0.117188,0.167969 0.113281,0.167968 0.230469,0.328125 0.460937,0.644532 L 19.5,88.0625 l 1.839844,2.25 0.105469,0.125 0.105468,0.121094 0.214844,0.246094 0.429688,0.480468 0.859375,0.925782 1.714843,1.734375 0.109375,0.105468 0.105469,0.101563 0.214844,0.207031 0.429687,0.402344 0.859375,0.785156 1.714844,1.476563 0.105469,0.08594 0.105469,0.08984 0.210937,0.171875 0.421875,0.339844 0.839844,0.660156 1.683594,1.253906 0.105468,0.07813 0.738282,0.519531 0.839843,0.57422 1.683594,1.09765 0.113281,0.0742 0.113282,0.0703 0.230468,0.14063 0.457032,0.28125 0.910156,0.54687 1.828125,1.03516 0.453125,0.25 0.457031,0.24219 0.914063,0.47265 1.824218,0.90235 0.109375,0.0508 0.105469,0.0508 0.210938,0.0977 0.425781,0.19921 0.855469,0.38672 1.703125,0.73438 0.210937,0.0859 0.214844,0.0898 0.425781,0.17187 0.851563,0.33594 1.703125,0.64063 0.117187,0.043 0.113281,0.043 0.230469,0.082 0.464844,0.16015 0.921875,0.31641 1.847656,0.59375 0.113281,0.0391 0.117188,0.0352 0.230469,0.0703 0.460937,0.13672 0.921875,0.26953 1.847656,0.5 0.113282,0.0312 0.113281,0.0273 0.226562,0.0586 0.453125,0.11328 0.90625,0.21875 1.8125,0.41015 0.113282,0.0234 0.113281,0.0273 0.679687,0.14062 0.90625,0.17969 1.8125,0.33203 0.105469,0.0156 0.105469,0.0195 0.214844,0.0352 0.421875,0.0703 0.84375,0.13282 0.421875,0.0625 0.425781,0.0625 0.84375,0.11718 0.210937,0.0312 0.210938,0.0273 0.425781,0.0547 0.84375,0.10156 0.84375,0.0937 0.847656,0.0859 0.113282,0.0117 0.117187,0.0117 0.226563,0.0234 0.460937,0.0391 0.113281,0.0117 0.113282,0.008 0.230468,0.0195 0.457032,0.0391 0.117187,0.008 0.113281,0.0117 0.230469,0.0156 0.457031,0.0352 0.917969,0.0586 0.226563,0.0156 0.230468,0.0117 0.457032,0.0234 0.117187,0.008 0.113281,0.004 0.230469,0.0117 0.457031,0.0234 0.117188,0.004 0.113281,0.004 0.230469,0.008 0.113281,0.004 0.113281,0.008 0.230469,0.008 0.113281,0.004 0.117188,0.004 0.226562,0.004 0.460938,0.0156 h 0.105469 l 0.105468,0.004 0.214844,0.004 0.109375,0.004 h 0.105469 l 0.214844,0.004 0.105468,0.004 h 0.214844 l 0.105469,0.004 h 0.214844 l 0.105468,0.004 H 79.71875 L 79.824219,114 H 81 l 0.109375,-0.004 h 0.425781 l 0.109375,-0.004 h 0.210938 l 0.214844,-0.004 0.109375,-0.004 h 0.105468 L 82.5,113.98 l 0.105469,-0.004 h 0.105469 l 0.214843,-0.004 0.109375,-0.004 0.105469,-0.004 0.214844,-0.004 0.105469,-0.004 0.109375,-0.004 0.210937,-0.004 0.109375,-0.004 0.105469,-0.004 0.214844,-0.008 0.425781,-0.0156 0.210937,-0.008 0.210938,-0.0117 0.417969,-0.0156 0.105468,-0.008 0.105469,-0.004 0.210938,-0.0117 0.417968,-0.0195 0.105469,-0.008 0.105469,-0.004 0.207031,-0.0117 0.421875,-0.0273 0.839844,-0.0547 0.105469,-0.004 0.101562,-0.008 0.210938,-0.0156 0.417968,-0.0312 0.839844,-0.0703 0.210938,-0.0156 0.210937,-0.0195 0.417969,-0.0352 0.839844,-0.082 0.113281,-0.0117 0.113281,-0.008 0.226563,-0.0234 0.457031,-0.0508 0.910156,-0.0977 1.820313,-0.22266 0.226562,-0.0312 0.230469,-0.0273 0.453125,-0.0625 0.910156,-0.12891 1.820313,-0.27734 0.109375,-0.0156 0.105468,-0.0195 0.210938,-0.0352 0.425781,-0.0703 0.847655,-0.14453 1.69922,-0.30468 0.10547,-0.0195 0.10937,-0.0195 0.21094,-0.043 0.42578,-0.082 0.84766,-0.16797 1.69922,-0.35156 0.11719,-0.0234 0.11328,-0.0273 0.23047,-0.0469 0.46093,-0.10157 0.92188,-0.20703 1.83984,-0.43359 3.6836,-0.94531 0.11328,-0.0273 0.33984,-0.0937 0.44922,-0.125 0.90625,-0.25 1.80859,-0.52344 3.61328,-1.10937 6.7461,-2.29297 7.3125,-2.75781 6.82812,-2.761721 7.39844,-3.066406 7.26562,-2.90625 0.21094,-0.07813 0.21094,-0.08203 0.42578,-0.160156 0.84375,-0.316406 1.69531,-0.617188 0.10547,-0.03516 0.10547,-0.03906 0.21094,-0.07422 0.42578,-0.148438 0.84766,-0.289062 1.6914,-0.558594 0.11719,-0.03906 0.11328,-0.03516 0.23047,-0.07422 0.45703,-0.140625 0.92188,-0.28125 1.83593,-0.519532 0.11328,-0.03125 0.11719,-0.03125 0.22656,-0.0625 0.46094,-0.117187 0.91797,-0.230469 1.83594,-0.414062 0.10937,-0.02344 0.10547,-0.02344 0.64453,-0.128907 0.85547,-0.160156 0.10938,-0.01953 0.10547,-0.01953 0.64453,-0.105469 0.85547,-0.132813 0.10937,-0.01563 0.10547,-0.01563 0.21484,-0.03125 0.42969,-0.05469 0.10547,-0.01563 0.10937,-0.01172 0.21094,-0.02734 0.42969,-0.05078 0.10937,-0.01172 0.10547,-0.0078 0.21485,-0.02344 0.42968,-0.04297 0.10547,-0.0078 0.10938,-0.01172 0.21094,-0.01953 0.42968,-0.03125 0.52735,-0.03906 0.10547,-0.0039 0.20703,-0.01172 0.10547,-0.0078 0.10546,-0.0039 0.21094,-0.01172 0.21094,-0.0078 0.21094,-0.01172 0.10156,-0.0039 0.10547,-0.0039 h 0.10547 l 0.3164,-0.01172 h 0.10547 l 0.10547,-0.0039 h 0.10547 l 0.10547,-0.0039 h 0.10156 l 0.10547,-0.0039 h 0.94531 l 0.10547,0.0039 h 0.21094 l 0.10547,0.0039 h 0.10547 l 0.21093,0.0078 h 0.10547 l 0.10156,0.0039 0.73829,0.02734 0.10546,0.0078 0.20704,0.0078 0.10546,0.0078 0.10547,0.0039 0.21094,0.01563 0.42188,0.02734 0.22656,0.01563 0.22656,0.01953 0.45703,0.03906 0.11328,0.0078 0.11328,0.01172 0.23047,0.02344 0.45703,0.04687 0.11329,0.01172 0.11328,0.01563 0.22656,0.02344 0.45703,0.05859 0.91016,0.125 0.11718,0.01563 0.11329,0.01953 0.22656,0.03516 0.45703,0.07422 0.91016,0.15625 0.11718,0.01953 0.11328,0.02344 0.22657,0.04297 0.45703,0.08984 0.91015,0.1875 0.10938,0.02344 0.31641,0.07031 0.42578,0.09766 0.85156,0.199218 1.70312,0.441407 0.21094,0.05469 0.21485,0.05859 0.42578,0.121094 0.84765,0.246093 1.70313,0.519532 0.11719,0.03906 0.11328,0.03516 0.23047,0.07422 1.38281,0.457031 1.84765,0.640625 3.6875,1.371094 7.24219,2.90625 6.75781,2.800781 7.32813,2.964846 6.83984,2.58203 6.70313,2.28906 0.11328,0.0391 0.11719,0.0352 0.22656,0.0742 0.45312,0.14453 0.91016,0.28125 1.82031,0.55078 3.63672,1.03516 0.10547,0.0312 0.10547,0.0273 0.21094,0.0586 0.42578,0.11328 0.84765,0.22266 1.69922,0.42968 0.10547,0.0234 0.10547,0.0273 0.21094,0.0508 0.42578,0.10156 0.84766,0.20312 1.69921,0.38672 0.11329,0.0234 0.11718,0.0273 0.22657,0.0508 0.46093,0.0977 0.92188,0.19141 1.83984,0.36718 0.22656,0.0469 0.69141,0.12891 0.92188,0.16406 1.83984,0.3125 0.10547,0.0195 0.10937,0.0156 0.21485,0.0352 0.42578,0.0664 0.85937,0.13281 1.71875,0.24219 0.10938,0.0117 0.10547,0.0156 0.64453,0.082 0.85937,0.10547 1.71875,0.19531 0.10547,0.008 0.10547,0.0117 0.20703,0.0234 0.42188,0.0391 0.84375,0.082 0.21093,0.0156 0.21094,0.0195 0.41797,0.0352 0.84375,0.0664 0.94922,0.0703 0.10156,0.004 0.21094,0.0156 0.42187,0.0273 0.10547,0.004 0.10547,0.008 0.63281,0.0352 0.83985,0.0391 0.11719,0.008 0.33984,0.0117 0.45703,0.0195 0.11328,0.004 0.11719,0.004 0.22656,0.008 0.45703,0.0156 0.11328,0.004 h 0.11329 l 0.23046,0.008 h 0.11329 l 0.11328,0.004 0.23047,0.004 0.22656,0.008 h 0.11719 l 0.11328,0.004 h 0.22656 l 0.11328,0.004 h 0.23047 l 0.11328,0.004 h 0.34375 l 0.11328,0.004 h 1.14063 l 0.11718,-0.004 h 0.33985 l 0.11328,-0.004 h 0.23047 l 0.11328,-0.004 h 0.11328 l 0.11719,-0.004 0.22656,-0.004 h 0.11328 l 0.11719,-0.004 0.22656,-0.004 0.10547,-0.004 h 0.10938 l 0.3164,-0.0117 h 0.10938 l 0.21093,-0.008 0.10938,-0.004 0.31641,-0.0117 0.42968,-0.0156 0.21094,-0.008 0.21484,-0.008 0.42579,-0.0195 0.10546,-0.004 0.10547,-0.008 0.21485,-0.0117 0.42578,-0.0234 0.10547,-0.004 0.10937,-0.008 0.21094,-0.0117 0.42578,-0.0273 0.85156,-0.0586 0.10938,-0.008 0.10547,-0.008 0.21484,-0.0156 0.42578,-0.0352 0.85156,-0.0742 0.11719,-0.008 0.11328,-0.0117 0.23047,-0.0234 0.46094,-0.043 0.92578,-0.0977 0.11719,-0.0117 0.11328,-0.0156 0.23047,-0.0273 0.46094,-0.0508 0.92578,-0.11719 0.11718,-0.0156 0.11329,-0.0156 0.6914,-0.0937 0.92578,-0.13281 1.84766,-0.29688 0.45312,-0.0781 0.45313,-0.082 0.90625,-0.16796 1.81641,-0.36719 0.11328,-0.0273 0.33984,-0.0703 0.45313,-0.10156 0.90625,-0.21094 1.8164,-0.44531 0.42188,-0.10938 0.42187,-0.11328 0.84766,-0.23437 1.6914,-0.49219 0.10547,-0.0352 0.31641,-0.0937 0.42578,-0.13281 0.84375,-0.27344 1.69141,-0.57421 0.11718,-0.0391 0.11329,-0.0391 0.23046,-0.082 0.45704,-0.16797 0.91796,-0.33984 1.83594,-0.72657 0.22656,-0.0937 0.23047,-0.0937 0.46094,-0.1914 0.91406,-0.39844 1.83594,-0.83594 0.10938,-0.0508 0.10546,-0.0508 0.21485,-0.10156 0.42578,-0.20703 0.85937,-0.42578 1.71094,-0.89454 0.10938,-0.0547 0.10547,-0.0586 0.21484,-0.11718 0.42578,-0.23829 0.85938,-0.48437 1.71093,-1.01953 0.10547,-0.0625 0.10547,-0.0664 0.21094,-0.1289 0.41797,-0.26563 0.83984,-0.54297 1.67969,-1.13672 0.42187,-0.296874 0.41797,-0.304688 0.83985,-0.617187 1.67968,-1.308594 0.11328,-0.08984 0.33985,-0.28125 0.45703,-0.375 0.91016,-0.78125 1.82421,-1.65625 0.11329,-0.105469 0.33984,-0.328125 0.45703,-0.449218 0.91016,-0.921875 1.82422,-1.980469 0.10546,-0.121094 0.10547,-0.125 0.21094,-0.246094 0.42578,-0.503906 0.85156,-1.046875 0.10547,-0.132812 0.10547,-0.136719 0.21485,-0.273438 0.42187,-0.558593 0.85156,-1.167969 0.10547,-0.148438 0.10547,-0.152343 0.21484,-0.308594 0.42579,-0.628906 0.84765,-1.324219 0.10547,-0.171875 0.10938,-0.175781 0.21093,-0.351563 0.42578,-0.726562 0.84766,-1.542969 0.12109,-0.226563 0.11719,-0.230468 0.23828,-0.46875 0.47266,-0.976563 0.12109,-0.253906 0.11719,-0.257813 0.23828,-0.527343 0.47266,-1.113282 0.12109,-0.289062 0.11719,-0.296875 0.23828,-0.613281 0.47266,-1.316407 0.12109,-0.347656 0.11719,-0.359375 0.23828,-0.75 0.47266,-1.664062 0.11718,-0.460938 0.1211,-0.480469 0.11718,-0.503906 0.1211,-0.535156 0.11719,-0.566406 0.11718,-0.613282 0.1211,-0.664062 0.11718,-0.730469 0.11719,-0.828125 0.1211,-0.972656 0.11718,-1.234375 0.11719,-2.082031 0.0195,-0.742188"
               id="path3" />
          </g>
        </g>
      </g>
      <path
         style="opacity:1;fill:none;stroke:#000000;stroke-width:1.17543;stroke-dasharray:none;stroke-opacity:1"
         d="m 185.24734,268.97383 c 49.20052,-11.21328 99.64598,-16.95504 150.10796,-17.08545 44.87839,-0.11598 89.78268,4.20503 133.7546,13.1802 42.80193,8.73636 84.92543,21.97398 123.5034,42.46956 26.86964,14.27522 51.89854,32.02257 74.1997,52.72082 18.32133,17.00448 35.01777,36.32781 45.3985,59.06685 11.47289,25.13143 14.7143,53.77037 10.2513,81.03385 -4.04257,24.6952 -14.30455,48.30062 -29.2894,68.34181 -16.47615,22.0357 -38.37839,39.58125 -61.9957,53.69714 -19.94885,11.92328 -41.25696,21.55281 -63.33822,28.80119 -8.51818,2.79617 -17.15211,5.23974 -25.87225,7.32233"
         id="path11"
         inkscape:path-effect="#path-effect11"
         inkscape:original-d="m 185.24734,268.97383 c 54.5107,-8.78681 95.59716,-9.27496 150.10796,-17.08545 54.5107,-7.8105 88.8443,8.46136 133.7546,13.1802 44.9104,4.71884 82.4984,28.63847 123.5034,42.46956 41.0051,13.83108 49.4665,35.30993 74.1997,52.72082 24.7332,17.41089 30.2657,39.21518 45.3985,59.06685 15.1328,19.85166 6.5088,54.02257 10.2513,81.03385 3.7425,27.01129 -19.3635,45.39849 -29.2894,68.34181 -9.9258,22.94332 -41.005,35.96081 -61.9957,53.69714 -20.9907,17.73632 -42.51032,18.71264 -63.33822,28.80119 -20.828,10.08856 -17.41095,4.88155 -25.87225,7.32233"
         sodipodi:nodetypes="csssssssssc" />
    </g>
  </g>
</svg>
