<?xml version="1.0" encoding="UTF-8" standalone="no"?>
<svg
   width="338.25pt"
   height="216.375pt"
   viewBox="0 0 338.25 216.375"
   version="1.1"
   id="svg117"
   sodipodi:docname="eps28ReExp.svg"
   inkscape:version="1.4.2 (f4327f4, 2025-05-13)"
   xmlns:inkscape="http://www.inkscape.org/namespaces/inkscape"
   xmlns:sodipodi="http://sodipodi.sourceforge.net/DTD/sodipodi-0.dtd"
   xmlns:xlink="http://www.w3.org/1999/xlink"
   xmlns="http://www.w3.org/2000/svg"
   xmlns:svg="http://www.w3.org/2000/svg">
  <sodipodi:namedview
     id="namedview117"
     pagecolor="#ffffff"
     bordercolor="#000000"
     borderopacity="0.25"
     inkscape:showpageshadow="2"
     inkscape:pageopacity="0.0"
     inkscape:pagecheckerboard="0"
     inkscape:deskcolor="#d1d1d1"
     inkscape:document-units="pt"
     inkscape:zoom="1.8584412"
     inkscape:cx="233.26"
     inkscape:cy="133.71421"
     inkscape:window-width="1920"
     inkscape:window-height="1094"
     inkscape:window-x="2038"
     inkscape:window-y="-11"
     inkscape:window-maximized="1"
     inkscape:current-layer="svg117" />
  <defs
     id="defs14">
    <g
       id="g11">
      <symbol
         overflow="visible"
         id="glyph0-0">
        <path
           style="stroke:none"
           d=""
           id="path1" />
      </symbol>
      <symbol
         overflow="visible"
         id="glyph0-1">
        <path
           style="stroke:none"
           d="M 6.285156,0 V -0.464844 H 5.804688 C 5.359375,-0.457031 5.039063,-0.480469 4.839844,-0.527344 4.640625,-0.570313 4.515625,-0.644531 4.46875,-0.75 4.417969,-0.855469 4.398438,-1 4.410156,-1.183594 V -9.597656 C 4.414063,-9.769531 4.398438,-9.878906 4.363281,-9.929688 4.328125,-9.972656 4.230469,-9.992188 4.066406,-9.988281 3.746094,-9.671875 3.40625,-9.445313 3.050781,-9.3125 2.6875,-9.171875 2.351563,-9.089844 2.046875,-9.0625 1.734375,-9.03125 1.5,-9.019531 1.335938,-9.027344 v 0.460938 C 1.5,-8.558594 1.765625,-8.574219 2.136719,-8.613281 2.507813,-8.652344 2.894531,-8.765625 3.300781,-8.953125 v 7.769531 c 0.00391,0.179688 -0.015625,0.324219 -0.0625,0.429688 C 3.1875,-0.648438 3.0625,-0.574219 2.867188,-0.527344 2.664063,-0.480469 2.34375,-0.457031 1.90625,-0.464844 H 1.425781 V 0 c 0.179688,-0.015625 0.425782,-0.0234375 0.730469,-0.03125 0.300781,-0.0039063 0.605469,-0.0078125 0.917969,-0.0117188 0.308594,0 0.570312,-0.0039062 0.78125,-0.0039062 0.207031,0 0.464844,0.0039062 0.777344,0.0039062 C 4.941406,-0.0390625 5.25,-0.0351563 5.554688,-0.03125 5.855469,-0.0234375 6.097656,-0.015625 6.285156,0 Z m 0,0"
           id="path2" />
      </symbol>
      <symbol
         overflow="visible"
         id="glyph0-2">
        <path
           style="stroke:none"
           d="M 2.878906,-0.796875 C 2.871094,-1.015625 2.792969,-1.199219 2.644531,-1.355469 2.488281,-1.503906 2.304688,-1.582031 2.085938,-1.589844 c -0.226563,0.00781 -0.414063,0.085938 -0.5625,0.234375 -0.148438,0.15625 -0.226563,0.339844 -0.234375,0.558594 0.00781,0.226562 0.085937,0.414062 0.234375,0.5625 0.148437,0.1484375 0.335937,0.2265625 0.5625,0.234375 0.21875,-0.0078125 0.402343,-0.0859375 0.558593,-0.234375 0.148438,-0.148438 0.226563,-0.335938 0.234375,-0.5625 z m 0,0"
           id="path3" />
      </symbol>
      <symbol
         overflow="visible"
         id="glyph0-3">
        <path
           style="stroke:none"
           d="M 6.734375,-3.015625 C 6.726563,-3.613281 6.601563,-4.160156 6.355469,-4.660156 6.105469,-5.152344 5.769531,-5.546875 5.34375,-5.84375 4.914063,-6.136719 4.425781,-6.289063 3.882813,-6.300781 c -0.363282,0.00391 -0.703125,0.066406 -1.019532,0.1875 -0.320312,0.125 -0.613281,0.316406 -0.882812,0.578125 v -2.925782 c 0.152344,0.046875 0.339844,0.09375 0.566406,0.132813 0.222656,0.042969 0.457031,0.0625 0.707031,0.0625 C 3.867188,-8.277344 4.390625,-8.398438 4.824219,-8.625 5.25,-8.851563 5.578125,-9.085938 5.808594,-9.332031 6.03125,-9.578125 6.144531,-9.742188 6.148438,-9.824219 6.144531,-9.867188 6.132813,-9.90625 6.113281,-9.941406 6.085938,-9.96875 6.050781,-9.984375 6,-9.988281 c 0,0 -0.011719,0 -0.03125,0.00391 -0.023437,0.00781 -0.054687,0.023437 -0.089844,0.039062 -0.15625,0.082032 -0.40625,0.171875 -0.757812,0.269532 -0.351563,0.105468 -0.78125,0.160156 -1.28125,0.167968 -0.304688,0.00391 -0.625,-0.027343 -0.960938,-0.09375 C 2.539063,-9.660156 2.195313,-9.769531 1.84375,-9.929688 1.78125,-9.949219 1.734375,-9.960938 1.707031,-9.96875 c -0.03125,0 -0.042968,-0.00391 -0.042968,-0.00391 -0.070313,0 -0.113282,0.03125 -0.128907,0.089843 -0.015625,0.058594 -0.023437,0.148438 -0.019531,0.265625 v 4.441407 c -0.00781,0.140625 0,0.238281 0.023438,0.296875 0.019531,0.066406 0.082031,0.097656 0.1875,0.09375 0.046875,0.00391 0.085937,-0.00781 0.113281,-0.03125 0.023437,-0.023438 0.050781,-0.058594 0.082031,-0.105469 0.050781,-0.085938 0.148438,-0.210938 0.300781,-0.378906 0.148438,-0.160157 0.359375,-0.308594 0.625,-0.449219 0.265625,-0.132813 0.601563,-0.207031 1.007813,-0.222656 0.382812,0.027343 0.675781,0.152343 0.882812,0.382812 0.203125,0.230469 0.332032,0.425781 0.390625,0.578125 0.113282,0.28125 0.191407,0.570313 0.226563,0.875 0.03125,0.304688 0.046875,0.644531 0.046875,1.019531 0.00781,0.273438 -0.00781,0.601563 -0.046875,0.984375 C 5.316406,-1.75 5.210938,-1.394531 5.039063,-1.066406 4.859375,-0.769531 4.632813,-0.53125 4.359375,-0.355469 4.085938,-0.179688 3.777344,-0.0898438 3.433594,-0.0898438 2.878906,-0.0976563 2.40625,-0.269531 2.015625,-0.597656 1.625,-0.921875 1.363281,-1.3125 1.230469,-1.769531 1.25,-1.761719 1.277344,-1.753906 1.3125,-1.75 c 0.03125,0.00781 0.085938,0.011719 0.171875,0.00781 0.242188,-0.00391 0.429688,-0.082031 0.558594,-0.230468 0.125,-0.144532 0.1875,-0.3125 0.191406,-0.503907 -0.00391,-0.183593 -0.066406,-0.351562 -0.191406,-0.5 C 1.914063,-3.121094 1.726563,-3.199219 1.484375,-3.210938 1.359375,-3.21875 1.210938,-3.171875 1.039063,-3.070313 0.859375,-2.96875 0.765625,-2.75 0.75,-2.414063 c 0,0.441407 0.109375,0.871094 0.332031,1.285157 0.214844,0.417968 0.527344,0.761718 0.933594,1.035156 0.402344,0.269531 0.882813,0.410156 1.449219,0.421875 0.585937,-0.007812 1.128906,-0.152344 1.621094,-0.441406 0.492187,-0.289063 0.886718,-0.6875 1.1875,-1.1875 0.296875,-0.5 0.449218,-1.070313 0.460937,-1.714844 z m 0,0"
           id="path4" />
      </symbol>
      <symbol
         overflow="visible"
         id="glyph0-4">
        <path
           style="stroke:none"
           d="m 6.734375,-2.609375 h -0.375 c -0.039062,0.242187 -0.082031,0.492187 -0.136719,0.75 C 6.167969,-1.59375 6.101563,-1.398438 6.03125,-1.273438 5.984375,-1.230469 5.871094,-1.203125 5.6875,-1.1875 5.5,-1.167969 5.304688,-1.15625 5.097656,-1.15625 c -0.210937,0.00781 -0.375,0.00781 -0.492187,0.00391 H 1.90625 l 1.589844,-1.546875 c 0.773437,-0.675781 1.398437,-1.25 1.878906,-1.722656 0.472656,-0.46875 0.820313,-0.90625 1.039063,-1.316406 0.214843,-0.402344 0.320312,-0.851563 0.320312,-1.34375 -0.023437,-0.863282 -0.324219,-1.5625 -0.902344,-2.09375 -0.585937,-0.527344 -1.34375,-0.796875 -2.277343,-0.8125 -0.570313,0.011718 -1.0625,0.148437 -1.480469,0.40625 -0.421875,0.265625 -0.75,0.601562 -0.976563,1.011718 C 0.863281,-8.160156 0.75,-7.726563 0.75,-7.273438 0.757813,-6.996094 0.820313,-6.800781 0.945313,-6.683594 1.0625,-6.5625 1.1875,-6.488281 1.316406,-6.464844 1.441406,-6.4375 1.519531,-6.429688 1.546875,-6.4375 1.6875,-6.429688 1.847656,-6.484375 2.03125,-6.601563 2.207031,-6.714844 2.304688,-6.925781 2.324219,-7.230469 2.320313,-7.433594 2.253906,-7.609375 2.121094,-7.765625 1.988281,-7.914063 1.789063,-7.996094 1.53125,-8.007813 c -0.0625,0.00391 -0.101562,0.00391 -0.125,0.00391 -0.027344,0 -0.050781,0.00391 -0.070312,0.011718 0.179687,-0.492187 0.449218,-0.867187 0.8125,-1.132812 0.363281,-0.261719 0.765625,-0.398438 1.210937,-0.402344 0.453125,0.00781 0.832031,0.128906 1.128906,0.363281 0.296875,0.234375 0.515625,0.535157 0.664063,0.902344 0.140625,0.371094 0.214844,0.765625 0.21875,1.179688 C 5.351563,-6.472656 5.191406,-5.886719 4.890625,-5.320313 4.582031,-4.75 4.21875,-4.230469 3.796875,-3.765625 L 0.914063,-0.554688 C 0.835938,-0.480469 0.785156,-0.414063 0.769531,-0.351563 0.75,-0.289063 0.746094,-0.171875 0.75,0 h 5.5625 z m 0,0"
           id="path5" />
      </symbol>
      <symbol
         overflow="visible"
         id="glyph0-5">
        <path
           style="stroke:none"
           d="M 6.898438,-4.800781 C 6.902344,-5.398438 6.867188,-5.996094 6.792969,-6.589844 6.714844,-7.179688 6.550781,-7.753906 6.300781,-8.3125 5.925781,-9.007813 5.492188,-9.464844 5,-9.6875 4.5,-9.90625 4.085938,-10.007813 3.75,-9.988281 3.285156,-10 2.8125,-9.878906 2.335938,-9.621094 1.855469,-9.363281 1.457031,-8.890625 1.140625,-8.207031 0.902344,-7.683594 0.75,-7.136719 0.679688,-6.5625 c -0.070313,0.574219 -0.101563,1.164062 -0.09375,1.761719 -0.011719,0.578125 0.023437,1.179687 0.105468,1.804687 0.082032,0.632813 0.269532,1.234375 0.570313,1.8125 C 1.597656,-0.589844 2,-0.1875 2.460938,0.0273438 2.921875,0.238281 3.34375,0.339844 3.734375,0.328125 4.152344,0.34375 4.605469,0.234375 5.09375,-0.00390625 5.578125,-0.242188 5.996094,-0.710938 6.34375,-1.410156 6.574219,-1.929688 6.726563,-2.476563 6.800781,-3.046875 6.871094,-3.617188 6.902344,-4.199219 6.898438,-4.800781 Z M 5.65625,-4.980469 c 0,0.5625 -0.00781,1.101563 -0.023437,1.617188 C 5.613281,-2.847656 5.566406,-2.351563 5.492188,-1.875 5.359375,-1.171875 5.125,-0.679688 4.78125,-0.402344 4.4375,-0.125 4.085938,0.0078125 3.734375,0 3.417969,0.015625 3.089844,-0.105469 2.746094,-0.363281 2.398438,-0.621094 2.148438,-1.101563 1.996094,-1.8125 1.914063,-2.28125 1.863281,-2.8125 1.847656,-3.402344 1.828125,-3.988281 1.824219,-4.515625 1.828125,-4.980469 c -0.00391,-0.484375 0,-0.960937 0.015625,-1.433594 0.011719,-0.472656 0.046875,-0.914062 0.105469,-1.328125 0.101562,-0.582031 0.269531,-1.011718 0.503906,-1.289062 0.230469,-0.273438 0.46875,-0.449219 0.714844,-0.527344 0.238281,-0.074219 0.425781,-0.109375 0.566406,-0.101562 0.167969,-0.00391 0.375,0.039062 0.613281,0.125 0.238282,0.09375 0.464844,0.265625 0.679688,0.515625 0.214844,0.257812 0.371094,0.628906 0.476562,1.113281 0.070313,0.433594 0.117188,0.90625 0.132813,1.425781 0.015625,0.519531 0.019531,1.019531 0.019531,1.5 z m 0,0"
           id="path6" />
      </symbol>
      <symbol
         overflow="visible"
         id="glyph0-6">
        <path
           style="stroke:none"
           d="M 6.855469,-2.5625 C 6.847656,-3.191406 6.625,-3.761719 6.1875,-4.265625 5.75,-4.765625 5.136719,-5.101563 4.351563,-5.28125 4.972656,-5.488281 5.476563,-5.832031 5.859375,-6.304688 6.242188,-6.777344 6.4375,-7.316406 6.449219,-7.921875 6.421875,-8.542969 6.140625,-9.039063 5.609375,-9.414063 5.070313,-9.785156 4.433594,-9.976563 3.691406,-9.988281 c -0.773437,0.015625 -1.40625,0.214843 -1.898437,0.59375 -0.492188,0.382812 -0.746094,0.863281 -0.757813,1.445312 0.00391,0.25 0.078125,0.441406 0.21875,0.574219 0.140625,0.136719 0.320313,0.203125 0.546875,0.203125 C 2.03125,-7.175781 2.21875,-7.246094 2.355469,-7.390625 2.492188,-7.527344 2.5625,-7.710938 2.566406,-7.933594 2.539063,-8.292969 2.410156,-8.511719 2.183594,-8.589844 1.953125,-8.667969 1.769531,-8.699219 1.636719,-8.683594 c 0.25,-0.359375 0.574219,-0.605469 0.96875,-0.742187 0.390625,-0.128907 0.730469,-0.191407 1.023437,-0.191407 0.328125,-0.00781 0.648438,0.101563 0.953125,0.335938 0.304688,0.238281 0.464844,0.6875 0.488282,1.347656 0.00391,0.109375 -0.015625,0.335938 -0.066407,0.671875 -0.050781,0.34375 -0.171875,0.6875 -0.355468,1.035156 -0.234375,0.351563 -0.464844,0.570313 -0.695313,0.660157 -0.238281,0.089843 -0.449219,0.132812 -0.636719,0.121093 -0.070312,0.015625 -0.171875,0.023438 -0.300781,0.03125 -0.128906,0.00781 -0.222656,0.015625 -0.285156,0.015625 -0.0625,0.00781 -0.117188,0.019532 -0.160156,0.039063 -0.042969,0.023437 -0.066407,0.070312 -0.066407,0.140625 -0.00391,0.082031 0.027344,0.128906 0.085938,0.144531 0.054687,0.015625 0.144531,0.023438 0.273437,0.019531 H 3.523438 C 4.132813,-5.042969 4.585938,-4.8125 4.875,-4.359375 5.164063,-3.90625 5.308594,-3.304688 5.3125,-2.5625 5.300781,-1.886719 5.203125,-1.371094 5.015625,-1.015625 4.828125,-0.652344 4.605469,-0.40625 4.347656,-0.277344 4.085938,-0.140625 3.839844,-0.078125 3.613281,-0.0898438 3.265625,-0.078125 2.867188,-0.160156 2.421875,-0.328125 1.96875,-0.492188 1.601563,-0.792969 1.320313,-1.230469 1.585938,-1.195313 1.816406,-1.25 2.011719,-1.398438 2.199219,-1.542969 2.300781,-1.761719 2.3125,-2.054688 2.300781,-2.324219 2.214844,-2.53125 2.054688,-2.675781 1.886719,-2.816406 1.691406,-2.890625 1.472656,-2.894531 1.277344,-2.898438 1.09375,-2.835938 0.914063,-2.707031 0.734375,-2.574219 0.640625,-2.34375 0.632813,-2.023438 0.65625,-1.324219 0.953125,-0.761719 1.53125,-0.335938 2.105469,0.09375 2.816406,0.3125 3.660156,0.328125 4.273438,0.320313 4.820313,0.183594 5.300781,-0.0820313 5.777344,-0.347656 6.15625,-0.695313 6.433594,-1.132813 6.707031,-1.566406 6.847656,-2.042969 6.855469,-2.5625 Z m 0,0"
           id="path7" />
      </symbol>
      <symbol
         overflow="visible"
         id="glyph0-7">
        <path
           style="stroke:none"
           d="M 7.0625,-2.476563 V -2.9375 h -1.5 v -6.828125 c 0,-0.144531 -0.00781,-0.246094 -0.03125,-0.304688 -0.023437,-0.05469 -0.09375,-0.08203 -0.207031,-0.08203 -0.066406,-0.0039 -0.117188,0.0039 -0.15625,0.02344 -0.039063,0.01953 -0.089844,0.07031 -0.144531,0.15625 L 0.421875,-2.9375 v 0.460937 h 3.988281 v 1.308594 c 0.019532,0.269531 -0.03125,0.453125 -0.152343,0.554688 -0.128907,0.105468 -0.457032,0.15625 -0.988282,0.148437 h -0.3125 V 0 c 0.308594,-0.0195313 0.644532,-0.03125 1.003907,-0.0390625 0.359375,-0.0039063 0.699218,-0.0078125 1.019531,-0.0078125 0.320312,0 0.660156,0.0039062 1.023437,0.0078125 C 6.363281,-0.03125 6.703125,-0.0195313 7.019531,0 V -0.464844 H 6.703125 C 6.171875,-0.457031 5.84375,-0.507813 5.71875,-0.613281 5.59375,-0.714844 5.539063,-0.898438 5.5625,-1.167969 V -2.476563 Z M 4.5,-2.9375 H 0.839844 L 4.5,-8.535156 Z m 0,0"
           id="path8" />
      </symbol>
      <symbol
         overflow="visible"
         id="glyph0-8">
        <path
           style="stroke:none"
           d="M 6.855469,-4.9375 C 6.839844,-6.265625 6.671875,-7.300781 6.359375,-8.039063 6.039063,-8.773438 5.648438,-9.285156 5.179688,-9.574219 4.710938,-9.863281 4.246094,-10 3.792969,-9.988281 c -0.414063,0 -0.800781,0.074218 -1.167969,0.21875 C 2.257813,-9.617188 1.910156,-9.375 1.589844,-9.042969 1.277344,-8.714844 1.042969,-8.367188 0.878906,-7.996094 0.714844,-7.625 0.632813,-7.164063 0.632813,-6.613281 0.648438,-5.652344 0.9375,-4.859375 1.5,-4.238281 c 0.558594,0.625 1.265625,0.945312 2.128906,0.96875 0.453125,-0.00781 0.839844,-0.148438 1.152344,-0.421875 0.308594,-0.273438 0.550781,-0.632813 0.726563,-1.078125 v 0.480468 C 5.492188,-3.132813 5.34375,-2.25 5.066406,-1.640625 4.789063,-1.03125 4.464844,-0.617188 4.089844,-0.398438 3.714844,-0.179688 3.375,-0.0742188 3.074219,-0.0898438 2.925781,-0.0742188 2.699219,-0.101563 2.394531,-0.167969 2.085938,-0.226563 1.824219,-0.382813 1.605469,-0.632813 1.925781,-0.640625 2.136719,-0.722656 2.242188,-0.878906 2.34375,-1.03125 2.390625,-1.175781 2.386719,-1.320313 2.375,-1.546875 2.300781,-1.71875 2.164063,-1.835938 2.019531,-1.945313 1.863281,-2.003906 1.695313,-2.007813 c -0.140625,-0.00391 -0.285157,0.042969 -0.4375,0.140625 -0.15625,0.101563 -0.242188,0.292969 -0.253907,0.578125 0.00391,0.507813 0.191407,0.90625 0.5625,1.1875 0.367188,0.281251 0.875,0.421876 1.523438,0.429688 C 3.742188,0.320313 4.355469,0.105469 4.925781,-0.320313 5.492188,-0.746094 5.953125,-1.351563 6.308594,-2.136719 6.660156,-2.921875 6.84375,-3.855469 6.855469,-4.9375 Z m -1.378906,-1.375 c 0,0.429687 -0.0625,0.847656 -0.183594,1.253906 -0.125,0.414063 -0.320313,0.753906 -0.589844,1.023438 C 4.433594,-3.761719 4.082031,-3.621094 3.644531,-3.613281 3.507813,-3.59375 3.300781,-3.632813 3.03125,-3.734375 2.753906,-3.828125 2.496094,-4.105469 2.25,-4.5625 2.117188,-4.839844 2.035156,-5.15625 2.011719,-5.511719 1.980469,-5.863281 1.972656,-6.226563 1.980469,-6.601563 c -0.00781,-0.402343 0.00391,-0.777343 0.035156,-1.128906 0.03125,-0.34375 0.125,-0.660156 0.28125,-0.941406 C 2.5,-9.039063 2.734375,-9.289063 3,-9.425781 c 0.261719,-0.132813 0.523438,-0.195313 0.792969,-0.191407 0.34375,0.011719 0.640625,0.125 0.882812,0.34375 0.242188,0.222657 0.425782,0.503907 0.558594,0.84375 0.085938,0.257813 0.148438,0.585938 0.1875,0.980469 0.03125,0.398438 0.050781,0.777344 0.054688,1.136719 z m 0,0"
           id="path9" />
      </symbol>
      <symbol
         overflow="visible"
         id="glyph0-9">
        <path
           style="stroke:none"
           d="M 6.855469,-3.058594 C 6.832031,-4.03125 6.539063,-4.824219 5.980469,-5.445313 5.414063,-6.0625 4.707031,-6.382813 3.855469,-6.402344 3.347656,-6.382813 2.945313,-6.226563 2.648438,-5.929688 2.347656,-5.632813 2.125,-5.296875 1.980469,-4.921875 V -5.28125 c 0.015625,-1.242188 0.183594,-2.179688 0.507812,-2.808594 0.320313,-0.621094 0.683594,-1.035156 1.09375,-1.242187 0.40625,-0.203125 0.75,-0.296875 1.023438,-0.285157 0.191406,0 0.414062,0.035157 0.671875,0.113282 0.253906,0.078125 0.46875,0.242187 0.648437,0.488281 C 5.789063,-9.027344 5.625,-9 5.425781,-8.929688 c -0.199218,0.070313 -0.308593,0.269532 -0.324218,0.589844 0.00391,0.234375 0.078125,0.40625 0.21875,0.519531 0.140625,0.113282 0.296875,0.167969 0.46875,0.167969 0.132812,0.00781 0.277343,-0.035156 0.433593,-0.136719 0.15625,-0.097656 0.242188,-0.292968 0.257813,-0.582031 C 6.476563,-8.828125 6.3125,-9.210938 5.992188,-9.515625 5.667969,-9.820313 5.195313,-9.976563 4.574219,-9.988281 c -0.65625,0.00391 -1.28125,0.210937 -1.875,0.625 -0.597656,0.414062 -1.089844,1.011718 -1.472656,1.789062 -0.386719,0.785156 -0.582032,1.730469 -0.59375,2.832031 0.007812,1.328125 0.171875,2.359375 0.5,3.097657 0.320312,0.742187 0.722656,1.257812 1.199218,1.550781 C 2.808594,0.199219 3.285156,0.339844 3.765625,0.328125 4.621094,0.3125 5.34375,-0.00390625 5.933594,-0.621094 6.519531,-1.238281 6.828125,-2.050781 6.855469,-3.058594 Z M 5.507813,-3.074219 C 5.511719,-2.707031 5.5,-2.347656 5.472656,-2 5.445313,-1.648438 5.371094,-1.335938 5.25,-1.0625 5.011719,-0.625 4.75,-0.351563 4.46875,-0.238281 4.183594,-0.121094 3.949219,-0.0703125 3.765625,-0.0898438 3.449219,-0.0976563 3.1875,-0.179688 2.980469,-0.332031 2.769531,-0.480469 2.609375,-0.644531 2.496094,-0.820313 2.378906,-0.996094 2.304688,-1.125 2.28125,-1.214844 2.1875,-1.457031 2.125,-1.730469 2.089844,-2.03125 2.050781,-2.332031 2.027344,-2.609375 2.019531,-2.863281 c -0.011718,-0.25 -0.015625,-0.425782 -0.00781,-0.527344 -0.00781,-0.398438 0.050781,-0.800781 0.171875,-1.210938 0.117187,-0.40625 0.3125,-0.75 0.582031,-1.027343 0.265625,-0.273438 0.621094,-0.417969 1.074219,-0.433594 0.132812,-0.015625 0.339844,0.023437 0.613281,0.117187 0.273438,0.097657 0.53125,0.371094 0.78125,0.816407 0.125,0.285156 0.207031,0.605468 0.238281,0.960937 0.027344,0.359375 0.039063,0.722656 0.035157,1.09375 z m 0,0"
           id="path10" />
      </symbol>
      <symbol
         overflow="visible"
         id="glyph0-10">
        <path
           style="stroke:none"
           d="M 6.855469,-2.519531 C 6.859375,-2.792969 6.804688,-3.085938 6.699219,-3.40625 6.589844,-3.722656 6.398438,-4.042969 6.121094,-4.363281 5.992188,-4.507813 5.828125,-4.648438 5.628906,-4.789063 5.429688,-4.925781 5.097656,-5.140625 4.636719,-5.429688 c 0.542969,-0.277343 0.980469,-0.609375 1.308594,-1 C 6.269531,-6.8125 6.4375,-7.253906 6.449219,-7.753906 6.4375,-8.214844 6.304688,-8.613281 6.050781,-8.949219 5.792969,-9.277344 5.460938,-9.535156 5.054688,-9.714844 4.644531,-9.894531 4.210938,-9.984375 3.75,-9.988281 2.976563,-9.96875 2.335938,-9.726563 1.828125,-9.261719 c -0.511719,0.472656 -0.777344,1.066406 -0.792969,1.777344 -0.015625,0.148437 0.015625,0.367187 0.09375,0.664062 0.074219,0.296875 0.261719,0.625 0.566407,0.984375 0.089843,0.097657 0.246093,0.226563 0.464843,0.378907 C 2.375,-5.300781 2.585938,-5.15625 2.789063,-5.023438 2.488281,-4.875 2.171875,-4.683594 1.84375,-4.445313 1.511719,-4.199219 1.230469,-3.898438 0.996094,-3.542969 0.761719,-3.179688 0.640625,-2.753906 0.632813,-2.265625 0.640625,-1.730469 0.789063,-1.269531 1.085938,-0.882813 1.375,-0.496094 1.757813,-0.203125 2.230469,0.0078125 2.695313,0.214844 3.195313,0.324219 3.734375,0.328125 4.601563,0.308594 5.335938,0.0351563 5.929688,-0.492188 6.519531,-1.023438 6.828125,-1.699219 6.855469,-2.519531 Z M 5.789063,-7.753906 c -0.00781,0.429687 -0.144532,0.820312 -0.40625,1.171875 -0.265625,0.359375 -0.625,0.667968 -1.078125,0.925781 L 2.445313,-6.855469 C 2.109375,-7.085938 1.898438,-7.3125 1.8125,-7.535156 1.71875,-7.757813 1.679688,-7.933594 1.695313,-8.070313 1.710938,-8.53125 1.917969,-8.90625 2.3125,-9.1875 c 0.394531,-0.277344 0.867188,-0.417969 1.421875,-0.429688 0.5625,0.015625 1.042969,0.191407 1.4375,0.527344 0.394531,0.34375 0.601563,0.789063 0.617188,1.335938 z m 0.316406,5.773437 C 6.082031,-1.414063 5.839844,-0.957031 5.386719,-0.617188 4.925781,-0.269531 4.382813,-0.09375 3.75,-0.0898438 3.085938,-0.0976563 2.527344,-0.304688 2.078125,-0.710938 1.628906,-1.109375 1.394531,-1.628906 1.378906,-2.265625 1.371094,-2.707031 1.503906,-3.148438 1.777344,-3.59375 2.046875,-4.035156 2.5,-4.4375 3.132813,-4.800781 l 1.847656,1.171875 c 0.230469,0.140625 0.46875,0.335937 0.71875,0.589843 0.246094,0.257813 0.382812,0.609375 0.40625,1.058594 z m 0,0"
           id="path11" />
      </symbol>
    </g>
    <clipPath
       id="clip1">
      <path
         d="m 3,104 h 17.878906 v 5 H 3 Z m 0,0"
         id="path12" />
    </clipPath>
    <clipPath
       id="clip2">
      <path
         d="m 3,86 h 17.878906 v 5 H 3 Z m 0,0"
         id="path13" />
    </clipPath>
    <clipPath
       id="clip3">
      <path
         d="M 68,12 H 340.32031 V 172 H 68 Z m 0,0"
         id="path14" />
    </clipPath>
  </defs>
  <path
     style="fill:#000000;fill-opacity:1;fill-rule:evenodd;stroke:none"
     d="m 12.578125,105.03907 c -0.09375,0 -0.164062,0.0703 -0.164062,0.16015 0,0.0898 0.05469,0.12891 0.164062,0.19922 0.339844,0.19531 1.054688,0.66016 1.054688,2.79297 0,1.11328 -0.289063,2.58203 -1.558594,2.58203 -0.609375,0 -1.523438,-0.44922 -2.132813,-1.61328 0.234375,-0.57422 0.234375,-1.18359 0.234375,-1.52344 0,-0.46484 0,-1.39453 -0.519531,-1.39453 -0.324219,0 -0.449219,0.33984 -0.449219,1.25391 0,0.44531 0.05469,0.98437 0.324219,1.60937 -0.269531,0.5586 -0.683594,0.77344 -1.078125,0.77344 -1.109375,0 -1.757812,-1.75781 -1.757812,-3.35156 0,-0.30469 0,-0.94922 0.558593,-1.70313 0.070313,-0.10547 0.125,-0.16015 0.125,-0.28906 0,-0.21484 -0.230468,-0.44531 -0.449218,-0.44531 -0.320313,0 -1,1.03906 -1,2.27343 0,2.01172 1.199218,3.91016 2.523437,3.91016 0.664063,0 1.078125,-0.42969 1.289063,-0.73437 0.59375,1.03906 1.5625,1.64843 2.4375,1.64843 1.238281,0 2.226562,-1.11328 2.226562,-2.83203 0,-2.36719 -1.578125,-3.3164 -1.828125,-3.3164 z m -2.90625,1.61328 c 0.144531,0.30468 0.144531,0.33984 0.144531,0.98437 0,0.32422 0,0.60938 -0.08984,0.96875 -0.160157,-0.48437 -0.160157,-0.94922 -0.160157,-1.07422 0,-0.5039 0.03516,-0.59375 0.105469,-0.8789 z m 0,0"
     id="path15" />
  <path
     style="fill:#000000;fill-opacity:1;fill-rule:evenodd;stroke:none"
     d="M 0.644531,100.12891 C 0.289063,100.12891 0,100.46485 0,100.82422 c 0,0.47656 0.394531,0.59766 0.539063,0.63281 l 5.183593,1.51563 c 0.023438,0.0117 0.203125,0.0586 0.203125,0.0586 0.15625,0 0.261719,-0.37109 0.261719,-0.45312 0,-0.0703 -0.046875,-0.1211 -0.175781,-0.17969 l -5.046875,-2.18359 c -0.058594,-0.0234 -0.1875,-0.0859 -0.320313,-0.0859 z m 0,0"
     id="path16" />
  <g
     clip-path="url(#clip1)"
     clip-rule="nonzero"
     id="g17"
     transform="translate(-2.53125,-10.664063)">
    <path
       style="fill:#000000;fill-opacity:1;fill-rule:evenodd;stroke:none"
       d="m 20.914063,104.04297 c -0.05469,0 -0.08984,0 -0.394532,0.30469 -1.808593,1.78906 -4.765625,2.79687 -8.421875,2.79687 -3.480468,0 -6.472656,-0.84375 -8.585937,-2.92187 -0.160156,-0.17969 -0.195313,-0.17969 -0.25,-0.17969 -0.109375,0 -0.144531,0.0898 -0.144531,0.16016 0,0.23437 1.289062,1.70312 3.046875,2.58203 1.808593,0.91406 3.726562,1.32812 5.933593,1.32812 1.59375,0 3.726563,-0.2539 5.644532,-1.18359 2.148437,-1.0586 3.3125,-2.52735 3.3125,-2.72656 0,-0.0703 -0.03516,-0.16016 -0.140625,-0.16016 z m 0,0"
       id="path17" />
  </g>
  <path
     style="fill:#000000;fill-opacity:1;fill-rule:evenodd;stroke:none"
     d="M 9.726563,82.257812 C 8.957031,82.058593 8.042969,81.824218 7.304688,81.824218 c -0.425782,0 -0.804688,0.09375 -1.035157,0.324219 -0.089843,0.109375 -0.144531,0.25 -0.144531,0.394531 0,0.195313 0.089844,0.394532 0.25,0.554688 0.164063,0.160156 0.359375,0.25 0.539063,0.25 0.140625,0 0.285156,-0.05469 0.390625,-0.160156 0.398437,-0.429688 0.96875,-0.644532 1.617187,-0.644532 0.230469,0 0.480469,0.03516 0.734375,0.08984 1.664063,0.410156 3.382813,1.417969 3.382813,2.867188 0,1.039062 -0.75,1.613281 -1.753907,1.738281 -0.5,-0.214844 -1.039062,-0.394531 -1.558593,-0.519531 -0.160157,-0.03516 -0.339844,-0.07422 -0.5,-0.07422 -0.214844,0 -0.378907,0.07422 -0.378907,0.289062 0,0.320313 0.433594,0.46875 0.808594,0.554688 0.539063,0.144531 1.074219,0.234375 1.59375,0.253906 1.023438,0.589844 1.789063,1.449219 1.789063,2.472665 0,1.07422 -0.894532,1.53906 -2.023438,1.53906 -0.414062,0 -0.839844,-0.0703 -1.289062,-0.17969 -1.074219,-0.26562 -2.097657,-0.875 -3.066407,-1.57812 -0.070312,-0.0352 -0.121093,-0.0508 -0.195312,-0.0508 -0.089844,0 -0.179688,0.0352 -0.230469,0.125 -0.019531,0.0547 -0.019531,0.125 -0.019531,0.125 0,0.10546 0.054687,0.21484 0.140625,0.28906 1.042969,0.73047 2.167969,1.19922 3.300781,1.48437 0.714844,0.17969 1.433594,0.26953 2.078125,0.26953 1.398438,0 2.472656,-0.48437 2.472656,-1.80859 0,-1.148442 -0.84375,-2.062505 -1.988281,-2.742192 1.164063,-0.164063 1.988281,-0.753907 1.988281,-1.972657 0,-1.847656 -2.3125,-2.921875 -4.480468,-3.457031 z m 0,0"
     id="path18" />
  <g
     clip-path="url(#clip2)"
     clip-rule="nonzero"
     id="g19"
     transform="translate(-2.53125,-10.664063)">
    <path
       style="fill:#000000;fill-opacity:1;fill-rule:evenodd;stroke:none"
       d="m 12.097656,86.515625 c -1.363281,0 -3.585937,0.179688 -5.664062,1.179688 -2.152344,1.058593 -3.316406,2.527343 -3.316406,2.726562 0,0.07031 0.035156,0.160156 0.144531,0.160156 0.054687,0 0.089844,0 0.394531,-0.304687 1.808594,-1.789063 4.765625,-2.796875 8.421875,-2.796875 3.476563,0 6.46875,0.84375 8.585938,2.921875 0.160156,0.179687 0.195312,0.179687 0.25,0.179687 0.105468,0 0.140625,-0.08984 0.140625,-0.160156 0,-0.234375 -1.289063,-1.703125 -3.046875,-2.582031 -1.828125,-0.914063 -3.761719,-1.324219 -5.910157,-1.324219 z m 0,0"
       id="path19" />
  </g>
  <g
     clip-path="url(#clip3)"
     clip-rule="nonzero"
     id="g20"
     style="fill:none;fill-opacity:1;stroke:#0000ff;stroke-opacity:1"
     transform="translate(-2.53125,-10.664063)">
    <path
       style="fill:none;fill-opacity:1;stroke:#0000ff;stroke-width:1.6;stroke-linecap:square;stroke-linejoin:miter;stroke-miterlimit:3.25;stroke-opacity:1"
       d="m 76.296875,155.74219 0.710938,-0.44922 0.707031,-0.40235 0.710937,-0.43359 0.710938,-0.41016 0.710937,0.082 0.710938,1.5039 0.710937,2.00781 0.710938,1.29297 0.710937,0.0312 0.710938,-0.32422 0.707031,-0.0117 0.710938,-0.20704 0.710937,-0.70703 0.710938,-0.98828 0.710937,-0.8789 0.710938,-0.0664 0.710937,0.46875 0.710938,0.71094 0.707031,0.82812 0.710937,0.71485 0.710938,0.74218 0.710937,0.76563 0.710938,0.92969 0.710937,0.46875 0.710938,0.32421 0.710937,-0.0469 0.710938,-0.17578 0.707031,0.34375 0.710938,0.53515 0.710937,0.80079 0.710938,0.74218 0.710937,0.51953 0.710938,-0.0859 0.710942,-0.53516 0.71093,-0.80859 0.70703,-1.03125 0.71094,-1.44532 0.71094,-1.53906 0.71094,-1.5 0.71093,-1.35547 0.71094,-0.86718 0.71094,-0.22657 0.71094,0.043 0.71093,0.20313 0.70704,0.28125 0.71093,0.30078 0.71094,0.23047 0.71094,0.10156 0.71094,-0.17969 0.71093,-0.58203 0.71094,-0.75781 0.71094,-0.89063 0.70703,-1.24609 0.71094,-1.23828 0.71093,-1.16406 0.71094,-1.07422 0.71094,-0.92578 0.71094,-0.72266 0.71093,-0.0117 0.71094,0.375 0.70703,0.55859 0.71094,0.67969 0.71094,0.74219 0.71094,0.61719 0.71093,0.47265 0.71094,0.39063 0.71094,0.33984 0.71094,0.27735 0.71093,0.21484 0.70703,0.19922 0.71094,0.11328 0.71094,-0.0273 0.71094,-0.35547 0.71093,-0.48047 0.71094,-0.60547 0.71094,-0.77734 0.71094,-0.80079 0.70703,-0.78125 0.71093,-0.67187 0.71094,-0.44531 0.71094,-0.20703 0.71094,-0.0547 0.71093,-0.0586 0.71094,-0.14843 0.71094,-0.45703 0.71094,-0.73829 0.70703,-0.89843 0.71094,-1.12891 0.71093,-1.57031 0.71094,-1.50781 0.71094,-1.30469 0.71094,-0.6211 0.71093,-0.14453 0.71094,0.0977 0.70703,0.24219 0.71094,0.23828 0.71094,0.30859 0.71093,0.47656 0.71094,0.28516 0.71094,-0.0273 0.71094,-0.13672 0.71093,-0.21094 0.70704,-0.25391 0.71093,-0.25781 0.71094,-0.21875 0.71094,-0.13281 0.71094,0.0234 0.71093,0.19531 0.71094,0.28516 0.71094,0.32421 0.71094,0.32032 0.70703,0.26562 0.71093,0.17578 0.71094,0.043 0.71094,-0.13672 0.71094,-0.55859 0.71093,-0.78125 0.71094,-0.91406 0.71094,-1.03907 0.70703,-1.26562 0.71094,-1.47656 0.71094,-1.47266 0.71093,-1.37891 0.71094,-1.1914 0.71094,-0.26953 0.71094,0.1875 0.71093,0.23437 0.71094,0.13281 0.70703,-0.12109 0.71094,-0.86719 0.71094,-1.09375 0.71093,-1.11718 0.71094,-1.05078 0.71094,-1.02344 0.71094,-0.95703 0.71093,-0.91407 0.70704,-0.8789 0.71093,-0.85547 0.71094,-0.83594 0.71094,-0.83203 0.71094,-0.82812 0.71093,-0.82422 0.71094,-0.80078 0.71094,-0.80469 0.70703,-0.82813 0.71094,-0.89843 0.71093,-0.94532 0.71094,-0.98437 0.71094,-1.01563 0.71094,-1.07031 0.71093,-1.14453 0.71094,-1.23047 0.71094,-1.28906 0.70703,-1.32813 0.71094,-1.35156 0.71094,-1.39062 0.71093,-1.4336 0.71094,-1.48437 0.71094,-1.488285 0.71094,-1.472656 0.71093,-1.4375 0.70703,-1.363281 0.71094,-1.257813 0.71094,-0.863281 0.71094,-0.882813 0.71093,-1.050781 0.71094,-2.328125 0.71094,-2.535156 0.71094,-1.90625 0.71093,0.164062 0.70704,2.46875 0.71093,3.324219 0.71094,3.640625 0.71094,2.609375 0.71094,2.78125 0.71093,3.11719 0.71094,3.80859 0.71094,4.52344 0.70703,5.06641 0.71094,5.625 0.71093,6.8789 0.71094,6.98828 0.71094,6.70313 0.71094,5.61718 0.71093,4.07813 0.71094,3.26562 0.71094,2.54688 0.70703,1.97266 0.71094,1.42968 0.71094,0.92578 0.71093,0.47266 0.71094,0.0469 0.71094,-0.30079 0.71094,-0.59375 0.71093,-0.83984 0.70703,-0.98828 0.71094,-1.14844 0.71094,-1.29297 0.71094,-1.41797 0.71093,-1.5 0.71094,-1.58203 0.71094,-1.64453 0.71094,-1.6914 0.70703,-1.70704 0.71094,-1.71875 0.71093,-1.73046 0.71094,-1.73829 0.71094,-1.71875 0.71094,-1.69531 0.71093,-1.6914 0.71094,-1.69532 0.71094,-1.68359 0.70703,-1.625 0.71094,-1.64063 0.71093,-1.66406 0.71094,-1.69531 0.71094,-1.72266 0.71094,-1.76953 0.71093,-1.83984 0.71094,-1.92188 0.70703,-2.05468 0.71094,-2.5586 0.71094,-2.55468 0.71094,-2.4375 0.71093,-2.20704 0.71094,-1.59375 0.71094,-0.72265 0.71094,-0.42188 0.71093,-0.21093 0.70703,-0.0859 0.71094,-0.0508 0.71094,-0.10547 0.71094,-0.25 0.71093,-0.48047 0.71094,-0.80078 0.71094,-0.8086 0.71094,-0.55859 0.70703,-0.58594 0.71094,-0.61328 0.71093,-0.63672 0.71094,-0.667966 0.71094,-0.699219 0.71094,-0.730469 0.71093,-0.765625 0.71094,-0.800781 0.70703,-0.816406 0.71094,-0.640625 0.71094,-0.632813 0.71093,-0.617187 0.71094,-0.601563 0.71094,-0.582031 0.71094,-0.570312 0.71093,-0.546875 0.71094,-0.523438 0.70703,-0.503906 0.71094,-0.480469 0.71094,-0.453125 0.71094,-0.34375 0.71093,-0.320312 0.71094,-0.292969 0.71094,-0.277344 0.71094,-0.257812 0.70703,-0.230469 0.71093,-0.171875 0.71094,-0.164063 1.42188,-0.304687 0.71093,-0.148438 0.71094,-0.164062 0.71094,-0.203125 0.71094,-0.210938 0.70703,-0.214843 0.71094,-0.222657 0.71093,-0.226562 0.71094,-0.242188 0.71094,-0.246093 0.71094,-0.257813 0.71093,-0.273437 0.71094,-0.28125 0.70703,-0.296875 0.71094,-0.308594 0.71094,-0.277344 0.71093,-0.292969 0.71094,-0.324218 0.71094,-0.367188 0.71094,-0.414062 0.71093,-0.46875 0.70704,-0.554688 0.71093,-0.707031 0.71094,-0.761719 0.71094,-0.804687 0.71094,-0.832032 0.71093,-0.851562 0.71094,-0.859375 0.71094,-0.839844 0.71094,-0.808594 0.70703,-0.800781 0.71093,-0.785156 0.71094,-0.773438 0.71094,-0.761718 0.71094,-0.746094 0.71093,-0.730469 0.71094,-0.710937 0.71094,-0.699219 0.70703,-0.675781 0.71094,-0.660157 0.71094,-0.640625 0.71093,-0.617187 0.71094,-0.59375 0.71094,-0.546875 0.71094,-0.53125 0.71093,-0.511719 0.71094,-0.496094 0.70703,-0.488281 0.71094,-0.476562 1.42187,-0.945313 0.71094,-0.480469 2.13281,-1.429687 0.70704,-0.484375 0.71093,-0.484375 0.71094,-0.488281 0.71094,-0.492188 0.71094,-0.5 0.71093,-0.507812 0.71094,-0.523438 0.71094,-0.53125 0.71094,-0.550781 0.70703,-0.5625 0.71093,-0.585938 0.71094,-0.617187 0.71094,-0.644531 0.71094,-0.667969 0.71093,-0.691406 0.71094,-0.714844 0.71094,-0.742188 0.70703,-0.773437 0.71094,-0.800781 0.71094,-0.84375 0.71093,-0.886719 0.71094,-0.917969 0.71094,-0.949219 0.71094,-0.980468 0.71093,-1.007813 0.70703,-1.042969 0.71094,-1.066406 0.71094,-1.101562 0.71094,-1.128907 0.71093,-1.15625 0.71094,-1.1875 0.71094,-1.210937 0.71094,-1.242188 0.71093,-1.265625 0.70704,-1.292968 0.71093,-1.316407 0.71094,-1.34375 0.71094,-1.378906 0.71094,-1.40625 0.71093,-1.429687 0.71094,-1.445313 0.71094,-1.464844 0.70703,-1.480468"
       id="path20" />
  </g>
  <path
     style="fill:none;stroke:#000000;stroke-width:0.75;stroke-linecap:square;stroke-linejoin:miter;stroke-miterlimit:3.25;stroke-opacity:1"
     d="m 337.875,170.33594 h -275"
     id="path21" />
  <path
     style="fill:none;stroke:#000000;stroke-width:0.75;stroke-linecap:square;stroke-linejoin:miter;stroke-miterlimit:3.25;stroke-opacity:1"
     d="M 62.875,170.33594 V 0.375"
     id="path22" />
  <path
     style="fill:none;stroke:#000000;stroke-width:0.75;stroke-linecap:square;stroke-linejoin:miter;stroke-miterlimit:3.25;stroke-opacity:1"
     d="m 62.875,0.375 h 275"
     id="path23" />
  <path
     style="fill:none;stroke:#000000;stroke-width:0.75;stroke-linecap:square;stroke-linejoin:miter;stroke-miterlimit:3.25;stroke-opacity:1"
     d="M 337.875,0.375 V 170.33594"
     id="path24" />
  <path
     style="fill:none;stroke:#000000;stroke-width:0.75;stroke-linecap:butt;stroke-linejoin:miter;stroke-miterlimit:3.25;stroke-opacity:1"
     d="m 67.371094,170.33594 v -1.94531"
     id="path25" />
  <path
     style="fill:none;stroke:#000000;stroke-width:0.75;stroke-linecap:butt;stroke-linejoin:miter;stroke-miterlimit:3.25;stroke-opacity:1"
     d="m 74.476563,170.33594 v -1.94531"
     id="path26" />
  <path
     style="fill:none;stroke:#000000;stroke-width:0.75;stroke-linecap:butt;stroke-linejoin:miter;stroke-miterlimit:3.25;stroke-opacity:1"
     d="m 81.578125,170.33594 v -1.94531"
     id="path27" />
  <path
     style="fill:none;stroke:#000000;stroke-width:0.75;stroke-linecap:butt;stroke-linejoin:miter;stroke-miterlimit:3.25;stroke-opacity:1"
     d="m 88.683594,170.33594 v -1.94531"
     id="path28" />
  <path
     style="fill:none;stroke:#000000;stroke-width:0.75;stroke-linecap:butt;stroke-linejoin:miter;stroke-miterlimit:3.25;stroke-opacity:1"
     d="m 95.789063,170.33594 v -3.24219"
     id="path29" />
  <g
     style="fill:#000000;fill-opacity:1"
     id="g31"
     transform="translate(-2.53125,-10.664063)">
    <use
       xlink:href="#glyph0-1"
       x="88.735489"
       y="200.905"
       id="use29" />
    <use
       xlink:href="#glyph0-2"
       x="96.235489"
       y="200.905"
       id="use30" />
    <use
       xlink:href="#glyph0-3"
       x="100.40549"
       y="200.905"
       id="use31" />
  </g>
  <path
     style="fill:none;stroke:#000000;stroke-width:0.75;stroke-linecap:butt;stroke-linejoin:miter;stroke-miterlimit:3.25;stroke-opacity:1"
     d="m 102.89453,170.33594 v -1.94531"
     id="path31" />
  <path
     style="fill:none;stroke:#000000;stroke-width:0.75;stroke-linecap:butt;stroke-linejoin:miter;stroke-miterlimit:3.25;stroke-opacity:1"
     d="m 110,170.33594 v -1.94531"
     id="path32" />
  <path
     style="fill:none;stroke:#000000;stroke-width:0.75;stroke-linecap:butt;stroke-linejoin:miter;stroke-miterlimit:3.25;stroke-opacity:1"
     d="m 117.10156,170.33594 v -1.94531"
     id="path33" />
  <path
     style="fill:none;stroke:#000000;stroke-width:0.75;stroke-linecap:butt;stroke-linejoin:miter;stroke-miterlimit:3.25;stroke-opacity:1"
     d="m 124.20703,170.33594 v -1.94531"
     id="path34" />
  <path
     style="fill:none;stroke:#000000;stroke-width:0.75;stroke-linecap:butt;stroke-linejoin:miter;stroke-miterlimit:3.25;stroke-opacity:1"
     d="m 131.3125,170.33594 v -3.24219"
     id="path35" />
  <g
     style="fill:#000000;fill-opacity:1"
     id="g37"
     transform="translate(-2.53125,-10.664063)">
    <use
       xlink:href="#glyph0-4"
       x="124.25915"
       y="200.905"
       id="use35" />
    <use
       xlink:href="#glyph0-2"
       x="131.75916"
       y="200.905"
       id="use36" />
    <use
       xlink:href="#glyph0-5"
       x="135.92915"
       y="200.905"
       id="use37" />
  </g>
  <path
     style="fill:none;stroke:#000000;stroke-width:0.75;stroke-linecap:butt;stroke-linejoin:miter;stroke-miterlimit:3.25;stroke-opacity:1"
     d="m 138.41797,170.33594 v -1.94531"
     id="path37" />
  <path
     style="fill:none;stroke:#000000;stroke-width:0.75;stroke-linecap:butt;stroke-linejoin:miter;stroke-miterlimit:3.25;stroke-opacity:1"
     d="m 145.52344,170.33594 v -1.94531"
     id="path38" />
  <path
     style="fill:none;stroke:#000000;stroke-width:0.75;stroke-linecap:butt;stroke-linejoin:miter;stroke-miterlimit:3.25;stroke-opacity:1"
     d="m 152.62891,170.33594 v -1.94531"
     id="path39" />
  <path
     style="fill:none;stroke:#000000;stroke-width:0.75;stroke-linecap:butt;stroke-linejoin:miter;stroke-miterlimit:3.25;stroke-opacity:1"
     d="m 159.73047,170.33594 v -1.94531"
     id="path40" />
  <path
     style="fill:none;stroke:#000000;stroke-width:0.75;stroke-linecap:butt;stroke-linejoin:miter;stroke-miterlimit:3.25;stroke-opacity:1"
     d="m 166.83594,170.33594 v -3.24219"
     id="path41" />
  <g
     style="fill:#000000;fill-opacity:1"
     id="g43"
     transform="translate(-2.53125,-10.664063)">
    <use
       xlink:href="#glyph0-4"
       x="159.78281"
       y="200.905"
       id="use41" />
    <use
       xlink:href="#glyph0-2"
       x="167.28281"
       y="200.905"
       id="use42" />
    <use
       xlink:href="#glyph0-3"
       x="171.4528"
       y="200.905"
       id="use43" />
  </g>
  <path
     style="fill:none;stroke:#000000;stroke-width:0.75;stroke-linecap:butt;stroke-linejoin:miter;stroke-miterlimit:3.25;stroke-opacity:1"
     d="m 173.94141,170.33594 v -1.94531"
     id="path43" />
  <path
     style="fill:none;stroke:#000000;stroke-width:0.75;stroke-linecap:butt;stroke-linejoin:miter;stroke-miterlimit:3.25;stroke-opacity:1"
     d="m 181.04687,170.33594 v -1.94531"
     id="path44" />
  <path
     style="fill:none;stroke:#000000;stroke-width:0.75;stroke-linecap:butt;stroke-linejoin:miter;stroke-miterlimit:3.25;stroke-opacity:1"
     d="m 188.15234,170.33594 v -1.94531"
     id="path45" />
  <path
     style="fill:none;stroke:#000000;stroke-width:0.75;stroke-linecap:butt;stroke-linejoin:miter;stroke-miterlimit:3.25;stroke-opacity:1"
     d="m 195.25391,170.33594 v -1.94531"
     id="path46" />
  <path
     style="fill:none;stroke:#000000;stroke-width:0.75;stroke-linecap:butt;stroke-linejoin:miter;stroke-miterlimit:3.25;stroke-opacity:1"
     d="m 202.35937,170.33594 v -3.24219"
     id="path47" />
  <g
     style="fill:#000000;fill-opacity:1"
     id="g49"
     transform="translate(-2.53125,-10.664063)">
    <use
       xlink:href="#glyph0-6"
       x="195.30647"
       y="200.905"
       id="use47" />
    <use
       xlink:href="#glyph0-2"
       x="202.80647"
       y="200.905"
       id="use48" />
    <use
       xlink:href="#glyph0-5"
       x="206.97647"
       y="200.905"
       id="use49" />
  </g>
  <path
     style="fill:none;stroke:#000000;stroke-width:0.75;stroke-linecap:butt;stroke-linejoin:miter;stroke-miterlimit:3.25;stroke-opacity:1"
     d="m 209.46484,170.33594 v -1.94531"
     id="path49" />
  <path
     style="fill:none;stroke:#000000;stroke-width:0.75;stroke-linecap:butt;stroke-linejoin:miter;stroke-miterlimit:3.25;stroke-opacity:1"
     d="m 216.57031,170.33594 v -1.94531"
     id="path50" />
  <path
     style="fill:none;stroke:#000000;stroke-width:0.75;stroke-linecap:butt;stroke-linejoin:miter;stroke-miterlimit:3.25;stroke-opacity:1"
     d="m 223.67578,170.33594 v -1.94531"
     id="path51" />
  <path
     style="fill:none;stroke:#000000;stroke-width:0.75;stroke-linecap:butt;stroke-linejoin:miter;stroke-miterlimit:3.25;stroke-opacity:1"
     d="m 230.77734,170.33594 v -1.94531"
     id="path52" />
  <path
     style="fill:none;stroke:#000000;stroke-width:0.75;stroke-linecap:butt;stroke-linejoin:miter;stroke-miterlimit:3.25;stroke-opacity:1"
     d="m 237.88281,170.33594 v -3.24219"
     id="path53" />
  <g
     style="fill:#000000;fill-opacity:1"
     id="g55"
     transform="translate(-2.53125,-10.664063)">
    <use
       xlink:href="#glyph0-6"
       x="230.83012"
       y="200.905"
       id="use53" />
    <use
       xlink:href="#glyph0-2"
       x="238.33012"
       y="200.905"
       id="use54" />
    <use
       xlink:href="#glyph0-3"
       x="242.50012"
       y="200.905"
       id="use55" />
  </g>
  <path
     style="fill:none;stroke:#000000;stroke-width:0.75;stroke-linecap:butt;stroke-linejoin:miter;stroke-miterlimit:3.25;stroke-opacity:1"
     d="m 244.98828,170.33594 v -1.94531"
     id="path55" />
  <path
     style="fill:none;stroke:#000000;stroke-width:0.75;stroke-linecap:butt;stroke-linejoin:miter;stroke-miterlimit:3.25;stroke-opacity:1"
     d="m 252.09375,170.33594 v -1.94531"
     id="path56" />
  <path
     style="fill:none;stroke:#000000;stroke-width:0.75;stroke-linecap:butt;stroke-linejoin:miter;stroke-miterlimit:3.25;stroke-opacity:1"
     d="m 259.19922,170.33594 v -1.94531"
     id="path57" />
  <path
     style="fill:none;stroke:#000000;stroke-width:0.75;stroke-linecap:butt;stroke-linejoin:miter;stroke-miterlimit:3.25;stroke-opacity:1"
     d="m 266.30469,170.33594 v -1.94531"
     id="path58" />
  <path
     style="fill:none;stroke:#000000;stroke-width:0.75;stroke-linecap:butt;stroke-linejoin:miter;stroke-miterlimit:3.25;stroke-opacity:1"
     d="m 273.40625,170.33594 v -3.24219"
     id="path59" />
  <g
     style="fill:#000000;fill-opacity:1"
     id="g61"
     transform="translate(-2.53125,-10.664063)">
    <use
       xlink:href="#glyph0-7"
       x="266.35379"
       y="200.905"
       id="use59" />
    <use
       xlink:href="#glyph0-2"
       x="273.85379"
       y="200.905"
       id="use60" />
    <use
       xlink:href="#glyph0-5"
       x="278.0238"
       y="200.905"
       id="use61" />
  </g>
  <path
     style="fill:none;stroke:#000000;stroke-width:0.75;stroke-linecap:butt;stroke-linejoin:miter;stroke-miterlimit:3.25;stroke-opacity:1"
     d="m 280.51172,170.33594 v -1.94531"
     id="path61" />
  <path
     style="fill:none;stroke:#000000;stroke-width:0.75;stroke-linecap:butt;stroke-linejoin:miter;stroke-miterlimit:3.25;stroke-opacity:1"
     d="m 287.61719,170.33594 v -1.94531"
     id="path62" />
  <path
     style="fill:none;stroke:#000000;stroke-width:0.75;stroke-linecap:butt;stroke-linejoin:miter;stroke-miterlimit:3.25;stroke-opacity:1"
     d="m 294.72266,170.33594 v -1.94531"
     id="path63" />
  <path
     style="fill:none;stroke:#000000;stroke-width:0.75;stroke-linecap:butt;stroke-linejoin:miter;stroke-miterlimit:3.25;stroke-opacity:1"
     d="m 301.82812,170.33594 v -1.94531"
     id="path64" />
  <path
     style="fill:none;stroke:#000000;stroke-width:0.75;stroke-linecap:butt;stroke-linejoin:miter;stroke-miterlimit:3.25;stroke-opacity:1"
     d="m 308.92969,170.33594 v -3.24219"
     id="path65" />
  <g
     style="fill:#000000;fill-opacity:1"
     id="g67"
     transform="translate(-2.53125,-10.664063)">
    <use
       xlink:href="#glyph0-7"
       x="301.87744"
       y="200.905"
       id="use65" />
    <use
       xlink:href="#glyph0-2"
       x="309.37744"
       y="200.905"
       id="use66" />
    <use
       xlink:href="#glyph0-3"
       x="313.54745"
       y="200.905"
       id="use67" />
  </g>
  <path
     style="fill:none;stroke:#000000;stroke-width:0.75;stroke-linecap:butt;stroke-linejoin:miter;stroke-miterlimit:3.25;stroke-opacity:1"
     d="m 316.03516,170.33594 v -1.94531"
     id="path67" />
  <path
     style="fill:none;stroke:#000000;stroke-width:0.75;stroke-linecap:butt;stroke-linejoin:miter;stroke-miterlimit:3.25;stroke-opacity:1"
     d="m 323.14062,170.33594 v -1.94531"
     id="path68" />
  <path
     style="fill:none;stroke:#000000;stroke-width:0.75;stroke-linecap:butt;stroke-linejoin:miter;stroke-miterlimit:3.25;stroke-opacity:1"
     d="m 330.24609,170.33594 v -1.94531"
     id="path69" />
  <path
     style="fill:none;stroke:#000000;stroke-width:0.75;stroke-linecap:butt;stroke-linejoin:miter;stroke-miterlimit:3.25;stroke-opacity:1"
     d="m 337.35156,170.33594 v -1.94531"
     id="path70" />
  <path
     style="fill:none;stroke:#000000;stroke-width:0.75;stroke-linecap:butt;stroke-linejoin:miter;stroke-miterlimit:3.25;stroke-opacity:1"
     d="m 62.875,167.91797 h 1.949219"
     id="path71" />
  <path
     style="fill:none;stroke:#000000;stroke-width:0.75;stroke-linecap:butt;stroke-linejoin:miter;stroke-miterlimit:3.25;stroke-opacity:1"
     d="m 62.875,161.64063 h 3.246094"
     id="path72" />
  <g
     style="fill:#000000;fill-opacity:1"
     id="g75"
     transform="translate(-2.53125,-10.664063)">
    <use
       xlink:href="#glyph0-1"
       x="35.738064"
       y="178.58165"
       id="use72" />
    <use
       xlink:href="#glyph0-2"
       x="43.238064"
       y="178.58165"
       id="use73" />
    <use
       xlink:href="#glyph0-8"
       x="47.408066"
       y="178.58165"
       id="use74" />
    <use
       xlink:href="#glyph0-9"
       x="54.908066"
       y="178.58165"
       id="use75" />
  </g>
  <path
     style="fill:none;stroke:#000000;stroke-width:0.75;stroke-linecap:butt;stroke-linejoin:miter;stroke-miterlimit:3.25;stroke-opacity:1"
     d="m 62.875,155.35938 h 1.949219"
     id="path75" />
  <path
     style="fill:none;stroke:#000000;stroke-width:0.75;stroke-linecap:butt;stroke-linejoin:miter;stroke-miterlimit:3.25;stroke-opacity:1"
     d="m 62.875,149.08203 h 1.949219"
     id="path76" />
  <path
     style="fill:none;stroke:#000000;stroke-width:0.75;stroke-linecap:butt;stroke-linejoin:miter;stroke-miterlimit:3.25;stroke-opacity:1"
     d="m 62.875,142.80469 h 1.949219"
     id="path77" />
  <path
     style="fill:none;stroke:#000000;stroke-width:0.75;stroke-linecap:butt;stroke-linejoin:miter;stroke-miterlimit:3.25;stroke-opacity:1"
     d="m 62.875,136.52344 h 3.246094"
     id="path78" />
  <g
     style="fill:#000000;fill-opacity:1"
     id="g81"
     transform="translate(-2.53125,-10.664063)">
    <use
       xlink:href="#glyph0-1"
       x="35.738064"
       y="153.46597"
       id="use78" />
    <use
       xlink:href="#glyph0-2"
       x="43.238064"
       y="153.46597"
       id="use79" />
    <use
       xlink:href="#glyph0-8"
       x="47.408066"
       y="153.46597"
       id="use80" />
    <use
       xlink:href="#glyph0-10"
       x="54.908066"
       y="153.46597"
       id="use81" />
  </g>
  <path
     style="fill:none;stroke:#000000;stroke-width:0.75;stroke-linecap:butt;stroke-linejoin:miter;stroke-miterlimit:3.25;stroke-opacity:1"
     d="m 62.875,130.2461 h 1.949219"
     id="path81" />
  <path
     style="fill:none;stroke:#000000;stroke-width:0.75;stroke-linecap:butt;stroke-linejoin:miter;stroke-miterlimit:3.25;stroke-opacity:1"
     d="m 62.875,123.96485 h 1.949219"
     id="path82" />
  <path
     style="fill:none;stroke:#000000;stroke-width:0.75;stroke-linecap:butt;stroke-linejoin:miter;stroke-miterlimit:3.25;stroke-opacity:1"
     d="m 62.875,117.6875 h 1.949219"
     id="path83" />
  <path
     style="fill:none;stroke:#000000;stroke-width:0.75;stroke-linecap:butt;stroke-linejoin:miter;stroke-miterlimit:3.25;stroke-opacity:1"
     d="m 62.875,111.41016 h 3.246094"
     id="path84" />
  <g
     style="fill:#000000;fill-opacity:1"
     id="g87"
     transform="translate(-2.53125,-10.664063)">
    <use
       xlink:href="#glyph0-4"
       x="35.738064"
       y="128.3503"
       id="use84" />
    <use
       xlink:href="#glyph0-2"
       x="43.238064"
       y="128.3503"
       id="use85" />
    <use
       xlink:href="#glyph0-5"
       x="47.408066"
       y="128.3503"
       id="use86" />
    <use
       xlink:href="#glyph0-5"
       x="54.908066"
       y="128.3503"
       id="use87" />
  </g>
  <path
     style="fill:none;stroke:#000000;stroke-width:0.75;stroke-linecap:butt;stroke-linejoin:miter;stroke-miterlimit:3.25;stroke-opacity:1"
     d="m 62.875,105.12891 h 1.949219"
     id="path87" />
  <path
     style="fill:none;stroke:#000000;stroke-width:0.75;stroke-linecap:butt;stroke-linejoin:miter;stroke-miterlimit:3.25;stroke-opacity:1"
     d="m 62.875,98.851567 h 1.949219"
     id="path88" />
  <path
     style="fill:none;stroke:#000000;stroke-width:0.75;stroke-linecap:butt;stroke-linejoin:miter;stroke-miterlimit:3.25;stroke-opacity:1"
     d="m 62.875,92.570317 h 1.949219"
     id="path89" />
  <path
     style="fill:none;stroke:#000000;stroke-width:0.75;stroke-linecap:butt;stroke-linejoin:miter;stroke-miterlimit:3.25;stroke-opacity:1"
     d="m 62.875,86.292968 h 3.246094"
     id="path90" />
  <g
     style="fill:#000000;fill-opacity:1"
     id="g93"
     transform="translate(-2.53125,-10.664063)">
    <use
       xlink:href="#glyph0-4"
       x="35.738064"
       y="103.23463"
       id="use90" />
    <use
       xlink:href="#glyph0-2"
       x="43.238064"
       y="103.23463"
       id="use91" />
    <use
       xlink:href="#glyph0-5"
       x="47.408066"
       y="103.23463"
       id="use92" />
    <use
       xlink:href="#glyph0-4"
       x="54.908066"
       y="103.23463"
       id="use93" />
  </g>
  <path
     style="fill:none;stroke:#000000;stroke-width:0.75;stroke-linecap:butt;stroke-linejoin:miter;stroke-miterlimit:3.25;stroke-opacity:1"
     d="m 62.875,80.015625 h 1.949219"
     id="path93" />
  <path
     style="fill:none;stroke:#000000;stroke-width:0.75;stroke-linecap:butt;stroke-linejoin:miter;stroke-miterlimit:3.25;stroke-opacity:1"
     d="m 62.875,73.734375 h 1.949219"
     id="path94" />
  <path
     style="fill:none;stroke:#000000;stroke-width:0.75;stroke-linecap:butt;stroke-linejoin:miter;stroke-miterlimit:3.25;stroke-opacity:1"
     d="m 62.875,67.457031 h 1.949219"
     id="path95" />
  <path
     style="fill:none;stroke:#000000;stroke-width:0.75;stroke-linecap:butt;stroke-linejoin:miter;stroke-miterlimit:3.25;stroke-opacity:1"
     d="m 62.875,61.175781 h 3.246094"
     id="path96" />
  <g
     style="fill:#000000;fill-opacity:1"
     id="g99"
     transform="translate(-2.53125,-10.664063)">
    <use
       xlink:href="#glyph0-4"
       x="35.738064"
       y="78.11895"
       id="use96" />
    <use
       xlink:href="#glyph0-2"
       x="43.238064"
       y="78.11895"
       id="use97" />
    <use
       xlink:href="#glyph0-5"
       x="47.408066"
       y="78.11895"
       id="use98" />
    <use
       xlink:href="#glyph0-7"
       x="54.908066"
       y="78.11895"
       id="use99" />
  </g>
  <path
     style="fill:none;stroke:#000000;stroke-width:0.75;stroke-linecap:butt;stroke-linejoin:miter;stroke-miterlimit:3.25;stroke-opacity:1"
     d="m 62.875,54.898437 h 1.949219"
     id="path99" />
  <path
     style="fill:none;stroke:#000000;stroke-width:0.75;stroke-linecap:butt;stroke-linejoin:miter;stroke-miterlimit:3.25;stroke-opacity:1"
     d="m 62.875,48.621093 h 1.949219"
     id="path100" />
  <path
     style="fill:none;stroke:#000000;stroke-width:0.75;stroke-linecap:butt;stroke-linejoin:miter;stroke-miterlimit:3.25;stroke-opacity:1"
     d="m 62.875,42.339843 h 1.949219"
     id="path101" />
  <path
     style="fill:none;stroke:#000000;stroke-width:0.75;stroke-linecap:butt;stroke-linejoin:miter;stroke-miterlimit:3.25;stroke-opacity:1"
     d="m 62.875,36.0625 h 3.246094"
     id="path102" />
  <g
     style="fill:#000000;fill-opacity:1"
     id="g105"
     transform="translate(-2.53125,-10.664063)">
    <use
       xlink:href="#glyph0-4"
       x="35.738064"
       y="53.003273"
       id="use102" />
    <use
       xlink:href="#glyph0-2"
       x="43.238064"
       y="53.003273"
       id="use103" />
    <use
       xlink:href="#glyph0-5"
       x="47.408066"
       y="53.003273"
       id="use104" />
    <use
       xlink:href="#glyph0-9"
       x="54.908066"
       y="53.003273"
       id="use105" />
  </g>
  <path
     style="fill:none;stroke:#000000;stroke-width:0.75;stroke-linecap:butt;stroke-linejoin:miter;stroke-miterlimit:3.25;stroke-opacity:1"
     d="m 62.875,29.78125 h 1.949219"
     id="path105" />
  <path
     style="fill:none;stroke:#000000;stroke-width:0.75;stroke-linecap:butt;stroke-linejoin:miter;stroke-miterlimit:3.25;stroke-opacity:1"
     d="m 62.875,23.503906 h 1.949219"
     id="path106" />
  <path
     style="fill:none;stroke:#000000;stroke-width:0.75;stroke-linecap:butt;stroke-linejoin:miter;stroke-miterlimit:3.25;stroke-opacity:1"
     d="m 62.875,17.226562 h 1.949219"
     id="path107" />
  <path
     style="fill:none;stroke:#000000;stroke-width:0.75;stroke-linecap:butt;stroke-linejoin:miter;stroke-miterlimit:3.25;stroke-opacity:1"
     d="m 62.875,10.945312 h 3.246094"
     id="path108" />
  <g
     style="fill:#000000;fill-opacity:1"
     id="g111"
     transform="translate(-2.53125,-10.664063)">
    <use
       xlink:href="#glyph0-4"
       x="35.738064"
       y="27.8876"
       id="use108" />
    <use
       xlink:href="#glyph0-2"
       x="43.238064"
       y="27.8876"
       id="use109" />
    <use
       xlink:href="#glyph0-5"
       x="47.408066"
       y="27.8876"
       id="use110" />
    <use
       xlink:href="#glyph0-10"
       x="54.908066"
       y="27.8876"
       id="use111" />
  </g>
  <path
     style="fill:none;stroke:#000000;stroke-width:0.75;stroke-linecap:butt;stroke-linejoin:miter;stroke-miterlimit:3.25;stroke-opacity:1"
     d="m 62.875,4.667968 h 1.949219"
     id="path111" />
  <path
     style="fill:#000000;fill-opacity:1;fill-rule:evenodd;stroke:none"
     d="m 170.14844,202.03906 h 3.47656 c 0.30469,0 0.50391,0 0.50391,-0.21875 0,-0.23046 -0.21485,-0.23046 -0.55469,-0.23046 h -3.31641 c 0.125,-0.44922 0.125,-0.48438 0.23047,-0.9336 0.0898,-0.32031 0.25,-0.94922 0.25,-0.98437 0,-0.16016 -0.10547,-0.21485 -0.25,-0.21485 -0.33984,0 -1.75391,0.14453 -2.1875,0.17969 -0.14062,0.0156 -0.33984,0.0352 -0.33984,0.375 0,0.19922 0.18359,0.19922 0.43359,0.19922 0.85938,0 0.89453,0.125 0.89453,0.30469 0,0.125 -0.16015,0.71484 -0.25,1.07422 h -1.0039 c -0.35938,0 -0.55469,0 -0.55469,0.23046 0,0.21875 0.16015,0.21875 0.5,0.21875 h 0.94922 l -2.29297,9.13672 c -0.0703,0.26953 -0.0703,0.30469 -0.0703,0.41407 0,0.39453 0.30468,0.5 0.51562,0.5 0.34375,0 0.59375,-0.25 0.66406,-0.48047 0.0391,-0.0937 0.23438,-0.89844 0.34375,-1.34766 l 0.41016,-1.59375 c 0.0547,-0.26953 0.23437,-0.94922 0.28906,-1.21484 0.0859,-0.28907 0.21485,-0.84375 0.23047,-0.89844 0.14453,-0.30469 1.10938,-2.1875 2.90234,-2.1875 0.78907,0 0.96875,0.64844 0.96875,1.23828 0,1.10938 -0.82421,3.29688 -1.14453,4.12109 -0.10937,0.28516 -0.19922,0.53516 -0.19922,0.875 0,0.9336 0.66016,1.48829 1.46875,1.48829 1.72266,0 2.34766,-2.65235 2.34766,-2.75782 0,-0.17968 -0.16016,-0.17968 -0.21484,-0.17968 -0.17969,0 -0.17969,0.0547 -0.26953,0.32421 -0.51954,1.82813 -1.32422,2.22266 -1.8086,2.22266 -0.33984,0 -0.44922,-0.21875 -0.44922,-0.59375 0,-0.44922 0.19532,-0.94922 0.30469,-1.25391 0.30469,-0.78906 1.10938,-2.9375 1.10938,-3.9414 0,-1.3086 -0.82032,-1.9375 -2.0586,-1.9375 -0.55469,0 -1.6289,0.1289 -2.65234,1.36328 z m 0,0"
     id="path112" />
  <path
     style="fill:#000000;fill-opacity:1;fill-rule:evenodd;stroke:none"
     d="m 185.52344,207.59375 c 0.19922,-0.76953 0.43359,-1.68359 0.43359,-2.42187 0,-0.42578 -0.0937,-0.80469 -0.32422,-1.03516 -0.10937,-0.0898 -0.25,-0.14453 -0.39453,-0.14453 -0.19531,0 -0.39453,0.0898 -0.55469,0.25 -0.16015,0.16406 -0.25,0.35937 -0.25,0.53906 0,0.14063 0.0547,0.28516 0.16016,0.39063 0.42969,0.39843 0.64453,0.96875 0.64453,1.61718 0,0.23047 -0.0352,0.48047 -0.0898,0.73438 -0.41016,1.66406 -1.41797,3.38281 -2.86719,3.38281 -1.03906,0 -1.61328,-0.75 -1.73828,-1.7539 0.21484,-0.5 0.39453,-1.03907 0.51953,-1.5586 0.0352,-0.16015 0.0742,-0.33984 0.0742,-0.5 0,-0.21484 -0.0742,-0.3789 -0.28906,-0.3789 -0.32032,0 -0.46485,0.43359 -0.55469,0.80859 -0.14453,0.53906 -0.23438,1.07422 -0.25,1.59375 -0.59375,1.02344 -1.45313,1.78906 -2.47266,1.78906 -1.07812,0 -1.54297,-0.89453 -1.54297,-2.02344 0,-0.41406 0.0703,-0.83984 0.17969,-1.28906 0.26563,-1.07422 0.875,-2.09765 1.57813,-3.0664 0.0352,-0.0703 0.0547,-0.1211 0.0547,-0.19532 0,-0.0898 -0.0391,-0.17968 -0.1289,-0.23047 -0.0547,-0.0195 -0.125,-0.0195 -0.125,-0.0195 -0.10547,0 -0.21485,0.0547 -0.28516,0.14063 -0.73437,1.04297 -1.20312,2.16797 -1.48828,3.30078 -0.17969,0.71484 -0.26953,1.43359 -0.26953,2.07812 0,1.39844 0.48437,2.47266 1.80859,2.47266 1.14844,0 2.0625,-0.84375 2.74219,-1.98828 0.16406,1.16406 0.75391,1.98828 1.97266,1.98828 1.84765,0 2.92187,-2.3125 3.45703,-4.48047 z m 0,0"
     id="path113" />
  <path
     style="fill:#000000;fill-opacity:1;fill-rule:evenodd;stroke:none"
     d="m 195.25781,216.375 v -0.66406 h -1.73828 v -16.59375 h 1.73828 v -0.66406 h -2.40234 V 216.375 Z m 0,0"
     id="path114" />
  <path
     style="fill:#000000;fill-opacity:1;fill-rule:evenodd;stroke:none"
     d="m 203.16797,209.76172 c 0,-0.10937 -0.0859,-0.17969 -0.19531,-0.17969 -0.14454,0 -0.17969,0.0898 -0.21485,0.17969 -0.46484,1.50391 -1.66797,1.91797 -2.41797,1.91797 -0.7539,0 -2.5625,-0.50391 -2.5625,-3.60156 v -0.33985 h 4.96485 c 0.39062,0 0.42578,0 0.42578,-0.33984 0,-1.8125 -0.96485,-3.49609 -3.13281,-3.49609 -2.04297,0 -3.6211,1.84375 -3.6211,4.0664 0,2.36719 1.82813,4.10547 3.81641,4.10547 2.13281,0 2.9375,-1.93359 2.9375,-2.3125 z m -1.10938,-2.36328 h -4.26562 c 0.14453,-2.81641 1.72265,-3.14063 2.22265,-3.14063 1.91797,0 2.02735,2.53125 2.04297,3.14063 z m 0,0"
     id="path115" />
  <path
     style="fill:#000000;fill-opacity:1;fill-rule:evenodd;stroke:none"
     d="m 214.99219,200.17578 v -0.52343 l -1.65235,0.0352 c -0.48047,0 -1.3789,0 -1.82812,-0.0352 v 0.52343 c 0.91406,0.0156 1.18359,0.51953 1.18359,0.87891 0,0.10547 0,0.14062 -0.10547,0.39062 l -3.35156,8.83594 -3.53125,-9.32031 c -0.0898,-0.19531 -0.0898,-0.26563 -0.0898,-0.26563 0,-0.51953 0.89843,-0.51953 1.34375,-0.51953 v -0.52343 c -0.42969,0.0352 -1.79297,0.0352 -2.3125,0.0352 -0.5,0 -1.71875,0 -2.14844,-0.0352 v 0.52343 c 1.10937,0 1.39453,0 1.66406,0.71485 l 4.19531,11.03906 c 0.0898,0.25 0.125,0.34375 0.375,0.34375 0.25391,0 0.26954,-0.0547 0.39454,-0.35938 l 3.99609,-10.48437 c 0.16016,-0.44922 0.46484,-1.23828 1.86719,-1.25391 z m 0,0"
     id="path116" />
  <path
     style="fill:#000000;fill-opacity:1;fill-rule:evenodd;stroke:none"
     d="m 218.00391,216.375 v -17.92187 h -2.40235 v 0.66406 h 1.73828 v 16.59375 h -1.73828 v 0.66406 z m 0,0"
     id="path117" />
</svg>
