<?xml version="1.0" encoding="UTF-8" standalone="no"?>
<!-- Created with Inkscape (http://www.inkscape.org/) -->

<svg
   width="90mm"
   height="70mm"
   viewBox="0 0 90 70"
   version="1.1"
   id="svg1"
   xml:space="preserve"
   inkscape:version="1.4.2 (f4327f4, 2025-05-13)"
   sodipodi:docname="erythrocyte_complete.svg"
   inkscape:export-filename="erythrocyte.png"
   inkscape:export-xdpi="96"
   inkscape:export-ydpi="96"
   xmlns:inkscape="http://www.inkscape.org/namespaces/inkscape"
   xmlns:sodipodi="http://sodipodi.sourceforge.net/DTD/sodipodi-0.dtd"
   xmlns:xlink="http://www.w3.org/1999/xlink"
   xmlns="http://www.w3.org/2000/svg"
   xmlns:svg="http://www.w3.org/2000/svg"><sodipodi:namedview
     id="namedview1"
     pagecolor="#ffffff"
     bordercolor="#000000"
     borderopacity="0.25"
     inkscape:showpageshadow="2"
     inkscape:pageopacity="0.0"
     inkscape:pagecheckerboard="0"
     inkscape:deskcolor="#d1d1d1"
     inkscape:document-units="mm"
     inkscape:zoom="2.8970538"
     inkscape:cx="132.54845"
     inkscape:cy="121.67534"
     inkscape:window-width="2049"
     inkscape:window-height="1046"
     inkscape:window-x="-11"
     inkscape:window-y="283"
     inkscape:window-maximized="1"
     inkscape:current-layer="layer2" /><defs
     id="defs1"><linearGradient
       id="linearGradient25"
       inkscape:collect="always"><stop
         style="stop-color:#b0090e;stop-opacity:1;"
         offset="0"
         id="stop20" /><stop
         style="stop-color:#68090e;stop-opacity:1;"
         offset="0.47283676"
         id="stop21" /><stop
         style="stop-color:#84090e;stop-opacity:1;"
         offset="0.53555286"
         id="stop27" /><stop
         style="stop-color:#b0090e;stop-opacity:0.9285714;"
         offset="0.79599673"
         id="stop22" /><stop
         style="stop-color:#b0090e;stop-opacity:0.97402596;"
         offset="0.93320841"
         id="stop24" /><stop
         style="stop-color:#b0090e;stop-opacity:1;"
         offset="1"
         id="stop25" /></linearGradient><clipPath
       clipPathUnits="userSpaceOnUse"
       id="clipPath1"><rect
         style="fill:#00b4aa;stroke-width:0.202"
         id="rect2"
         width="48.40406"
         height="41.280441"
         x="115.0738"
         y="103.93174" /></clipPath><radialGradient
       inkscape:collect="always"
       xlink:href="#linearGradient25"
       id="radialGradient4-8"
       cx="154.8838"
       cy="49.896496"
       fx="154.8838"
       fy="49.896496"
       r="40.929874"
       gradientTransform="matrix(0.7662484,-0.19570783,-0.01324347,0.41820361,-71.286425,34.760474)"
       gradientUnits="userSpaceOnUse" /><g
       id="id-971a69a5-c271-4b92-8698-b0c5a614753d-7">
      <g
   id="id-6a2d12d2-7795-4508-8ea9-d538755f970e-5">
        <path
   d="m 7.203125,-3.328125 c 0,-0.21875 -0.0625,-0.328125 -0.140625,-0.328125 -0.046875,0 -0.140625,0.078125 -0.140625,0.265625 -0.046875,0.953125 -0.703125,1.5 -1.40625,1.5 -0.625,0 -1.09375,-0.421875 -1.59375,-0.84375 -0.5,-0.46875 -1.015625,-0.921875 -1.703125,-0.921875 -1.078125,0 -1.671875,1.09375 -1.671875,2 0,0.328125 0.125,0.328125 0.140625,0.328125 0.109375,0 0.140625,-0.203125 0.140625,-0.234375 0.046875,-1.09375 0.78125,-1.53125 1.390625,-1.53125 0.625,0 1.109375,0.421875 1.59375,0.84375 0.515625,0.46875 1.03125,0.921875 1.703125,0.921875 1.09375,0 1.6875,-1.09375 1.6875,-2 z m 0,0"
   id="id-c0813c57-a87c-4323-b1a6-527b3ac674df-4" />
      </g>
      <g
   id="id-7e6bf6a4-700d-406a-9fd3-4a898bca6825-1">
        <path
   d="m 4.578125,-3.1875 c 0,-0.796875 -0.046875,-1.59375 -0.390625,-2.328125 -0.453125,-0.96875 -1.28125,-1.125 -1.6875,-1.125 -0.609375,0 -1.328125,0.265625 -1.75,1.1875 -0.3125,0.6875 -0.359375,1.46875 -0.359375,2.265625 0,0.75 0.03125,1.640625 0.453125,2.40625 0.421875,0.796875 1.15625,1 1.640625,1 0.53125,0 1.296875,-0.203125 1.734375,-1.15625 0.3125,-0.6875 0.359375,-1.46875 0.359375,-2.25 z M 2.484375,0 C 2.09375,0 1.5,-0.25 1.328125,-1.203125 1.21875,-1.796875 1.21875,-2.71875 1.21875,-3.3125 c 0,-0.640625 0,-1.296875 0.078125,-1.828125 0.1875,-1.1875 0.9375,-1.28125 1.1875,-1.28125 0.328125,0 0.984375,0.1875 1.171875,1.171875 0.109375,0.5625 0.109375,1.3125 0.109375,1.9375 0,0.75 0,1.421875 -0.109375,2.0625 C 3.5,-0.296875 2.9375,0 2.484375,0 Z m 0,0"
   id="id-25be4c0a-30c3-407f-a213-3225f36f3279-2" />
      </g>
      <g
   id="id-3c409280-1c11-45c6-9b99-68ff75de5819-0">
        <path
   d="m 4.75,-6.078125 c 0.078125,-0.109375 0.078125,-0.125 0.078125,-0.34375 H 2.40625 c -1.203125,0 -1.234375,-0.125 -1.265625,-0.3125 h -0.25 L 0.5625,-4.6875 h 0.25 c 0.03125,-0.15625 0.109375,-0.78125 0.25,-0.90625 0.0625,-0.0625 0.84375,-0.0625 0.96875,-0.0625 h 2.0625 C 3.984375,-5.5 3.203125,-4.40625 2.984375,-4.078125 2.078125,-2.734375 1.75,-1.34375 1.75,-0.328125 c 0,0.09375 0,0.546875 0.46875,0.546875 0.453125,0 0.453125,-0.453125 0.453125,-0.546875 V -0.84375 c 0,-0.546875 0.03125,-1.09375 0.109375,-1.625 0.046875,-0.234375 0.171875,-1.09375 0.625,-1.703125 z m 0,0"
   id="id-86f0e569-c243-4cf3-9a19-f03e9c45e940-0" />
      </g>
      <g
   id="id-0aec6b00-e983-486a-8da7-7bcca84caeae-1">
        <path
   d="m 4.46875,-2 c 0,-1.1875 -0.8125,-2.1875 -1.890625,-2.1875 -0.46875,0 -0.90625,0.15625 -1.265625,0.515625 V -5.625 c 0.203125,0.0625 0.53125,0.125 0.84375,0.125 1.234375,0 1.9375,-0.90625 1.9375,-1.03125 0,-0.0625 -0.03125,-0.109375 -0.109375,-0.109375 0,0 -0.03125,0 -0.078125,0.03125 C 3.703125,-6.515625 3.21875,-6.3125 2.546875,-6.3125 2.15625,-6.3125 1.6875,-6.390625 1.21875,-6.59375 1.140625,-6.625 1.125,-6.625 1.109375,-6.625 1,-6.625 1,-6.546875 1,-6.390625 V -3.4375 c 0,0.171875 0,0.25 0.140625,0.25 0.078125,0 0.09375,-0.015625 0.140625,-0.078125 C 1.390625,-3.421875 1.75,-3.96875 2.5625,-3.96875 c 0.515625,0 0.765625,0.453125 0.84375,0.640625 0.15625,0.375 0.1875,0.75 0.1875,1.25 0,0.359375 0,0.953125 -0.25,1.375 C 3.109375,-0.3125 2.734375,-0.0625 2.28125,-0.0625 c -0.71875,0 -1.296875,-0.53125 -1.46875,-1.109375 0.03125,0 0.0625,0.015625 0.171875,0.015625 0.328125,0 0.5,-0.25 0.5,-0.484375 0,-0.25 -0.171875,-0.5 -0.5,-0.5 C 0.84375,-2.140625 0.5,-2.0625 0.5,-1.609375 0.5,-0.75 1.1875,0.21875 2.296875,0.21875 3.453125,0.21875 4.46875,-0.734375 4.46875,-2 Z m 0,0"
   id="id-6dd5fbe1-0049-4ed5-bcd0-e404ff3064fd-4" />
      </g>
      <g
   id="id-9dff3c60-74e9-437b-86da-6af8188eb4b6-6">
        <path
   d="M 2.546875,2.5 V 2.09375 h -0.96875 v -9.171875 h 0.96875 v -0.40625 h -1.375 V 2.5 Z m 0,0"
   id="id-d3d8683d-901c-4617-b292-40e905c7d63f-0" />
      </g>
      <g
   id="id-c2be80b5-cc72-4d3f-bb42-e9d91674775a-7">
        <path
   d="M 1.09375,-3.421875 V -0.75 c 0,0.4375 -0.109375,0.4375 -0.78125,0.4375 V 0 c 0.359375,-0.015625 0.859375,-0.03125 1.140625,-0.03125 0.25,0 0.765625,0.015625 1.109375,0.03125 v -0.3125 c -0.671875,0 -0.78125,0 -0.78125,-0.4375 V -2.59375 C 1.78125,-3.625 2.5,-4.1875 3.125,-4.1875 c 0.640625,0 0.75,0.53125 0.75,1.109375 V -0.75 c 0,0.4375 -0.109375,0.4375 -0.78125,0.4375 V 0 c 0.34375,-0.015625 0.859375,-0.03125 1.125,-0.03125 0.25,0 0.78125,0.015625 1.109375,0.03125 v -0.3125 c -0.65625,0 -0.765625,0 -0.765625,-0.4375 v -1.84375 c 0,-1.03125 0.703125,-1.59375 1.34375,-1.59375 0.625,0 0.734375,0.53125 0.734375,1.109375 V -0.75 c 0,0.4375 -0.109375,0.4375 -0.78125,0.4375 V 0 c 0.34375,-0.015625 0.859375,-0.03125 1.125,-0.03125 0.265625,0 0.78125,0.015625 1.125,0.03125 v -0.3125 c -0.515625,0 -0.765625,0 -0.78125,-0.296875 v -1.90625 c 0,-0.859375 0,-1.15625 -0.3125,-1.515625 -0.140625,-0.171875 -0.46875,-0.375 -1.046875,-0.375 -0.828125,0 -1.28125,0.59375 -1.4375,0.984375 C 4.390625,-4.296875 3.65625,-4.40625 3.203125,-4.40625 2.46875,-4.40625 2,-3.984375 1.71875,-3.359375 V -4.40625 L 0.3125,-4.296875 v 0.3125 c 0.703125,0 0.78125,0.0625 0.78125,0.5625 z m 0,0"
   id="id-b25829f7-3f57-411e-9294-5be337598957-1" />
      </g>
      <g
   id="id-e90a5b04-845a-4093-951e-a9b0b4375fc1-7">
        <path
   d="M 1.578125,-7.484375 H 0.21875 v 0.40625 H 1.1875 V 2.09375 H 0.21875 V 2.5 h 1.359375 z m 0,0"
   id="id-3500c968-eb69-477e-9ebd-419af1887ed7-7" />
      </g>
      <g
   id="id-17ff2366-d559-4660-a8b0-6bfe0702517a-7">
        <path
   d="m 1.90625,-0.53125 c 0,-0.28125 -0.234375,-0.53125 -0.515625,-0.53125 -0.296875,0 -0.53125,0.25 -0.53125,0.53125 C 0.859375,-0.234375 1.09375,0 1.390625,0 1.671875,0 1.90625,-0.234375 1.90625,-0.53125 Z m 0,0"
   id="id-51aabba2-f6a1-4bd3-872f-1ce78f09c24b-7" />
      </g>
      <g
   id="id-81a42f19-e626-4650-a406-74db61a82f7a-3">
        <path
   d="m 2.296875,-3.5 c 0.0625,-0.203125 0.15625,-0.59375 0.15625,-0.640625 0,-0.171875 -0.125,-0.265625 -0.296875,-0.265625 -0.015625,0 -0.296875,0.015625 -0.390625,0.359375 l -1.4375,5.765625 c -0.03125,0.125 -0.03125,0.140625 -0.03125,0.171875 0,0.140625 0.109375,0.265625 0.28125,0.265625 0.203125,0 0.328125,-0.1875 0.34375,-0.21875 C 0.96875,1.859375 1.09375,1.328125 1.46875,-0.203125 1.796875,0.0625 2.25,0.109375 2.4375,0.109375 c 0.703125,0 1.09375,-0.453125 1.328125,-0.734375 0.09375,0.453125 0.46875,0.734375 0.90625,0.734375 0.34375,0 0.578125,-0.234375 0.734375,-0.546875 0.171875,-0.359375 0.296875,-0.96875 0.296875,-0.984375 0,-0.109375 -0.09375,-0.109375 -0.125,-0.109375 -0.09375,0 -0.109375,0.046875 -0.140625,0.1875 -0.15625,0.640625 -0.34375,1.234375 -0.75,1.234375 -0.265625,0 -0.296875,-0.265625 -0.296875,-0.453125 0,-0.21875 0.109375,-0.6875 0.1875,-1.046875 L 4.859375,-2.6875 C 4.890625,-2.828125 5,-3.203125 5.03125,-3.359375 5.078125,-3.59375 5.1875,-3.96875 5.1875,-4.03125 c 0,-0.171875 -0.140625,-0.265625 -0.296875,-0.265625 -0.046875,0 -0.3125,0.015625 -0.390625,0.34375 l -0.46875,1.875 c -0.109375,0.5 -0.21875,0.90625 -0.25,1.015625 -0.015625,0.046875 -0.484375,0.953125 -1.296875,0.953125 -0.5,0 -0.734375,-0.328125 -0.734375,-0.875 0,-0.28125 0.0625,-0.5625 0.140625,-0.84375 z m 0,0"
   id="id-407027f7-4c5b-4743-a0dd-f140b6f517bd-3" />
      </g>
    </g><g
       id="id-7383d6ad-faf9-40a3-94e1-7d9e0318e5a2-8">
      <g
   id="id-34663632-0224-4791-8d5e-baa91638e3f3-9">
        <path
   d="m 7.203125,-3.328125 c 0,-0.21875 -0.0625,-0.328125 -0.140625,-0.328125 -0.046875,0 -0.140625,0.078125 -0.140625,0.265625 -0.046875,0.953125 -0.703125,1.5 -1.40625,1.5 -0.625,0 -1.09375,-0.421875 -1.59375,-0.84375 -0.5,-0.46875 -1.015625,-0.921875 -1.703125,-0.921875 -1.078125,0 -1.671875,1.09375 -1.671875,2 0,0.328125 0.125,0.328125 0.140625,0.328125 0.109375,0 0.140625,-0.203125 0.140625,-0.234375 0.046875,-1.09375 0.78125,-1.53125 1.390625,-1.53125 0.625,0 1.109375,0.421875 1.59375,0.84375 0.515625,0.46875 1.03125,0.921875 1.703125,0.921875 1.09375,0 1.6875,-1.09375 1.6875,-2 z m 0,0"
   id="id-4151275a-7ee4-4399-aaea-fa8e93d21a62-8" />
      </g>
      <g
   id="id-3af3674b-e5dd-4647-a9e9-fd0c9ee6ac1c-4">
        <path
   d="m 1.265625,-0.765625 1.0625,-1.03125 c 1.546875,-1.375 2.140625,-1.90625 2.140625,-2.90625 0,-1.140625 -0.890625,-1.9375 -2.109375,-1.9375 -1.125,0 -1.859375,0.921875 -1.859375,1.8125 0,0.546875 0.5,0.546875 0.53125,0.546875 0.171875,0 0.515625,-0.109375 0.515625,-0.53125 0,-0.25 -0.1875,-0.515625 -0.53125,-0.515625 -0.078125,0 -0.09375,0 -0.125,0.015625 0.21875,-0.65625 0.765625,-1.015625 1.34375,-1.015625 0.90625,0 1.328125,0.8125 1.328125,1.625 C 3.5625,-3.90625 3.078125,-3.125 2.515625,-2.5 l -1.90625,2.125 C 0.5,-0.265625 0.5,-0.234375 0.5,0 H 4.203125 L 4.46875,-1.734375 H 4.234375 C 4.171875,-1.4375 4.109375,-1 4,-0.84375 3.9375,-0.765625 3.28125,-0.765625 3.0625,-0.765625 Z m 0,0"
   id="id-cce75445-6685-4925-a899-1fc28896efd2-1" />
      </g>
      <g
   id="id-1793c2b0-dab4-466e-ae64-bcf9854d852a-4">
        <path
   d="m 1.3125,-3.265625 v -0.25 c 0,-2.515625 1.234375,-2.875 1.75,-2.875 0.234375,0 0.65625,0.0625 0.875,0.40625 -0.15625,0 -0.546875,0 -0.546875,0.4375 0,0.3125 0.234375,0.46875 0.453125,0.46875 0.15625,0 0.46875,-0.09375 0.46875,-0.484375 0,-0.59375 -0.4375,-1.078125 -1.265625,-1.078125 -1.28125,0 -2.625,1.28125 -2.625,3.484375 0,2.671875 1.15625,3.375 2.078125,3.375 1.109375,0 2.0625,-0.9375 2.0625,-2.25 0,-1.265625 -0.890625,-2.21875 -2,-2.21875 -0.671875,0 -1.046875,0.5 -1.25,0.984375 z M 2.5,-0.0625 c -0.625,0 -0.921875,-0.59375 -0.984375,-0.75 -0.1875,-0.46875 -0.1875,-1.265625 -0.1875,-1.4375 0,-0.78125 0.328125,-1.78125 1.21875,-1.78125 0.171875,0 0.625,0 0.9375,0.625 0.171875,0.359375 0.171875,0.875 0.171875,1.359375 0,0.484375 0,0.984375 -0.171875,1.34375 C 3.1875,-0.109375 2.734375,-0.0625 2.5,-0.0625 Z m 0,0"
   id="id-17b872dd-10ad-4430-aebd-3a782c1507bd-3" />
      </g>
      <g
   id="id-4b29f756-4b06-4ed8-b7e7-6a1cbf1aaa5e-9">
        <path
   d="M 2.546875,2.5 V 2.09375 h -0.96875 v -9.171875 h 0.96875 v -0.40625 h -1.375 V 2.5 Z m 0,0"
   id="id-eac39a95-bdfd-4f6c-8684-0b5a5130ee7b-8" />
      </g>
      <g
   id="id-0ee6bf83-ce5e-4c8b-abc0-bdf149aa4e58-8">
        <path
   d="M 1.09375,-3.421875 V -0.75 c 0,0.4375 -0.109375,0.4375 -0.78125,0.4375 V 0 c 0.359375,-0.015625 0.859375,-0.03125 1.140625,-0.03125 0.25,0 0.765625,0.015625 1.109375,0.03125 v -0.3125 c -0.671875,0 -0.78125,0 -0.78125,-0.4375 V -2.59375 C 1.78125,-3.625 2.5,-4.1875 3.125,-4.1875 c 0.640625,0 0.75,0.53125 0.75,1.109375 V -0.75 c 0,0.4375 -0.109375,0.4375 -0.78125,0.4375 V 0 c 0.34375,-0.015625 0.859375,-0.03125 1.125,-0.03125 0.25,0 0.78125,0.015625 1.109375,0.03125 v -0.3125 c -0.65625,0 -0.765625,0 -0.765625,-0.4375 v -1.84375 c 0,-1.03125 0.703125,-1.59375 1.34375,-1.59375 0.625,0 0.734375,0.53125 0.734375,1.109375 V -0.75 c 0,0.4375 -0.109375,0.4375 -0.78125,0.4375 V 0 c 0.34375,-0.015625 0.859375,-0.03125 1.125,-0.03125 0.265625,0 0.78125,0.015625 1.125,0.03125 v -0.3125 c -0.515625,0 -0.765625,0 -0.78125,-0.296875 v -1.90625 c 0,-0.859375 0,-1.15625 -0.3125,-1.515625 -0.140625,-0.171875 -0.46875,-0.375 -1.046875,-0.375 -0.828125,0 -1.28125,0.59375 -1.4375,0.984375 C 4.390625,-4.296875 3.65625,-4.40625 3.203125,-4.40625 2.46875,-4.40625 2,-3.984375 1.71875,-3.359375 V -4.40625 L 0.3125,-4.296875 v 0.3125 c 0.703125,0 0.78125,0.0625 0.78125,0.5625 z m 0,0"
   id="id-05eedfc7-9f9e-453d-9dd2-656c468670a4-0" />
      </g>
      <g
   id="id-1b33f170-e12e-4087-911f-c6b05a545ef3-8">
        <path
   d="M 1.578125,-7.484375 H 0.21875 v 0.40625 H 1.1875 V 2.09375 H 0.21875 V 2.5 h 1.359375 z m 0,0"
   id="id-d074eff1-6354-45f4-8065-e751d8a9f867-7" />
      </g>
      <g
   id="id-9f0c95ed-742d-491d-82e4-39967a18cac6-7">
        <path
   d="m 1.90625,-0.53125 c 0,-0.28125 -0.234375,-0.53125 -0.515625,-0.53125 -0.296875,0 -0.53125,0.25 -0.53125,0.53125 C 0.859375,-0.234375 1.09375,0 1.390625,0 1.671875,0 1.90625,-0.234375 1.90625,-0.53125 Z m 0,0"
   id="id-51e79707-e937-44bb-b960-502689d1feed-8" />
      </g>
      <g
   id="id-a4b9aac6-f47b-4d61-8da4-84cef715a610-3">
        <path
   d="m 2.296875,-3.5 c 0.0625,-0.203125 0.15625,-0.59375 0.15625,-0.640625 0,-0.171875 -0.125,-0.265625 -0.296875,-0.265625 -0.015625,0 -0.296875,0.015625 -0.390625,0.359375 l -1.4375,5.765625 c -0.03125,0.125 -0.03125,0.140625 -0.03125,0.171875 0,0.140625 0.109375,0.265625 0.28125,0.265625 0.203125,0 0.328125,-0.1875 0.34375,-0.21875 C 0.96875,1.859375 1.09375,1.328125 1.46875,-0.203125 1.796875,0.0625 2.25,0.109375 2.4375,0.109375 c 0.703125,0 1.09375,-0.453125 1.328125,-0.734375 0.09375,0.453125 0.46875,0.734375 0.90625,0.734375 0.34375,0 0.578125,-0.234375 0.734375,-0.546875 0.171875,-0.359375 0.296875,-0.96875 0.296875,-0.984375 0,-0.109375 -0.09375,-0.109375 -0.125,-0.109375 -0.09375,0 -0.109375,0.046875 -0.140625,0.1875 -0.15625,0.640625 -0.34375,1.234375 -0.75,1.234375 -0.265625,0 -0.296875,-0.265625 -0.296875,-0.453125 0,-0.21875 0.109375,-0.6875 0.1875,-1.046875 L 4.859375,-2.6875 C 4.890625,-2.828125 5,-3.203125 5.03125,-3.359375 5.078125,-3.59375 5.1875,-3.96875 5.1875,-4.03125 c 0,-0.171875 -0.140625,-0.265625 -0.296875,-0.265625 -0.046875,0 -0.3125,0.015625 -0.390625,0.34375 l -0.46875,1.875 c -0.109375,0.5 -0.21875,0.90625 -0.25,1.015625 -0.015625,0.046875 -0.484375,0.953125 -1.296875,0.953125 -0.5,0 -0.734375,-0.328125 -0.734375,-0.875 0,-0.28125 0.0625,-0.5625 0.140625,-0.84375 z m 0,0"
   id="id-b318c208-6af8-4ba2-9fc8-04923cb7847f-8" />
      </g>
    </g></defs><g
     inkscape:label="Layer 1"
     inkscape:groupmode="layer"
     id="layer1" /><g
     inkscape:groupmode="layer"
     id="layer2"
     inkscape:label="Layer 2"><path
       id="path1-54"
       style="fill:url(#radialGradient4-8);stroke-width:0.180911"
       d="M 78.727373,17.274322 C 78.149998,31.798469 63.748141,40.904605 45.978409,45.552923 28.208677,50.201241 15.570293,47.014623 15.834575,34.212804 16.098856,21.410984 29.2524,8.6719892 46.710824,4.2924731 64.169247,-0.0870429 79.304747,2.7501751 78.727373,17.274322 Z"
       sodipodi:nodetypes="zzzzz" /></g></svg>
