<?xml version="1.0" encoding="UTF-8" standalone="no"?>
<svg
   width="360pt"
   height="120pt"
   viewBox="0 0 360 120"
   version="1.1"
   id="svg4"
   sodipodi:docname="Geometrias.svg"
   inkscape:version="1.4.3 (0d15f75, 2025-12-25)"
   inkscape:export-filename="Geometrias.png"
   inkscape:export-xdpi="500"
   inkscape:export-ydpi="500"
   xmlns:inkscape="http://www.inkscape.org/namespaces/inkscape"
   xmlns:sodipodi="http://sodipodi.sourceforge.net/DTD/sodipodi-0.dtd"
   xmlns="http://www.w3.org/2000/svg"
   xmlns:svg="http://www.w3.org/2000/svg">
  <defs
     id="defs4" />
  <sodipodi:namedview
     id="namedview4"
     pagecolor="#ffffff"
     bordercolor="#000000"
     borderopacity="0.25"
     inkscape:showpageshadow="2"
     inkscape:pageopacity="0.0"
     inkscape:pagecheckerboard="0"
     inkscape:deskcolor="#d1d1d1"
     inkscape:document-units="pt"
     inkscape:zoom="2"
     inkscape:cx="-105.5"
     inkscape:cy="175.75"
     inkscape:window-width="2400"
     inkscape:window-height="1261"
     inkscape:window-x="-9"
     inkscape:window-y="-9"
     inkscape:window-maximized="1"
     inkscape:current-layer="svg4" />
  <path
     style="fill:none;stroke:#5f6ec5;stroke-width:1.6;stroke-linecap:square;stroke-linejoin:miter;stroke-miterlimit:3.25;stroke-opacity:1"
     d="M 7.445313,59.609375 7.519531,57.460938 7.625,56.070313 7.730469,55.058594 7.835938,54.222656 7.941406,53.496094 8.046875,52.84375 8.152344,52.246094 8.261719,51.691406 8.472656,50.683594 8.578125,50.21875 8.683594,49.777344 8.894531,48.949219 9,48.558594 l 0.109375,-0.378906 0.210938,-0.71875 0.421875,-1.320313 0.109375,-0.3125 0.105468,-0.300781 0.210938,-0.585938 0.425781,-1.101562 0.105469,-0.261719 0.105469,-0.257812 0.210937,-0.503907 0.425781,-0.960937 0.847657,-1.765625 0.105468,-0.210938 0.316407,-0.609375 0.425781,-0.78125 0.847656,-1.46875 0.113281,-0.1875 0.117188,-0.191406 0.226562,-0.371094 0.460938,-0.71875 0.917969,-1.367187 1.839843,-2.480469 0.117188,-0.144531 0.113281,-0.144531 0.230469,-0.285157 0.460937,-0.558593 0.917969,-1.074219 1.839844,-1.992188 0.105469,-0.109375 0.105468,-0.113281 0.644532,-0.644531 0.859375,-0.832031 1.714843,-1.566407 0.109375,-0.09375 0.105469,-0.09375 0.214844,-0.1875 L 25.628906,23.5 26.488281,22.785156 28.203125,21.4375 28.414063,21.28125 28.625,21.121094 29.046875,20.8125 l 0.839844,-0.605469 1.683594,-1.152343 0.210937,-0.140625 0.632813,-0.410157 0.839843,-0.53125 1.683594,-1.007812 0.226563,-0.132813 0.230468,-0.132812 0.457032,-0.257813 0.910156,-0.503906 1.828125,-0.957031 0.113281,-0.05859 0.113281,-0.05469 L 39.042969,14.75 39.5,14.527344 l 0.914063,-0.4375 1.824218,-0.835938 0.109375,-0.04687 0.105469,-0.04297 0.210938,-0.09375 0.425781,-0.183594 0.855469,-0.355469 1.703125,-0.679687 0.105468,-0.03906 0.105469,-0.04297 0.214844,-0.07813 L 46.5,11.53125 l 0.851563,-0.3125 1.703125,-0.589844 0.117187,-0.03906 0.113281,-0.03516 0.230469,-0.07813 0.464844,-0.148438 0.921875,-0.289062 L 52.75,9.492188 52.863281,9.457031 52.980469,9.425781 53.210938,9.363281 53.671875,9.234375 54.59375,8.988281 56.441406,8.53125 56.554688,8.503906 56.667969,8.480469 56.894531,8.425781 57.347656,8.324219 58.253906,8.125 l 1.8125,-0.371094 0.113282,-0.023437 0.113281,-0.019531 0.679687,-0.128907 0.90625,-0.160156 1.8125,-0.292969 0.210938,-0.03125 L 64.117188,7.0625 65.382813,6.886719 65.59375,6.855469 65.804688,6.828125 66.230469,6.777344 67.074219,6.671875 67.496094,6.625 67.921875,6.578125 68.765625,6.492188 68.871094,6.480469 68.976563,6.472656 69.1875,6.449219 69.609375,6.410156 70.457031,6.339844 70.570313,6.332031 70.6875,6.320313 70.914063,6.304688 71.375,6.269531 71.601563,6.253906 71.832031,6.238281 72.289063,6.207031 72.40625,6.199219 72.519531,6.191406 72.75,6.179688 73.207031,6.152344 73.320313,6.148438 73.4375,6.140625 73.664063,6.128906 74.125,6.105469 74.351563,6.097656 74.582031,6.085938 74.695313,6.082031 74.8125,6.078125 75.039063,6.070313 75.15625,6.066406 75.269531,6.0625 75.5,6.054688 75.957031,6.039063 h 0.117188 l 0.113281,-0.00391 0.230469,-0.00781 h 0.113281 l 0.113281,-0.00391 0.230469,-0.00391 0.113281,-0.00391 h 0.117188 l 0.113281,-0.00391 h 0.230469 L 77.5625,6.007813 h 0.113281 l 0.117188,-0.00391 H 78.21875 L 78.328125,6 h 1.175781 l 0.105469,0.00391 h 0.320313 l 0.109375,0.00391 h 0.105468 l 0.214844,0.00391 h 0.214844 l 0.210937,0.00391 0.109375,0.00391 H 81 l 0.214844,0.00391 0.105469,0.00391 0.109375,0.00391 0.214843,0.00391 L 81.75,6.0391 h 0.105469 l 0.214844,0.00781 0.109375,0.00391 0.105468,0.00391 0.214844,0.00391 0.425781,0.015625 0.109375,0.00391 0.105469,0.00391 0.214844,0.00781 0.425781,0.019531 0.855469,0.042969 0.210937,0.00781 0.210938,0.011719 0.417969,0.027344 0.839843,0.050781 0.210938,0.015625 0.207031,0.015625 0.421875,0.027344 0.839844,0.066406 0.105469,0.00781 0.101562,0.00781 0.210938,0.019531 0.417968,0.035157 0.839844,0.078125 1.679688,0.175781 0.226562,0.023437 0.226563,0.027344 0.457031,0.050781 0.910156,0.109375 1.820313,0.246094 0.226562,0.03125 0.230469,0.03125 0.453125,0.066406 0.910156,0.140625 1.820313,0.296875 0.109375,0.015625 0.105468,0.019532 0.210938,0.035156 0.425781,0.074219 0.847655,0.15625 1.69922,0.324218 3.39844,0.714844 0.11719,0.023438 0.11328,0.027343 0.23047,0.050782 0.46093,0.105468 0.92188,0.214844 1.83984,0.453125 3.6836,0.972656 0.11328,0.03125 0.11328,0.03516 0.22656,0.0625 0.44922,0.125 0.90625,0.261718 1.80859,0.535157 3.61328,1.140625 6.7461,2.339843 7.3125,2.8125 6.82812,2.804688 7.39844,3.109375 7.26562,2.953125 0.10547,0.03906 0.10547,0.04297 0.21094,0.07813 0.42578,0.164063 0.84375,0.320312 1.69531,0.625 0.21094,0.07813 0.21094,0.07422 0.42578,0.152344 0.84766,0.292968 1.6914,0.570313 0.11719,0.03516 0.11328,0.03906 0.23047,0.07422 0.45703,0.144532 0.92188,0.28125 1.83593,0.53125 0.11328,0.03125 0.11719,0.03125 0.22656,0.0625 0.46094,0.121093 0.91797,0.234375 1.83594,0.421875 0.10937,0.02344 0.10547,0.02344 0.21485,0.04297 0.42968,0.08984 0.85547,0.160156 0.10938,0.01953 0.10547,0.01953 0.21484,0.03906 0.42969,0.07422 0.85547,0.132812 0.10937,0.01563 0.10547,0.01563 0.21484,0.03125 0.42969,0.05859 0.10547,0.01172 0.10937,0.01563 0.21094,0.02734 0.42969,0.05078 0.10937,0.01172 0.10547,0.01172 0.21485,0.01953 0.42968,0.04297 0.10547,0.01172 0.10938,0.0078 0.21094,0.01953 0.42968,0.03516 0.42188,0.03125 0.10547,0.0039 0.10547,0.0078 0.20703,0.01172 0.10547,0.0078 0.10546,0.0039 0.21094,0.01172 0.10547,0.0039 0.10547,0.0078 0.21094,0.0078 0.10156,0.0039 0.31641,0.01172 h 0.10546 l 0.21094,0.0078 h 0.10547 l 0.10547,0.0039 h 0.10547 l 0.10156,0.0039 h 0.31641 l 0.10547,0.0039 h 0.42187 l 0.10547,-0.0039 h 0.20703 l 0.10547,-0.0039 h 0.21094 l 0.21093,-0.0078 h 0.10547 l 0.10547,-0.0039 0.10156,-0.0039 0.73829,-0.02734 0.10546,-0.0078 0.20704,-0.0078 0.10546,-0.0078 0.10547,-0.0039 0.21094,-0.01563 0.42188,-0.02734 0.22656,-0.01563 0.22656,-0.01953 0.45703,-0.03906 0.22656,-0.02344 0.23047,-0.02344 0.45703,-0.04687 0.11329,-0.01172 0.11328,-0.01563 0.22656,-0.02734 0.45703,-0.05469 0.91016,-0.128906 0.11718,-0.01953 0.11329,-0.01563 0.22656,-0.03516 0.45703,-0.07422 0.91016,-0.164063 0.11718,-0.01953 0.11328,-0.02344 0.22657,-0.04297 0.45703,-0.08984 0.91015,-0.191406 0.10938,-0.02344 0.31641,-0.07031 1.27734,-0.304688 1.70312,-0.445312 0.21094,-0.0625 0.21485,-0.05859 0.42578,-0.121094 0.84765,-0.25 1.70313,-0.53125 0.11719,-0.03516 0.11328,-0.03906 0.23047,-0.07422 0.46093,-0.152344 0.92188,-0.3125 1.84765,-0.652344 3.6875,-1.390625 7.24219,-2.949219 6.75781,-2.84375 7.32813,-3.011718 6.83984,-2.628907 6.70313,-2.339843 0.11328,-0.03906 0.11719,-0.03516 0.67968,-0.222656 0.91016,-0.289063 1.82031,-0.566406 3.63672,-1.066406 0.10547,-0.02734 0.10547,-0.03125 0.21094,-0.05859 0.42578,-0.117187 0.84765,-0.230469 1.69922,-0.445313 0.21094,-0.05469 0.21094,-0.050781 0.42578,-0.109375 0.84766,-0.207032 1.69921,-0.402343 0.11329,-0.027344 0.11718,-0.023438 0.22657,-0.054687 1.38281,-0.304688 1.83984,-0.382812 0.22656,-0.046875 0.23047,-0.046875 0.46094,-0.089844 0.92188,-0.175781 1.83984,-0.332031 0.10547,-0.019532 0.10937,-0.015625 0.21485,-0.039062 0.42578,-0.070313 0.85937,-0.140625 1.71875,-0.261718 0.10938,-0.015625 0.10547,-0.015625 0.21484,-0.03125 0.42969,-0.058594 0.85937,-0.113281 1.71875,-0.214844 0.21094,-0.023438 0.20703,-0.023437 0.42188,-0.046875 0.84375,-0.089844 0.10547,-0.011719 0.10546,-0.00781 0.21094,-0.023438 0.41797,-0.039062 0.84375,-0.078125 0.21094,-0.015625 0.21094,-0.019531 0.42187,-0.035157 0.83984,-0.0625 0.42188,-0.03125 0.42187,-0.027343 0.83985,-0.054688 0.11719,-0.00391 0.11328,-0.00781 0.22656,-0.011718 0.45703,-0.023438 0.11328,-0.00781 0.11719,-0.00391 0.22656,-0.011718 0.45703,-0.019532 0.22657,-0.00781 0.23046,-0.011719 0.22657,-0.00781 0.23047,-0.00781 0.22656,-0.00781 0.23047,-0.00781 0.45703,-0.011719 0.11328,-0.00391 h 0.11328 l 0.23047,-0.00781 h 0.11328 l 0.11328,-0.00391 0.23047,-0.00391 h 0.11328 l 0.11328,-0.00391 h 0.11328 l 0.11329,-0.00391 h 0.23046 l 0.11329,-0.00391 h 0.34375 L 280.49219,6 H 281.75 l 0.11328,0.00391 h 0.32813 l 0.10546,0.00391 h 0.21094 l 0.10938,0.00391 0.21093,0.00391 h 0.21485 l 0.21094,0.00781 h 0.10937 l 0.10547,0.00391 0.21484,0.00391 0.10547,0.00391 h 0.10547 l 0.21484,0.00781 0.10547,0.00391 h 0.10547 l 0.21485,0.00781 0.21093,0.00781 0.21485,0.00781 0.42578,0.015625 0.10547,0.00391 0.10937,0.00391 0.21094,0.011719 0.42578,0.019531 0.10938,0.00391 0.10546,0.00781 0.21094,0.00781 0.42578,0.023438 0.10938,0.00781 0.10547,0.00781 0.21484,0.011719 0.42578,0.027343 0.85156,0.058594 0.11719,0.00781 0.11328,0.00781 0.69141,0.058594 0.92578,0.078125 0.11719,0.011719 0.11328,0.011718 0.69141,0.070313 0.92578,0.097656 0.11718,0.011719 0.11329,0.011719 0.6914,0.082031 0.92578,0.117187 1.84766,0.261719 0.11328,0.015625 0.11328,0.019531 L 297.09375,7.25 298,7.402344 l 1.81641,0.328125 0.11328,0.023437 0.11328,0.019532 0.22656,0.046875 0.45313,0.089843 0.90625,0.1875 1.8164,0.40625 0.10547,0.027344 0.10547,0.023438 0.63281,0.152343 0.84766,0.214844 1.6914,0.449219 0.10547,0.03125 0.10547,0.027344 0.21094,0.0625 0.42578,0.121093 0.84375,0.246094 1.69141,0.53125 0.11718,0.03516 0.11329,0.03906 0.23046,0.07422 0.45704,0.152343 0.91796,0.316407 1.83594,0.664062 0.11328,0.04297 0.11328,0.04687 0.23047,0.08594 0.46094,0.179688 0.91406,0.363281 1.83594,0.773438 0.10938,0.04687 0.10546,0.04687 0.21485,0.09375 0.42578,0.191406 0.85937,0.394531 1.71094,0.824219 0.10938,0.05469 0.10547,0.05469 0.21484,0.105469 0.42578,0.21875 0.85938,0.449218 1.71093,0.941407 0.21094,0.117187 0.21094,0.121094 0.41797,0.242187 0.83984,0.5 1.67969,1.050782 0.10547,0.06641 0.10547,0.07031 0.21093,0.136719 0.41797,0.277344 0.83985,0.570312 1.67968,1.195313 0.11328,0.08594 0.11329,0.08203 0.22656,0.171875 0.45703,0.34375 0.91016,0.710937 1.82421,1.507813 0.22657,0.195312 0.22656,0.199219 0.45703,0.402344 0.91016,0.832031 1.82422,1.777344 0.42187,0.4375 0.42578,0.449218 0.85156,0.925782 1.69922,1.988281 0.10547,0.128906 0.10547,0.132813 0.21484,0.265625 0.42579,0.542968 0.84765,1.132813 1.69922,2.476562 0.12109,0.183594 0.11719,0.1875 0.23828,0.378906 0.47266,0.785157 0.94922,1.671875 0.12109,0.222656 0.11719,0.222656 0.23828,0.457031 0.47266,0.949219 0.94922,2.082031 0.11718,0.277344 0.1211,0.289063 0.23828,0.585937 0.47265,1.257813 0.11719,0.332031 0.1211,0.339844 0.23437,0.710937 0.47656,1.558594 0.11719,0.425781 0.12109,0.441406 0.23438,0.945313 0.12109,0.507812 0.11719,0.542969 0.23828,1.191406 0.11719,0.675782 0.12109,0.75 0.11719,0.851562 0.11719,1.011719 0.12109,1.332031 0.11328,2.796875"
     id="path1" />
  <path
     style="fill:none;stroke:#5f6ec5;stroke-width:1.6;stroke-linecap:square;stroke-linejoin:miter;stroke-miterlimit:3.25;stroke-opacity:1"
     d="m 7.445313,60.390625 0.074218,2.148438 0.105469,1.390625 0.105469,1.011718 0.105469,0.835938 0.105468,0.726562 0.105469,0.652344 0.105469,0.597656 0.109375,0.554688 0.210937,1.007812 0.105469,0.464844 0.105469,0.441406 0.210937,0.828125 L 9,71.441406 l 0.109375,0.378907 0.210938,0.71875 0.421875,1.320312 0.109375,0.3125 0.105468,0.300781 0.210938,0.585938 0.425781,1.101562 0.105469,0.261719 0.105469,0.257813 0.210937,0.503906 0.425781,0.960937 0.847657,1.765625 0.105468,0.210938 0.316407,0.609375 0.425781,0.78125 0.847656,1.46875 0.113281,0.1875 0.117188,0.191406 0.226562,0.371094 0.460938,0.71875 0.917969,1.367187 1.839843,2.480469 0.117188,0.144531 0.113281,0.144532 0.230469,0.285156 0.460937,0.558594 0.917969,1.074218 1.839844,1.992188 0.105469,0.109375 0.105468,0.113281 0.644532,0.644531 0.859375,0.832032 1.714843,1.566406 0.109375,0.09375 0.105469,0.09375 0.214844,0.1875 0.429687,0.363281 0.859375,0.714844 1.714844,1.347656 0.210938,0.15625 0.210937,0.160156 0.421875,0.308594 0.839844,0.605469 1.683594,1.152341 0.210937,0.14063 0.632813,0.41015 0.839843,0.53125 1.683594,1.00782 0.226563,0.13281 0.230468,0.13281 0.457032,0.25781 0.910156,0.50391 1.828125,0.95703 0.113281,0.0586 0.113281,0.0547 0.226563,0.11719 0.457031,0.22266 0.914063,0.4375 1.824218,0.83593 0.109375,0.0469 0.105469,0.043 0.210938,0.0937 0.425781,0.18359 0.855469,0.35547 1.703125,0.67969 0.105468,0.0391 0.105469,0.043 0.214844,0.0781 0.425781,0.16016 0.851563,0.3125 1.703125,0.58984 0.117187,0.0391 0.113281,0.0352 0.230469,0.0781 0.464844,0.14844 0.921875,0.28906 1.847656,0.54687 0.113281,0.0352 0.117188,0.0312 0.230469,0.0625 0.460937,0.12891 0.921875,0.24609 1.847656,0.45703 0.113282,0.0273 0.113281,0.0234 0.226562,0.0547 0.453125,0.10156 0.90625,0.19922 1.8125,0.37109 0.113282,0.0234 0.113281,0.0195 0.679687,0.12891 0.90625,0.16016 1.8125,0.29296 0.210938,0.0312 0.214844,0.0352 1.265625,0.17578 0.210937,0.0312 0.210938,0.0273 0.425781,0.0508 0.84375,0.10547 0.421875,0.0469 0.425781,0.0469 0.84375,0.0859 0.105469,0.0117 0.105469,0.008 0.210937,0.0234 0.421875,0.0391 0.847656,0.0703 0.113282,0.008 0.117187,0.0117 0.226563,0.0156 0.460937,0.0352 0.226563,0.0156 0.230468,0.0156 0.457032,0.0312 0.117187,0.008 0.113281,0.008 0.230469,0.0117 0.457031,0.0273 0.113282,0.004 0.117187,0.008 0.226563,0.0117 0.460937,0.0234 0.226563,0.008 0.230468,0.0117 0.113282,0.004 0.117187,0.004 0.226563,0.008 0.117187,0.004 0.113281,0.004 0.230469,0.008 0.457031,0.0156 h 0.117188 l 0.113281,0.004 0.230469,0.008 h 0.113281 l 0.113281,0.004 0.230469,0.004 0.113281,0.004 h 0.117188 l 0.113281,0.004 h 0.230469 l 0.113281,0.004 h 0.113281 l 0.117188,0.004 H 78.21875 L 78.328125,114 h 1.175781 l 0.105469,-0.004 h 0.320313 l 0.109375,-0.004 h 0.105468 l 0.214844,-0.004 h 0.214844 l 0.210937,-0.004 0.109375,-0.004 H 81 l 0.214844,-0.004 0.105469,-0.004 0.109375,-0.004 0.214843,-0.004 L 81.75,113.96 h 0.105469 l 0.214844,-0.008 0.109375,-0.004 0.105468,-0.004 0.214844,-0.004 0.425781,-0.0156 0.109375,-0.004 0.105469,-0.004 0.214844,-0.008 0.425781,-0.0195 0.855469,-0.043 0.210937,-0.008 0.210938,-0.0117 0.417969,-0.0273 0.839843,-0.0508 0.210938,-0.0156 0.207031,-0.0156 0.421875,-0.0273 0.839844,-0.0664 0.105469,-0.008 0.101562,-0.008 0.210938,-0.0195 0.417968,-0.0352 0.839844,-0.0781 1.679688,-0.17578 0.226562,-0.0234 0.226563,-0.0273 0.457031,-0.0508 0.910156,-0.10938 1.820313,-0.24609 0.226562,-0.0312 0.230469,-0.0312 0.453125,-0.0664 0.910156,-0.14062 1.820313,-0.29688 0.109375,-0.0156 0.105468,-0.0195 0.210938,-0.0352 0.425781,-0.0742 0.847655,-0.15625 1.69922,-0.32422 3.39844,-0.71484 0.11719,-0.0234 0.11328,-0.0273 0.23047,-0.0508 0.46093,-0.10547 0.92188,-0.21484 1.83984,-0.45313 3.6836,-0.97266 0.11328,-0.0312 0.11328,-0.0352 0.22656,-0.0625 0.44922,-0.125 0.90625,-0.26172 1.80859,-0.53516 3.61328,-1.14062 6.7461,-2.33985 7.3125,-2.8125 6.82812,-2.804684 7.39844,-3.109375 7.26562,-2.953125 0.10547,-0.03906 0.10547,-0.04297 0.21094,-0.07813 0.42578,-0.164062 0.84375,-0.320313 1.69531,-0.625 0.21094,-0.07813 0.21094,-0.07422 0.42578,-0.152343 0.84766,-0.292969 1.6914,-0.570313 0.11719,-0.03516 0.11328,-0.03906 0.23047,-0.07422 0.45703,-0.144531 0.92188,-0.28125 1.83593,-0.53125 0.11328,-0.03125 0.11719,-0.03125 0.22656,-0.0625 0.46094,-0.121094 0.91797,-0.234375 1.83594,-0.421875 0.10937,-0.02344 0.10547,-0.02344 0.21485,-0.04297 0.42968,-0.08984 0.85547,-0.160156 0.10938,-0.01953 0.10547,-0.01953 0.21484,-0.03906 0.42969,-0.07422 0.85547,-0.132812 0.10937,-0.01563 0.10547,-0.01563 0.21484,-0.03125 0.42969,-0.05859 0.10547,-0.01172 0.10937,-0.01563 0.21094,-0.02734 0.42969,-0.05078 0.10937,-0.01172 0.10547,-0.01172 0.21485,-0.01953 0.42968,-0.04297 0.10547,-0.01172 0.10938,-0.0078 0.21094,-0.01953 0.42968,-0.03516 0.42188,-0.03125 0.10547,-0.0039 0.10547,-0.0078 0.20703,-0.01172 0.10547,-0.0078 0.10546,-0.0039 0.21094,-0.01172 0.10547,-0.0039 0.10547,-0.0078 0.21094,-0.0078 0.10156,-0.0039 0.31641,-0.01172 h 0.10546 l 0.21094,-0.0078 h 0.10547 l 0.10547,-0.0039 h 0.10547 l 0.10156,-0.0039 h 0.31641 l 0.10547,-0.0039 h 0.42187 l 0.10547,0.0039 h 0.20703 l 0.10547,0.0039 h 0.21094 l 0.21093,0.0078 h 0.10547 l 0.10547,0.0039 0.10156,0.0039 0.73829,0.02734 0.10546,0.0078 0.20704,0.0078 0.10546,0.0078 0.10547,0.0039 0.21094,0.01563 0.42188,0.02734 0.22656,0.01563 0.22656,0.01953 0.45703,0.03906 0.22656,0.02344 0.23047,0.02344 0.45703,0.04687 0.11329,0.01172 0.11328,0.01563 0.22656,0.02734 0.45703,0.05469 0.91016,0.128906 0.11718,0.01953 0.11329,0.01563 0.22656,0.03516 0.45703,0.07422 0.91016,0.164062 0.11718,0.01953 0.11328,0.02344 0.22657,0.04297 0.45703,0.08984 0.91015,0.191407 0.10938,0.02344 0.31641,0.07031 1.27734,0.304687 1.70312,0.445313 0.21094,0.0625 0.21485,0.05859 0.42578,0.121094 0.84765,0.25 1.70313,0.53125 0.11719,0.03516 0.11328,0.03906 0.23047,0.07422 0.46093,0.152343 0.92188,0.3125 1.84765,0.652344 3.6875,1.390625 7.24219,2.949219 6.75781,2.84375 7.32813,3.011717 6.83984,2.62891 6.70313,2.33984 0.11328,0.0391 0.11719,0.0352 0.67968,0.22266 0.91016,0.28906 1.82031,0.56641 3.63672,1.0664 0.10547,0.0273 0.10547,0.0312 0.21094,0.0586 0.42578,0.11719 0.84765,0.23047 1.69922,0.44531 0.21094,0.0547 0.21094,0.0508 0.42578,0.10937 0.84766,0.20703 1.69921,0.40235 0.11329,0.0273 0.11718,0.0234 0.22657,0.0547 1.38281,0.30468 1.83984,0.38282 0.22656,0.0469 0.23047,0.0469 0.46094,0.0898 0.92188,0.17578 1.83984,0.33203 0.10547,0.0195 0.10937,0.0156 0.21485,0.0391 0.42578,0.0703 0.85937,0.14063 1.71875,0.26172 0.10938,0.0156 0.10547,0.0156 0.21484,0.0312 0.42969,0.0586 0.85937,0.11328 1.71875,0.21485 0.21094,0.0234 0.20703,0.0234 0.42188,0.0469 0.84375,0.0898 0.10547,0.0117 0.10546,0.008 0.21094,0.0234 0.41797,0.0391 0.84375,0.0781 0.21094,0.0156 0.21094,0.0195 0.42187,0.0352 0.83984,0.0625 0.42188,0.0312 0.42187,0.0273 0.83985,0.0547 0.11719,0.004 0.11328,0.008 0.22656,0.0117 0.45703,0.0234 0.11328,0.008 0.11719,0.004 0.22656,0.0117 0.45703,0.0195 0.22657,0.008 0.23046,0.0117 0.22657,0.008 0.23047,0.008 0.22656,0.008 0.23047,0.008 0.45703,0.0117 0.11328,0.004 h 0.11328 l 0.23047,0.008 h 0.11328 l 0.11328,0.004 0.23047,0.004 h 0.11328 l 0.11328,0.004 h 0.11328 l 0.11329,0.004 h 0.23046 l 0.11329,0.004 h 0.34375 L 280.49219,114 H 281.75 l 0.11328,-0.004 h 0.32813 l 0.10546,-0.004 h 0.21094 l 0.10938,-0.004 0.21093,-0.004 h 0.21485 l 0.21094,-0.008 h 0.10937 l 0.10547,-0.004 0.21484,-0.004 0.10547,-0.004 h 0.10547 l 0.21484,-0.008 0.10547,-0.004 h 0.10547 l 0.21485,-0.008 0.21093,-0.008 0.21485,-0.008 0.42578,-0.0156 0.10547,-0.004 0.10937,-0.004 0.21094,-0.0117 0.42578,-0.0195 0.10938,-0.004 0.10546,-0.008 0.21094,-0.008 0.42578,-0.0234 0.10938,-0.008 0.10547,-0.008 0.21484,-0.0117 0.42578,-0.0273 0.85156,-0.0586 0.11719,-0.008 0.11328,-0.008 0.69141,-0.0586 0.92578,-0.0781 0.11719,-0.0117 0.11328,-0.0117 0.69141,-0.0703 0.92578,-0.0977 0.11718,-0.0117 0.11329,-0.0117 0.6914,-0.082 0.92578,-0.11719 1.84766,-0.26171 0.11328,-0.0156 0.11328,-0.0195 0.67969,-0.10547 0.90625,-0.15234 1.81641,-0.32813 0.11328,-0.0234 0.11328,-0.0195 0.22656,-0.0469 0.45313,-0.0898 0.90625,-0.1875 1.8164,-0.40625 0.10547,-0.0273 0.10547,-0.0234 0.63281,-0.15234 0.84766,-0.21484 1.6914,-0.44922 0.10547,-0.0312 0.10547,-0.0273 0.21094,-0.0625 0.42578,-0.12109 0.84375,-0.24609 1.69141,-0.53125 0.11718,-0.0352 0.11329,-0.0391 0.23046,-0.0742 0.45704,-0.15235 0.91796,-0.3164 1.83594,-0.66406 0.11328,-0.043 0.11328,-0.0469 0.23047,-0.0859 0.46094,-0.17968 0.91406,-0.36328 1.83594,-0.77344 0.10938,-0.0469 0.10546,-0.0469 0.21485,-0.0937 0.42578,-0.19141 0.85937,-0.39453 1.71094,-0.82422 0.10938,-0.0547 0.10547,-0.0547 0.21484,-0.10547 0.42578,-0.21875 0.85938,-0.44922 1.71093,-0.94141 0.21094,-0.11718 0.21094,-0.1211 0.41797,-0.24219 0.83984,-0.5 1.67969,-1.05078 0.10547,-0.0664 0.10547,-0.0703 0.21093,-0.13671 0.41797,-0.27735 0.83985,-0.57031 1.67968,-1.195314 0.11328,-0.08594 0.11329,-0.08203 0.22656,-0.171875 0.45703,-0.34375 0.91016,-0.710938 1.82421,-1.507812 0.22657,-0.195313 0.22656,-0.199219 0.45703,-0.402343 0.91016,-0.832032 1.82422,-1.777343 0.42187,-0.4375 0.42578,-0.449219 0.85156,-0.925781 1.69922,-1.988282 0.10547,-0.128906 0.10547,-0.132812 0.21484,-0.265625 0.42579,-0.542969 0.84765,-1.132813 1.69922,-2.476562 0.12109,-0.183594 0.11719,-0.1875 0.23828,-0.378906 0.47266,-0.785156 0.94922,-1.671875 0.12109,-0.222657 0.11719,-0.222656 0.23828,-0.457031 0.47266,-0.949219 0.94922,-2.082031 0.11718,-0.277344 0.1211,-0.289062 0.23828,-0.585938 0.47265,-1.257812 0.11719,-0.332032 0.1211,-0.339843 0.23437,-0.710938 0.47656,-1.558594 0.11719,-0.425781 0.12109,-0.441406 0.23438,-0.945313 0.12109,-0.507812 0.11719,-0.542969 0.23828,-1.191406 0.11719,-0.675781 0.12109,-0.75 0.11719,-0.851563 0.11719,-1.011719 0.12109,-1.332031 0.11328,-2.796875"
     id="path2" />
  <path
     style="fill:none;stroke:#f5ad33;stroke-width:1.6;stroke-linecap:square;stroke-linejoin:miter;stroke-miterlimit:3.25;stroke-opacity:1"
     d="M 7.4914403,59.00613 7.730469,56.726563 7.835938,56.191406 7.941406,55.71875 8.046875,55.289063 8.152344,54.894531 8.261719,54.523438 8.472656,53.84375 8.578125,53.527344 8.683594,53.222656 8.894531,52.644531 9,52.371094 l 0.109375,-0.269531 0.210938,-0.515625 0.421875,-0.964844 0.851562,-1.742188 0.210938,-0.40625 0.210937,-0.394531 0.425781,-0.769531 0.847657,-1.460938 1.695312,-2.6875 0.113281,-0.171875 0.117188,-0.171875 0.226562,-0.34375 0.460938,-0.671875 0.917969,-1.308593 1.839843,-2.484375 3.679688,-4.554688 0.210937,-0.25 0.214844,-0.25 0.429688,-0.496094 0.859375,-0.972656 1.714843,-1.878906 3.433594,-3.507813 0.84375,-0.8125 0.839844,-0.789062 1.683594,-1.527344 3.367187,-2.835937 0.113281,-0.09375 0.113282,-0.08984 0.230468,-0.179688 0.457032,-0.359375 0.910156,-0.695312 1.828125,-1.335938 0.113281,-0.08203 0.113281,-0.07813 0.226563,-0.160156 L 39.5,16.742188 40.414063,16.125 l 1.824218,-1.171875 0.109375,-0.06641 0.105469,-0.0625 0.210938,-0.132813 0.425781,-0.257812 0.855469,-0.5 1.703125,-0.953125 0.105468,-0.05469 0.105469,-0.05859 0.214844,-0.113282 L 46.5,12.53125 l 0.851563,-0.433594 1.703125,-0.816406 0.117187,-0.05469 0.113281,-0.05078 0.230469,-0.105468 0.464844,-0.203125 L 50.902344,10.46875 52.75,9.734375 52.863281,9.691406 52.980469,9.648438 53.210938,9.5625 53.671875,9.394531 54.59375,9.074219 l 1.847656,-0.585938 0.113282,-0.035156 0.113281,-0.03125 0.226562,-0.066406 0.453125,-0.128906 0.90625,-0.246094 0.113282,-0.027344 0.113281,-0.03125 0.226562,-0.054687 0.453125,-0.113282 0.90625,-0.210937 0.113282,-0.023438 0.113281,-0.027343 0.226562,-0.046875 0.453125,-0.097657 0.90625,-0.175781 0.113282,-0.023437 0.113281,-0.019532 0.226562,-0.042968 0.453125,-0.078125 0.90625,-0.144532 L 63.796875,6.84375 63.902344,6.828125 64.117188,6.796875 64.539063,6.738281 64.644531,6.722656 64.75,6.710938 65.382813,6.628906 65.804688,6.582031 66.230469,6.535156 67.074219,6.449219 67.285156,6.433594 67.496094,6.414063 67.921875,6.378906 68.132813,6.363281 68.34375,6.351563 68.765625,6.324219 68.871094,6.316406 68.976563,6.3125 69.1875,6.300781 l 0.105469,-0.00781 0.105469,-0.00391 0.210937,-0.011719 0.109375,-0.00391 0.738281,-0.027344 0.113282,-0.00391 0.117187,-0.00391 0.113281,-0.00391 h 0.113282 l 0.117187,-0.00391 0.113281,-0.00391 h 0.113282 L 71.375,6.222656 h 0.113281 l 0.113282,-0.00391 h 0.230468 l 0.113282,-0.00391 H 72.75 l 0.113281,0.00391 h 0.230469 l 0.113281,0.00391 H 73.4375 l 0.226563,0.00781 h 0.117187 l 0.113281,0.00391 0.230469,0.00391 0.226563,0.00781 0.230468,0.00781 0.113282,0.00391 0.117187,0.00391 0.226563,0.011719 0.117187,0.00391 0.113281,0.00391 L 75.5,6.292969 75.957031,6.316406 76.074219,6.324219 76.1875,6.332031 76.417969,6.34375 76.875,6.375 l 0.113281,0.00781 0.117188,0.00781 0.226562,0.019531 0.460938,0.035157 0.105469,0.00781 0.105468,0.011719 0.214844,0.015625 0.429688,0.042969 0.855468,0.085937 0.105469,0.011719 0.109375,0.011719 0.210938,0.023437 0.429687,0.050781 0.855469,0.105469 0.105469,0.011719 0.109375,0.015625 0.214843,0.03125 0.425782,0.058594 0.855468,0.125 1.710938,0.277343 0.210937,0.039063 0.210938,0.035156 0.417969,0.078125 0.839843,0.15625 1.679688,0.339844 0.105469,0.023437 0.101562,0.023438 0.210938,0.042969 0.417968,0.09375 0.839844,0.1875 1.679688,0.402343 0.453125,0.109375 0.457031,0.117188 0.910156,0.234375 1.820313,0.496094 3.640625,1.066406 6.796877,2.230469 7.36719,2.65625 7.23046,2.730468 6.7461,2.550782 7.3125,2.664062 6.82812,2.304688 0.11719,0.03906 0.11328,0.03516 0.23438,0.07422 0.46093,0.144531 0.92578,0.292969 1.84766,0.5625 3.69922,1.0625 0.45312,0.125 0.45704,0.125 0.90625,0.242188 1.8164,0.464843 0.22656,0.05469 0.22657,0.05859 0.45312,0.109375 0.91016,0.21875 1.8164,0.414062 0.42188,0.09375 0.42578,0.08984 0.84375,0.179687 1.69531,0.34375 0.42188,0.07813 0.42578,0.08203 0.84766,0.15625 1.6914,0.289062 0.11719,0.01953 0.11328,0.01953 0.23047,0.03516 0.45703,0.07422 0.92188,0.140625 0.11328,0.01563 0.11328,0.01953 0.23047,0.03125 0.46093,0.06641 0.91797,0.125 0.11328,0.01563 0.11719,0.01563 0.22656,0.02734 0.46094,0.05859 0.91797,0.109375 1.83594,0.199218 0.10937,0.0078 0.10547,0.01172 0.64453,0.05859 0.85547,0.07422 0.10938,0.0078 0.10547,0.01172 0.64453,0.04687 0.85547,0.0625 0.10937,0.0039 0.10547,0.0078 0.21484,0.01563 0.42969,0.02344 0.10547,0.0078 0.10937,0.0039 0.21094,0.01172 0.42969,0.02344 0.10937,0.0039 0.10547,0.0078 0.21485,0.0078 0.42968,0.01953 0.10547,0.0039 0.10938,0.0039 0.21094,0.0078 0.42968,0.01563 0.42188,0.01563 h 0.10547 l 0.10547,0.0039 0.20703,0.0039 0.21093,0.0078 0.21094,0.0039 0.10547,0.0039 h 0.10547 l 0.21094,0.0039 h 0.10156 l 0.10547,0.0039 h 0.10547 l 0.10547,0.0039 h 0.21093 l 0.10547,0.0039 h 0.41797 l 0.10547,0.0039 h 0.94531 l 0.10547,-0.0039 h 0.42188 l 0.10546,-0.0039 h 0.21094 l 0.10156,-0.0039 h 0.21094 l 0.10547,-0.0039 h 0.10547 l 0.21094,-0.0039 0.10547,-0.0039 h 0.10546 l 0.20704,-0.0078 h 0.10546 l 0.10547,-0.0039 0.21094,-0.0039 0.42188,-0.01172 0.45312,-0.01563 0.45703,-0.01953 0.22656,-0.0078 0.23047,-0.01172 0.45703,-0.01953 0.11329,-0.0078 0.11328,-0.0039 0.22656,-0.01172 0.45703,-0.02734 0.91016,-0.05469 0.11718,-0.0078 0.33985,-0.02344 0.45703,-0.03516 0.91016,-0.07031 0.11718,-0.01172 0.11328,-0.0078 0.22657,-0.01953 0.45703,-0.04297 0.91015,-0.08984 0.10938,-0.0078 0.31641,-0.03516 0.42578,-0.04297 0.85156,-0.09766 1.70312,-0.210938 0.10547,-0.01563 0.10547,-0.01172 0.21485,-0.03125 0.42578,-0.05859 0.84765,-0.121094 1.70313,-0.265625 0.11719,-0.01953 0.11328,-0.01563 0.6914,-0.117188 0.92188,-0.160156 1.84765,-0.347656 0.11329,-0.01953 0.11718,-0.02344 0.23047,-0.04687 0.46094,-0.08984 0.92187,-0.191406 1.84375,-0.398438 0.22657,-0.05469 0.67968,-0.152344 0.90625,-0.214844 1.8086,-0.445312 3.62109,-0.957031 6.75781,-2.023438 7.32813,-2.46875 6.83984,-2.492187 6.70313,-2.53125 7.27734,-2.75 6.78906,-2.464844 7.35938,-2.4375 0.10547,-0.03125 0.10937,-0.03516 0.21485,-0.06641 0.42578,-0.128906 0.85937,-0.257812 1.71875,-0.5 0.10938,-0.027344 0.10547,-0.03125 0.21484,-0.0625 1.28906,-0.351563 1.71875,-0.449218 0.10547,-0.027344 0.10547,-0.023438 0.20703,-0.054687 1.26563,-0.304688 1.68359,-0.386718 0.10547,-0.023438 0.10547,-0.019531 0.21094,-0.046875 0.42187,-0.089844 0.83984,-0.171875 1.6836,-0.324219 0.11719,-0.019531 0.11328,-0.023437 0.22656,-0.039063 0.45703,-0.078125 0.91406,-0.152344 0.11328,-0.019531 0.11329,-0.015625 0.23046,-0.035156 0.45704,-0.070313 0.91406,-0.128906 0.22656,-0.03125 0.23047,-0.03125 0.45703,-0.058594 0.91016,-0.105468 0.11718,-0.015625 0.33985,-0.035157 0.45703,-0.046875 0.91406,-0.085937 0.10547,-0.00781 0.10938,-0.011718 0.21093,-0.015625 0.42578,-0.035157 0.10938,-0.00781 0.10547,-0.00391 0.21094,-0.015625 0.42968,-0.027344 0.21094,-0.015625 0.21484,-0.011719 0.10547,-0.00391 0.10547,-0.00781 0.21485,-0.00781 0.10546,-0.00781 0.10547,-0.00391 0.21485,-0.00781 0.10547,-0.00391 0.10546,-0.00781 0.21485,-0.00781 0.10547,-0.00391 h 0.10937 l 0.31641,-0.011719 0.10937,-0.00391 0.21094,-0.00391 h 0.10938 l 0.21093,-0.00781 h 0.21485 l 0.10547,-0.00391 h 0.21093 l 0.10938,-0.00391 h 0.85156 l 0.10547,0.00391 h 0.21484 l 0.10547,0.00391 h 0.21485 l 0.10546,0.00391 0.11719,0.00391 h 0.11328 l 0.11719,0.00391 0.11328,0.00391 h 0.11719 l 0.11328,0.00391 0.23047,0.00781 0.23437,0.00781 0.23047,0.011718 0.11328,0.00391 0.11719,0.00391 0.23047,0.011719 0.11719,0.00781 0.11328,0.00391 0.23047,0.015625 0.11719,0.00781 0.11328,0.00391 0.23047,0.015625 0.23437,0.015625 0.23047,0.015625 0.46094,0.039063 0.11718,0.00781 0.11329,0.011719 0.23046,0.019531 0.46094,0.042969 0.23438,0.023437 0.23047,0.027344 0.46093,0.050781 0.11719,0.011719 0.11328,0.015625 0.23047,0.027344 0.46094,0.058594 0.92578,0.132812 0.11328,0.015625 0.11328,0.019531 0.22656,0.035157 0.45313,0.074218 0.90625,0.160157 0.11328,0.019531 0.11328,0.023437 0.22656,0.042969 0.45704,0.089844 0.90625,0.191406 0.11328,0.027344 0.11328,0.023437 0.22656,0.054688 0.45313,0.105469 0.90625,0.226562 1.8164,0.5 0.21094,0.0625 0.21094,0.066406 0.42187,0.128907 0.84766,0.273437 1.6914,0.59375 0.42188,0.15625 0.42578,0.160156 0.84375,0.335938 1.69141,0.71875 0.11718,0.05078 0.11329,0.05078 0.23046,0.105469 0.45704,0.210938 0.91796,0.433593 1.83594,0.929688 0.11328,0.05859 0.11328,0.0625 0.23047,0.125 0.46094,0.246093 0.91406,0.515625 1.83594,1.085938 0.10938,0.06641 0.10546,0.06641 0.21485,0.132813 0.42578,0.269531 0.85937,0.554688 1.71094,1.160156 3.42578,2.535156 0.21094,0.164063 0.21094,0.167968 0.41797,0.332032 0.83984,0.6875 1.67969,1.421875 3.35937,3.0625 0.45313,0.4375 0.45703,0.445312 0.91016,0.90625 1.82421,1.878906 3.64454,4.042969 0.42187,0.5 0.42578,0.503906 0.85156,1.027344 1.69922,2.132813 0.21094,0.273437 0.21484,0.277344 0.42579,0.558594 0.84765,1.140625 1.69922,2.390625 0.12109,0.175781 0.11719,0.171875 0.23828,0.351562 0.47266,0.714844 0.94922,1.480469 0.12109,0.191406 0.11719,0.191406 0.23828,0.390625 0.47266,0.796875 0.94922,1.6875 0.11718,0.222657 0.1211,0.222656 0.23828,0.460937 0.47265,0.957032 0.11719,0.25 0.1211,0.253906 0.23437,0.523437 0.47656,1.125 0.11719,0.300782 0.12109,0.308593 0.23438,0.65625 0.12109,0.351563 0.11719,0.367187 0.23828,0.800782 0.11719,0.445312 0.12109,0.488281 0.11719,0.550782 0.11719,0.644531 0.12109,0.824219 0.0781,1.453125"
     id="path3"
     sodipodi:nodetypes="cccccccccccccccccccccccccccccccccccccccccccccccccccccccccccccccccccccccccccccccccccccccccccccccccccccccccccccccccccccccccccccccccccccccccccccccccccccccccccccccccccccccccccccccccccccccccccccccccccccccccccccccccccccccccccccccccccccccccccccccccccccccccccccccccccccccccccccccccccccccccccccccccccccccccccccccccccccccccccccccccccccccccccccccccccccccccccccccccccccccccccccccccccccccccccccccccccccccccccccccccccccccccccccccccccccccccccccccccccccccccccccccccccccccccccccccccccccccccccccccccccccccccccccccccccccccccccccccccccccccccccccccccccccccccccccccccccc" />
  <path
     style="fill:none;stroke:#f5ad33;stroke-width:1.6;stroke-linecap:square;stroke-linejoin:miter;stroke-miterlimit:3.25;stroke-opacity:1"
     d="m 7.4914403,60.400464 0.2390287,2.872974 0.105469,0.535156 0.105468,0.472656 0.105469,0.429688 0.105469,0.394531 0.109375,0.371094 0.210937,0.679687 0.105469,0.316406 0.105469,0.304688 0.210937,0.578125 L 9,67.628906 l 0.109375,0.269532 0.210938,0.515625 0.421875,0.964843 0.851562,1.742188 0.210938,0.40625 0.210937,0.394531 0.425781,0.769531 0.847657,1.460938 1.695312,2.6875 0.113281,0.171875 0.117188,0.171875 0.226562,0.34375 0.460938,0.671875 0.917969,1.308594 1.839843,2.484375 3.679688,4.554687 0.210937,0.25 0.214844,0.25 0.429688,0.496094 0.859375,0.972656 1.714843,1.878906 3.433594,3.507813 0.84375,0.8125 0.839844,0.789062 1.683594,1.527344 3.367187,2.835938 0.113281,0.09375 0.113282,0.08984 0.230468,0.17969 0.457032,0.35937 0.910156,0.69532 1.828125,1.33593 0.113281,0.082 0.113281,0.0781 0.226563,0.16016 0.457031,0.3164 0.914063,0.61719 1.824218,1.17188 0.109375,0.0664 0.105469,0.0625 0.210938,0.13281 0.425781,0.25782 0.855469,0.5 1.703125,0.95312 0.105468,0.0547 0.105469,0.0586 0.214844,0.11328 0.425781,0.22266 0.851563,0.43359 1.703125,0.81641 0.117187,0.0547 0.113281,0.0508 0.230469,0.10547 0.464844,0.20312 0.921875,0.39844 1.847656,0.73438 0.113281,0.043 0.117188,0.043 0.230469,0.0859 0.460937,0.16797 0.921875,0.32031 1.847656,0.58594 0.113282,0.0352 0.113281,0.0312 0.226562,0.0664 0.453125,0.12891 0.90625,0.24609 0.113282,0.0273 0.113281,0.0312 0.226562,0.0547 0.453125,0.11328 0.90625,0.21094 0.113282,0.0234 0.113281,0.0273 0.226562,0.0469 0.453125,0.0977 0.90625,0.17579 0.113282,0.0234 0.113281,0.0195 0.226562,0.043 0.453125,0.0781 0.90625,0.14453 0.105469,0.0195 0.105469,0.0156 0.214844,0.0312 0.421875,0.0586 0.105468,0.0156 0.105469,0.0117 0.632813,0.082 0.421875,0.0469 0.425781,0.0469 0.84375,0.0859 0.210937,0.0156 0.210938,0.0195 0.425781,0.0352 0.210938,0.0156 0.210937,0.0117 0.421875,0.0273 0.105469,0.008 0.105469,0.004 0.210937,0.0117 0.105469,0.008 0.105469,0.004 0.210937,0.0117 0.109375,0.004 0.738281,0.0273 0.113282,0.004 0.117187,0.004 0.113281,0.004 h 0.113282 l 0.117187,0.004 0.113281,0.004 h 0.113282 l 0.117187,0.004 h 0.113281 l 0.113282,0.004 h 0.230468 l 0.113282,0.004 H 72.75 l 0.113281,-0.004 h 0.230469 l 0.113281,-0.004 H 73.4375 l 0.226563,-0.008 h 0.117187 l 0.113281,-0.004 0.230469,-0.004 0.226563,-0.008 0.230468,-0.008 0.113282,-0.004 0.117187,-0.004 0.226563,-0.0117 0.117187,-0.004 0.113281,-0.004 0.230469,-0.0117 0.457031,-0.0234 0.117188,-0.008 0.113281,-0.008 0.230469,-0.0117 0.457031,-0.0312 0.113281,-0.008 0.117188,-0.008 0.226562,-0.0195 0.460938,-0.0352 0.105469,-0.008 0.105468,-0.0117 0.214844,-0.0156 0.429688,-0.043 0.855468,-0.0859 0.105469,-0.0117 0.109375,-0.0117 0.210938,-0.0234 0.429687,-0.0508 0.855469,-0.10547 0.105469,-0.0117 0.109375,-0.0156 0.214843,-0.0312 0.425782,-0.0586 0.855468,-0.125 1.710938,-0.27734 0.210937,-0.0391 0.210938,-0.0352 0.417969,-0.0781 0.839843,-0.15625 1.679688,-0.33985 0.105469,-0.0234 0.101562,-0.0234 0.210938,-0.043 0.417968,-0.0937 0.839844,-0.1875 1.679688,-0.40235 0.453125,-0.10937 0.457031,-0.11719 0.910156,-0.23437 1.820313,-0.4961 3.640625,-1.0664 6.796877,-2.23047 7.36719,-2.65625 7.23046,-2.73047 6.7461,-2.550788 7.3125,-2.664063 6.82812,-2.304687 0.11719,-0.03906 0.11328,-0.03516 0.23438,-0.07422 0.46093,-0.144531 0.92578,-0.292969 1.84766,-0.5625 3.69922,-1.0625 0.45312,-0.125 0.45704,-0.125 0.90625,-0.242187 1.8164,-0.464844 0.22656,-0.05469 0.22657,-0.05859 0.45312,-0.109375 0.91016,-0.21875 1.8164,-0.414063 0.42188,-0.09375 0.42578,-0.08984 0.84375,-0.179687 1.69531,-0.34375 0.42188,-0.07813 0.42578,-0.08203 0.84766,-0.15625 1.6914,-0.289063 0.11719,-0.01953 0.11328,-0.01953 0.23047,-0.03516 0.45703,-0.07422 0.92188,-0.140625 0.11328,-0.01563 0.11328,-0.01953 0.23047,-0.03125 0.46093,-0.06641 0.91797,-0.125 0.11328,-0.01563 0.11719,-0.01563 0.22656,-0.02734 0.46094,-0.05859 0.91797,-0.109375 1.83594,-0.199219 0.10937,-0.0078 0.10547,-0.01172 0.64453,-0.05859 0.85547,-0.07422 0.10938,-0.0078 0.10547,-0.01172 0.64453,-0.04687 0.85547,-0.0625 0.10937,-0.0039 0.10547,-0.0078 0.21484,-0.01563 0.42969,-0.02344 0.10547,-0.0078 0.10937,-0.0039 0.21094,-0.01172 0.42969,-0.02344 0.10937,-0.0039 0.10547,-0.0078 0.21485,-0.0078 0.42968,-0.01953 0.10547,-0.0039 0.10938,-0.0039 0.21094,-0.0078 0.42968,-0.01563 0.42188,-0.01563 h 0.10547 l 0.10547,-0.0039 0.20703,-0.0039 0.21093,-0.0078 0.21094,-0.0039 0.10547,-0.0039 h 0.10547 l 0.21094,-0.0039 h 0.10156 l 0.10547,-0.0039 h 0.10547 l 0.10547,-0.0039 h 0.21093 l 0.10547,-0.0039 h 0.41797 l 0.10547,-0.0039 h 0.94531 l 0.10547,0.0039 h 0.42188 l 0.10546,0.0039 h 0.21094 l 0.10156,0.0039 h 0.21094 l 0.10547,0.0039 h 0.10547 l 0.21094,0.0039 0.10547,0.0039 h 0.10546 l 0.20704,0.0078 h 0.10546 l 0.10547,0.0039 0.21094,0.0039 0.42188,0.01172 0.45312,0.01563 0.45703,0.01953 0.22656,0.0078 0.23047,0.01172 0.45703,0.01953 0.11329,0.0078 0.11328,0.0039 0.22656,0.01172 0.45703,0.02734 0.91016,0.05469 0.11718,0.0078 0.33985,0.02344 0.45703,0.03516 0.91016,0.07031 0.11718,0.01172 0.11328,0.0078 0.22657,0.01953 0.45703,0.04297 0.91015,0.08984 0.10938,0.0078 0.31641,0.03516 0.42578,0.04297 0.85156,0.09766 1.70312,0.210937 0.10547,0.01563 0.10547,0.01172 0.21485,0.03125 0.42578,0.05859 0.84765,0.121093 1.70313,0.265625 0.11719,0.01953 0.11328,0.01563 0.6914,0.117187 0.92188,0.160156 1.84765,0.347657 0.11329,0.01953 0.11718,0.02344 0.23047,0.04687 0.46094,0.08984 0.92187,0.191406 1.84375,0.398438 0.22657,0.05469 0.67968,0.152344 0.90625,0.214844 1.8086,0.445312 3.62109,0.957032 6.75781,2.023437 7.32813,2.46875 6.83984,2.492188 6.70313,2.53125 7.27734,2.75 6.78906,2.46485 7.35938,2.4375 0.10547,0.0312 0.10937,0.0352 0.21485,0.0664 0.42578,0.12891 0.85937,0.25781 1.71875,0.5 0.10938,0.0273 0.10547,0.0312 0.21484,0.0625 1.28906,0.35156 1.71875,0.44922 0.10547,0.0273 0.10547,0.0234 0.20703,0.0547 1.26563,0.30469 1.68359,0.38672 0.10547,0.0234 0.10547,0.0195 0.21094,0.0469 0.42187,0.0898 0.83984,0.17187 1.6836,0.32422 0.11719,0.0195 0.11328,0.0234 0.22656,0.0391 0.45703,0.0781 0.91406,0.15234 0.11328,0.0195 0.11329,0.0156 0.23046,0.0352 0.45704,0.0703 0.91406,0.12891 0.22656,0.0312 0.23047,0.0312 0.45703,0.0586 0.91016,0.10547 0.11718,0.0156 0.33985,0.0352 0.45703,0.0469 0.91406,0.0859 0.10547,0.008 0.10938,0.0117 0.21093,0.0156 0.42578,0.0352 0.10938,0.008 0.10547,0.004 0.21094,0.0156 0.42968,0.0273 0.21094,0.0156 0.21484,0.0117 0.10547,0.004 0.10547,0.008 0.21485,0.008 0.10546,0.008 0.10547,0.004 0.21485,0.008 0.10547,0.004 0.10546,0.008 0.21485,0.008 0.10547,0.004 h 0.10937 l 0.31641,0.0117 0.10937,0.004 0.21094,0.004 h 0.10938 l 0.21093,0.008 h 0.21485 l 0.10547,0.004 h 0.21093 l 0.10938,0.004 h 0.85156 l 0.10547,-0.004 h 0.21484 l 0.10547,-0.004 h 0.21485 l 0.10546,-0.004 0.11719,-0.004 h 0.11328 l 0.11719,-0.004 0.11328,-0.004 h 0.11719 l 0.11328,-0.004 0.23047,-0.008 0.23437,-0.008 0.23047,-0.0117 0.11328,-0.004 0.11719,-0.004 0.23047,-0.0117 0.11719,-0.008 0.11328,-0.004 0.23047,-0.0156 0.11719,-0.008 0.11328,-0.004 0.23047,-0.0156 0.23437,-0.0156 0.23047,-0.0156 0.46094,-0.0391 0.11718,-0.008 0.11329,-0.0117 0.23046,-0.0195 0.46094,-0.043 0.23438,-0.0234 0.23047,-0.0273 0.46093,-0.0508 0.11719,-0.0117 0.11328,-0.0156 0.23047,-0.0273 0.46094,-0.0586 0.92578,-0.13281 0.11328,-0.0156 0.11328,-0.0195 0.22656,-0.0352 0.45313,-0.0742 0.90625,-0.16016 0.11328,-0.0195 0.11328,-0.0234 0.22656,-0.043 0.45704,-0.0898 0.90625,-0.1914 0.11328,-0.0273 0.11328,-0.0234 0.22656,-0.0547 0.45313,-0.10547 0.90625,-0.22656 1.8164,-0.5 0.21094,-0.0625 0.21094,-0.0664 0.42187,-0.12891 0.84766,-0.27343 1.6914,-0.59375 0.42188,-0.15625 0.42578,-0.16016 0.84375,-0.33594 1.69141,-0.71875 0.11718,-0.0508 0.11329,-0.0508 0.23046,-0.10547 0.45704,-0.21094 0.91796,-0.43359 1.83594,-0.92969 0.11328,-0.0586 0.11328,-0.0625 0.23047,-0.125 0.46094,-0.2461 0.91406,-0.51562 1.83594,-1.08594 0.10938,-0.0664 0.10546,-0.0664 0.21485,-0.13281 0.42578,-0.26953 0.85937,-0.55469 1.71094,-1.16016 3.42578,-2.53515 0.21094,-0.16407 0.21094,-0.16797 0.41797,-0.33203 0.83984,-0.6875 1.67969,-1.421875 3.35937,-3.0625 0.45313,-0.4375 0.45703,-0.445313 0.91016,-0.90625 1.82421,-1.878906 3.64454,-4.042969 0.42187,-0.5 0.42578,-0.503906 0.85156,-1.027344 1.69922,-2.132812 0.21094,-0.273438 0.21484,-0.277344 0.42579,-0.558593 0.84765,-1.140625 1.69922,-2.390625 0.12109,-0.175782 0.11719,-0.171875 0.23828,-0.351562 0.47266,-0.714844 0.94922,-1.480469 0.12109,-0.191406 0.11719,-0.191406 0.23828,-0.390625 0.47266,-0.796875 0.94922,-1.6875 0.11718,-0.222656 0.1211,-0.222657 0.23828,-0.460937 0.47265,-0.957031 0.11719,-0.25 0.1211,-0.253907 0.23437,-0.523437 0.47656,-1.125 0.11719,-0.300781 0.12109,-0.308594 0.23438,-0.65625 0.12109,-0.351563 0.11719,-0.367187 0.23828,-0.800781 0.11719,-0.445313 0.12109,-0.488281 0.11719,-0.550781 0.11719,-0.644532 0.12109,-0.824218 0.0664,-1.382813"
     id="path4"
     sodipodi:nodetypes="cccccccccccccccccccccccccccccccccccccccccccccccccccccccccccccccccccccccccccccccccccccccccccccccccccccccccccccccccccccccccccccccccccccccccccccccccccccccccccccccccccccccccccccccccccccccccccccccccccccccccccccccccccccccccccccccccccccccccccccccccccccccccccccccccccccccccccccccccccccccccccccccccccccccccccccccccccccccccccccccccccccccccccccccccccccccccccccccccccccccccccccccccccccccccccccccccccccccccccccccccccccccccccccccccccccccccccccccccccccccccccccccccccccccccccccccccccccccccccccccccccccccccccccccccccccccccccccccccccccccccccccccccccccccccccccccccccc" />
</svg>
