<?xml version="1.0" encoding="UTF-8"?>
<svg xmlns="http://www.w3.org/2000/svg" xmlns:xlink="http://www.w3.org/1999/xlink" width="360pt" height="281pt" viewBox="0 0 360 281" version="1.1">
<defs>
<g>
<symbol overflow="visible" id="glyph0-0">
<path style="stroke:none;" d="M 0.3125 0 L 0.3125 -4 L 2.1875 -4 L 2.1875 0 Z M 0.625 -0.3125 L 1.875 -0.3125 L 1.875 -3.6875 L 0.625 -3.6875 Z M 0.625 -0.3125 "/>
</symbol>
<symbol overflow="visible" id="glyph0-1">
<path style="stroke:none;" d="M 3.382813 -1.421875 C 3.378906 -1.269531 3.363281 -1.128906 3.328125 -0.996094 C 3.289063 -0.859375 3.234375 -0.730469 3.167969 -0.613281 C 3.097656 -0.492188 3.015625 -0.386719 2.921875 -0.292969 C 2.824219 -0.199219 2.71875 -0.117188 2.601563 -0.046875 C 2.484375 0.0195313 2.355469 0.0703125 2.21875 0.109375 C 2.082031 0.144531 1.941406 0.164063 1.792969 0.167969 C 1.570313 0.164063 1.363281 0.121094 1.171875 0.0429688 C 0.976563 -0.0429688 0.808594 -0.152344 0.667969 -0.292969 C 0.523438 -0.433594 0.410156 -0.601563 0.332031 -0.796875 C 0.25 -0.988281 0.210938 -1.195313 0.210938 -1.421875 C 0.210938 -1.566406 0.226563 -1.707031 0.265625 -1.84375 C 0.300781 -1.976563 0.355469 -2.101563 0.425781 -2.222656 C 0.492188 -2.335938 0.574219 -2.445313 0.671875 -2.542969 C 0.765625 -2.636719 0.871094 -2.71875 0.992188 -2.789063 C 1.105469 -2.859375 1.234375 -2.910156 1.371094 -2.949219 C 1.503906 -2.980469 1.644531 -3 1.792969 -3.003906 C 2.011719 -3 2.21875 -2.957031 2.414063 -2.878906 C 2.609375 -2.792969 2.777344 -2.683594 2.921875 -2.542969 C 3.0625 -2.398438 3.175781 -2.230469 3.257813 -2.039063 C 3.339844 -1.84375 3.378906 -1.636719 3.382813 -1.421875 Z M 3.382813 -1.421875 "/>
</symbol>
<symbol overflow="visible" id="glyph1-0">
<path style="stroke:none;" d=""/>
</symbol>
<symbol overflow="visible" id="glyph1-1">
<path style="stroke:none;" d="M 7.535156 -2.640625 L 7.535156 -3.136719 L 5.933594 -3.136719 L 5.933594 -10.414063 C 5.9375 -10.570313 5.925781 -10.679688 5.902344 -10.742188 C 5.871094 -10.800781 5.796875 -10.832031 5.679688 -10.832031 C 5.609375 -10.832031 5.554688 -10.824219 5.511719 -10.804688 C 5.46875 -10.785156 5.417969 -10.730469 5.359375 -10.640625 L 0.449219 -3.136719 L 0.449219 -2.640625 L 4.703125 -2.640625 L 4.703125 -1.246094 C 4.722656 -0.960938 4.667969 -0.765625 4.539063 -0.65625 C 4.40625 -0.542969 4.054688 -0.488281 3.488281 -0.496094 L 3.152344 -0.496094 L 3.152344 0 C 3.488281 -0.0234375 3.84375 -0.0351563 4.226563 -0.0429688 C 4.601563 -0.0429688 4.964844 -0.046875 5.3125 -0.046875 C 5.652344 -0.046875 6.015625 -0.0429688 6.40625 -0.0429688 C 6.789063 -0.0351563 7.152344 -0.0234375 7.488281 0 L 7.488281 -0.496094 L 7.152344 -0.496094 C 6.578125 -0.488281 6.226563 -0.542969 6.097656 -0.65625 C 5.960938 -0.765625 5.90625 -0.960938 5.933594 -1.246094 L 5.933594 -2.640625 Z M 4.800781 -3.136719 L 0.898438 -3.136719 L 4.800781 -9.101563 Z M 4.800781 -3.136719 "/>
</symbol>
<symbol overflow="visible" id="glyph1-2">
<path style="stroke:none;" d="M 7.359375 -5.121094 C 7.367188 -5.761719 7.328125 -6.394531 7.246094 -7.027344 C 7.164063 -7.652344 6.988281 -8.265625 6.71875 -8.863281 C 6.324219 -9.609375 5.863281 -10.101563 5.335938 -10.335938 C 4.804688 -10.570313 4.359375 -10.675781 4 -10.65625 C 3.503906 -10.667969 3 -10.535156 2.492188 -10.261719 C 1.980469 -9.980469 1.554688 -9.480469 1.214844 -8.753906 C 0.964844 -8.199219 0.804688 -7.613281 0.726563 -7 C 0.648438 -6.386719 0.613281 -5.761719 0.625 -5.121094 C 0.613281 -4.511719 0.652344 -3.871094 0.738281 -3.199219 C 0.824219 -2.527344 1.023438 -1.878906 1.34375 -1.261719 C 1.703125 -0.625 2.132813 -0.199219 2.625 0.0273438 C 3.117188 0.253906 3.570313 0.363281 3.984375 0.351563 C 4.433594 0.367188 4.917969 0.25 5.4375 -0.00390625 C 5.953125 -0.257813 6.394531 -0.757813 6.769531 -1.503906 C 7.011719 -2.054688 7.175781 -2.636719 7.253906 -3.25 C 7.332031 -3.859375 7.367188 -4.484375 7.359375 -5.121094 Z M 6.03125 -5.3125 C 6.03125 -4.710938 6.027344 -4.136719 6.011719 -3.589844 C 5.992188 -3.039063 5.9375 -2.507813 5.855469 -2 C 5.714844 -1.246094 5.464844 -0.722656 5.097656 -0.425781 C 4.730469 -0.128906 4.359375 0.0117188 3.984375 0 C 3.648438 0.015625 3.296875 -0.113281 2.929688 -0.390625 C 2.558594 -0.664063 2.289063 -1.179688 2.128906 -1.933594 C 2.039063 -2.433594 1.988281 -2.996094 1.972656 -3.628906 C 1.953125 -4.253906 1.945313 -4.816406 1.949219 -5.3125 C 1.945313 -5.824219 1.949219 -6.335938 1.964844 -6.84375 C 1.976563 -7.347656 2.015625 -7.816406 2.078125 -8.257813 C 2.1875 -8.878906 2.367188 -9.339844 2.617188 -9.632813 C 2.863281 -9.925781 3.117188 -10.113281 3.378906 -10.195313 C 3.636719 -10.277344 3.839844 -10.3125 3.984375 -10.304688 C 4.167969 -10.308594 4.386719 -10.261719 4.640625 -10.167969 C 4.894531 -10.070313 5.132813 -9.890625 5.363281 -9.621094 C 5.589844 -9.347656 5.761719 -8.949219 5.871094 -8.433594 C 5.949219 -7.96875 5.996094 -7.464844 6.011719 -6.914063 C 6.027344 -6.359375 6.03125 -5.824219 6.03125 -5.3125 Z M 6.03125 -5.3125 "/>
</symbol>
<symbol overflow="visible" id="glyph1-3">
<path style="stroke:none;" d="M 7.183594 -3.21875 C 7.175781 -3.855469 7.039063 -4.441406 6.777344 -4.96875 C 6.511719 -5.496094 6.152344 -5.917969 5.699219 -6.234375 C 5.242188 -6.546875 4.722656 -6.707031 4.144531 -6.71875 C 3.753906 -6.714844 3.390625 -6.648438 3.054688 -6.519531 C 2.710938 -6.386719 2.398438 -6.183594 2.113281 -5.90625 L 2.113281 -9.023438 C 2.273438 -8.972656 2.476563 -8.925781 2.71875 -8.882813 C 2.960938 -8.839844 3.210938 -8.816406 3.472656 -8.816406 C 4.125 -8.832031 4.683594 -8.960938 5.144531 -9.203125 C 5.605469 -9.441406 5.953125 -9.691406 6.195313 -9.957031 C 6.429688 -10.214844 6.550781 -10.390625 6.558594 -10.480469 C 6.554688 -10.527344 6.542969 -10.566406 6.519531 -10.601563 C 6.492188 -10.632813 6.453125 -10.652344 6.398438 -10.65625 C 6.398438 -10.652344 6.386719 -10.648438 6.363281 -10.648438 C 6.339844 -10.640625 6.308594 -10.628906 6.273438 -10.605469 C 6.105469 -10.523438 5.835938 -10.425781 5.464844 -10.320313 C 5.089844 -10.210938 4.632813 -10.152344 4.097656 -10.144531 C 3.769531 -10.136719 3.429688 -10.171875 3.074219 -10.242188 C 2.710938 -10.308594 2.34375 -10.421875 1.96875 -10.589844 C 1.902344 -10.609375 1.851563 -10.625 1.824219 -10.632813 C 1.789063 -10.636719 1.773438 -10.640625 1.777344 -10.640625 C 1.695313 -10.640625 1.648438 -10.605469 1.636719 -10.542969 C 1.617188 -10.476563 1.613281 -10.382813 1.617188 -10.257813 L 1.617188 -5.519531 C 1.609375 -5.375 1.617188 -5.269531 1.644531 -5.203125 C 1.664063 -5.132813 1.730469 -5.097656 1.839844 -5.105469 C 1.894531 -5.101563 1.933594 -5.113281 1.960938 -5.140625 C 1.988281 -5.160156 2.019531 -5.199219 2.050781 -5.25 C 2.105469 -5.34375 2.210938 -5.476563 2.371094 -5.652344 C 2.53125 -5.824219 2.753906 -5.984375 3.039063 -6.132813 C 3.320313 -6.277344 3.679688 -6.355469 4.113281 -6.367188 C 4.523438 -6.339844 4.835938 -6.207031 5.054688 -5.964844 C 5.269531 -5.71875 5.410156 -5.511719 5.472656 -5.34375 C 5.597656 -5.050781 5.675781 -4.738281 5.710938 -4.414063 C 5.746094 -4.082031 5.761719 -3.722656 5.761719 -3.328125 C 5.765625 -3.03125 5.75 -2.679688 5.710938 -2.273438 C 5.667969 -1.867188 5.554688 -1.488281 5.375 -1.136719 C 5.179688 -0.816406 4.941406 -0.5625 4.652344 -0.378906 C 4.363281 -0.191406 4.03125 -0.0976563 3.664063 -0.09375 C 3.070313 -0.109375 2.566406 -0.289063 2.152344 -0.636719 C 1.730469 -0.980469 1.453125 -1.398438 1.3125 -1.890625 C 1.332031 -1.878906 1.359375 -1.871094 1.398438 -1.867188 C 1.433594 -1.859375 1.496094 -1.855469 1.585938 -1.855469 C 1.847656 -1.863281 2.046875 -1.945313 2.179688 -2.105469 C 2.3125 -2.257813 2.378906 -2.4375 2.382813 -2.640625 C 2.378906 -2.839844 2.3125 -3.019531 2.179688 -3.175781 C 2.046875 -3.332031 1.847656 -3.414063 1.585938 -3.421875 C 1.449219 -3.429688 1.289063 -3.378906 1.105469 -3.273438 C 0.917969 -3.164063 0.816406 -2.929688 0.800781 -2.574219 C 0.800781 -2.101563 0.917969 -1.644531 1.152344 -1.203125 C 1.382813 -0.757813 1.714844 -0.390625 2.148438 -0.101563 C 2.578125 0.191406 3.09375 0.339844 3.695313 0.351563 C 4.320313 0.34375 4.898438 0.1875 5.425781 -0.121094 C 5.949219 -0.429688 6.371094 -0.851563 6.691406 -1.386719 C 7.011719 -1.921875 7.175781 -2.53125 7.183594 -3.214844 Z M 7.183594 -3.21875 "/>
</symbol>
<symbol overflow="visible" id="glyph1-4">
<path style="stroke:none;" d="M 7.3125 -3.265625 C 7.289063 -4.296875 6.976563 -5.144531 6.375 -5.808594 C 5.773438 -6.464844 5.019531 -6.808594 4.113281 -6.832031 C 3.574219 -6.8125 3.144531 -6.644531 2.824219 -6.328125 C 2.503906 -6.007813 2.265625 -5.648438 2.109375 -5.25 L 2.109375 -5.632813 C 2.128906 -6.960938 2.308594 -7.960938 2.65625 -8.628906 C 2.996094 -9.296875 3.386719 -9.738281 3.824219 -9.957031 C 4.257813 -10.171875 4.621094 -10.273438 4.914063 -10.257813 C 5.113281 -10.261719 5.351563 -10.222656 5.625 -10.140625 C 5.898438 -10.050781 6.128906 -9.875 6.320313 -9.613281 C 6.175781 -9.625 6 -9.59375 5.789063 -9.523438 C 5.578125 -9.445313 5.460938 -9.238281 5.441406 -8.894531 C 5.445313 -8.644531 5.523438 -8.457031 5.675781 -8.339844 C 5.820313 -8.214844 5.988281 -8.15625 6.175781 -8.160156 C 6.316406 -8.152344 6.46875 -8.203125 6.640625 -8.3125 C 6.804688 -8.417969 6.894531 -8.625 6.910156 -8.929688 C 6.90625 -9.417969 6.734375 -9.824219 6.394531 -10.148438 C 6.046875 -10.472656 5.542969 -10.640625 4.882813 -10.65625 C 4.179688 -10.648438 3.511719 -10.425781 2.878906 -9.988281 C 2.238281 -9.546875 1.714844 -8.910156 1.308594 -8.078125 C 0.894531 -7.242188 0.683594 -6.234375 0.671875 -5.054688 C 0.683594 -3.640625 0.863281 -2.539063 1.207031 -1.753906 C 1.550781 -0.960938 1.976563 -0.410156 2.484375 -0.0976563 C 2.992188 0.214844 3.5 0.363281 4.015625 0.351563 C 4.925781 0.332031 5.699219 -0.00390625 6.328125 -0.664063 C 6.957031 -1.320313 7.285156 -2.1875 7.3125 -3.265625 Z M 5.871094 -3.28125 C 5.878906 -2.890625 5.867188 -2.507813 5.839844 -2.132813 C 5.808594 -1.757813 5.730469 -1.425781 5.601563 -1.136719 C 5.347656 -0.671875 5.066406 -0.375 4.765625 -0.253906 C 4.460938 -0.128906 4.210938 -0.078125 4.015625 -0.09375 C 3.679688 -0.101563 3.402344 -0.1875 3.179688 -0.351563 C 2.953125 -0.511719 2.78125 -0.683594 2.660156 -0.875 C 2.539063 -1.0625 2.460938 -1.203125 2.433594 -1.296875 C 2.335938 -1.554688 2.269531 -1.847656 2.230469 -2.167969 C 2.1875 -2.488281 2.160156 -2.78125 2.152344 -3.050781 C 2.140625 -3.320313 2.140625 -3.507813 2.144531 -3.617188 C 2.140625 -4.039063 2.199219 -4.472656 2.328125 -4.910156 C 2.453125 -5.34375 2.660156 -5.707031 2.949219 -6.003906 C 3.230469 -6.296875 3.613281 -6.449219 4.097656 -6.464844 C 4.238281 -6.480469 4.457031 -6.441406 4.75 -6.339844 C 5.042969 -6.238281 5.320313 -5.949219 5.585938 -5.472656 C 5.71875 -5.167969 5.804688 -4.824219 5.835938 -4.445313 C 5.867188 -4.0625 5.878906 -3.675781 5.871094 -3.28125 Z M 5.871094 -3.28125 "/>
</symbol>
<symbol overflow="visible" id="glyph1-5">
<path style="stroke:none;" d="M 6.703125 0 L 6.703125 -0.496094 L 6.191406 -0.496094 C 5.71875 -0.492188 5.375 -0.515625 5.164063 -0.5625 C 4.949219 -0.609375 4.820313 -0.6875 4.769531 -0.800781 C 4.714844 -0.910156 4.691406 -1.0625 4.703125 -1.261719 L 4.703125 -10.238281 C 4.707031 -10.417969 4.691406 -10.535156 4.65625 -10.589844 C 4.617188 -10.636719 4.511719 -10.660156 4.335938 -10.65625 C 3.996094 -10.316406 3.632813 -10.074219 3.253906 -9.933594 C 2.867188 -9.785156 2.511719 -9.699219 2.183594 -9.667969 C 1.851563 -9.636719 1.597656 -9.625 1.425781 -9.632813 L 1.425781 -9.136719 C 1.597656 -9.125 1.882813 -9.144531 2.28125 -9.1875 C 2.671875 -9.230469 3.085938 -9.351563 3.519531 -9.550781 L 3.519531 -1.261719 C 3.527344 -1.066406 3.507813 -0.917969 3.457031 -0.808594 C 3.402344 -0.695313 3.269531 -0.613281 3.058594 -0.566406 C 2.847656 -0.515625 2.503906 -0.492188 2.03125 -0.496094 L 1.519531 -0.496094 L 1.519531 0 C 1.714844 -0.015625 1.976563 -0.0234375 2.300781 -0.03125 C 2.621094 -0.0351563 2.949219 -0.0429688 3.28125 -0.046875 C 3.609375 -0.046875 3.886719 -0.046875 4.113281 -0.046875 C 4.332031 -0.046875 4.605469 -0.046875 4.941406 -0.046875 C 5.269531 -0.0429688 5.597656 -0.0351563 5.925781 -0.03125 C 6.246094 -0.0234375 6.507813 -0.015625 6.703125 0 Z M 6.703125 0 "/>
</symbol>
<symbol overflow="visible" id="glyph1-6">
<path style="stroke:none;" d="M 3.070313 -0.847656 C 3.0625 -1.085938 2.976563 -1.285156 2.820313 -1.445313 C 2.65625 -1.601563 2.457031 -1.683594 2.222656 -1.695313 C 1.980469 -1.683594 1.78125 -1.601563 1.625 -1.445313 C 1.460938 -1.285156 1.378906 -1.085938 1.378906 -0.847656 C 1.378906 -0.609375 1.460938 -0.410156 1.625 -0.25 C 1.78125 -0.0898438 1.980469 -0.0078125 2.222656 0 C 2.457031 -0.0078125 2.65625 -0.0898438 2.820313 -0.25 C 2.976563 -0.410156 3.0625 -0.609375 3.070313 -0.847656 Z M 3.070313 -0.847656 "/>
</symbol>
<symbol overflow="visible" id="glyph1-7">
<path style="stroke:none;" d="M 7.183594 -2.785156 L 6.785156 -2.785156 C 6.742188 -2.527344 6.691406 -2.261719 6.636719 -1.980469 C 6.578125 -1.699219 6.511719 -1.492188 6.433594 -1.359375 C 6.382813 -1.316406 6.257813 -1.285156 6.066406 -1.269531 C 5.867188 -1.25 5.660156 -1.238281 5.4375 -1.234375 C 5.214844 -1.230469 5.039063 -1.230469 4.914063 -1.230469 L 2.03125 -1.230469 L 3.726563 -2.878906 C 4.554688 -3.597656 5.222656 -4.210938 5.730469 -4.714844 C 6.238281 -5.214844 6.605469 -5.683594 6.839844 -6.121094 C 7.066406 -6.554688 7.183594 -7.03125 7.183594 -7.550781 C 7.160156 -8.476563 6.835938 -9.222656 6.21875 -9.785156 C 5.59375 -10.347656 4.785156 -10.636719 3.792969 -10.65625 C 3.183594 -10.644531 2.65625 -10.5 2.210938 -10.21875 C 1.761719 -9.9375 1.417969 -9.578125 1.171875 -9.140625 C 0.925781 -8.703125 0.800781 -8.242188 0.800781 -7.761719 C 0.808594 -7.464844 0.878906 -7.253906 1.007813 -7.128906 C 1.136719 -7 1.269531 -6.921875 1.40625 -6.898438 C 1.539063 -6.867188 1.617188 -6.855469 1.648438 -6.863281 C 1.796875 -6.855469 1.96875 -6.917969 2.164063 -7.042969 C 2.351563 -7.167969 2.457031 -7.390625 2.480469 -7.710938 C 2.472656 -7.925781 2.402344 -8.113281 2.261719 -8.28125 C 2.121094 -8.445313 1.910156 -8.535156 1.632813 -8.542969 C 1.566406 -8.542969 1.519531 -8.539063 1.496094 -8.539063 C 1.464844 -8.535156 1.441406 -8.53125 1.425781 -8.527344 C 1.613281 -9.046875 1.902344 -9.449219 2.292969 -9.734375 C 2.675781 -10.011719 3.105469 -10.15625 3.582031 -10.160156 C 4.066406 -10.152344 4.46875 -10.023438 4.785156 -9.773438 C 5.101563 -9.523438 5.339844 -9.199219 5.496094 -8.808594 C 5.652344 -8.410156 5.730469 -7.992188 5.730469 -7.550781 C 5.714844 -6.902344 5.542969 -6.277344 5.21875 -5.671875 C 4.890625 -5.066406 4.5 -4.511719 4.050781 -4.015625 L 0.976563 -0.59375 C 0.890625 -0.511719 0.839844 -0.441406 0.824219 -0.375 C 0.804688 -0.304688 0.796875 -0.179688 0.800781 0 L 6.734375 0 Z M 7.183594 -2.785156 "/>
</symbol>
<symbol overflow="visible" id="glyph1-8">
<path style="stroke:none;" d="M 7.3125 -2.734375 C 7.304688 -3.40625 7.066406 -4.011719 6.597656 -4.550781 C 6.128906 -5.085938 5.476563 -5.445313 4.640625 -5.632813 C 5.304688 -5.855469 5.839844 -6.222656 6.25 -6.726563 C 6.65625 -7.230469 6.867188 -7.804688 6.878906 -8.449219 C 6.851563 -9.113281 6.550781 -9.644531 5.984375 -10.042969 C 5.410156 -10.441406 4.730469 -10.644531 3.9375 -10.65625 C 3.109375 -10.636719 2.433594 -10.425781 1.914063 -10.023438 C 1.386719 -9.613281 1.117188 -9.097656 1.105469 -8.480469 C 1.109375 -8.210938 1.1875 -8.007813 1.339844 -7.867188 C 1.488281 -7.722656 1.683594 -7.648438 1.921875 -7.648438 C 2.171875 -7.648438 2.367188 -7.726563 2.511719 -7.882813 C 2.65625 -8.03125 2.730469 -8.226563 2.738281 -8.464844 C 2.707031 -8.84375 2.570313 -9.078125 2.328125 -9.164063 C 2.082031 -9.246094 1.890625 -9.277344 1.746094 -9.261719 C 2.011719 -9.644531 2.355469 -9.910156 2.777344 -10.054688 C 3.195313 -10.195313 3.558594 -10.261719 3.871094 -10.257813 C 4.21875 -10.269531 4.558594 -10.148438 4.886719 -9.898438 C 5.210938 -9.640625 5.382813 -9.164063 5.410156 -8.464844 C 5.410156 -8.34375 5.386719 -8.101563 5.339844 -7.742188 C 5.285156 -7.375 5.160156 -7.007813 4.960938 -6.640625 C 4.714844 -6.265625 4.46875 -6.035156 4.21875 -5.941406 C 3.96875 -5.84375 3.738281 -5.796875 3.535156 -5.808594 C 3.457031 -5.792969 3.351563 -5.785156 3.214844 -5.777344 C 3.078125 -5.765625 2.976563 -5.757813 2.914063 -5.757813 C 2.84375 -5.75 2.789063 -5.734375 2.742188 -5.714844 C 2.695313 -5.691406 2.671875 -5.644531 2.671875 -5.566406 C 2.671875 -5.480469 2.699219 -5.429688 2.761719 -5.414063 C 2.820313 -5.394531 2.917969 -5.386719 3.054688 -5.394531 L 3.757813 -5.394531 C 4.40625 -5.378906 4.890625 -5.132813 5.203125 -4.652344 C 5.511719 -4.167969 5.664063 -3.527344 5.664063 -2.734375 C 5.652344 -2.015625 5.546875 -1.464844 5.351563 -1.082031 C 5.148438 -0.695313 4.910156 -0.433594 4.636719 -0.292969 C 4.355469 -0.152344 4.097656 -0.0859375 3.855469 -0.09375 C 3.488281 -0.0859375 3.0625 -0.167969 2.582031 -0.347656 C 2.101563 -0.523438 1.710938 -0.847656 1.410156 -1.3125 C 1.695313 -1.273438 1.941406 -1.332031 2.148438 -1.492188 C 2.347656 -1.648438 2.453125 -1.882813 2.464844 -2.191406 C 2.453125 -2.480469 2.363281 -2.699219 2.191406 -2.855469 C 2.015625 -3.003906 1.808594 -3.082031 1.570313 -3.085938 C 1.363281 -3.089844 1.164063 -3.023438 0.976563 -2.886719 C 0.785156 -2.746094 0.683594 -2.503906 0.671875 -2.160156 C 0.695313 -1.414063 1.015625 -0.8125 1.632813 -0.355469 C 2.246094 0.101563 3.003906 0.335938 3.902344 0.351563 C 4.558594 0.34375 5.140625 0.199219 5.652344 -0.0859375 C 6.164063 -0.367188 6.566406 -0.742188 6.859375 -1.210938 C 7.152344 -1.675781 7.304688 -2.183594 7.3125 -2.734375 Z M 7.3125 -2.734375 "/>
</symbol>
</g>
</defs>
<g id="surface90">
<path style="fill:none;stroke-width:0.52;stroke-linecap:square;stroke-linejoin:miter;stroke:rgb(36.84082%,50.67749%,70.979309%);stroke-opacity:1;stroke-miterlimit:3.25;" d="M 100.292969 199.300781 L 106.40625 192.160156 L 112.519531 188.855469 L 118.632813 191 L 119.855469 191.890625 L 121.078125 192.859375 L 122.300781 193.871094 L 123.523438 194.890625 L 124.746094 195.890625 L 125.96875 196.855469 L 127.191406 197.78125 L 128.410156 198.660156 L 129.632813 199.503906 L 130.855469 200.308594 L 132.078125 201.074219 L 133.300781 201.785156 L 134.523438 202.40625 L 135.746094 202.898438 L 136.96875 203.21875 L 138.191406 203.339844 L 139.414063 203.242188 L 140.636719 202.941406 L 141.859375 202.488281 L 143.082031 201.933594 L 144.304688 201.34375 L 145.527344 200.773438 L 146.75 200.25 L 147.972656 199.777344 L 149.195313 199.339844 L 150.417969 198.898438 L 151.640625 198.40625 L 152.863281 197.824219 L 154.085938 197.121094 L 155.308594 196.28125 L 156.53125 195.316406 L 157.753906 194.257813 L 158.976563 193.152344 L 160.199219 192.050781 L 161.421875 190.992188 L 162.644531 190.011719 L 163.867188 189.117188 L 165.089844 188.289063 L 166.308594 187.503906 L 167.53125 186.710938 L 168.753906 185.867188 L 169.976563 184.9375 L 171.199219 183.898438 L 172.421875 182.738281 L 173.644531 181.464844 L 174.867188 180.109375 L 176.089844 178.699219 L 177.3125 177.28125 L 178.535156 175.902344 L 179.757813 174.589844 L 185.871094 169.390625 L 191.984375 164.445313 L 198.097656 158.328125 L 204.207031 152.914063 L 210.320313 147.796875 L 216.433594 141.609375 L 222.546875 135.769531 L 228.660156 131.265625 L 234.773438 126.734375 L 240.886719 121.558594 L 246.996094 116.59375 L 253.109375 112.144531 L 259.222656 107.8125 L 260.445313 106.980469 L 261.667969 106.191406 L 262.890625 105.453125 L 264.113281 104.785156 L 265.335938 104.1875 L 266.558594 103.667969 L 267.78125 103.214844 L 269.003906 102.828125 L 270.226563 102.480469 L 271.449219 102.160156 L 272.671875 101.84375 L 273.894531 101.511719 L 275.117188 101.148438 L 276.339844 100.738281 L 277.5625 100.265625 L 278.785156 99.730469 L 280.007813 99.125 L 281.226563 98.457031 L 282.449219 97.730469 L 283.671875 96.957031 L 284.894531 96.144531 L 286.117188 95.308594 L 287.339844 94.460938 L 288.5625 93.617188 L 289.785156 92.777344 L 291.007813 91.953125 L 292.230469 91.140625 L 293.453125 90.347656 L 294.675781 89.566406 L 295.898438 88.800781 L 297.121094 88.046875 L 298.34375 87.308594 L 299.566406 86.589844 L 300.789063 85.90625 L 302.011719 85.265625 L 303.234375 84.679688 L 304.457031 84.164063 L 305.679688 83.726563 L 306.902344 83.367188 L 308.125 83.082031 L 309.347656 82.859375 L 310.570313 82.683594 L 311.792969 82.53125 L 313.015625 82.375 L 314.238281 82.183594 L 315.460938 81.941406 L 316.683594 81.628906 L 317.90625 81.234375 L 319.125 80.753906 L 320.347656 80.195313 L 321.570313 79.570313 L 322.792969 78.894531 L 324.015625 78.1875 L 326.460938 76.75 L 327.683594 76.050781 L 328.90625 75.375 L 330.128906 74.726563 L 331.351563 74.105469 L 332.574219 73.507813 L 333.796875 72.929688 L 335.019531 72.363281 L 336.242188 71.804688 L 337.464844 71.25 L 339.910156 70.148438 L 341.132813 69.605469 L 342.355469 69.070313 L 343.578125 68.546875 L 344.800781 68.035156 "/>
<g style="fill:rgb(36.84082%,50.67749%,70.979309%);fill-opacity:1;">
  <use xlink:href="#glyph0-1" x="98.495782" y="201.036121"/>
</g>
<g style="fill:rgb(36.84082%,50.67749%,70.979309%);fill-opacity:1;">
  <use xlink:href="#glyph0-1" x="104.608435" y="193.894481"/>
</g>
<g style="fill:rgb(36.84082%,50.67749%,70.979309%);fill-opacity:1;">
  <use xlink:href="#glyph0-1" x="110.721088" y="190.589499"/>
</g>
<g style="fill:rgb(36.84082%,50.67749%,70.979309%);fill-opacity:1;">
  <use xlink:href="#glyph0-1" x="116.833741" y="192.733298"/>
</g>
<g style="fill:rgb(36.84082%,50.67749%,70.979309%);fill-opacity:1;">
  <use xlink:href="#glyph0-1" x="118.056272" y="193.623047"/>
</g>
<g style="fill:rgb(36.84082%,50.67749%,70.979309%);fill-opacity:1;">
  <use xlink:href="#glyph0-1" x="119.278802" y="194.592026"/>
</g>
<g style="fill:rgb(36.84082%,50.67749%,70.979309%);fill-opacity:1;">
  <use xlink:href="#glyph0-1" x="120.501333" y="195.602959"/>
</g>
<g style="fill:rgb(36.84082%,50.67749%,70.979309%);fill-opacity:1;">
  <use xlink:href="#glyph0-1" x="121.723863" y="196.622215"/>
</g>
<g style="fill:rgb(36.84082%,50.67749%,70.979309%);fill-opacity:1;">
  <use xlink:href="#glyph0-1" x="122.946394" y="197.623485"/>
</g>
<g style="fill:rgb(36.84082%,50.67749%,70.979309%);fill-opacity:1;">
  <use xlink:href="#glyph0-1" x="124.168925" y="198.58984"/>
</g>
<g style="fill:rgb(36.84082%,50.67749%,70.979309%);fill-opacity:1;">
  <use xlink:href="#glyph0-1" x="125.391455" y="199.513612"/>
</g>
<g style="fill:rgb(36.84082%,50.67749%,70.979309%);fill-opacity:1;">
  <use xlink:href="#glyph0-1" x="126.613986" y="200.394753"/>
</g>
<g style="fill:rgb(36.84082%,50.67749%,70.979309%);fill-opacity:1;">
  <use xlink:href="#glyph0-1" x="127.836517" y="201.23706"/>
</g>
<g style="fill:rgb(36.84082%,50.67749%,70.979309%);fill-opacity:1;">
  <use xlink:href="#glyph0-1" x="129.059047" y="202.043193"/>
</g>
<g style="fill:rgb(36.84082%,50.67749%,70.979309%);fill-opacity:1;">
  <use xlink:href="#glyph0-1" x="130.281578" y="202.808777"/>
</g>
<g style="fill:rgb(36.84082%,50.67749%,70.979309%);fill-opacity:1;">
  <use xlink:href="#glyph0-1" x="131.504108" y="203.517375"/>
</g>
<g style="fill:rgb(36.84082%,50.67749%,70.979309%);fill-opacity:1;">
  <use xlink:href="#glyph0-1" x="132.726639" y="204.138692"/>
</g>
<g style="fill:rgb(36.84082%,50.67749%,70.979309%);fill-opacity:1;">
  <use xlink:href="#glyph0-1" x="133.94917" y="204.631812"/>
</g>
<g style="fill:rgb(36.84082%,50.67749%,70.979309%);fill-opacity:1;">
  <use xlink:href="#glyph0-1" x="135.1717" y="204.953802"/>
</g>
<g style="fill:rgb(36.84082%,50.67749%,70.979309%);fill-opacity:1;">
  <use xlink:href="#glyph0-1" x="136.394231" y="205.071674"/>
</g>
<g style="fill:rgb(36.84082%,50.67749%,70.979309%);fill-opacity:1;">
  <use xlink:href="#glyph0-1" x="137.616761" y="204.97374"/>
</g>
<g style="fill:rgb(36.84082%,50.67749%,70.979309%);fill-opacity:1;">
  <use xlink:href="#glyph0-1" x="138.839292" y="204.675932"/>
</g>
<g style="fill:rgb(36.84082%,50.67749%,70.979309%);fill-opacity:1;">
  <use xlink:href="#glyph0-1" x="140.061823" y="204.220453"/>
</g>
<g style="fill:rgb(36.84082%,50.67749%,70.979309%);fill-opacity:1;">
  <use xlink:href="#glyph0-1" x="141.284353" y="203.666819"/>
</g>
<g style="fill:rgb(36.84082%,50.67749%,70.979309%);fill-opacity:1;">
  <use xlink:href="#glyph0-1" x="142.506884" y="203.078055"/>
</g>
<g style="fill:rgb(36.84082%,50.67749%,70.979309%);fill-opacity:1;">
  <use xlink:href="#glyph0-1" x="143.729415" y="202.50643"/>
</g>
<g style="fill:rgb(36.84082%,50.67749%,70.979309%);fill-opacity:1;">
  <use xlink:href="#glyph0-1" x="144.951945" y="201.98279"/>
</g>
<g style="fill:rgb(36.84082%,50.67749%,70.979309%);fill-opacity:1;">
  <use xlink:href="#glyph0-1" x="146.174476" y="201.511853"/>
</g>
<g style="fill:rgb(36.84082%,50.67749%,70.979309%);fill-opacity:1;">
  <use xlink:href="#glyph0-1" x="147.397006" y="201.074024"/>
</g>
<g style="fill:rgb(36.84082%,50.67749%,70.979309%);fill-opacity:1;">
  <use xlink:href="#glyph0-1" x="148.619537" y="200.63209"/>
</g>
<g style="fill:rgb(36.84082%,50.67749%,70.979309%);fill-opacity:1;">
  <use xlink:href="#glyph0-1" x="149.842068" y="200.14097"/>
</g>
<g style="fill:rgb(36.84082%,50.67749%,70.979309%);fill-opacity:1;">
  <use xlink:href="#glyph0-1" x="151.064598" y="199.558138"/>
</g>
<g style="fill:rgb(36.84082%,50.67749%,70.979309%);fill-opacity:1;">
  <use xlink:href="#glyph0-1" x="152.287129" y="198.852936"/>
</g>
<g style="fill:rgb(36.84082%,50.67749%,70.979309%);fill-opacity:1;">
  <use xlink:href="#glyph0-1" x="153.509659" y="198.013559"/>
</g>
<g style="fill:rgb(36.84082%,50.67749%,70.979309%);fill-opacity:1;">
  <use xlink:href="#glyph0-1" x="154.73219" y="197.050053"/>
</g>
<g style="fill:rgb(36.84082%,50.67749%,70.979309%);fill-opacity:1;">
  <use xlink:href="#glyph0-1" x="155.954721" y="195.992995"/>
</g>
<g style="fill:rgb(36.84082%,50.67749%,70.979309%);fill-opacity:1;">
  <use xlink:href="#glyph0-1" x="157.177251" y="194.887479"/>
</g>
<g style="fill:rgb(36.84082%,50.67749%,70.979309%);fill-opacity:1;">
  <use xlink:href="#glyph0-1" x="158.399782" y="193.783808"/>
</g>
<g style="fill:rgb(36.84082%,50.67749%,70.979309%);fill-opacity:1;">
  <use xlink:href="#glyph0-1" x="159.622312" y="192.726857"/>
</g>
<g style="fill:rgb(36.84082%,50.67749%,70.979309%);fill-opacity:1;">
  <use xlink:href="#glyph0-1" x="160.844843" y="191.746149"/>
</g>
<g style="fill:rgb(36.84082%,50.67749%,70.979309%);fill-opacity:1;">
  <use xlink:href="#glyph0-1" x="162.067374" y="190.849943"/>
</g>
<g style="fill:rgb(36.84082%,50.67749%,70.979309%);fill-opacity:1;">
  <use xlink:href="#glyph0-1" x="163.289904" y="190.024249"/>
</g>
<g style="fill:rgb(36.84082%,50.67749%,70.979309%);fill-opacity:1;">
  <use xlink:href="#glyph0-1" x="164.512435" y="189.236534"/>
</g>
<g style="fill:rgb(36.84082%,50.67749%,70.979309%);fill-opacity:1;">
  <use xlink:href="#glyph0-1" x="165.734966" y="188.443903"/>
</g>
<g style="fill:rgb(36.84082%,50.67749%,70.979309%);fill-opacity:1;">
  <use xlink:href="#glyph0-1" x="166.957496" y="187.601881"/>
</g>
<g style="fill:rgb(36.84082%,50.67749%,70.979309%);fill-opacity:1;">
  <use xlink:href="#glyph0-1" x="168.180027" y="186.672773"/>
</g>
<g style="fill:rgb(36.84082%,50.67749%,70.979309%);fill-opacity:1;">
  <use xlink:href="#glyph0-1" x="169.402557" y="185.631753"/>
</g>
<g style="fill:rgb(36.84082%,50.67749%,70.979309%);fill-opacity:1;">
  <use xlink:href="#glyph0-1" x="170.625088" y="184.470706"/>
</g>
<g style="fill:rgb(36.84082%,50.67749%,70.979309%);fill-opacity:1;">
  <use xlink:href="#glyph0-1" x="171.847619" y="183.199013"/>
</g>
<g style="fill:rgb(36.84082%,50.67749%,70.979309%);fill-opacity:1;">
  <use xlink:href="#glyph0-1" x="173.070149" y="181.841236"/>
</g>
<g style="fill:rgb(36.84082%,50.67749%,70.979309%);fill-opacity:1;">
  <use xlink:href="#glyph0-1" x="174.29268" y="180.432793"/>
</g>
<g style="fill:rgb(36.84082%,50.67749%,70.979309%);fill-opacity:1;">
  <use xlink:href="#glyph0-1" x="175.51521" y="179.016494"/>
</g>
<g style="fill:rgb(36.84082%,50.67749%,70.979309%);fill-opacity:1;">
  <use xlink:href="#glyph0-1" x="176.737741" y="177.634748"/>
</g>
<g style="fill:rgb(36.84082%,50.67749%,70.979309%);fill-opacity:1;">
  <use xlink:href="#glyph0-1" x="177.960272" y="176.322941"/>
</g>
<g style="fill:rgb(36.84082%,50.67749%,70.979309%);fill-opacity:1;">
  <use xlink:href="#glyph0-1" x="184.072925" y="171.125322"/>
</g>
<g style="fill:rgb(36.84082%,50.67749%,70.979309%);fill-opacity:1;">
  <use xlink:href="#glyph0-1" x="190.185578" y="166.176863"/>
</g>
<g style="fill:rgb(36.84082%,50.67749%,70.979309%);fill-opacity:1;">
  <use xlink:href="#glyph0-1" x="196.298231" y="160.059881"/>
</g>
<g style="fill:rgb(36.84082%,50.67749%,70.979309%);fill-opacity:1;">
  <use xlink:href="#glyph0-1" x="202.410884" y="154.647325"/>
</g>
<g style="fill:rgb(36.84082%,50.67749%,70.979309%);fill-opacity:1;">
  <use xlink:href="#glyph0-1" x="208.523537" y="149.530429"/>
</g>
<g style="fill:rgb(36.84082%,50.67749%,70.979309%);fill-opacity:1;">
  <use xlink:href="#glyph0-1" x="214.63619" y="143.343001"/>
</g>
<g style="fill:rgb(36.84082%,50.67749%,70.979309%);fill-opacity:1;">
  <use xlink:href="#glyph0-1" x="220.748843" y="137.502785"/>
</g>
<g style="fill:rgb(36.84082%,50.67749%,70.979309%);fill-opacity:1;">
  <use xlink:href="#glyph0-1" x="226.861496" y="133.000549"/>
</g>
<g style="fill:rgb(36.84082%,50.67749%,70.979309%);fill-opacity:1;">
  <use xlink:href="#glyph0-1" x="232.974149" y="128.466441"/>
</g>
<g style="fill:rgb(36.84082%,50.67749%,70.979309%);fill-opacity:1;">
  <use xlink:href="#glyph0-1" x="239.086802" y="123.292361"/>
</g>
<g style="fill:rgb(36.84082%,50.67749%,70.979309%);fill-opacity:1;">
  <use xlink:href="#glyph0-1" x="245.199455" y="118.328046"/>
</g>
<g style="fill:rgb(36.84082%,50.67749%,70.979309%);fill-opacity:1;">
  <use xlink:href="#glyph0-1" x="251.312108" y="113.878121"/>
</g>
<g style="fill:rgb(36.84082%,50.67749%,70.979309%);fill-opacity:1;">
  <use xlink:href="#glyph0-1" x="257.424761" y="109.545536"/>
</g>
<g style="fill:rgb(36.84082%,50.67749%,70.979309%);fill-opacity:1;">
  <use xlink:href="#glyph0-1" x="258.647292" y="108.714575"/>
</g>
<g style="fill:rgb(36.84082%,50.67749%,70.979309%);fill-opacity:1;">
  <use xlink:href="#glyph0-1" x="259.869823" y="107.923624"/>
</g>
<g style="fill:rgb(36.84082%,50.67749%,70.979309%);fill-opacity:1;">
  <use xlink:href="#glyph0-1" x="261.092353" y="107.187148"/>
</g>
<g style="fill:rgb(36.84082%,50.67749%,70.979309%);fill-opacity:1;">
  <use xlink:href="#glyph0-1" x="262.314884" y="106.517084"/>
</g>
<g style="fill:rgb(36.84082%,50.67749%,70.979309%);fill-opacity:1;">
  <use xlink:href="#glyph0-1" x="263.537415" y="105.920873"/>
</g>
<g style="fill:rgb(36.84082%,50.67749%,70.979309%);fill-opacity:1;">
  <use xlink:href="#glyph0-1" x="264.759945" y="105.400101"/>
</g>
<g style="fill:rgb(36.84082%,50.67749%,70.979309%);fill-opacity:1;">
  <use xlink:href="#glyph0-1" x="265.982476" y="104.950009"/>
</g>
<g style="fill:rgb(36.84082%,50.67749%,70.979309%);fill-opacity:1;">
  <use xlink:href="#glyph0-1" x="267.205006" y="104.559836"/>
</g>
<g style="fill:rgb(36.84082%,50.67749%,70.979309%);fill-opacity:1;">
  <use xlink:href="#glyph0-1" x="268.427537" y="104.213925"/>
</g>
<g style="fill:rgb(36.84082%,50.67749%,70.979309%);fill-opacity:1;">
  <use xlink:href="#glyph0-1" x="269.650068" y="103.893324"/>
</g>
<g style="fill:rgb(36.84082%,50.67749%,70.979309%);fill-opacity:1;">
  <use xlink:href="#glyph0-1" x="270.872598" y="103.577659"/>
</g>
<g style="fill:rgb(36.84082%,50.67749%,70.979309%);fill-opacity:1;">
  <use xlink:href="#glyph0-1" x="272.095129" y="103.246815"/>
</g>
<g style="fill:rgb(36.84082%,50.67749%,70.979309%);fill-opacity:1;">
  <use xlink:href="#glyph0-1" x="273.317659" y="102.882726"/>
</g>
<g style="fill:rgb(36.84082%,50.67749%,70.979309%);fill-opacity:1;">
  <use xlink:href="#glyph0-1" x="274.54019" y="102.470478"/>
</g>
<g style="fill:rgb(36.84082%,50.67749%,70.979309%);fill-opacity:1;">
  <use xlink:href="#glyph0-1" x="275.762721" y="101.99919"/>
</g>
<g style="fill:rgb(36.84082%,50.67749%,70.979309%);fill-opacity:1;">
  <use xlink:href="#glyph0-1" x="276.985251" y="101.462473"/>
</g>
<g style="fill:rgb(36.84082%,50.67749%,70.979309%);fill-opacity:1;">
  <use xlink:href="#glyph0-1" x="278.207782" y="100.858559"/>
</g>
<g style="fill:rgb(36.84082%,50.67749%,70.979309%);fill-opacity:1;">
  <use xlink:href="#glyph0-1" x="279.430312" y="100.190091"/>
</g>
<g style="fill:rgb(36.84082%,50.67749%,70.979309%);fill-opacity:1;">
  <use xlink:href="#glyph0-1" x="280.652843" y="99.463622"/>
</g>
<g style="fill:rgb(36.84082%,50.67749%,70.979309%);fill-opacity:1;">
  <use xlink:href="#glyph0-1" x="281.875374" y="98.688864"/>
</g>
<g style="fill:rgb(36.84082%,50.67749%,70.979309%);fill-opacity:1;">
  <use xlink:href="#glyph0-1" x="283.097904" y="97.87744"/>
</g>
<g style="fill:rgb(36.84082%,50.67749%,70.979309%);fill-opacity:1;">
  <use xlink:href="#glyph0-1" x="284.320435" y="97.042198"/>
</g>
<g style="fill:rgb(36.84082%,50.67749%,70.979309%);fill-opacity:1;">
  <use xlink:href="#glyph0-1" x="285.542966" y="96.195716"/>
</g>
<g style="fill:rgb(36.84082%,50.67749%,70.979309%);fill-opacity:1;">
  <use xlink:href="#glyph0-1" x="286.765496" y="95.348894"/>
</g>
<g style="fill:rgb(36.84082%,50.67749%,70.979309%);fill-opacity:1;">
  <use xlink:href="#glyph0-1" x="287.988027" y="94.51014"/>
</g>
<g style="fill:rgb(36.84082%,50.67749%,70.979309%);fill-opacity:1;">
  <use xlink:href="#glyph0-1" x="289.210557" y="93.684809"/>
</g>
<g style="fill:rgb(36.84082%,50.67749%,70.979309%);fill-opacity:1;">
  <use xlink:href="#glyph0-1" x="290.433088" y="92.875246"/>
</g>
<g style="fill:rgb(36.84082%,50.67749%,70.979309%);fill-opacity:1;">
  <use xlink:href="#glyph0-1" x="291.655619" y="92.081256"/>
</g>
<g style="fill:rgb(36.84082%,50.67749%,70.979309%);fill-opacity:1;">
  <use xlink:href="#glyph0-1" x="292.878149" y="91.30103"/>
</g>
<g style="fill:rgb(36.84082%,50.67749%,70.979309%);fill-opacity:1;">
  <use xlink:href="#glyph0-1" x="294.10068" y="90.533586"/>
</g>
<g style="fill:rgb(36.84082%,50.67749%,70.979309%);fill-opacity:1;">
  <use xlink:href="#glyph0-1" x="295.32321" y="89.779082"/>
</g>
<g style="fill:rgb(36.84082%,50.67749%,70.979309%);fill-opacity:1;">
  <use xlink:href="#glyph0-1" x="296.545741" y="89.040431"/>
</g>
<g style="fill:rgb(36.84082%,50.67749%,70.979309%);fill-opacity:1;">
  <use xlink:href="#glyph0-1" x="297.768272" y="88.323964"/>
</g>
<g style="fill:rgb(36.84082%,50.67749%,70.979309%);fill-opacity:1;">
  <use xlink:href="#glyph0-1" x="298.990802" y="87.639031"/>
</g>
<g style="fill:rgb(36.84082%,50.67749%,70.979309%);fill-opacity:1;">
  <use xlink:href="#glyph0-1" x="300.213333" y="86.99779"/>
</g>
<g style="fill:rgb(36.84082%,50.67749%,70.979309%);fill-opacity:1;">
  <use xlink:href="#glyph0-1" x="301.435863" y="86.413482"/>
</g>
<g style="fill:rgb(36.84082%,50.67749%,70.979309%);fill-opacity:1;">
  <use xlink:href="#glyph0-1" x="302.658394" y="85.897841"/>
</g>
<g style="fill:rgb(36.84082%,50.67749%,70.979309%);fill-opacity:1;">
  <use xlink:href="#glyph0-1" x="303.880925" y="85.459073"/>
</g>
<g style="fill:rgb(36.84082%,50.67749%,70.979309%);fill-opacity:1;">
  <use xlink:href="#glyph0-1" x="305.103455" y="85.099299"/>
</g>
<g style="fill:rgb(36.84082%,50.67749%,70.979309%);fill-opacity:1;">
  <use xlink:href="#glyph0-1" x="306.325986" y="84.814716"/>
</g>
<g style="fill:rgb(36.84082%,50.67749%,70.979309%);fill-opacity:1;">
  <use xlink:href="#glyph0-1" x="307.548517" y="84.593901"/>
</g>
<g style="fill:rgb(36.84082%,50.67749%,70.979309%);fill-opacity:1;">
  <use xlink:href="#glyph0-1" x="308.771047" y="84.418561"/>
</g>
<g style="fill:rgb(36.84082%,50.67749%,70.979309%);fill-opacity:1;">
  <use xlink:href="#glyph0-1" x="309.993578" y="84.264814"/>
</g>
<g style="fill:rgb(36.84082%,50.67749%,70.979309%);fill-opacity:1;">
  <use xlink:href="#glyph0-1" x="311.216108" y="84.106567"/>
</g>
<g style="fill:rgb(36.84082%,50.67749%,70.979309%);fill-opacity:1;">
  <use xlink:href="#glyph0-1" x="312.438639" y="83.917964"/>
</g>
<g style="fill:rgb(36.84082%,50.67749%,70.979309%);fill-opacity:1;">
  <use xlink:href="#glyph0-1" x="313.66117" y="83.67589"/>
</g>
<g style="fill:rgb(36.84082%,50.67749%,70.979309%);fill-opacity:1;">
  <use xlink:href="#glyph0-1" x="314.8837" y="83.36207"/>
</g>
<g style="fill:rgb(36.84082%,50.67749%,70.979309%);fill-opacity:1;">
  <use xlink:href="#glyph0-1" x="316.106231" y="82.966538"/>
</g>
<g style="fill:rgb(36.84082%,50.67749%,70.979309%);fill-opacity:1;">
  <use xlink:href="#glyph0-1" x="317.328761" y="82.487048"/>
</g>
<g style="fill:rgb(36.84082%,50.67749%,70.979309%);fill-opacity:1;">
  <use xlink:href="#glyph0-1" x="318.551292" y="81.928764"/>
</g>
<g style="fill:rgb(36.84082%,50.67749%,70.979309%);fill-opacity:1;">
  <use xlink:href="#glyph0-1" x="319.773823" y="81.30334"/>
</g>
<g style="fill:rgb(36.84082%,50.67749%,70.979309%);fill-opacity:1;">
  <use xlink:href="#glyph0-1" x="320.996353" y="80.627816"/>
</g>
<g style="fill:rgb(36.84082%,50.67749%,70.979309%);fill-opacity:1;">
  <use xlink:href="#glyph0-1" x="322.218884" y="79.920995"/>
</g>
<g style="fill:rgb(36.84082%,50.67749%,70.979309%);fill-opacity:1;">
  <use xlink:href="#glyph0-1" x="323.441415" y="79.200818"/>
</g>
<g style="fill:rgb(36.84082%,50.67749%,70.979309%);fill-opacity:1;">
  <use xlink:href="#glyph0-1" x="324.663945" y="78.484411"/>
</g>
<g style="fill:rgb(36.84082%,50.67749%,70.979309%);fill-opacity:1;">
  <use xlink:href="#glyph0-1" x="325.886476" y="77.784462"/>
</g>
<g style="fill:rgb(36.84082%,50.67749%,70.979309%);fill-opacity:1;">
  <use xlink:href="#glyph0-1" x="327.109006" y="77.108312"/>
</g>
<g style="fill:rgb(36.84082%,50.67749%,70.979309%);fill-opacity:1;">
  <use xlink:href="#glyph0-1" x="328.331537" y="76.460071"/>
</g>
<g style="fill:rgb(36.84082%,50.67749%,70.979309%);fill-opacity:1;">
  <use xlink:href="#glyph0-1" x="329.554068" y="75.839179"/>
</g>
<g style="fill:rgb(36.84082%,50.67749%,70.979309%);fill-opacity:1;">
  <use xlink:href="#glyph0-1" x="330.776598" y="75.241303"/>
</g>
<g style="fill:rgb(36.84082%,50.67749%,70.979309%);fill-opacity:1;">
  <use xlink:href="#glyph0-1" x="331.999129" y="74.661931"/>
</g>
<g style="fill:rgb(36.84082%,50.67749%,70.979309%);fill-opacity:1;">
  <use xlink:href="#glyph0-1" x="333.221659" y="74.095351"/>
</g>
<g style="fill:rgb(36.84082%,50.67749%,70.979309%);fill-opacity:1;">
  <use xlink:href="#glyph0-1" x="334.44419" y="73.53628"/>
</g>
<g style="fill:rgb(36.84082%,50.67749%,70.979309%);fill-opacity:1;">
  <use xlink:href="#glyph0-1" x="335.666721" y="72.982048"/>
</g>
<g style="fill:rgb(36.84082%,50.67749%,70.979309%);fill-opacity:1;">
  <use xlink:href="#glyph0-1" x="336.889251" y="72.43083"/>
</g>
<g style="fill:rgb(36.84082%,50.67749%,70.979309%);fill-opacity:1;">
  <use xlink:href="#glyph0-1" x="338.111782" y="71.882996"/>
</g>
<g style="fill:rgb(36.84082%,50.67749%,70.979309%);fill-opacity:1;">
  <use xlink:href="#glyph0-1" x="339.334312" y="71.340618"/>
</g>
<g style="fill:rgb(36.84082%,50.67749%,70.979309%);fill-opacity:1;">
  <use xlink:href="#glyph0-1" x="340.556843" y="70.805449"/>
</g>
<g style="fill:rgb(36.84082%,50.67749%,70.979309%);fill-opacity:1;">
  <use xlink:href="#glyph0-1" x="341.779374" y="70.280619"/>
</g>
<g style="fill:rgb(36.84082%,50.67749%,70.979309%);fill-opacity:1;">
  <use xlink:href="#glyph0-1" x="343.001904" y="69.76784"/>
</g>
<path style="fill:none;stroke-width:0.8;stroke-linecap:square;stroke-linejoin:miter;stroke:rgb(0%,0%,0%);stroke-opacity:1;stroke-miterlimit:3.25;" d="M 350 220.6875 L 90 220.6875 "/>
<path style="fill:none;stroke-width:0.8;stroke-linecap:square;stroke-linejoin:miter;stroke:rgb(0%,0%,0%);stroke-opacity:1;stroke-miterlimit:3.25;" d="M 90 220.6875 L 90 60 "/>
<path style="fill:none;stroke-width:0.8;stroke-linecap:square;stroke-linejoin:miter;stroke:rgb(0%,0%,0%);stroke-opacity:1;stroke-miterlimit:3.25;" d="M 90 60 L 350 60 "/>
<path style="fill:none;stroke-width:0.8;stroke-linecap:square;stroke-linejoin:miter;stroke:rgb(0%,0%,0%);stroke-opacity:1;stroke-miterlimit:3.25;" d="M 350 60 L 350 220.6875 "/>
<path style="fill:none;stroke-width:0.8;stroke-linecap:butt;stroke-linejoin:miter;stroke:rgb(0%,0%,0%);stroke-opacity:1;stroke-miterlimit:3.25;" d="M 100.292969 220.6875 L 100.292969 217.621094 "/>
<g style="fill:rgb(0%,0%,0%);fill-opacity:1;">
  <use xlink:href="#glyph1-1" x="88.293877" y="241.720837"/>
  <use xlink:href="#glyph1-2" x="96.293877" y="241.720837"/>
  <use xlink:href="#glyph1-2" x="104.293877" y="241.720837"/>
</g>
<path style="fill:none;stroke-width:0.8;stroke-linecap:butt;stroke-linejoin:miter;stroke:rgb(0%,0%,0%);stroke-opacity:1;stroke-miterlimit:3.25;" d="M 112.519531 220.6875 L 112.519531 218.847656 "/>
<path style="fill:none;stroke-width:0.8;stroke-linecap:butt;stroke-linejoin:miter;stroke:rgb(0%,0%,0%);stroke-opacity:1;stroke-miterlimit:3.25;" d="M 124.746094 220.6875 L 124.746094 218.847656 "/>
<path style="fill:none;stroke-width:0.8;stroke-linecap:butt;stroke-linejoin:miter;stroke:rgb(0%,0%,0%);stroke-opacity:1;stroke-miterlimit:3.25;" d="M 136.96875 220.6875 L 136.96875 218.847656 "/>
<path style="fill:none;stroke-width:0.8;stroke-linecap:butt;stroke-linejoin:miter;stroke:rgb(0%,0%,0%);stroke-opacity:1;stroke-miterlimit:3.25;" d="M 149.195313 220.6875 L 149.195313 218.847656 "/>
<path style="fill:none;stroke-width:0.8;stroke-linecap:butt;stroke-linejoin:miter;stroke:rgb(0%,0%,0%);stroke-opacity:1;stroke-miterlimit:3.25;" d="M 161.421875 220.6875 L 161.421875 217.621094 "/>
<g style="fill:rgb(0%,0%,0%);fill-opacity:1;">
  <use xlink:href="#glyph1-1" x="149.420408" y="241.720837"/>
  <use xlink:href="#glyph1-3" x="157.420408" y="241.720837"/>
  <use xlink:href="#glyph1-2" x="165.420407" y="241.720837"/>
</g>
<path style="fill:none;stroke-width:0.8;stroke-linecap:butt;stroke-linejoin:miter;stroke:rgb(0%,0%,0%);stroke-opacity:1;stroke-miterlimit:3.25;" d="M 173.644531 220.6875 L 173.644531 218.847656 "/>
<path style="fill:none;stroke-width:0.8;stroke-linecap:butt;stroke-linejoin:miter;stroke:rgb(0%,0%,0%);stroke-opacity:1;stroke-miterlimit:3.25;" d="M 185.871094 220.6875 L 185.871094 218.847656 "/>
<path style="fill:none;stroke-width:0.8;stroke-linecap:butt;stroke-linejoin:miter;stroke:rgb(0%,0%,0%);stroke-opacity:1;stroke-miterlimit:3.25;" d="M 198.097656 220.6875 L 198.097656 218.847656 "/>
<path style="fill:none;stroke-width:0.8;stroke-linecap:butt;stroke-linejoin:miter;stroke:rgb(0%,0%,0%);stroke-opacity:1;stroke-miterlimit:3.25;" d="M 210.320313 220.6875 L 210.320313 218.847656 "/>
<path style="fill:none;stroke-width:0.8;stroke-linecap:butt;stroke-linejoin:miter;stroke:rgb(0%,0%,0%);stroke-opacity:1;stroke-miterlimit:3.25;" d="M 222.546875 220.6875 L 222.546875 217.621094 "/>
<g style="fill:rgb(0%,0%,0%);fill-opacity:1;">
  <use xlink:href="#glyph1-3" x="210.546938" y="241.720837"/>
  <use xlink:href="#glyph1-2" x="218.546938" y="241.720837"/>
  <use xlink:href="#glyph1-2" x="226.546938" y="241.720837"/>
</g>
<path style="fill:none;stroke-width:0.8;stroke-linecap:butt;stroke-linejoin:miter;stroke:rgb(0%,0%,0%);stroke-opacity:1;stroke-miterlimit:3.25;" d="M 234.773438 220.6875 L 234.773438 218.847656 "/>
<path style="fill:none;stroke-width:0.8;stroke-linecap:butt;stroke-linejoin:miter;stroke:rgb(0%,0%,0%);stroke-opacity:1;stroke-miterlimit:3.25;" d="M 246.996094 220.6875 L 246.996094 218.847656 "/>
<path style="fill:none;stroke-width:0.8;stroke-linecap:butt;stroke-linejoin:miter;stroke:rgb(0%,0%,0%);stroke-opacity:1;stroke-miterlimit:3.25;" d="M 259.222656 220.6875 L 259.222656 218.847656 "/>
<path style="fill:none;stroke-width:0.8;stroke-linecap:butt;stroke-linejoin:miter;stroke:rgb(0%,0%,0%);stroke-opacity:1;stroke-miterlimit:3.25;" d="M 271.449219 220.6875 L 271.449219 218.847656 "/>
<path style="fill:none;stroke-width:0.8;stroke-linecap:butt;stroke-linejoin:miter;stroke:rgb(0%,0%,0%);stroke-opacity:1;stroke-miterlimit:3.25;" d="M 283.671875 220.6875 L 283.671875 217.621094 "/>
<g style="fill:rgb(0%,0%,0%);fill-opacity:1;">
  <use xlink:href="#glyph1-3" x="271.673469" y="241.720837"/>
  <use xlink:href="#glyph1-3" x="279.673469" y="241.720837"/>
  <use xlink:href="#glyph1-2" x="287.673468" y="241.720837"/>
</g>
<path style="fill:none;stroke-width:0.8;stroke-linecap:butt;stroke-linejoin:miter;stroke:rgb(0%,0%,0%);stroke-opacity:1;stroke-miterlimit:3.25;" d="M 295.898438 220.6875 L 295.898438 218.847656 "/>
<path style="fill:none;stroke-width:0.8;stroke-linecap:butt;stroke-linejoin:miter;stroke:rgb(0%,0%,0%);stroke-opacity:1;stroke-miterlimit:3.25;" d="M 308.125 220.6875 L 308.125 218.847656 "/>
<path style="fill:none;stroke-width:0.8;stroke-linecap:butt;stroke-linejoin:miter;stroke:rgb(0%,0%,0%);stroke-opacity:1;stroke-miterlimit:3.25;" d="M 320.347656 220.6875 L 320.347656 218.847656 "/>
<path style="fill:none;stroke-width:0.8;stroke-linecap:butt;stroke-linejoin:miter;stroke:rgb(0%,0%,0%);stroke-opacity:1;stroke-miterlimit:3.25;" d="M 332.574219 220.6875 L 332.574219 218.847656 "/>
<path style="fill:none;stroke-width:0.8;stroke-linecap:butt;stroke-linejoin:miter;stroke:rgb(0%,0%,0%);stroke-opacity:1;stroke-miterlimit:3.25;" d="M 344.800781 220.6875 L 344.800781 217.621094 "/>
<g style="fill:rgb(0%,0%,0%);fill-opacity:1;">
  <use xlink:href="#glyph1-4" x="332.8" y="241.720837"/>
  <use xlink:href="#glyph1-2" x="340.799999" y="241.720837"/>
  <use xlink:href="#glyph1-2" x="348.799999" y="241.720837"/>
</g>
<path style="fill:none;stroke-width:0.8;stroke-linecap:butt;stroke-linejoin:miter;stroke:rgb(0%,0%,0%);stroke-opacity:1;stroke-miterlimit:3.25;" d="M 90 220.6875 L 91.839844 220.6875 "/>
<path style="fill:none;stroke-width:0.8;stroke-linecap:butt;stroke-linejoin:miter;stroke:rgb(0%,0%,0%);stroke-opacity:1;stroke-miterlimit:3.25;" d="M 90 213.308594 L 91.839844 213.308594 "/>
<path style="fill:none;stroke-width:0.8;stroke-linecap:butt;stroke-linejoin:miter;stroke:rgb(0%,0%,0%);stroke-opacity:1;stroke-miterlimit:3.25;" d="M 90 205.925781 L 91.839844 205.925781 "/>
<path style="fill:none;stroke-width:0.8;stroke-linecap:butt;stroke-linejoin:miter;stroke:rgb(0%,0%,0%);stroke-opacity:1;stroke-miterlimit:3.25;" d="M 90 198.546875 L 93.066406 198.546875 "/>
<g style="fill:rgb(0%,0%,0%);fill-opacity:1;">
  <use xlink:href="#glyph1-5" x="66.552" y="205.24153"/>
  <use xlink:href="#glyph1-6" x="74.551999" y="205.24153"/>
  <use xlink:href="#glyph1-3" x="78.999999" y="205.24153"/>
</g>
<path style="fill:none;stroke-width:0.8;stroke-linecap:butt;stroke-linejoin:miter;stroke:rgb(0%,0%,0%);stroke-opacity:1;stroke-miterlimit:3.25;" d="M 90 191.164063 L 91.839844 191.164063 "/>
<path style="fill:none;stroke-width:0.8;stroke-linecap:butt;stroke-linejoin:miter;stroke:rgb(0%,0%,0%);stroke-opacity:1;stroke-miterlimit:3.25;" d="M 90 183.785156 L 91.839844 183.785156 "/>
<path style="fill:none;stroke-width:0.8;stroke-linecap:butt;stroke-linejoin:miter;stroke:rgb(0%,0%,0%);stroke-opacity:1;stroke-miterlimit:3.25;" d="M 90 176.402344 L 91.839844 176.402344 "/>
<path style="fill:none;stroke-width:0.8;stroke-linecap:butt;stroke-linejoin:miter;stroke:rgb(0%,0%,0%);stroke-opacity:1;stroke-miterlimit:3.25;" d="M 90 169.019531 L 91.839844 169.019531 "/>
<path style="fill:none;stroke-width:0.8;stroke-linecap:butt;stroke-linejoin:miter;stroke:rgb(0%,0%,0%);stroke-opacity:1;stroke-miterlimit:3.25;" d="M 90 161.640625 L 93.066406 161.640625 "/>
<g style="fill:rgb(0%,0%,0%);fill-opacity:1;">
  <use xlink:href="#glyph1-7" x="66.552" y="168.336018"/>
  <use xlink:href="#glyph1-6" x="74.551999" y="168.336018"/>
  <use xlink:href="#glyph1-2" x="78.999999" y="168.336018"/>
</g>
<path style="fill:none;stroke-width:0.8;stroke-linecap:butt;stroke-linejoin:miter;stroke:rgb(0%,0%,0%);stroke-opacity:1;stroke-miterlimit:3.25;" d="M 90 154.257813 L 91.839844 154.257813 "/>
<path style="fill:none;stroke-width:0.8;stroke-linecap:butt;stroke-linejoin:miter;stroke:rgb(0%,0%,0%);stroke-opacity:1;stroke-miterlimit:3.25;" d="M 90 146.878906 L 91.839844 146.878906 "/>
<path style="fill:none;stroke-width:0.8;stroke-linecap:butt;stroke-linejoin:miter;stroke:rgb(0%,0%,0%);stroke-opacity:1;stroke-miterlimit:3.25;" d="M 90 139.496094 L 91.839844 139.496094 "/>
<path style="fill:none;stroke-width:0.8;stroke-linecap:butt;stroke-linejoin:miter;stroke:rgb(0%,0%,0%);stroke-opacity:1;stroke-miterlimit:3.25;" d="M 90 132.117188 L 91.839844 132.117188 "/>
<path style="fill:none;stroke-width:0.8;stroke-linecap:butt;stroke-linejoin:miter;stroke:rgb(0%,0%,0%);stroke-opacity:1;stroke-miterlimit:3.25;" d="M 90 124.734375 L 93.066406 124.734375 "/>
<g style="fill:rgb(0%,0%,0%);fill-opacity:1;">
  <use xlink:href="#glyph1-7" x="66.552" y="131.430506"/>
  <use xlink:href="#glyph1-6" x="74.551999" y="131.430506"/>
  <use xlink:href="#glyph1-3" x="78.999999" y="131.430506"/>
</g>
<path style="fill:none;stroke-width:0.8;stroke-linecap:butt;stroke-linejoin:miter;stroke:rgb(0%,0%,0%);stroke-opacity:1;stroke-miterlimit:3.25;" d="M 90 117.351563 L 91.839844 117.351563 "/>
<path style="fill:none;stroke-width:0.8;stroke-linecap:butt;stroke-linejoin:miter;stroke:rgb(0%,0%,0%);stroke-opacity:1;stroke-miterlimit:3.25;" d="M 90 109.972656 L 91.839844 109.972656 "/>
<path style="fill:none;stroke-width:0.8;stroke-linecap:butt;stroke-linejoin:miter;stroke:rgb(0%,0%,0%);stroke-opacity:1;stroke-miterlimit:3.25;" d="M 90 102.589844 L 91.839844 102.589844 "/>
<path style="fill:none;stroke-width:0.8;stroke-linecap:butt;stroke-linejoin:miter;stroke:rgb(0%,0%,0%);stroke-opacity:1;stroke-miterlimit:3.25;" d="M 90 95.210938 L 91.839844 95.210938 "/>
<path style="fill:none;stroke-width:0.8;stroke-linecap:butt;stroke-linejoin:miter;stroke:rgb(0%,0%,0%);stroke-opacity:1;stroke-miterlimit:3.25;" d="M 90 87.828125 L 93.066406 87.828125 "/>
<g style="fill:rgb(0%,0%,0%);fill-opacity:1;">
  <use xlink:href="#glyph1-8" x="66.552" y="94.524994"/>
  <use xlink:href="#glyph1-6" x="74.551999" y="94.524994"/>
  <use xlink:href="#glyph1-2" x="78.999999" y="94.524994"/>
</g>
<path style="fill:none;stroke-width:0.8;stroke-linecap:butt;stroke-linejoin:miter;stroke:rgb(0%,0%,0%);stroke-opacity:1;stroke-miterlimit:3.25;" d="M 90 80.449219 L 91.839844 80.449219 "/>
<path style="fill:none;stroke-width:0.8;stroke-linecap:butt;stroke-linejoin:miter;stroke:rgb(0%,0%,0%);stroke-opacity:1;stroke-miterlimit:3.25;" d="M 90 73.066406 L 91.839844 73.066406 "/>
<path style="fill:none;stroke-width:0.8;stroke-linecap:butt;stroke-linejoin:miter;stroke:rgb(0%,0%,0%);stroke-opacity:1;stroke-miterlimit:3.25;" d="M 90 65.6875 L 91.839844 65.6875 "/>
<path style=" stroke:none;fill-rule:evenodd;fill:rgb(0%,0%,0%);fill-opacity:1;" d="M 206.332031 267.847656 C 206.332031 267.78125 206.316406 267.765625 206.25 267.699219 C 206.097656 267.515625 205.984375 267.214844 205.914063 267.011719 L 202.554688 257.394531 C 202.136719 256.207031 200.816406 256.207031 200.597656 256.207031 C 200.496094 256.207031 200.3125 256.207031 200.3125 256.375 C 200.3125 256.507813 200.410156 256.523438 200.496094 256.542969 C 200.746094 256.574219 200.949219 256.609375 201.214844 257.09375 C 201.382813 257.414063 203.105469 262.445313 203.105469 262.445313 C 203.105469 262.445313 203.089844 262.480469 202.953125 262.613281 L 198.605469 267.011719 C 198.402344 267.214844 198.269531 267.347656 198.269531 267.5625 C 198.269531 267.796875 198.472656 268 198.738281 268 C 198.804688 268 198.992188 267.964844 199.089844 267.867188 C 199.359375 267.613281 201.75 264.6875 203.273438 262.882813 L 204.761719 267.128906 C 204.847656 267.378906 204.929688 267.613281 205.164063 267.832031 C 205.328125 267.980469 205.363281 267.980469 205.832031 267.980469 L 206.148438 267.980469 C 206.21875 267.980469 206.332031 267.980469 206.332031 267.847656 Z M 206.332031 267.847656 "/>
<path style=" stroke:none;fill-rule:evenodd;fill:rgb(0%,0%,0%);fill-opacity:1;" d="M 214.867188 271.996094 L 214.867188 271.378906 L 213.242188 271.378906 L 213.242188 255.890625 L 214.867188 255.890625 L 214.867188 255.269531 L 212.625 255.269531 L 212.625 271.996094 Z M 214.867188 271.996094 "/>
<path style=" stroke:none;fill-rule:evenodd;fill:rgb(0%,0%,0%);fill-opacity:1;" d="M 224.019531 267.816406 L 224.019531 267.328125 C 223.183594 267.328125 222.765625 267.328125 222.746094 266.828125 L 222.746094 263.75 C 222.746094 262.195313 222.746094 261.726563 222.363281 261.191406 C 221.875 260.539063 221.089844 260.441406 220.523438 260.441406 C 218.898438 260.441406 218.265625 261.828125 218.128906 262.160156 L 218.113281 262.160156 L 218.113281 260.441406 L 215.839844 260.625 L 215.839844 261.109375 C 216.976563 261.109375 217.109375 261.226563 217.109375 262.046875 L 217.109375 266.578125 C 217.109375 267.328125 216.925781 267.328125 215.839844 267.328125 L 215.839844 267.816406 C 216.273438 267.78125 217.175781 267.78125 217.644531 267.78125 C 218.128906 267.78125 219.03125 267.78125 219.46875 267.816406 L 219.46875 267.328125 C 218.398438 267.328125 218.195313 267.328125 218.195313 266.578125 L 218.195313 263.46875 C 218.195313 261.710938 219.351563 260.773438 220.390625 260.773438 C 221.425781 260.773438 221.660156 261.628906 221.660156 262.648438 L 221.660156 266.578125 C 221.660156 267.328125 221.476563 267.328125 220.390625 267.328125 L 220.390625 267.816406 C 220.820313 267.78125 221.726563 267.78125 222.195313 267.78125 C 222.679688 267.78125 223.582031 267.78125 224.019531 267.816406 Z M 224.019531 267.816406 "/>
<path style=" stroke:none;fill-rule:evenodd;fill:rgb(0%,0%,0%);fill-opacity:1;" d="M 237.667969 267.816406 L 237.667969 267.328125 C 236.832031 267.328125 236.414063 267.328125 236.394531 266.828125 L 236.394531 263.75 C 236.394531 262.195313 236.394531 261.726563 236.011719 261.191406 C 235.523438 260.539063 234.738281 260.441406 234.171875 260.441406 C 232.78125 260.441406 232.082031 261.445313 231.8125 262.097656 C 231.578125 260.808594 230.675781 260.441406 229.621094 260.441406 C 228 260.441406 227.363281 261.828125 227.230469 262.160156 L 227.214844 262.160156 L 227.214844 260.441406 L 224.9375 260.625 L 224.9375 261.109375 C 226.074219 261.109375 226.210938 261.226563 226.210938 262.046875 L 226.210938 266.578125 C 226.210938 267.328125 226.027344 267.328125 224.9375 267.328125 L 224.9375 267.816406 C 225.375 267.78125 226.273438 267.78125 226.746094 267.78125 C 227.230469 267.78125 228.132813 267.78125 228.566406 267.816406 L 228.566406 267.328125 C 227.496094 267.328125 227.296875 267.328125 227.296875 266.578125 L 227.296875 263.46875 C 227.296875 261.710938 228.453125 260.773438 229.488281 260.773438 C 230.523438 260.773438 230.757813 261.628906 230.757813 262.648438 L 230.757813 266.578125 C 230.757813 267.328125 230.574219 267.328125 229.488281 267.328125 L 229.488281 267.816406 C 229.921875 267.78125 230.824219 267.78125 231.292969 267.78125 C 231.777344 267.78125 232.683594 267.78125 233.117188 267.816406 L 233.117188 267.328125 C 232.046875 267.328125 231.847656 267.328125 231.847656 266.578125 L 231.847656 263.46875 C 231.847656 261.710938 233 260.773438 234.039063 260.773438 C 235.074219 260.773438 235.308594 261.628906 235.308594 262.648438 L 235.308594 266.578125 C 235.308594 267.328125 235.125 267.328125 234.039063 267.328125 L 234.039063 267.816406 C 234.472656 267.78125 235.375 267.78125 235.84375 267.78125 C 236.328125 267.78125 237.230469 267.78125 237.667969 267.816406 Z M 237.667969 267.816406 "/>
<path style=" stroke:none;fill-rule:evenodd;fill:rgb(0%,0%,0%);fill-opacity:1;" d="M 240.714844 271.996094 L 240.714844 255.269531 L 238.472656 255.269531 L 238.472656 255.890625 L 240.09375 255.890625 L 240.09375 271.378906 L 238.472656 271.378906 L 238.472656 271.996094 Z M 240.714844 271.996094 "/>
<path style=" stroke:none;fill-rule:evenodd;fill:rgb(0%,0%,0%);fill-opacity:1;" d="M 53.148438 144.65625 C 53.050781 144.65625 52.980469 144.726563 52.980469 144.808594 C 52.980469 144.910156 53.066406 144.941406 53.25 144.992188 C 54.304688 145.363281 54.90625 146.230469 54.90625 146.96875 C 54.90625 147.820313 54.320313 148.035156 53.03125 148.121094 C 51.878906 145.242188 48.835938 143.101563 45.808594 143.101563 C 43.046875 143.101563 41.359375 144.910156 41.359375 147.25 C 41.359375 150.828125 45.203125 154.445313 49.070313 154.445313 C 51.691406 154.445313 53.484375 152.703125 53.484375 150.277344 C 53.484375 149.710938 53.398438 149.160156 53.234375 148.621094 C 54.238281 148.722656 54.320313 148.722656 54.636719 148.722656 C 55.121094 148.722656 56.378906 148.722656 56.378906 147.386719 C 56.378906 145.394531 53.25 144.65625 53.148438 144.65625 Z M 45.304688 144.441406 C 46.542969 144.441406 50.691406 145.027344 52.53125 148.171875 C 51.679688 148.253906 50.675781 148.488281 50.675781 149.59375 C 50.675781 150.496094 51.578125 151.265625 52.398438 151.265625 C 52.582031 151.265625 52.832031 151.199219 52.949219 151.132813 C 52.496094 152.453125 51.109375 153.089844 49.570313 153.089844 C 48.398438 153.089844 46.175781 152.652344 44.484375 151.550781 C 42.578125 150.3125 41.726563 148.65625 41.726563 147.351563 C 41.726563 145.609375 43.128906 144.441406 45.304688 144.441406 Z M 52.746094 148.589844 C 53.015625 149.191406 53.113281 149.710938 53.113281 150.179688 C 53.113281 150.34375 53.113281 150.929688 52.378906 150.929688 C 51.777344 150.929688 51.007813 150.34375 51.007813 149.59375 C 51.007813 148.757813 51.578125 148.574219 52.414063 148.574219 C 52.511719 148.574219 52.648438 148.574219 52.746094 148.589844 Z M 52.746094 148.589844 "/>
<path style=" stroke:none;fill-rule:evenodd;fill:rgb(0%,0%,0%);fill-opacity:1;" d="M 54.3125 137.308594 C 54.269531 137.308594 54.160156 137.34375 54.160156 137.488281 C 54.160156 137.609375 54.238281 137.632813 54.304688 137.65625 C 55.386719 138.054688 55.417969 139.015625 55.417969 139.21875 C 55.417969 139.71875 55.183594 140.230469 54.671875 140.566406 C 54.160156 140.898438 53.445313 140.898438 53.109375 140.898438 L 53.109375 137.621094 C 53.109375 137.375 53.109375 137.308594 52.851563 137.308594 C 51.863281 137.308594 50.679688 137.855469 50.679688 139.425781 C 50.679688 140.8125 51.828125 141.890625 53.210938 141.890625 C 54.648438 141.890625 55.765625 140.6875 55.765625 139.28125 C 55.765625 137.867188 54.570313 137.308594 54.3125 137.308594 Z M 52.820313 138.066406 L 52.820313 140.886719 C 51.257813 140.789063 50.992188 139.839844 50.992188 139.425781 C 50.992188 138.125 52.5625 138.082031 52.820313 138.066406 Z M 52.820313 138.066406 "/>
<path style=" stroke:none;fill-rule:evenodd;fill:rgb(0%,0%,0%);fill-opacity:1;" d="M 55.652344 130.980469 L 55.285156 130.980469 C 55.285156 131.671875 55.226563 131.785156 54.882813 132.074219 L 53.042969 133.613281 C 52.652344 133.300781 52.273438 132.976563 51.90625 132.640625 C 51.515625 132.273438 51.226563 131.886719 51.214844 131.179688 L 50.847656 131.179688 C 50.878906 131.617188 50.878906 131.636719 50.878906 132.140625 C 50.878906 132.195313 50.878906 132.855469 50.847656 133.199219 L 51.214844 133.199219 C 51.234375 132.988281 51.371094 132.945313 51.515625 132.945313 C 51.660156 132.945313 51.792969 133 51.949219 133.132813 L 52.777344 133.835938 L 51.726563 134.71875 C 51.570313 134.851563 51.46875 134.851563 51.46875 134.851563 C 51.394531 134.851563 51.226563 134.785156 51.214844 134.507813 L 50.847656 134.507813 C 50.878906 134.953125 50.878906 135.574219 50.878906 135.699219 C 50.878906 135.898438 50.878906 136.46875 50.847656 136.800781 L 51.214844 136.800781 C 51.214844 136.042969 51.226563 136.03125 51.90625 135.453125 L 53.296875 134.304688 L 54.492188 135.320313 C 54.804688 135.597656 55.261719 136.011719 55.285156 136.859375 L 55.652344 136.859375 C 55.621094 136.445313 55.621094 136.367188 55.621094 135.898438 C 55.621094 135.898438 55.621094 135.195313 55.652344 134.839844 L 55.285156 134.839844 C 55.261719 134.984375 55.183594 135.109375 54.984375 135.109375 C 54.78125 135.109375 54.625 134.972656 54.570313 134.9375 L 53.578125 134.070313 L 54.671875 133.15625 C 54.929688 132.933594 54.949219 132.933594 55.027344 132.933594 C 55.117188 132.933594 55.273438 133.011719 55.285156 133.277344 L 55.652344 133.277344 C 55.621094 132.800781 55.621094 132.296875 55.621094 132.085938 C 55.621094 131.886719 55.621094 131.316406 55.652344 130.980469 Z M 55.652344 130.980469 "/>
<path style=" stroke:none;fill-rule:evenodd;fill:rgb(0%,0%,0%);fill-opacity:1;" d="M 54.257813 126.8125 L 53.632813 126.8125 L 53.632813 127.15625 L 54.238281 127.15625 C 55.003906 127.15625 55.417969 127.503906 55.417969 127.925781 C 55.417969 128.675781 54.460938 128.675781 54.28125 128.675781 L 51.214844 128.675781 L 51.214844 127.011719 L 50.847656 127.011719 L 50.847656 128.675781 L 48.796875 128.675781 L 48.796875 129.019531 C 49.808594 129.03125 50.867188 129.488281 50.902344 130.523438 L 51.214844 130.523438 L 51.214844 129.519531 L 54.257813 129.519531 C 55.5625 129.519531 55.765625 128.515625 55.765625 128.003906 C 55.765625 127.257813 55.09375 126.8125 54.257813 126.8125 Z M 54.257813 126.8125 "/>
</g>
</svg>
