<?xml version="1.0" encoding="UTF-8"?>
<svg xmlns="http://www.w3.org/2000/svg" xmlns:xlink="http://www.w3.org/1999/xlink" width="360pt" height="121pt" viewBox="0 0 360 121" version="1.1">
<defs>
<clipPath id="clip1">
  <path d="M 2 53 L 358 53 L 358 120.238281 L 2 120.238281 Z M 2 53 "/>
</clipPath>
</defs>
<g id="surface51">
<path style="fill:none;stroke-width:1.6;stroke-linecap:square;stroke-linejoin:miter;stroke:rgb(0%,0%,0%);stroke-opacity:1;stroke-miterlimit:3.25;" d="M 9.554688 59.445313 L 9.636719 57.25 L 9.742188 55.921875 L 9.851563 54.933594 L 9.957031 54.109375 L 10.0625 53.386719 L 10.167969 52.738281 L 10.273438 52.144531 L 10.378906 51.59375 L 10.59375 50.585938 L 10.699219 50.125 L 10.804688 49.683594 L 11.015625 48.855469 L 11.441406 47.367188 L 11.546875 47.023438 L 11.652344 46.6875 L 11.863281 46.042969 L 12.289063 44.84375 L 12.5 44.28125 L 12.710938 43.742188 L 13.136719 42.714844 L 13.984375 40.84375 L 14.097656 40.605469 L 14.214844 40.371094 L 14.441406 39.910156 L 14.902344 39.027344 L 15.820313 37.382813 L 15.9375 37.1875 L 16.050781 36.992188 L 16.28125 36.613281 L 16.742188 35.871094 L 17.660156 34.472656 L 17.777344 34.304688 L 17.890625 34.136719 L 18.121094 33.808594 L 18.582031 33.164063 L 19.5 31.9375 L 21.339844 29.6875 L 21.445313 29.5625 L 21.550781 29.441406 L 21.765625 29.195313 L 22.195313 28.714844 L 23.054688 27.789063 L 24.769531 26.054688 L 24.878906 25.949219 L 24.984375 25.847656 L 25.199219 25.640625 L 25.628906 25.238281 L 26.488281 24.453125 L 28.203125 22.976563 L 28.308594 22.890625 L 28.414063 22.800781 L 28.625 22.628906 L 29.046875 22.289063 L 29.886719 21.628906 L 31.570313 20.375 L 31.675781 20.296875 L 32.414063 19.777344 L 33.253906 19.203125 L 34.9375 18.105469 L 35.050781 18.03125 L 35.164063 17.960938 L 35.394531 17.820313 L 35.851563 17.539063 L 36.761719 16.992188 L 38.589844 15.957031 L 39.042969 15.707031 L 39.5 15.464844 L 40.414063 14.992188 L 42.238281 14.089844 L 42.347656 14.039063 L 42.453125 13.988281 L 42.664063 13.890625 L 43.089844 13.691406 L 43.945313 13.304688 L 45.648438 12.570313 L 45.859375 12.484375 L 46.074219 12.394531 L 46.5 12.222656 L 47.351563 11.886719 L 49.054688 11.246094 L 49.171875 11.203125 L 49.285156 11.160156 L 49.515625 11.078125 L 49.980469 10.917969 L 50.902344 10.601563 L 52.75 10.007813 L 52.863281 9.96875 L 52.980469 9.933594 L 53.210938 9.863281 L 53.671875 9.726563 L 54.59375 9.457031 L 56.441406 8.957031 L 56.554688 8.925781 L 56.667969 8.898438 L 56.894531 8.839844 L 57.347656 8.726563 L 58.253906 8.507813 L 60.066406 8.097656 L 60.179688 8.074219 L 60.292969 8.046875 L 60.972656 7.90625 L 61.878906 7.726563 L 63.691406 7.394531 L 63.796875 7.378906 L 63.902344 7.359375 L 64.117188 7.324219 L 64.539063 7.253906 L 65.382813 7.121094 L 65.804688 7.058594 L 66.230469 6.996094 L 67.074219 6.878906 L 67.285156 6.847656 L 67.496094 6.820313 L 67.921875 6.765625 L 68.765625 6.664063 L 69.609375 6.570313 L 70.457031 6.484375 L 70.570313 6.472656 L 70.6875 6.460938 L 70.914063 6.4375 L 71.375 6.398438 L 71.488281 6.386719 L 71.601563 6.378906 L 71.832031 6.359375 L 72.289063 6.320313 L 72.40625 6.3125 L 72.519531 6.300781 L 72.75 6.285156 L 73.207031 6.25 L 74.125 6.191406 L 74.351563 6.175781 L 74.582031 6.164063 L 75.039063 6.140625 L 75.15625 6.132813 L 75.269531 6.128906 L 75.5 6.117188 L 75.957031 6.09375 L 76.074219 6.089844 L 76.1875 6.085938 L 76.417969 6.078125 L 76.53125 6.074219 L 76.644531 6.066406 L 76.875 6.058594 L 76.988281 6.054688 L 77.105469 6.050781 L 77.332031 6.046875 L 77.792969 6.03125 L 77.898438 6.03125 L 78.003906 6.027344 L 78.21875 6.023438 L 78.328125 6.019531 L 78.433594 6.019531 L 78.648438 6.015625 L 78.753906 6.011719 L 78.96875 6.011719 L 79.074219 6.007813 L 79.289063 6.007813 L 79.394531 6.003906 L 79.71875 6.003906 L 79.824219 6 L 81 6 L 81.109375 6.003906 L 81.535156 6.003906 L 81.644531 6.007813 L 81.855469 6.007813 L 82.070313 6.011719 L 82.179688 6.015625 L 82.285156 6.015625 L 82.5 6.019531 L 82.605469 6.023438 L 82.710938 6.023438 L 82.925781 6.027344 L 83.035156 6.03125 L 83.140625 6.035156 L 83.355469 6.039063 L 83.460938 6.042969 L 83.570313 6.046875 L 83.78125 6.050781 L 83.890625 6.054688 L 83.996094 6.058594 L 84.210938 6.066406 L 84.636719 6.082031 L 84.847656 6.089844 L 85.058594 6.101563 L 85.476563 6.117188 L 85.582031 6.125 L 85.6875 6.128906 L 85.898438 6.140625 L 86.316406 6.160156 L 86.421875 6.167969 L 86.527344 6.171875 L 86.734375 6.183594 L 87.15625 6.210938 L 87.996094 6.265625 L 88.101563 6.269531 L 88.203125 6.277344 L 88.414063 6.292969 L 88.832031 6.324219 L 89.671875 6.394531 L 89.882813 6.410156 L 90.09375 6.429688 L 90.511719 6.464844 L 91.351563 6.546875 L 91.464844 6.558594 L 91.578125 6.566406 L 91.804688 6.589844 L 92.261719 6.640625 L 93.171875 6.738281 L 94.992188 6.960938 L 95.21875 6.992188 L 95.449219 7.019531 L 95.902344 7.082031 L 96.8125 7.210938 L 98.632813 7.488281 L 98.742188 7.503906 L 98.847656 7.523438 L 99.058594 7.558594 L 99.484375 7.628906 L 100.332031 7.773438 L 102.03125 8.078125 L 102.136719 8.097656 L 102.246094 8.117188 L 102.457031 8.160156 L 102.882813 8.242188 L 103.730469 8.410156 L 105.429688 8.761719 L 105.546875 8.785156 L 105.660156 8.8125 L 105.890625 8.859375 L 106.351563 8.960938 L 107.273438 9.167969 L 109.113281 9.601563 L 112.796875 10.546875 L 112.910156 10.574219 L 113.25 10.667969 L 113.699219 10.792969 L 114.605469 11.042969 L 116.414063 11.566406 L 120.027344 12.675781 L 126.773438 14.96875 L 134.085938 17.726563 L 140.914063 20.488281 L 148.3125 23.554688 L 155.578125 26.460938 L 155.789063 26.539063 L 156 26.621094 L 156.425781 26.78125 L 157.269531 27.097656 L 158.964844 27.714844 L 159.070313 27.75 L 159.175781 27.789063 L 159.386719 27.863281 L 159.8125 28.011719 L 160.660156 28.300781 L 162.351563 28.859375 L 162.46875 28.898438 L 162.582031 28.933594 L 162.8125 29.007813 L 163.269531 29.148438 L 164.191406 29.429688 L 166.027344 29.949219 L 166.140625 29.980469 L 166.257813 30.011719 L 166.484375 30.074219 L 166.945313 30.191406 L 167.863281 30.421875 L 169.699219 30.835938 L 169.808594 30.859375 L 169.914063 30.882813 L 170.558594 31.011719 L 171.414063 31.171875 L 171.523438 31.191406 L 171.628906 31.210938 L 172.273438 31.316406 L 173.128906 31.449219 L 173.238281 31.464844 L 173.34375 31.480469 L 173.558594 31.511719 L 173.988281 31.566406 L 174.09375 31.582031 L 174.203125 31.59375 L 174.414063 31.621094 L 174.84375 31.671875 L 174.953125 31.683594 L 175.058594 31.691406 L 175.273438 31.714844 L 175.703125 31.757813 L 175.808594 31.765625 L 175.917969 31.777344 L 176.128906 31.796875 L 176.558594 31.828125 L 177.085938 31.867188 L 177.191406 31.871094 L 177.398438 31.882813 L 177.503906 31.890625 L 177.609375 31.894531 L 177.820313 31.90625 L 178.03125 31.914063 L 178.242188 31.925781 L 178.34375 31.929688 L 178.449219 31.933594 L 178.554688 31.933594 L 178.871094 31.945313 L 178.976563 31.945313 L 179.082031 31.949219 L 179.1875 31.949219 L 179.292969 31.953125 L 179.394531 31.953125 L 179.5 31.957031 L 180.445313 31.957031 L 180.550781 31.953125 L 180.761719 31.953125 L 180.867188 31.949219 L 180.972656 31.949219 L 181.183594 31.941406 L 181.289063 31.941406 L 181.390625 31.9375 L 182.128906 31.910156 L 182.234375 31.902344 L 182.441406 31.894531 L 182.546875 31.886719 L 182.652344 31.882813 L 182.863281 31.867188 L 183.285156 31.839844 L 183.511719 31.824219 L 183.738281 31.804688 L 184.195313 31.765625 L 184.308594 31.757813 L 184.421875 31.746094 L 184.652344 31.722656 L 185.109375 31.675781 L 185.222656 31.664063 L 185.335938 31.648438 L 185.5625 31.625 L 186.019531 31.566406 L 186.929688 31.441406 L 187.046875 31.425781 L 187.160156 31.40625 L 187.386719 31.371094 L 187.84375 31.296875 L 188.753906 31.140625 L 188.871094 31.121094 L 188.984375 31.097656 L 189.210938 31.054688 L 189.667969 30.964844 L 190.578125 30.777344 L 190.6875 30.753906 L 191.003906 30.683594 L 191.429688 30.585938 L 192.28125 30.386719 L 193.984375 29.945313 L 194.195313 29.890625 L 194.410156 29.832031 L 194.835938 29.710938 L 195.683594 29.464844 L 197.386719 28.945313 L 197.503906 28.90625 L 197.617188 28.871094 L 197.847656 28.796875 L 199.230469 28.339844 L 201.078125 27.699219 L 204.765625 26.328125 L 212.007813 23.421875 L 218.765625 20.621094 L 226.09375 17.65625 L 232.933594 15.074219 L 239.636719 12.785156 L 239.75 12.746094 L 239.867188 12.710938 L 240.09375 12.636719 L 240.546875 12.492188 L 241.457031 12.210938 L 243.277344 11.660156 L 246.914063 10.625 L 247.019531 10.59375 L 247.125 10.566406 L 247.335938 10.507813 L 247.761719 10.394531 L 248.609375 10.171875 L 250.308594 9.742188 L 250.414063 9.71875 L 250.519531 9.691406 L 250.730469 9.640625 L 251.15625 9.539063 L 252.003906 9.335938 L 253.703125 8.949219 L 253.816406 8.925781 L 253.933594 8.898438 L 254.160156 8.847656 L 254.621094 8.75 L 255.542969 8.558594 L 257.382813 8.191406 L 257.609375 8.144531 L 258.300781 8.015625 L 259.222656 7.851563 L 261.0625 7.539063 L 261.167969 7.519531 L 261.277344 7.503906 L 261.492188 7.46875 L 261.917969 7.402344 L 262.777344 7.269531 L 264.496094 7.027344 L 264.605469 7.015625 L 264.710938 7 L 265.355469 6.917969 L 266.214844 6.8125 L 267.933594 6.617188 L 268.039063 6.609375 L 268.144531 6.597656 L 268.351563 6.574219 L 268.773438 6.535156 L 269.617188 6.453125 L 269.828125 6.4375 L 270.039063 6.417969 L 270.457031 6.382813 L 271.300781 6.316406 L 272.25 6.246094 L 272.351563 6.242188 L 272.5625 6.226563 L 272.984375 6.199219 L 273.089844 6.195313 L 273.195313 6.1875 L 273.828125 6.152344 L 274.667969 6.113281 L 274.785156 6.105469 L 275.125 6.09375 L 275.582031 6.074219 L 275.695313 6.070313 L 275.8125 6.066406 L 276.039063 6.058594 L 276.496094 6.042969 L 276.609375 6.039063 L 276.722656 6.039063 L 276.953125 6.03125 L 277.066406 6.03125 L 277.179688 6.027344 L 277.410156 6.023438 L 277.636719 6.015625 L 277.753906 6.015625 L 277.867188 6.011719 L 278.09375 6.011719 L 278.207031 6.007813 L 278.4375 6.007813 L 278.550781 6.003906 L 278.894531 6.003906 L 279.007813 6 L 280.148438 6 L 280.265625 6.003906 L 280.605469 6.003906 L 280.71875 6.007813 L 280.949219 6.007813 L 281.0625 6.011719 L 281.175781 6.011719 L 281.292969 6.015625 L 281.519531 6.019531 L 281.632813 6.019531 L 281.75 6.023438 L 281.976563 6.027344 L 282.082031 6.03125 L 282.191406 6.03125 L 282.507813 6.042969 L 282.617188 6.042969 L 282.828125 6.050781 L 282.9375 6.054688 L 283.253906 6.066406 L 283.683594 6.082031 L 283.894531 6.089844 L 284.109375 6.097656 L 284.535156 6.117188 L 284.640625 6.121094 L 284.746094 6.128906 L 284.960938 6.140625 L 285.386719 6.164063 L 285.492188 6.167969 L 285.601563 6.175781 L 285.8125 6.1875 L 286.238281 6.214844 L 287.089844 6.273438 L 287.199219 6.28125 L 287.304688 6.289063 L 287.519531 6.304688 L 287.945313 6.339844 L 288.796875 6.414063 L 288.914063 6.421875 L 289.027344 6.433594 L 289.257813 6.457031 L 289.71875 6.5 L 290.644531 6.597656 L 290.761719 6.609375 L 290.875 6.625 L 291.105469 6.652344 L 291.566406 6.703125 L 292.492188 6.820313 L 292.609375 6.835938 L 292.722656 6.851563 L 293.414063 6.945313 L 294.339844 7.078125 L 296.1875 7.375 L 296.640625 7.453125 L 297.09375 7.535156 L 298 7.703125 L 299.816406 8.070313 L 299.929688 8.097656 L 300.269531 8.167969 L 300.722656 8.269531 L 301.628906 8.480469 L 303.445313 8.925781 L 303.867188 9.035156 L 304.289063 9.148438 L 305.136719 9.382813 L 306.828125 9.875 L 306.933594 9.910156 L 307.25 10.003906 L 307.675781 10.136719 L 308.519531 10.410156 L 310.210938 10.984375 L 310.328125 11.023438 L 310.441406 11.0625 L 310.671875 11.144531 L 311.128906 11.3125 L 312.046875 11.652344 L 313.882813 12.378906 L 314.109375 12.472656 L 314.339844 12.566406 L 314.800781 12.757813 L 315.714844 13.15625 L 317.550781 13.992188 L 317.660156 14.042969 L 317.765625 14.09375 L 317.980469 14.195313 L 318.40625 14.402344 L 319.265625 14.828125 L 320.976563 15.722656 L 321.085938 15.777344 L 321.191406 15.835938 L 321.40625 15.953125 L 321.832031 16.191406 L 322.691406 16.675781 L 324.402344 17.695313 L 324.507813 17.757813 L 324.613281 17.824219 L 324.824219 17.953125 L 325.242188 18.21875 L 326.082031 18.761719 L 327.761719 19.898438 L 328.183594 20.195313 L 328.601563 20.5 L 329.441406 21.117188 L 331.121094 22.425781 L 331.234375 22.515625 L 331.574219 22.796875 L 332.03125 23.171875 L 332.941406 23.953125 L 334.765625 25.609375 L 334.878906 25.714844 L 335.21875 26.042969 L 335.675781 26.492188 L 336.585938 27.414063 L 338.410156 29.394531 L 338.515625 29.515625 L 338.621094 29.640625 L 338.832031 29.886719 L 339.257813 30.390625 L 340.109375 31.4375 L 340.214844 31.570313 L 340.320313 31.707031 L 340.535156 31.980469 L 340.957031 32.539063 L 341.808594 33.707031 L 341.914063 33.855469 L 342.019531 34.007813 L 342.234375 34.316406 L 342.660156 34.945313 L 343.507813 36.269531 L 343.613281 36.441406 L 343.722656 36.617188 L 343.933594 36.96875 L 344.359375 37.695313 L 345.207031 39.238281 L 345.328125 39.464844 L 345.445313 39.695313 L 345.683594 40.164063 L 346.15625 41.140625 L 346.277344 41.394531 L 346.394531 41.652344 L 346.632813 42.179688 L 347.105469 43.292969 L 347.226563 43.582031 L 347.34375 43.878906 L 347.582031 44.492188 L 348.054688 45.808594 L 348.175781 46.15625 L 348.292969 46.515625 L 348.53125 47.265625 L 349.003906 48.929688 L 349.121094 49.390625 L 349.242188 49.871094 L 349.359375 50.375 L 349.480469 50.910156 L 349.597656 51.476563 L 349.714844 52.089844 L 349.835938 52.753906 L 349.953125 53.484375 L 350.070313 54.3125 L 350.191406 55.285156 L 350.308594 56.519531 L 350.425781 58.601563 L 350.445313 59.34375 "/>
<g clip-path="url(#clip1)" clip-rule="nonzero">
<path style="fill:none;stroke-width:1.6;stroke-linecap:square;stroke-linejoin:miter;stroke:rgb(0%,0%,0%);stroke-opacity:1;stroke-miterlimit:3.25;" d="M 9.554688 60.554688 L 9.636719 62.75 L 9.742188 64.078125 L 9.851563 65.066406 L 9.957031 65.890625 L 10.0625 66.613281 L 10.167969 67.261719 L 10.273438 67.855469 L 10.378906 68.40625 L 10.59375 69.414063 L 10.699219 69.875 L 10.804688 70.316406 L 11.015625 71.144531 L 11.441406 72.632813 L 11.546875 72.976563 L 11.652344 73.3125 L 11.863281 73.957031 L 12.289063 75.15625 L 12.5 75.71875 L 12.710938 76.257813 L 13.136719 77.285156 L 13.984375 79.15625 L 14.097656 79.394531 L 14.214844 79.628906 L 14.441406 80.089844 L 14.902344 80.972656 L 15.820313 82.617188 L 15.9375 82.8125 L 16.050781 83.007813 L 16.28125 83.386719 L 16.742188 84.128906 L 17.660156 85.527344 L 17.777344 85.695313 L 17.890625 85.863281 L 18.121094 86.191406 L 18.582031 86.835938 L 19.5 88.0625 L 21.339844 90.3125 L 21.445313 90.4375 L 21.550781 90.558594 L 21.765625 90.804688 L 22.195313 91.285156 L 23.054688 92.210938 L 24.769531 93.945313 L 24.878906 94.050781 L 24.984375 94.152344 L 25.199219 94.359375 L 25.628906 94.761719 L 26.488281 95.546875 L 28.203125 97.023438 L 28.308594 97.109375 L 28.414063 97.199219 L 28.625 97.371094 L 29.046875 97.710938 L 29.886719 98.371094 L 31.570313 99.625 L 31.675781 99.703125 L 32.414063 100.222656 L 33.253906 100.796875 L 34.9375 101.894531 L 35.050781 101.96875 L 35.164063 102.039063 L 35.394531 102.179688 L 35.851563 102.460938 L 36.761719 103.007813 L 38.589844 104.042969 L 39.042969 104.292969 L 39.5 104.535156 L 40.414063 105.007813 L 42.238281 105.910156 L 42.347656 105.960938 L 42.453125 106.011719 L 42.664063 106.109375 L 43.089844 106.308594 L 43.945313 106.695313 L 45.648438 107.429688 L 45.859375 107.515625 L 46.074219 107.605469 L 46.5 107.777344 L 47.351563 108.113281 L 49.054688 108.753906 L 49.171875 108.796875 L 49.285156 108.839844 L 49.515625 108.921875 L 49.980469 109.082031 L 50.902344 109.398438 L 52.75 109.992188 L 52.863281 110.03125 L 52.980469 110.066406 L 53.210938 110.136719 L 53.671875 110.273438 L 54.59375 110.542969 L 56.441406 111.042969 L 56.554688 111.074219 L 56.667969 111.101563 L 56.894531 111.160156 L 57.347656 111.273438 L 58.253906 111.492188 L 60.066406 111.902344 L 60.179688 111.925781 L 60.292969 111.953125 L 60.972656 112.09375 L 61.878906 112.273438 L 63.691406 112.605469 L 63.796875 112.621094 L 63.902344 112.640625 L 64.117188 112.675781 L 64.539063 112.746094 L 65.382813 112.878906 L 65.804688 112.941406 L 66.230469 113.003906 L 67.074219 113.121094 L 67.285156 113.152344 L 67.496094 113.179688 L 67.921875 113.234375 L 68.765625 113.335938 L 69.609375 113.429688 L 70.457031 113.515625 L 70.570313 113.527344 L 70.6875 113.539063 L 70.914063 113.5625 L 71.375 113.601563 L 71.488281 113.613281 L 71.601563 113.621094 L 71.832031 113.640625 L 72.289063 113.679688 L 72.40625 113.6875 L 72.519531 113.699219 L 72.75 113.714844 L 73.207031 113.75 L 74.125 113.808594 L 74.351563 113.824219 L 74.582031 113.835938 L 75.039063 113.859375 L 75.15625 113.867188 L 75.269531 113.871094 L 75.5 113.882813 L 75.957031 113.90625 L 76.074219 113.910156 L 76.1875 113.914063 L 76.417969 113.921875 L 76.53125 113.925781 L 76.644531 113.933594 L 76.875 113.941406 L 76.988281 113.945313 L 77.105469 113.949219 L 77.332031 113.953125 L 77.792969 113.96875 L 77.898438 113.96875 L 78.003906 113.972656 L 78.21875 113.976563 L 78.328125 113.980469 L 78.433594 113.980469 L 78.648438 113.984375 L 78.753906 113.988281 L 78.96875 113.988281 L 79.074219 113.992188 L 79.289063 113.992188 L 79.394531 113.996094 L 79.71875 113.996094 L 79.824219 114 L 81 114 L 81.109375 113.996094 L 81.535156 113.996094 L 81.644531 113.992188 L 81.855469 113.992188 L 82.070313 113.988281 L 82.179688 113.984375 L 82.285156 113.984375 L 82.5 113.980469 L 82.605469 113.976563 L 82.710938 113.976563 L 82.925781 113.972656 L 83.035156 113.96875 L 83.140625 113.964844 L 83.355469 113.960938 L 83.460938 113.957031 L 83.570313 113.953125 L 83.78125 113.949219 L 83.890625 113.945313 L 83.996094 113.941406 L 84.210938 113.933594 L 84.636719 113.917969 L 84.847656 113.910156 L 85.058594 113.898438 L 85.476563 113.882813 L 85.582031 113.875 L 85.6875 113.871094 L 85.898438 113.859375 L 86.316406 113.839844 L 86.421875 113.832031 L 86.527344 113.828125 L 86.734375 113.816406 L 87.15625 113.789063 L 87.996094 113.734375 L 88.101563 113.730469 L 88.203125 113.722656 L 88.414063 113.707031 L 88.832031 113.675781 L 89.671875 113.605469 L 89.882813 113.589844 L 90.09375 113.570313 L 90.511719 113.535156 L 91.351563 113.453125 L 91.464844 113.441406 L 91.578125 113.433594 L 91.804688 113.410156 L 92.261719 113.359375 L 93.171875 113.261719 L 94.992188 113.039063 L 95.21875 113.007813 L 95.449219 112.980469 L 95.902344 112.917969 L 96.8125 112.789063 L 98.632813 112.511719 L 98.742188 112.496094 L 98.847656 112.476563 L 99.058594 112.441406 L 99.484375 112.371094 L 100.332031 112.226563 L 102.03125 111.921875 L 102.136719 111.902344 L 102.246094 111.882813 L 102.457031 111.839844 L 102.882813 111.757813 L 103.730469 111.589844 L 105.429688 111.238281 L 105.546875 111.214844 L 105.660156 111.1875 L 105.890625 111.140625 L 106.351563 111.039063 L 107.273438 110.832031 L 109.113281 110.398438 L 112.796875 109.453125 L 112.910156 109.425781 L 113.25 109.332031 L 113.699219 109.207031 L 114.605469 108.957031 L 116.414063 108.433594 L 120.027344 107.324219 L 126.773438 105.03125 L 134.085938 102.273438 L 140.914063 99.511719 L 148.3125 96.445313 L 155.578125 93.539063 L 155.789063 93.460938 L 156 93.378906 L 156.425781 93.21875 L 157.269531 92.902344 L 158.964844 92.285156 L 159.070313 92.25 L 159.175781 92.210938 L 159.386719 92.136719 L 159.8125 91.988281 L 160.660156 91.699219 L 162.351563 91.140625 L 162.46875 91.101563 L 162.582031 91.066406 L 162.8125 90.992188 L 163.269531 90.851563 L 164.191406 90.570313 L 166.027344 90.050781 L 166.140625 90.019531 L 166.257813 89.988281 L 166.484375 89.925781 L 166.945313 89.808594 L 167.863281 89.578125 L 169.699219 89.164063 L 169.808594 89.140625 L 169.914063 89.117188 L 170.558594 88.988281 L 171.414063 88.828125 L 171.523438 88.808594 L 171.628906 88.789063 L 172.273438 88.683594 L 173.128906 88.550781 L 173.238281 88.535156 L 173.34375 88.519531 L 173.558594 88.488281 L 173.988281 88.433594 L 174.09375 88.417969 L 174.203125 88.40625 L 174.414063 88.378906 L 174.84375 88.328125 L 174.953125 88.316406 L 175.058594 88.308594 L 175.273438 88.285156 L 175.703125 88.242188 L 175.808594 88.234375 L 175.917969 88.222656 L 176.128906 88.203125 L 176.558594 88.171875 L 177.085938 88.132813 L 177.191406 88.128906 L 177.398438 88.117188 L 177.503906 88.109375 L 177.609375 88.105469 L 177.820313 88.09375 L 178.03125 88.085938 L 178.242188 88.074219 L 178.34375 88.070313 L 178.449219 88.066406 L 178.554688 88.066406 L 178.871094 88.054688 L 178.976563 88.054688 L 179.082031 88.050781 L 179.1875 88.050781 L 179.292969 88.046875 L 179.394531 88.046875 L 179.5 88.042969 L 180.445313 88.042969 L 180.550781 88.046875 L 180.761719 88.046875 L 180.867188 88.050781 L 180.972656 88.050781 L 181.183594 88.058594 L 181.289063 88.058594 L 181.390625 88.0625 L 182.128906 88.089844 L 182.234375 88.097656 L 182.441406 88.105469 L 182.546875 88.113281 L 182.652344 88.117188 L 182.863281 88.132813 L 183.285156 88.160156 L 183.511719 88.175781 L 183.738281 88.195313 L 184.195313 88.234375 L 184.308594 88.242188 L 184.421875 88.253906 L 184.652344 88.277344 L 185.109375 88.324219 L 185.222656 88.335938 L 185.335938 88.351563 L 185.5625 88.375 L 186.019531 88.433594 L 186.929688 88.558594 L 187.046875 88.574219 L 187.160156 88.59375 L 187.386719 88.628906 L 187.84375 88.703125 L 188.753906 88.859375 L 188.871094 88.878906 L 188.984375 88.902344 L 189.210938 88.945313 L 189.667969 89.035156 L 190.578125 89.222656 L 190.6875 89.246094 L 191.003906 89.316406 L 191.429688 89.414063 L 192.28125 89.613281 L 193.984375 90.054688 L 194.195313 90.109375 L 194.410156 90.167969 L 194.835938 90.289063 L 195.683594 90.535156 L 197.386719 91.054688 L 197.503906 91.09375 L 197.617188 91.128906 L 197.847656 91.203125 L 199.230469 91.660156 L 201.078125 92.300781 L 204.765625 93.671875 L 212.007813 96.578125 L 218.765625 99.378906 L 226.09375 102.34375 L 232.933594 104.925781 L 239.636719 107.214844 L 239.75 107.253906 L 239.867188 107.289063 L 240.09375 107.363281 L 240.546875 107.507813 L 241.457031 107.789063 L 243.277344 108.339844 L 246.914063 109.375 L 247.019531 109.40625 L 247.125 109.433594 L 247.335938 109.492188 L 247.761719 109.605469 L 248.609375 109.828125 L 250.308594 110.257813 L 250.414063 110.28125 L 250.519531 110.308594 L 250.730469 110.359375 L 251.15625 110.460938 L 252.003906 110.664063 L 253.703125 111.050781 L 253.816406 111.074219 L 253.933594 111.101563 L 254.160156 111.152344 L 254.621094 111.25 L 255.542969 111.441406 L 257.382813 111.808594 L 257.609375 111.855469 L 258.300781 111.984375 L 259.222656 112.148438 L 261.0625 112.460938 L 261.167969 112.480469 L 261.277344 112.496094 L 261.492188 112.53125 L 261.917969 112.597656 L 262.777344 112.730469 L 264.496094 112.972656 L 264.605469 112.984375 L 264.710938 113 L 265.355469 113.082031 L 266.214844 113.1875 L 267.933594 113.382813 L 268.039063 113.390625 L 268.144531 113.402344 L 268.351563 113.425781 L 268.773438 113.464844 L 269.617188 113.546875 L 269.828125 113.5625 L 270.039063 113.582031 L 270.457031 113.617188 L 271.300781 113.683594 L 272.25 113.753906 L 272.351563 113.757813 L 272.5625 113.773438 L 272.984375 113.800781 L 273.089844 113.804688 L 273.195313 113.8125 L 273.828125 113.847656 L 274.667969 113.886719 L 274.785156 113.894531 L 275.125 113.90625 L 275.582031 113.925781 L 275.695313 113.929688 L 275.8125 113.933594 L 276.039063 113.941406 L 276.496094 113.957031 L 276.609375 113.960938 L 276.722656 113.960938 L 276.953125 113.96875 L 277.066406 113.96875 L 277.179688 113.972656 L 277.410156 113.976563 L 277.636719 113.984375 L 277.753906 113.984375 L 277.867188 113.988281 L 278.09375 113.988281 L 278.207031 113.992188 L 278.4375 113.992188 L 278.550781 113.996094 L 278.894531 113.996094 L 279.007813 114 L 280.148438 114 L 280.265625 113.996094 L 280.605469 113.996094 L 280.71875 113.992188 L 280.949219 113.992188 L 281.0625 113.988281 L 281.175781 113.988281 L 281.292969 113.984375 L 281.519531 113.980469 L 281.632813 113.980469 L 281.75 113.976563 L 281.976563 113.972656 L 282.082031 113.96875 L 282.191406 113.96875 L 282.507813 113.957031 L 282.617188 113.957031 L 282.828125 113.949219 L 282.9375 113.945313 L 283.253906 113.933594 L 283.683594 113.917969 L 283.894531 113.910156 L 284.109375 113.902344 L 284.535156 113.882813 L 284.640625 113.878906 L 284.746094 113.871094 L 284.960938 113.859375 L 285.386719 113.835938 L 285.492188 113.832031 L 285.601563 113.824219 L 285.8125 113.8125 L 286.238281 113.785156 L 287.089844 113.726563 L 287.199219 113.71875 L 287.304688 113.710938 L 287.519531 113.695313 L 287.945313 113.660156 L 288.796875 113.585938 L 288.914063 113.578125 L 289.027344 113.566406 L 289.257813 113.542969 L 289.71875 113.5 L 290.644531 113.402344 L 290.761719 113.390625 L 290.875 113.375 L 291.105469 113.347656 L 291.566406 113.296875 L 292.492188 113.179688 L 292.609375 113.164063 L 292.722656 113.148438 L 293.414063 113.054688 L 294.339844 112.921875 L 296.1875 112.625 L 296.640625 112.546875 L 297.09375 112.464844 L 298 112.296875 L 299.816406 111.929688 L 299.929688 111.902344 L 300.269531 111.832031 L 300.722656 111.730469 L 301.628906 111.519531 L 303.445313 111.074219 L 303.867188 110.964844 L 304.289063 110.851563 L 305.136719 110.617188 L 306.828125 110.125 L 306.933594 110.089844 L 307.25 109.996094 L 307.675781 109.863281 L 308.519531 109.589844 L 310.210938 109.015625 L 310.328125 108.976563 L 310.441406 108.9375 L 310.671875 108.855469 L 311.128906 108.6875 L 312.046875 108.347656 L 313.882813 107.621094 L 314.109375 107.527344 L 314.339844 107.433594 L 314.800781 107.242188 L 315.714844 106.84375 L 317.550781 106.007813 L 317.660156 105.957031 L 317.765625 105.90625 L 317.980469 105.804688 L 318.40625 105.597656 L 319.265625 105.171875 L 320.976563 104.277344 L 321.085938 104.222656 L 321.191406 104.164063 L 321.40625 104.046875 L 321.832031 103.808594 L 322.691406 103.324219 L 324.402344 102.304688 L 324.507813 102.242188 L 324.613281 102.175781 L 324.824219 102.046875 L 325.242188 101.78125 L 326.082031 101.238281 L 327.761719 100.101563 L 328.183594 99.804688 L 328.601563 99.5 L 329.441406 98.882813 L 331.121094 97.574219 L 331.234375 97.484375 L 331.574219 97.203125 L 332.03125 96.828125 L 332.941406 96.046875 L 334.765625 94.390625 L 334.878906 94.285156 L 335.21875 93.957031 L 335.675781 93.507813 L 336.585938 92.585938 L 338.410156 90.605469 L 338.515625 90.484375 L 338.621094 90.359375 L 338.832031 90.113281 L 339.257813 89.609375 L 340.109375 88.5625 L 340.214844 88.429688 L 340.320313 88.292969 L 340.535156 88.019531 L 340.957031 87.460938 L 341.808594 86.292969 L 341.914063 86.144531 L 342.019531 85.992188 L 342.234375 85.683594 L 342.660156 85.054688 L 343.507813 83.730469 L 343.613281 83.558594 L 343.722656 83.382813 L 343.933594 83.03125 L 344.359375 82.304688 L 345.207031 80.761719 L 345.328125 80.535156 L 345.445313 80.304688 L 345.683594 79.835938 L 346.15625 78.859375 L 346.277344 78.605469 L 346.394531 78.347656 L 346.632813 77.820313 L 347.105469 76.707031 L 347.226563 76.417969 L 347.34375 76.121094 L 347.582031 75.507813 L 348.054688 74.191406 L 348.175781 73.84375 L 348.292969 73.484375 L 348.53125 72.734375 L 349.003906 71.070313 L 349.121094 70.609375 L 349.242188 70.128906 L 349.359375 69.625 L 349.480469 69.089844 L 349.597656 68.523438 L 349.714844 67.910156 L 349.835938 67.246094 L 349.953125 66.515625 L 350.070313 65.6875 L 350.191406 64.714844 L 350.308594 63.480469 L 350.425781 61.398438 L 350.445313 60.65625 "/>
</g>
</g>
</svg>
