<?xml version="1.0" encoding="UTF-8" standalone="no"?>
<!-- Created with Inkscape (http://www.inkscape.org/) -->

<svg
   width="82.291344mm"
   height="9.4282103mm"
   viewBox="0 0 82.291341 9.4282102"
   version="1.1"
   id="svg1"
   inkscape:version="1.4.2 (f4327f4, 2025-05-13)"
   sodipodi:docname="ajusteSSKKLegend.svg"
   inkscape:export-filename="ajusteSSKKLegend.pdf"
   inkscape:export-xdpi="96"
   inkscape:export-ydpi="96"
   xmlns:inkscape="http://www.inkscape.org/namespaces/inkscape"
   xmlns:sodipodi="http://sodipodi.sourceforge.net/DTD/sodipodi-0.dtd"
   xmlns="http://www.w3.org/2000/svg"
   xmlns:svg="http://www.w3.org/2000/svg"
   xmlns:ns4="http://www.iki.fi/pav/software/textext/">
  <sodipodi:namedview
     id="namedview1"
     pagecolor="#ffffff"
     bordercolor="#000000"
     borderopacity="0.25"
     inkscape:showpageshadow="2"
     inkscape:pageopacity="0.0"
     inkscape:pagecheckerboard="0"
     inkscape:deskcolor="#d1d1d1"
     inkscape:document-units="mm"
     inkscape:zoom="2.8970538"
     inkscape:cx="75.248861"
     inkscape:cy="25.025424"
     inkscape:window-width="2049"
     inkscape:window-height="1046"
     inkscape:window-x="-11"
     inkscape:window-y="283"
     inkscape:window-maximized="1"
     inkscape:current-layer="layer1" />
  <defs
     id="defs1">
    <clipPath
       id="clip2">
      <path
         d="M 221.03906,82 H 236 v 4.878906 h -14.96094 z m 0,0"
         id="path34" />
    </clipPath>
    <clipPath
       id="clip3">
      <path
         d="m 221.03906,81.839844 h 15.1211 v 5.039062 h -15.1211 z m 0,0"
         id="path35" />
    </clipPath>
    <clipPath
       id="clip5">
      <path
         d="m 221,98 h 14.92187 v 4.96094 H 221 Z m 0,0"
         id="path37" />
    </clipPath>
    <clipPath
       id="clip6">
      <path
         d="m 220.80078,97.921875 h 15.12109 v 5.039065 h -15.12109 z m 0,0"
         id="path38" />
    </clipPath>
    <g
       id="g532">
      <g
         id="g522">
        <path
           d="M 1.765625,-6.921875 0.328125,-6.8125 V -6.5 c 0.703125,0 0.78125,0.0625 0.78125,0.5625 V -0.75 c 0,0.4375 -0.109375,0.4375 -0.78125,0.4375 V 0 C 0.65625,-0.015625 1.1875,-0.03125 1.4375,-0.03125 c 0.25,0 0.734375,0.015625 1.109375,0.03125 v -0.3125 c -0.671875,0 -0.78125,0 -0.78125,-0.4375 z m 0,0"
           id="path522" />
      </g>
      <g
         id="g523">
        <path
           d="M 4.6875,-2.140625 C 4.6875,-3.40625 3.703125,-4.46875 2.5,-4.46875 c -1.25,0 -2.21875,1.09375 -2.21875,2.328125 0,1.296875 1.03125,2.25 2.203125,2.25 1.203125,0 2.203125,-0.984375 2.203125,-2.25 z m -2.1875,2 c -0.4375,0 -0.875,-0.203125 -1.140625,-0.671875 -0.25,-0.4375 -0.25,-1.046875 -0.25,-1.40625 0,-0.390625 0,-0.921875 0.234375,-1.359375 C 1.609375,-4.03125 2.078125,-4.25 2.484375,-4.25 c 0.4375,0 0.859375,0.21875 1.125,0.65625 0.265625,0.421875 0.265625,1 0.265625,1.375 0,0.359375 0,0.90625 -0.21875,1.34375 C 3.421875,-0.421875 2.984375,-0.140625 2.5,-0.140625 Z m 0,0"
           id="path523" />
      </g>
      <g
         id="g524">
        <path
           d="M 1.671875,-3.3125 V -4.40625 L 0.28125,-4.296875 v 0.3125 c 0.703125,0 0.78125,0.0625 0.78125,0.5625 V -0.75 c 0,0.4375 -0.109375,0.4375 -0.78125,0.4375 V 0 c 0.390625,-0.015625 0.859375,-0.03125 1.140625,-0.03125 0.390625,0 0.859375,0 1.265625,0.03125 V -0.3125 H 2.46875 c -0.734375,0 -0.75,-0.109375 -0.75,-0.46875 V -2.3125 c 0,-0.984375 0.421875,-1.875 1.171875,-1.875 0.0625,0 0.09375,0 0.109375,0.015625 -0.03125,0 -0.234375,0.125 -0.234375,0.390625 0,0.265625 0.21875,0.421875 0.4375,0.421875 0.171875,0 0.421875,-0.125 0.421875,-0.4375 0,-0.3125 -0.3125,-0.609375 -0.734375,-0.609375 -0.734375,0 -1.09375,0.671875 -1.21875,1.09375 z m 0,0"
           id="path524" />
      </g>
      <g
         id="g525">
        <path
           d="M 1.109375,-2.515625 C 1.171875,-4 2.015625,-4.25 2.359375,-4.25 c 1.015625,0 1.125,1.34375 1.125,1.734375 z m 0,0.21875 h 2.78125 c 0.21875,0 0.25,0 0.25,-0.21875 0,-0.984375 -0.546875,-1.953125 -1.78125,-1.953125 -1.15625,0 -2.078125,1.03125 -2.078125,2.28125 0,1.328125 1.046875,2.296875 2.1875,2.296875 C 3.6875,0.109375 4.140625,-1 4.140625,-1.1875 4.140625,-1.28125 4.0625,-1.3125 4,-1.3125 c -0.078125,0 -0.109375,0.0625 -0.125,0.140625 -0.34375,1.03125 -1.25,1.03125 -1.34375,1.03125 -0.5,0 -0.890625,-0.296875 -1.125,-0.671875 -0.296875,-0.46875 -0.296875,-1.125 -0.296875,-1.484375 z m 0,0"
           id="path525" />
      </g>
      <g
         id="g526">
        <path
           d="M 1.09375,-3.421875 V -0.75 c 0,0.4375 -0.109375,0.4375 -0.78125,0.4375 V 0 c 0.359375,-0.015625 0.859375,-0.03125 1.140625,-0.03125 0.25,0 0.765625,0.015625 1.109375,0.03125 v -0.3125 c -0.671875,0 -0.78125,0 -0.78125,-0.4375 V -2.59375 C 1.78125,-3.625 2.5,-4.1875 3.125,-4.1875 c 0.640625,0 0.75,0.53125 0.75,1.109375 V -0.75 c 0,0.4375 -0.109375,0.4375 -0.78125,0.4375 V 0 c 0.34375,-0.015625 0.859375,-0.03125 1.125,-0.03125 0.25,0 0.78125,0.015625 1.109375,0.03125 v -0.3125 c -0.515625,0 -0.765625,0 -0.765625,-0.296875 v -1.90625 c 0,-0.859375 0,-1.15625 -0.3125,-1.515625 -0.140625,-0.171875 -0.46875,-0.375 -1.046875,-0.375 C 2.46875,-4.40625 2,-3.984375 1.71875,-3.359375 V -4.40625 L 0.3125,-4.296875 v 0.3125 c 0.703125,0 0.78125,0.0625 0.78125,0.5625 z m 0,0"
           id="path526" />
      </g>
      <g
         id="g527">
        <path
           d="m 1.71875,-3.984375 h 1.4375 v -0.3125 H 1.71875 V -6.125 h -0.25 c 0,0.8125 -0.296875,1.875 -1.28125,1.921875 v 0.21875 h 0.84375 v 2.75 c 0,1.21875 0.9375,1.34375 1.296875,1.34375 0.703125,0 0.984375,-0.703125 0.984375,-1.34375 v -0.5625 h -0.25 V -1.25 c 0,0.734375 -0.296875,1.109375 -0.671875,1.109375 -0.671875,0 -0.671875,-0.90625 -0.671875,-1.078125 z m 0,0"
           id="path527" />
      </g>
      <g
         id="g528">
        <path
           d="m 3.890625,-4 c 0.09375,-0.109375 0.09375,-0.125 0.09375,-0.171875 0,-0.125 -0.09375,-0.125 -0.265625,-0.125 H 0.53125 L 0.421875,-2.6875 h 0.25 c 0.0625,-1.015625 0.25,-1.390625 1.34375,-1.390625 H 3.15625 L 0.375,-0.3125 C 0.28125,-0.203125 0.28125,-0.1875 0.28125,-0.140625 0.28125,0 0.34375,0 0.53125,0 H 3.828125 L 4,-1.859375 H 3.75 C 3.65625,-0.6875 3.453125,-0.25 2.296875,-0.25 h -1.1875 z m 0,0"
           id="path528" />
      </g>
      <g
         id="g529">
        <path
           d="M 1.765625,-4.40625 0.375,-4.296875 v 0.3125 c 0.640625,0 0.734375,0.0625 0.734375,0.546875 V -0.75 c 0,0.4375 -0.109375,0.4375 -0.78125,0.4375 V 0 C 0.640625,-0.015625 1.1875,-0.03125 1.421875,-0.03125 1.78125,-0.03125 2.125,-0.015625 2.46875,0 v -0.3125 c -0.671875,0 -0.703125,-0.046875 -0.703125,-0.4375 z m 0.03125,-1.734375 c 0,-0.3125 -0.234375,-0.53125 -0.515625,-0.53125 -0.3125,0 -0.53125,0.265625 -0.53125,0.53125 0,0.265625 0.21875,0.53125 0.53125,0.53125 0.28125,0 0.515625,-0.21875 0.515625,-0.53125 z m 0,0"
           id="path529" />
      </g>
      <g
         id="g530">
        <path
           d="m 3.3125,-0.75 c 0.046875,0.390625 0.3125,0.8125 0.78125,0.8125 0.21875,0 0.828125,-0.140625 0.828125,-0.953125 v -0.5625 h -0.25 v 0.5625 c 0,0.578125 -0.25,0.640625 -0.359375,0.640625 -0.328125,0 -0.375,-0.453125 -0.375,-0.5 v -1.984375 c 0,-0.421875 0,-0.8125 -0.359375,-1.1875 C 3.1875,-4.3125 2.6875,-4.46875 2.21875,-4.46875 c -0.828125,0 -1.515625,0.46875 -1.515625,1.125 0,0.296875 0.203125,0.46875 0.46875,0.46875 0.28125,0 0.453125,-0.203125 0.453125,-0.453125 0,-0.125 -0.046875,-0.453125 -0.515625,-0.453125 C 1.390625,-4.140625 1.875,-4.25 2.1875,-4.25 c 0.5,0 1.0625,0.390625 1.0625,1.28125 v 0.359375 c -0.515625,0.03125 -1.203125,0.0625 -1.828125,0.359375 -0.75,0.34375 -1,0.859375 -1,1.296875 0,0.8125 0.96875,1.0625 1.59375,1.0625 0.65625,0 1.109375,-0.40625 1.296875,-0.859375 z M 3.25,-2.390625 v 1 c 0,0.9375 -0.71875,1.28125 -1.171875,1.28125 -0.484375,0 -0.890625,-0.34375 -0.890625,-0.84375 0,-0.546875 0.421875,-1.375 2.0625,-1.4375 z m 0,0"
           id="path530" />
      </g>
      <g
         id="g531">
        <path
           d="m 2.078125,-1.9375 c 0.21875,0.046875 1.03125,0.203125 1.03125,0.921875 0,0.5 -0.34375,0.90625 -1.125,0.90625 -0.84375,0 -1.203125,-0.5625 -1.390625,-1.421875 C 0.5625,-1.65625 0.5625,-1.6875 0.453125,-1.6875 c -0.125,0 -0.125,0.0625 -0.125,0.234375 V -0.125 c 0,0.171875 0,0.234375 0.109375,0.234375 0.046875,0 0.0625,-0.015625 0.25,-0.203125 0.015625,-0.015625 0.015625,-0.03125 0.203125,-0.21875 0.4375,0.40625 0.890625,0.421875 1.09375,0.421875 1.140625,0 1.609375,-0.671875 1.609375,-1.390625 0,-0.515625 -0.296875,-0.828125 -0.421875,-0.9375 C 2.84375,-2.546875 2.453125,-2.625 2.03125,-2.703125 1.46875,-2.8125 0.8125,-2.9375 0.8125,-3.515625 c 0,-0.359375 0.25,-0.765625 1.109375,-0.765625 1.09375,0 1.15625,0.90625 1.171875,1.203125 0,0.09375 0.09375,0.09375 0.109375,0.09375 0.140625,0 0.140625,-0.046875 0.140625,-0.234375 v -1.015625 c 0,-0.15625 0,-0.234375 -0.109375,-0.234375 -0.046875,0 -0.078125,0 -0.203125,0.125 -0.03125,0.03125 -0.125,0.125 -0.171875,0.15625 -0.375,-0.28125 -0.78125,-0.28125 -0.9375,-0.28125 -1.21875,0 -1.59375,0.671875 -1.59375,1.234375 0,0.34375 0.15625,0.625 0.421875,0.84375 0.328125,0.25 0.609375,0.3125 1.328125,0.453125 z m 0,0"
           id="path531" />
      </g>
    </g>
  </defs>
  <g
     inkscape:label="Layer 1"
     inkscape:groupmode="layer"
     id="layer1"
     transform="translate(-31.387572,-2.7709376)">
    <g
       clip-path="url(#clip2)"
       clip-rule="nonzero"
       id="g329"
       transform="matrix(0.35277777,0,0,0.35277777,12.549376,-22.532417)">
      <path
         style="fill:#0597d4;fill-opacity:1;fill-rule:nonzero;stroke:none"
         d="m 221.60156,86.472656 v -4 h 14 v 4 z m 0,0"
         id="path328" />
    </g>
    <g
       clip-path="url(#clip3)"
       clip-rule="nonzero"
       id="g330"
       transform="matrix(0.35277777,0,0,0.35277777,12.549376,-22.532417)">
      <path
         style="fill:none;stroke:#0597d4;stroke-width:1;stroke-linecap:square;stroke-linejoin:miter;stroke-miterlimit:3.23931;stroke-opacity:1"
         d="m 221.60156,86.472656 v -4 h 14 v 4 z m 0,0"
         id="path329" />
      <path
         style="fill:none;stroke:#000000;stroke-width:1;stroke-linecap:square;stroke-linejoin:miter;stroke-miterlimit:3.25;stroke-opacity:0.3"
         d="m 221.60156,86.472656 v -4 h 14 v 4 z m 0,0"
         id="path330" />
    </g>
    <g
       clip-path="url(#clip5)"
       clip-rule="nonzero"
       id="g351"
       transform="matrix(0.35277777,0,0,0.35277777,-43.787941,-28.222859)">
      <path
         style="fill:#e64228;fill-opacity:1;fill-rule:nonzero;stroke:none"
         d="m 221.5,102.54297 v -4.000001 h 14 v 4.000001 z m 0,0"
         id="path350" />
    </g>
    <g
       clip-path="url(#clip6)"
       clip-rule="nonzero"
       id="g352"
       transform="matrix(0.35277777,0,0,0.35277777,-43.787941,-28.222859)">
      <path
         style="fill:none;stroke:#e64228;stroke-width:1;stroke-linecap:square;stroke-linejoin:miter;stroke-miterlimit:3.23931;stroke-opacity:1"
         d="m 221.5,102.54297 v -4.000001 h 14 v 4.000001 z m 0,0"
         id="path351" />
      <path
         style="fill:none;stroke:#000000;stroke-width:1;stroke-linecap:square;stroke-linejoin:miter;stroke-miterlimit:3.25;stroke-opacity:0.3"
         d="m 221.5,102.54297 v -4.000001 h 14 v 4.000001 z m 0,0"
         id="path352" />
    </g>
    <g
       style="fill:#000000;fill-opacity:1"
       id="g356"
       transform="matrix(0.38805555,0,0,0.38805555,-50.982369,-31.51764)">
      <g
         id="use352"
         transform="translate(236.60001,104.04233)">
        <path
           style="stroke:none"
           d="M 8.484375,-4.03125 C 8.476563,-4.800781 8.308594,-5.496094 7.988281,-6.125 7.660156,-6.746094 7.222656,-7.246094 6.675781,-7.621094 6.121094,-7.992188 5.5,-8.183594 4.8125,-8.195313 H 0.421875 v 0.371094 h 0.285156 c 0.441407,0 0.714844,0.039063 0.820313,0.121094 0.101562,0.085937 0.144531,0.234375 0.128906,0.441406 v 6.328125 C 1.671875,-0.71875 1.628906,-0.574219 1.527344,-0.492188 1.421875,-0.40625 1.148438,-0.363281 0.707031,-0.371094 H 0.421875 V 0 H 4.8125 C 5.488281,-0.0078125 6.105469,-0.1875 6.660156,-0.542969 7.210938,-0.898438 7.652344,-1.378906 7.980469,-1.984375 8.308594,-2.585938 8.476563,-3.269531 8.484375,-4.03125 Z m -1.199219,0 C 7.28125,-3.375 7.226563,-2.839844 7.117188,-2.429688 7.003906,-2.019531 6.839844,-1.671875 6.625,-1.390625 6.542969,-1.273438 6.410156,-1.136719 6.230469,-0.980469 6.046875,-0.820313 5.8125,-0.683594 5.527344,-0.5625 5.234375,-0.441406 4.890625,-0.375 4.488281,-0.371094 H 3.277344 C 3,-0.363281 2.832031,-0.394531 2.769531,-0.460938 2.703125,-0.527344 2.675781,-0.65625 2.6875,-0.851563 V -7.34375 C 2.675781,-7.53125 2.703125,-7.660156 2.769531,-7.730469 2.832031,-7.792969 3,-7.824219 3.277344,-7.824219 h 1.199219 c 0.375,-0.00391 0.753906,0.074219 1.140625,0.238281 0.378906,0.167969 0.726562,0.460938 1.042968,0.878907 0.25,0.363281 0.417969,0.78125 0.503907,1.253906 0.082031,0.472656 0.121093,0.945312 0.121093,1.421875 z m 0,0"
           id="path30" />
      </g>
      <g
         id="use353"
         transform="translate(245.76801,104.04233)">
        <path
           style="stroke:none"
           d="M 5.914063,-1.066406 V -1.738281 H 5.617188 v 0.671875 c -0.011719,0.335937 -0.066407,0.550781 -0.167969,0.644531 -0.101563,0.09375 -0.191406,0.136719 -0.265625,0.121094 -0.132813,0 -0.230469,-0.046875 -0.292969,-0.140625 -0.066406,-0.085938 -0.109375,-0.179688 -0.125,-0.273438 -0.023437,-0.09375 -0.03125,-0.15625 -0.027344,-0.1875 v -2.398437 c 0.00781,-0.25 -0.011718,-0.496094 -0.054687,-0.730469 -0.046875,-0.234375 -0.171875,-0.460938 -0.375,-0.683594 -0.242188,-0.230469 -0.5,-0.398437 -0.78125,-0.507812 C 3.242188,-5.324219 2.953125,-5.375 2.664063,-5.375 2.15625,-5.363281 1.730469,-5.238281 1.390625,-4.992188 c -0.347656,0.246094 -0.527344,0.570313 -0.539062,0.972657 0,0.179687 0.054687,0.320312 0.160156,0.417968 0.097656,0.097657 0.230469,0.144532 0.394531,0.144532 0.167969,0 0.300781,-0.050782 0.398438,-0.15625 C 1.902344,-3.714844 1.953125,-3.847656 1.957031,-4.007813 1.964844,-4.09375 1.929688,-4.199219 1.855469,-4.332031 1.78125,-4.460938 1.609375,-4.539063 1.34375,-4.558594 c 0.167969,-0.207031 0.378906,-0.351562 0.625,-0.433594 0.242188,-0.082031 0.464844,-0.121093 0.671875,-0.121093 0.308594,0 0.59375,0.125 0.855469,0.371093 0.257812,0.25 0.398437,0.636719 0.417969,1.164063 v 0.445312 C 3.601563,-3.117188 3.25,-3.085938 2.863281,-3.035156 2.472656,-2.984375 2.085938,-2.871094 1.703125,-2.699219 1.257813,-2.484375 0.945313,-2.238281 0.765625,-1.964844 0.582031,-1.683594 0.496094,-1.410156 0.503906,-1.140625 0.511719,-0.816406 0.621094,-0.5625 0.832031,-0.375 1.042969,-0.1875 1.292969,-0.0585938 1.589844,0.015625 1.878906,0.0898438 2.15625,0.128906 2.421875,0.132813 2.816406,0.121094 3.148438,0.0195313 3.417969,-0.179688 3.683594,-0.375 3.878906,-0.617188 3.996094,-0.910156 4.019531,-0.65625 4.109375,-0.433594 4.269531,-0.238281 4.425781,-0.0429688 4.648438,0.0585938 4.933594,0.0703125 5.023438,0.0742188 5.144531,0.0507813 5.296875,-0.0078125 5.449219,-0.0625 5.585938,-0.175781 5.714844,-0.339844 c 0.121094,-0.164062 0.1875,-0.40625 0.199219,-0.726562 z m -2,-0.613282 C 3.90625,-1.300781 3.824219,-0.996094 3.667969,-0.769531 3.511719,-0.539063 3.324219,-0.375 3.109375,-0.277344 2.894531,-0.175781 2.695313,-0.128906 2.507813,-0.132813 2.203125,-0.136719 1.949219,-0.230469 1.746094,-0.417969 1.542969,-0.597656 1.433594,-0.84375 1.425781,-1.152344 1.417969,-1.375 1.488281,-1.617188 1.628906,-1.875 1.769531,-2.132813 2.019531,-2.355469 2.386719,-2.546875 2.746094,-2.734375 3.257813,-2.84375 3.914063,-2.878906 Z m 0,0"
           id="path31" />
      </g>
      <g
         id="use354"
         transform="translate(251.76801,104.04233)">
        <path
           style="stroke:none"
           d="M 3.984375,-1.488281 V -2.171875 H 3.683594 v 0.660156 c -0.00781,0.445313 -0.085938,0.78125 -0.234375,1.007813 -0.152344,0.226562 -0.34375,0.339843 -0.570313,0.335937 C 2.613281,-0.179688 2.425781,-0.277344 2.3125,-0.457031 2.195313,-0.636719 2.125,-0.828125 2.101563,-1.035156 2.074219,-1.238281 2.066406,-1.382813 2.074219,-1.464844 v -3.335937 h 1.71875 V -5.171875 H 2.074219 V -7.378906 H 1.777344 C 1.769531,-7.035156 1.722656,-6.695313 1.628906,-6.351563 1.535156,-6.003906 1.375,-5.707031 1.148438,-5.464844 0.921875,-5.21875 0.613281,-5.085938 0.230469,-5.0625 v 0.261719 H 1.25 v 3.3125 c 0.00781,0.484375 0.109375,0.84375 0.304688,1.078125 0.1875,0.234375 0.40625,0.3828122 0.648437,0.4492185 C 2.441406,0.105469 2.636719,0.136719 2.796875,0.132813 3.214844,0.109375 3.519531,-0.0625 3.707031,-0.390625 3.890625,-0.714844 3.984375,-1.082031 3.984375,-1.488281 Z m 0,0"
           id="path36" />
      </g>
      <g
         id="use355"
         transform="translate(256.436,104.04233)">
        <path
           style="stroke:none"
           d="M 5.652344,-2.566406 C 5.640625,-3.082031 5.519531,-3.550781 5.285156,-3.976563 5.046875,-4.398438 4.726563,-4.734375 4.332031,-4.988281 3.929688,-5.238281 3.488281,-5.367188 3,-5.375 c -0.507812,0.011719 -0.960937,0.140625 -1.359375,0.394531 -0.398437,0.257813 -0.714844,0.597656 -0.949219,1.019531 -0.234375,0.421875 -0.355468,0.886719 -0.355468,1.394532 0.003906,0.523437 0.128906,0.988281 0.375,1.386718 0.242187,0.40625 0.566406,0.722657 0.964843,0.957032 C 2.074219,0.0078125 2.511719,0.125 2.988281,0.132813 3.476563,0.125 3.921875,0.0078125 4.324219,-0.226563 4.722656,-0.460938 5.039063,-0.78125 5.28125,-1.1875 5.515625,-1.589844 5.640625,-2.050781 5.652344,-2.566406 Z M 4.65625,-2.664063 C 4.660156,-2.4375 4.648438,-2.179688 4.621094,-1.894531 4.59375,-1.601563 4.519531,-1.324219 4.394531,-1.054688 4.253906,-0.78125 4.0625,-0.5625 3.820313,-0.40625 3.578125,-0.246094 3.304688,-0.167969 3,-0.167969 2.734375,-0.164063 2.480469,-0.226563 2.242188,-0.359375 2,-0.488281 1.796875,-0.695313 1.632813,-0.972656 1.484375,-1.246094 1.394531,-1.539063 1.367188,-1.851563 c -0.035157,-0.3125 -0.046875,-0.582031 -0.035157,-0.8125 -0.011718,-0.238281 0,-0.503906 0.035157,-0.796875 0.027343,-0.292968 0.113281,-0.574218 0.253906,-0.847656 0.164062,-0.273437 0.371094,-0.476562 0.621094,-0.609375 0.246093,-0.125 0.496093,-0.191406 0.746093,-0.195312 0.265625,0.00391 0.515625,0.070312 0.757813,0.199218 0.234375,0.132813 0.433594,0.328125 0.597656,0.582032 0.148438,0.269531 0.242188,0.554687 0.273438,0.855468 0.03125,0.308594 0.042968,0.578125 0.039062,0.8125 z m 0,0"
           id="path49" />
      </g>
      <g
         id="use356"
         transform="translate(262.436,104.04233)">
        <path
           style="stroke:none"
           d="M 4.320313,-1.535156 C 4.304688,-1.851563 4.238281,-2.101563 4.121094,-2.289063 3.996094,-2.472656 3.894531,-2.601563 3.816406,-2.675781 3.613281,-2.859375 3.398438,-2.992188 3.171875,-3.074219 2.9375,-3.148438 2.699219,-3.207031 2.449219,-3.253906 2.089844,-3.304688 1.757813,-3.398438 1.457031,-3.53125 1.148438,-3.660156 0.988281,-3.894531 0.972656,-4.238281 c -0.011718,-0.21875 0.082032,-0.425782 0.28125,-0.613282 0.199219,-0.1875 0.550782,-0.285156 1.0625,-0.296875 0.429688,0.011719 0.746094,0.109375 0.945313,0.292969 0.195312,0.1875 0.320312,0.394531 0.375,0.617188 0.050781,0.230468 0.078125,0.410156 0.082031,0.542968 0.011719,0.054688 0.039063,0.085938 0.078125,0.09375 0.039063,0.011719 0.058594,0.015625 0.066406,0.011719 C 3.933594,-3.585938 3.980469,-3.605469 4,-3.648438 4.011719,-3.6875 4.019531,-3.761719 4.019531,-3.875 V -5.089844 C 4.019531,-5.1875 4.011719,-5.257813 4,-5.304688 3.984375,-5.347656 3.945313,-5.371094 3.886719,-5.375 c -0.03125,0 -0.058594,0.00391 -0.085938,0.019531 -0.03125,0.015625 -0.082031,0.058594 -0.152343,0.125 C 3.625,-5.203125 3.59375,-5.167969 3.550781,-5.128906 3.503906,-5.085938 3.46875,-5.058594 3.445313,-5.039063 3.207031,-5.199219 2.980469,-5.296875 2.773438,-5.332031 2.5625,-5.367188 2.410156,-5.378906 2.316406,-5.375 c -0.726562,0.023437 -1.230468,0.183594 -1.511718,0.484375 -0.289063,0.308594 -0.421875,0.636719 -0.40625,0.988281 0,0.210938 0.042968,0.402344 0.132812,0.570313 0.089844,0.171875 0.214844,0.324218 0.378906,0.453125 0.175782,0.152343 0.382813,0.261718 0.613282,0.328125 0.226562,0.074218 0.550781,0.148437 0.972656,0.222656 0.097656,0.015625 0.242187,0.054687 0.441406,0.117187 0.191406,0.066407 0.375,0.175782 0.542969,0.328125 0.164062,0.160157 0.25,0.378907 0.265625,0.660157 -0.00391,0.316406 -0.113281,0.574218 -0.332031,0.777343 -0.222657,0.203125 -0.566407,0.308594 -1.027344,0.3125 -0.5,-0.003906 -0.875,-0.160156 -1.125,-0.464843 C 1.003906,-0.902344 0.824219,-1.3125 0.71875,-1.835938 0.699219,-1.90625 0.679688,-1.960938 0.664063,-1.996094 0.640625,-2.023438 0.605469,-2.039063 0.550781,-2.039063 c -0.074218,0 -0.121093,0.023438 -0.136718,0.070313 -0.019532,0.046875 -0.023438,0.125 -0.015625,0.230469 v 1.582031 c -0.003907,0.1054687 0,0.1757813 0.015625,0.21875 0.011718,0.042969 0.050781,0.066406 0.113281,0.070313 0.023437,0 0.050781,-0.011719 0.085937,-0.039063 C 0.644531,0.0664063 0.714844,0 0.828125,-0.105469 0.832031,-0.113281 0.847656,-0.132813 0.875,-0.167969 0.898438,-0.199219 0.964844,-0.269531 1.066406,-0.382813 1.335938,-0.136719 1.589844,0.0078125 1.832031,0.0625 2.070313,0.113281 2.253906,0.136719 2.386719,0.132813 3.066406,0.113281 3.5625,-0.0546875 3.871094,-0.375 4.171875,-0.699219 4.320313,-1.085938 4.320313,-1.535156 Z m 0,0"
           id="path53" />
      </g>
    </g>
    <g
       style="fill:#000000;fill-opacity:1"
       id="g370"
       transform="matrix(0.38805555,0,0,0.38805555,-50.982369,-31.51764)">
      <g
         id="use357"
         transform="translate(271.16,104.04233)">
        <path
           style="stroke:none"
           d="M 4.980469,-1.429688 C 4.976563,-1.484375 4.957031,-1.519531 4.921875,-1.542969 4.886719,-1.558594 4.851563,-1.570313 4.824219,-1.570313 c -0.054688,0 -0.089844,0.015625 -0.109375,0.046875 -0.023438,0.03125 -0.039063,0.074219 -0.046875,0.121094 C 4.515625,-0.996094 4.320313,-0.707031 4.085938,-0.53125 3.847656,-0.355469 3.628906,-0.25 3.429688,-0.210938 3.222656,-0.171875 3.097656,-0.15625 3.046875,-0.167969 2.742188,-0.171875 2.472656,-0.25 2.246094,-0.402344 2.011719,-0.550781 1.828125,-0.742188 1.691406,-0.972656 1.515625,-1.269531 1.410156,-1.585938 1.375,-1.925781 1.335938,-2.257813 1.320313,-2.539063 1.332031,-2.773438 h 3.347657 c 0.125,0.00781 0.207031,-0.00391 0.246093,-0.03125 0.035157,-0.023437 0.054688,-0.097656 0.054688,-0.21875 0,-0.402343 -0.078125,-0.78125 -0.226563,-1.136718 C 4.601563,-4.515625 4.371094,-4.804688 4.054688,-5.027344 3.738281,-5.25 3.328125,-5.363281 2.832031,-5.375 2.359375,-5.367188 1.9375,-5.242188 1.566406,-5 1.1875,-4.75 0.890625,-4.421875 0.671875,-4.015625 c -0.222656,0.414062 -0.335937,0.871094 -0.335937,1.375 0.003906,0.542969 0.132812,1.019531 0.378906,1.433594 0.242187,0.414062 0.5625,0.742187 0.960937,0.976562 C 2.074219,0.0078125 2.507813,0.125 2.976563,0.132813 3.460938,0.113281 3.847656,-0.00390625 4.144531,-0.222656 4.433594,-0.441406 4.648438,-0.671875 4.785156,-0.921875 4.914063,-1.164063 4.980469,-1.335938 4.980469,-1.429688 Z M 4.1875,-3.023438 H 1.34375 C 1.375,-3.609375 1.484375,-4.054688 1.671875,-4.359375 1.851563,-4.660156 2.054688,-4.863281 2.28125,-4.96875 2.5,-5.070313 2.683594,-5.117188 2.832031,-5.113281 c 0.402344,0.019531 0.703125,0.167968 0.902344,0.441406 0.191406,0.277344 0.320313,0.578125 0.378906,0.902344 0.054688,0.328125 0.078125,0.574218 0.074219,0.746093 z m 0,0"
           id="path43" />
      </g>
      <g
         id="use358"
         transform="translate(276.48801,104.04233)">
        <path
           style="stroke:none"
           d="M 6.191406,0 V -0.371094 C 5.875,-0.363281 5.636719,-0.382813 5.480469,-0.425781 5.316406,-0.46875 5.175781,-0.574219 5.050781,-0.742188 L 3.445313,-2.820313 c 0.183593,-0.234375 0.375,-0.480468 0.578125,-0.730468 0.199218,-0.25 0.375,-0.457032 0.523437,-0.625 0.1875,-0.210938 0.398438,-0.367188 0.640625,-0.46875 0.238281,-0.097657 0.503906,-0.148438 0.789063,-0.15625 v -0.371094 c -0.160157,0.015625 -0.324219,0.023437 -0.492188,0.027344 -0.171875,0.00781 -0.335937,0.011718 -0.492187,0.00781 -0.195313,0.00391 -0.414063,0 -0.652344,-0.011719 -0.242188,-0.00391 -0.410156,-0.011718 -0.5,-0.023437 v 0.371094 c 0.121094,0.019531 0.210937,0.058593 0.269531,0.125 C 4.160156,-4.605471 4.1875,-4.52344 4.1875,-4.42969 4.18359,-4.332033 4.160156,-4.246096 4.121094,-4.171877 4.074219,-4.097658 4.039063,-4.042971 4.007813,-4.007815 l -0.742188,0.933594 -0.9375,-1.210937 C 2.273438,-4.339844 2.242188,-4.382813 2.230469,-4.410156 2.21875,-4.433594 2.214844,-4.464844 2.21875,-4.5 c 0,-0.089844 0.039063,-0.160156 0.121094,-0.210938 0.074219,-0.050781 0.175781,-0.078125 0.300781,-0.089843 V -5.171875 L 1.34375,-5.136719 c -0.140625,0.00391 -0.320312,0 -0.542969,-0.00781 C 0.574219,-5.148438 0.375,-5.15625 0.203125,-5.171875 v 0.371094 c 0.269531,0 0.476563,0.00781 0.617188,0.03125 0.136718,0.023437 0.257812,0.089843 0.367187,0.191406 0.105469,0.109375 0.25,0.277344 0.433594,0.507812 l 1.1875,1.550782 c -0.1875,0.234375 -0.324219,0.414062 -0.417969,0.539062 -0.097656,0.128906 -0.195312,0.253906 -0.292969,0.375 C 2,-1.480469 1.859375,-1.308594 1.679688,-1.089844 1.378906,-0.753906 1.082031,-0.546875 0.789063,-0.46875 0.496094,-0.390625 0.28125,-0.355469 0.144531,-0.371094 V 0 c 0.15625,-0.0117188 0.320313,-0.0195313 0.496094,-0.0273438 0.171875,-0.0039062 0.339844,-0.0078125 0.5,-0.0078125 L 2.28125,0 V -0.371094 C 2.148438,-0.386719 2.058594,-0.433594 2.007813,-0.503906 1.953125,-0.570313 1.929688,-0.648438 1.933594,-0.742188 c -0.00391,-0.121093 0.082031,-0.300781 0.261719,-0.535156 0.175781,-0.234375 0.449218,-0.5625 0.816406,-0.988281 l 0.914062,1.199219 c 0.050782,0.070312 0.101563,0.144531 0.160157,0.222656 0.050781,0.078125 0.082031,0.136719 0.089843,0.171875 0,0.0625 -0.03125,0.125 -0.09375,0.1875 -0.066406,0.066406 -0.179687,0.105469 -0.339843,0.113281 V 0 l 1.296875,-0.0351563 c 0.164062,0 0.351562,0.0039063 0.5625,0.0078125 C 5.808594,-0.0195313 6.003906,-0.0117188 6.191406,0 Z m 0,0"
           id="path29" />
      </g>
      <g
         id="use359"
         transform="translate(282.82401,104.04233)">
        <path
           style="stroke:none"
           d="M 6.253906,-2.59375 C 6.242188,-3.105469 6.125,-3.566406 5.898438,-3.972656 5.667969,-4.378906 5.367188,-4.699219 4.992188,-4.9375 4.613281,-5.175781 4.195313,-5.296875 3.742188,-5.304688 3.277344,-5.28125 2.910156,-5.183594 2.640625,-5.003906 2.371094,-4.824219 2.179688,-4.660156 2.0625,-4.511719 v -0.792969 l -1.726562,0.132813 v 0.371094 c 0.40625,-0.00391 0.667968,0.027343 0.785156,0.101562 0.109375,0.078125 0.160156,0.246094 0.152344,0.5 V 1.417969 C 1.28125,1.675781 1.226563,1.832031 1.105469,1.886719 0.980469,1.941406 0.722656,1.964844 0.335938,1.957031 V 2.328125 L 1.679688,2.292969 3.035156,2.328125 V 1.957031 C 2.644531,1.964844 2.386719,1.941406 2.265625,1.886719 2.140625,1.832031 2.085938,1.671875 2.097656,1.414063 v -2.121094 c 0.019532,0.074218 0.085938,0.175781 0.207032,0.304687 0.117187,0.132813 0.285156,0.253906 0.496093,0.3593752 C 3.011719,0.0664063 3.269531,0.121094 3.574219,0.132813 4.058594,0.125 4.5,0.0078125 4.902344,-0.230469 5.304688,-0.464844 5.628906,-0.789063 5.875,-1.195313 6.117188,-1.601563 6.242188,-2.066406 6.25,-2.589844 Z M 5.257813,-2.58984 C 5.234375,-1.851563 5.058594,-1.257813 4.722656,-0.816406 4.386719,-0.367188 3.988281,-0.140625 3.527344,-0.132813 3.285156,-0.128906 3.054688,-0.1875 2.835938,-0.3125 2.617188,-0.429688 2.425781,-0.613281 2.265625,-0.863281 2.183594,-0.976563 2.136719,-1.0625 2.121094,-1.121094 2.101563,-1.171875 2.09375,-1.253906 2.097656,-1.367188 V -4.042969 C 2.277344,-4.351563 2.5,-4.585938 2.773438,-4.753906 c 0.269531,-0.164063 0.5625,-0.25 0.875,-0.25 0.449218,0.015625 0.828125,0.25 1.132812,0.699218 0.304688,0.449219 0.460938,1.019532 0.476563,1.710938 z m 0,0"
           id="path56" />
      </g>
      <g
         id="use360"
         transform="translate(289.496,104.04233)">
        <path
           style="stroke:none"
           d="M 4.980469,-1.429688 C 4.976563,-1.484375 4.957031,-1.519531 4.921875,-1.542969 4.886719,-1.558594 4.851563,-1.570313 4.824219,-1.570313 c -0.054688,0 -0.089844,0.015625 -0.109375,0.046875 -0.023438,0.03125 -0.039063,0.074219 -0.046875,0.121094 C 4.515625,-0.996094 4.320313,-0.707031 4.085938,-0.53125 3.847656,-0.355469 3.628906,-0.25 3.429688,-0.210938 3.222656,-0.171875 3.097656,-0.15625 3.046875,-0.167969 2.742188,-0.171875 2.472656,-0.25 2.246094,-0.402344 2.011719,-0.550781 1.828125,-0.742188 1.691406,-0.972656 1.515625,-1.269531 1.410156,-1.585938 1.375,-1.925781 1.335938,-2.257813 1.320313,-2.539063 1.332031,-2.773438 h 3.347657 c 0.125,0.00781 0.207031,-0.00391 0.246093,-0.03125 0.035157,-0.023437 0.054688,-0.097656 0.054688,-0.21875 0,-0.402343 -0.078125,-0.78125 -0.226563,-1.136718 C 4.601563,-4.515625 4.371094,-4.804688 4.054688,-5.027344 3.738281,-5.25 3.328125,-5.363281 2.832031,-5.375 2.359375,-5.367188 1.9375,-5.242188 1.566406,-5 1.1875,-4.75 0.890625,-4.421875 0.671875,-4.015625 c -0.222656,0.414062 -0.335937,0.871094 -0.335937,1.375 0.003906,0.542969 0.132812,1.019531 0.378906,1.433594 0.242187,0.414062 0.5625,0.742187 0.960937,0.976562 C 2.074219,0.0078125 2.507813,0.125 2.976563,0.132813 3.460938,0.113281 3.847656,-0.00390625 4.144531,-0.222656 4.433594,-0.441406 4.648438,-0.671875 4.785156,-0.921875 4.914063,-1.164063 4.980469,-1.335938 4.980469,-1.429688 Z M 4.1875,-3.023438 H 1.34375 C 1.375,-3.609375 1.484375,-4.054688 1.671875,-4.359375 1.851563,-4.660156 2.054688,-4.863281 2.28125,-4.96875 2.5,-5.070313 2.683594,-5.117188 2.832031,-5.113281 c 0.402344,0.019531 0.703125,0.167968 0.902344,0.441406 0.191406,0.277344 0.320313,0.578125 0.378906,0.902344 0.054688,0.328125 0.078125,0.574218 0.074219,0.746093 z m 0,0"
           id="path44" />
      </g>
      <g
         id="use361"
         transform="translate(294.82401,104.04233)">
        <path
           style="stroke:none"
           d="M 4.367188,-4.574219 C 4.359375,-4.769531 4.277344,-4.9375 4.117188,-5.082031 3.953125,-5.21875 3.742188,-5.292969 3.480469,-5.304688 3.1875,-5.292969 2.941406,-5.21875 2.742188,-5.074219 2.542969,-4.929688 2.382813,-4.753906 2.265625,-4.554688 2.144531,-4.351563 2.058594,-4.164063 2.003906,-3.984375 v -1.320313 l -1.667968,0.132813 v 0.371094 C 0.738281,-4.804688 1,-4.765625 1.117188,-4.683594 c 0.113281,0.089844 0.164062,0.273438 0.15625,0.554688 v 3.21875 c 0.00781,0.261718 -0.046875,0.417968 -0.167969,0.472656 -0.125,0.058594 -0.382813,0.082031 -0.769531,0.066406 V 0 l 1.367187,-0.0351563 c 0.242188,0 0.496094,0.0039063 0.761719,0.0039063 C 2.726563,-0.0234375 2.980469,-0.015625 3.226563,0 v -0.371094 h -0.25 C 2.546875,-0.363281 2.28125,-0.40625 2.183594,-0.492188 2.082031,-0.574219 2.042969,-0.71875 2.0625,-0.933594 v -1.851562 c 0,-0.609375 0.121094,-1.136719 0.367188,-1.574219 0.238281,-0.433594 0.589843,-0.660156 1.050781,-0.679688 0.039062,0 0.066406,0 0.089844,0 0.015625,0 0.03125,0.00391 0.042968,0.011719 -0.03125,0.00781 -0.082031,0.050781 -0.152343,0.121094 -0.074219,0.078125 -0.117188,0.191406 -0.125,0.34375 0,0.171875 0.054687,0.300781 0.160156,0.386719 0.097656,0.089843 0.214844,0.132812 0.355469,0.132812 0.113281,0 0.226562,-0.039062 0.339843,-0.121094 0.105469,-0.082031 0.164063,-0.21875 0.175782,-0.410156 z m 0,0"
           id="path48" />
      </g>
      <g
         id="use362"
         transform="translate(299.52802,104.04233)">
        <path
           style="stroke:none"
           d="M 2.964844,0 V -0.371094 C 2.582031,-0.359375 2.339844,-0.390625 2.246094,-0.457031 2.144531,-0.523438 2.105469,-0.667969 2.125,-0.898438 v -4.40625 l -1.679687,0.132813 v 0.371094 c 0.375,-0.00781 0.617187,0.027343 0.734375,0.109375 0.109375,0.085937 0.160156,0.269531 0.152343,0.550781 v 3.230469 c 0.00781,0.261718 -0.046875,0.417968 -0.164062,0.472656 -0.125,0.058594 -0.378906,0.082031 -0.769531,0.066406 V 0 l 1.316406,-0.0351563 c 0.207031,0 0.417969,0.0039063 0.628906,0.0117188 C 2.550781,-0.015625 2.757813,-0.0078125 2.964844,0 Z M 2.304688,-7.246094 C 2.296875,-7.414063 2.238281,-7.5625 2.121094,-7.6875 2.003906,-7.8125 1.851563,-7.875 1.667969,-7.882813 c -0.207031,0.011719 -0.367188,0.078125 -0.476563,0.207032 -0.117187,0.128906 -0.171875,0.273437 -0.171875,0.429687 0.00391,0.167969 0.0625,0.3125 0.183594,0.4375 0.113281,0.125 0.265625,0.191406 0.453125,0.195313 0.203125,-0.00391 0.363281,-0.070313 0.476563,-0.203125 0.109375,-0.125 0.164062,-0.269532 0.171875,-0.429688 z m 0,0"
           id="path58" />
      </g>
      <g
         id="use363"
         transform="translate(302.86401,104.04233)">
        <path
           style="stroke:none"
           d="M 9.753906,0 V -0.371094 C 9.441406,-0.359375 9.210938,-0.375 9.058594,-0.414063 8.902344,-0.449219 8.820313,-0.554688 8.820313,-0.730469 v -2.292969 c 0.00391,-0.5 -0.011719,-0.878906 -0.046875,-1.144531 C 8.730469,-4.425781 8.625,-4.65625 8.449219,-4.859375 8.363281,-4.964844 8.21875,-5.066406 8.015625,-5.15625 7.808594,-5.246094 7.53125,-5.292969 7.1875,-5.304688 6.847656,-5.292969 6.5625,-5.226563 6.332031,-5.097656 6.097656,-4.96875 5.910156,-4.8125 5.765625,-4.636719 5.617188,-4.453125 5.511719,-4.285156 5.449219,-4.128906 5.386719,-4.46875 5.261719,-4.726563 5.078125,-4.898438 4.894531,-5.066406 4.691406,-5.175781 4.46875,-5.230469 4.242188,-5.28125 4.035156,-5.304688 3.851563,-5.304688 c -0.4375,0.011719 -0.800782,0.128907 -1.089844,0.351563 -0.296875,0.230469 -0.523438,0.53125 -0.6875,0.910156 v -1.261719 l -1.691406,0.132813 v 0.371094 c 0.40625,-0.00391 0.667968,0.035156 0.785156,0.117187 0.109375,0.089844 0.160156,0.273438 0.152344,0.554688 v 3.21875 C 1.328125,-0.648438 1.273438,-0.492188 1.152344,-0.4375 1.03125,-0.378906 0.773438,-0.355469 0.382813,-0.371094 V 0 L 1.738281,-0.0351563 3.082031,0 V -0.371094 C 2.691406,-0.355469 2.433594,-0.378906 2.3125,-0.4375 2.1875,-0.492188 2.132813,-0.648438 2.148438,-0.910156 V -3.121094 C 2.164063,-3.742188 2.335938,-4.21875 2.667969,-4.546875 2.996094,-4.875 3.363281,-5.039063 3.769531,-5.039063 4.132813,-5.027344 4.375,-4.890625 4.496094,-4.632813 4.609375,-4.371094 4.664063,-4.0625 4.65625,-3.707031 v 2.796875 C 4.664063,-0.648438 4.609375,-0.492188 4.488281,-0.4375 4.367188,-0.378906 4.109375,-0.355469 3.71875,-0.371094 V 0 L 5.074219,-0.0351563 6.417969,0 V -0.371094 C 6.023438,-0.355469 5.769531,-0.378906 5.648438,-0.4375 5.523438,-0.492188 5.46875,-0.648438 5.484375,-0.910156 V -3.121094 C 5.5,-3.742188 5.671875,-4.21875 6.003906,-4.546875 6.332031,-4.875 6.699219,-5.039063 7.105469,-5.039063 7.46875,-5.027344 7.710938,-4.890625 7.832031,-4.632813 7.945313,-4.371094 8,-4.0625 7.992188,-3.707031 v 2.796875 C 8,-0.648438 7.941406,-0.492188 7.824219,-0.4375 c -0.125,0.058594 -0.378906,0.082031 -0.769531,0.066406 V 0 l 1.355468,-0.0351563 z m 0,0"
           id="path28" />
      </g>
      <g
         id="use364"
         transform="translate(312.86002,104.04233)">
        <path
           style="stroke:none"
           d="M 4.980469,-1.429688 C 4.976563,-1.484375 4.957031,-1.519531 4.921875,-1.542969 4.886719,-1.558594 4.851563,-1.570313 4.824219,-1.570313 c -0.054688,0 -0.089844,0.015625 -0.109375,0.046875 -0.023438,0.03125 -0.039063,0.074219 -0.046875,0.121094 C 4.515625,-0.996094 4.320313,-0.707031 4.085938,-0.53125 3.847656,-0.355469 3.628906,-0.25 3.429688,-0.210938 3.222656,-0.171875 3.097656,-0.15625 3.046875,-0.167969 2.742188,-0.171875 2.472656,-0.25 2.246094,-0.402344 2.011719,-0.550781 1.828125,-0.742188 1.691406,-0.972656 1.515625,-1.269531 1.410156,-1.585938 1.375,-1.925781 1.335938,-2.257813 1.320313,-2.539063 1.332031,-2.773438 h 3.347657 c 0.125,0.00781 0.207031,-0.00391 0.246093,-0.03125 0.035157,-0.023437 0.054688,-0.097656 0.054688,-0.21875 0,-0.402343 -0.078125,-0.78125 -0.226563,-1.136718 C 4.601563,-4.515625 4.371094,-4.804688 4.054688,-5.027344 3.738281,-5.25 3.328125,-5.363281 2.832031,-5.375 2.359375,-5.367188 1.9375,-5.242188 1.566406,-5 1.1875,-4.75 0.890625,-4.421875 0.671875,-4.015625 c -0.222656,0.414062 -0.335937,0.871094 -0.335937,1.375 0.003906,0.542969 0.132812,1.019531 0.378906,1.433594 0.242187,0.414062 0.5625,0.742187 0.960937,0.976562 C 2.074219,0.0078125 2.507813,0.125 2.976563,0.132813 3.460938,0.113281 3.847656,-0.00390625 4.144531,-0.222656 4.433594,-0.441406 4.648438,-0.671875 4.785156,-0.921875 4.914063,-1.164063 4.980469,-1.335938 4.980469,-1.429688 Z M 4.1875,-3.023438 H 1.34375 C 1.375,-3.609375 1.484375,-4.054688 1.671875,-4.359375 1.851563,-4.660156 2.054688,-4.863281 2.28125,-4.96875 2.5,-5.070313 2.683594,-5.117188 2.832031,-5.113281 c 0.402344,0.019531 0.703125,0.167968 0.902344,0.441406 0.191406,0.277344 0.320313,0.578125 0.378906,0.902344 0.054688,0.328125 0.078125,0.574218 0.074219,0.746093 z m 0,0"
           id="path45" />
      </g>
      <g
         id="use365"
         transform="translate(318.18799,104.04233)">
        <path
           style="stroke:none"
           d="M 6.417969,0 V -0.371094 C 6.105469,-0.359375 5.875,-0.375 5.722656,-0.414063 5.566406,-0.449219 5.488281,-0.554688 5.484375,-0.730469 v -2.292969 c 0.00781,-0.5 -0.00781,-0.878906 -0.046875,-1.144531 C 5.398438,-4.425781 5.289063,-4.65625 5.113281,-4.859375 5.027344,-4.964844 4.882813,-5.066406 4.679688,-5.15625 4.472656,-5.246094 4.195313,-5.292969 3.851563,-5.304688 c -0.4375,0.011719 -0.800782,0.128907 -1.089844,0.351563 -0.296875,0.230469 -0.523438,0.53125 -0.683594,0.910156 v -1.261719 l -1.695312,0.132813 v 0.371094 c 0.40625,-0.00391 0.667968,0.035156 0.785156,0.117187 0.109375,0.089844 0.160156,0.273438 0.152344,0.554688 v 3.21875 C 1.328125,-0.648438 1.273438,-0.492188 1.152344,-0.4375 1.03125,-0.378906 0.773438,-0.355469 0.382813,-0.371094 V 0 L 1.738281,-0.0351563 3.082031,0 V -0.371094 C 2.691406,-0.355469 2.433594,-0.378906 2.3125,-0.4375 2.1875,-0.492188 2.132813,-0.648438 2.148438,-0.910156 V -3.121094 C 2.164063,-3.742188 2.335938,-4.21875 2.667969,-4.546875 2.996094,-4.875 3.363281,-5.039063 3.769531,-5.039063 4.132813,-5.027344 4.375,-4.890625 4.496094,-4.632813 4.609375,-4.371094 4.664063,-4.0625 4.65625,-3.707031 v 2.796875 C 4.664063,-0.648438 4.609375,-0.492188 4.488281,-0.4375 4.367188,-0.378906 4.109375,-0.355469 3.722656,-0.371094 V 0 l 1.351563,-0.0351563 z m 0,0"
           id="path47" />
      </g>
      <g
         id="use366"
         transform="translate(324.86002,104.04233)">
        <path
           style="stroke:none"
           d="M 3.984375,-1.488281 V -2.171875 H 3.683594 v 0.660156 c -0.00781,0.445313 -0.085938,0.78125 -0.234375,1.007813 -0.152344,0.226562 -0.34375,0.339843 -0.570313,0.335937 C 2.613281,-0.179688 2.425781,-0.277344 2.3125,-0.457031 2.195313,-0.636719 2.125,-0.828125 2.101563,-1.035156 2.074219,-1.238281 2.066406,-1.382813 2.074219,-1.464844 v -3.335937 h 1.71875 V -5.171875 H 2.074219 V -7.378906 H 1.777344 C 1.769531,-7.035156 1.722656,-6.695313 1.628906,-6.351563 1.535156,-6.003906 1.375,-5.707031 1.148438,-5.464844 0.921875,-5.21875 0.613281,-5.085938 0.230469,-5.0625 v 0.261719 H 1.25 v 3.3125 c 0.00781,0.484375 0.109375,0.84375 0.304688,1.078125 0.1875,0.234375 0.40625,0.3828122 0.648437,0.4492185 C 2.441406,0.105469 2.636719,0.136719 2.796875,0.132813 3.214844,0.109375 3.519531,-0.0625 3.707031,-0.390625 3.890625,-0.714844 3.984375,-1.082031 3.984375,-1.488281 Z m 0,0"
           id="path39" />
      </g>
      <g
         id="use367"
         transform="translate(329.52802,104.04233)">
        <path
           style="stroke:none"
           d="M 5.914063,-1.066406 V -1.738281 H 5.617188 v 0.671875 c -0.011719,0.335937 -0.066407,0.550781 -0.167969,0.644531 -0.101563,0.09375 -0.191406,0.136719 -0.265625,0.121094 -0.132813,0 -0.230469,-0.046875 -0.292969,-0.140625 -0.066406,-0.085938 -0.109375,-0.179688 -0.125,-0.273438 -0.023437,-0.09375 -0.03125,-0.15625 -0.027344,-0.1875 v -2.398437 c 0.00781,-0.25 -0.011718,-0.496094 -0.054687,-0.730469 -0.046875,-0.234375 -0.171875,-0.460938 -0.375,-0.683594 -0.242188,-0.230469 -0.5,-0.398437 -0.78125,-0.507812 C 3.242188,-5.324219 2.953125,-5.375 2.664063,-5.375 2.15625,-5.363281 1.730469,-5.238281 1.390625,-4.992188 c -0.347656,0.246094 -0.527344,0.570313 -0.539062,0.972657 0,0.179687 0.054687,0.320312 0.160156,0.417968 0.097656,0.097657 0.230469,0.144532 0.394531,0.144532 0.167969,0 0.300781,-0.050782 0.398438,-0.15625 C 1.902344,-3.714844 1.953125,-3.847656 1.957031,-4.007813 1.964844,-4.09375 1.929688,-4.199219 1.855469,-4.332031 1.78125,-4.460938 1.609375,-4.539063 1.34375,-4.558594 c 0.167969,-0.207031 0.378906,-0.351562 0.625,-0.433594 0.242188,-0.082031 0.464844,-0.121093 0.671875,-0.121093 0.308594,0 0.59375,0.125 0.855469,0.371093 0.257812,0.25 0.398437,0.636719 0.417969,1.164063 v 0.445312 C 3.601563,-3.117188 3.25,-3.085938 2.863281,-3.035156 2.472656,-2.984375 2.085938,-2.871094 1.703125,-2.699219 1.257813,-2.484375 0.945313,-2.238281 0.765625,-1.964844 0.582031,-1.683594 0.496094,-1.410156 0.503906,-1.140625 0.511719,-0.816406 0.621094,-0.5625 0.832031,-0.375 1.042969,-0.1875 1.292969,-0.0585938 1.589844,0.015625 1.878906,0.0898438 2.15625,0.128906 2.421875,0.132813 2.816406,0.121094 3.148438,0.0195313 3.417969,-0.179688 3.683594,-0.375 3.878906,-0.617188 3.996094,-0.910156 4.019531,-0.65625 4.109375,-0.433594 4.269531,-0.238281 4.425781,-0.0429688 4.648438,0.0585938 4.933594,0.0703125 5.023438,0.0742188 5.144531,0.0507813 5.296875,-0.0078125 5.449219,-0.0625 5.585938,-0.175781 5.714844,-0.339844 c 0.121094,-0.164062 0.1875,-0.40625 0.199219,-0.726562 z m -2,-0.613282 C 3.90625,-1.300781 3.824219,-0.996094 3.667969,-0.769531 3.511719,-0.539063 3.324219,-0.375 3.109375,-0.277344 2.894531,-0.175781 2.695313,-0.128906 2.507813,-0.132813 2.203125,-0.136719 1.949219,-0.230469 1.746094,-0.417969 1.542969,-0.597656 1.433594,-0.84375 1.425781,-1.152344 1.417969,-1.375 1.488281,-1.617188 1.628906,-1.875 1.769531,-2.132813 2.019531,-2.355469 2.386719,-2.546875 2.746094,-2.734375 3.257813,-2.84375 3.914063,-2.878906 Z m 0,0"
           id="path32" />
      </g>
      <g
         id="use368"
         transform="translate(335.52802,104.04233)">
        <path
           style="stroke:none"
           d="M 3.058594,0 V -0.371094 C 2.667969,-0.355469 2.410156,-0.378906 2.289063,-0.4375 2.164063,-0.492188 2.109375,-0.648438 2.125,-0.910156 v -7.417969 l -1.726562,0.132812 v 0.371094 c 0.40625,-0.00391 0.664062,0.035156 0.78125,0.117188 0.109375,0.085937 0.160156,0.269531 0.152343,0.554687 v 6.242188 c 0.00781,0.261718 -0.046875,0.417968 -0.164062,0.472656 -0.125,0.058594 -0.378906,0.082031 -0.769531,0.066406 V 0 l 1.328125,-0.0351563 z m 0,0"
           id="path50" />
      </g>
      <g
         id="use369"
         transform="translate(338.86401,104.04233)">
        <path
           style="stroke:none"
           d="M 4.980469,-1.429688 C 4.976563,-1.484375 4.957031,-1.519531 4.921875,-1.542969 4.886719,-1.558594 4.851563,-1.570313 4.824219,-1.570313 c -0.054688,0 -0.089844,0.015625 -0.109375,0.046875 -0.023438,0.03125 -0.039063,0.074219 -0.046875,0.121094 C 4.515625,-0.996094 4.320313,-0.707031 4.085938,-0.53125 3.847656,-0.355469 3.628906,-0.25 3.429688,-0.210938 3.222656,-0.171875 3.097656,-0.15625 3.046875,-0.167969 2.742188,-0.171875 2.472656,-0.25 2.246094,-0.402344 2.011719,-0.550781 1.828125,-0.742188 1.691406,-0.972656 1.515625,-1.269531 1.410156,-1.585938 1.375,-1.925781 1.335938,-2.257813 1.320313,-2.539063 1.332031,-2.773438 h 3.347657 c 0.125,0.00781 0.207031,-0.00391 0.246093,-0.03125 0.035157,-0.023437 0.054688,-0.097656 0.054688,-0.21875 0,-0.402343 -0.078125,-0.78125 -0.226563,-1.136718 C 4.601563,-4.515625 4.371094,-4.804688 4.054688,-5.027344 3.738281,-5.25 3.328125,-5.363281 2.832031,-5.375 2.359375,-5.367188 1.9375,-5.242188 1.566406,-5 1.1875,-4.75 0.890625,-4.421875 0.671875,-4.015625 c -0.222656,0.414062 -0.335937,0.871094 -0.335937,1.375 0.003906,0.542969 0.132812,1.019531 0.378906,1.433594 0.242187,0.414062 0.5625,0.742187 0.960937,0.976562 C 2.074219,0.0078125 2.507813,0.125 2.976563,0.132813 3.460938,0.113281 3.847656,-0.00390625 4.144531,-0.222656 4.433594,-0.441406 4.648438,-0.671875 4.785156,-0.921875 4.914063,-1.164063 4.980469,-1.335938 4.980469,-1.429688 Z M 4.1875,-3.023438 H 1.34375 C 1.375,-3.609375 1.484375,-4.054688 1.671875,-4.359375 1.851563,-4.660156 2.054688,-4.863281 2.28125,-4.96875 2.5,-5.070313 2.683594,-5.117188 2.832031,-5.113281 c 0.402344,0.019531 0.703125,0.167968 0.902344,0.441406 0.191406,0.277344 0.320313,0.578125 0.378906,0.902344 0.054688,0.328125 0.078125,0.574218 0.074219,0.746093 z m 0,0"
           id="path46" />
      </g>
      <g
         id="use370"
         transform="translate(344.19202,104.04233)">
        <path
           style="stroke:none"
           d="M 4.320313,-1.535156 C 4.304688,-1.851563 4.238281,-2.101563 4.121094,-2.289063 3.996094,-2.472656 3.894531,-2.601563 3.816406,-2.675781 3.613281,-2.859375 3.398438,-2.992188 3.171875,-3.074219 2.9375,-3.148438 2.699219,-3.207031 2.449219,-3.253906 2.089844,-3.304688 1.757813,-3.398438 1.457031,-3.53125 1.148438,-3.660156 0.988281,-3.894531 0.972656,-4.238281 c -0.011718,-0.21875 0.082032,-0.425782 0.28125,-0.613282 0.199219,-0.1875 0.550782,-0.285156 1.0625,-0.296875 0.429688,0.011719 0.746094,0.109375 0.945313,0.292969 0.195312,0.1875 0.320312,0.394531 0.375,0.617188 0.050781,0.230468 0.078125,0.410156 0.082031,0.542968 0.011719,0.054688 0.039063,0.085938 0.078125,0.09375 0.039063,0.011719 0.058594,0.015625 0.066406,0.011719 C 3.933594,-3.585938 3.980469,-3.605469 4,-3.648438 4.011719,-3.6875 4.019531,-3.761719 4.019531,-3.875 V -5.089844 C 4.019531,-5.1875 4.011719,-5.257813 4,-5.304688 3.984375,-5.347656 3.945313,-5.371094 3.886719,-5.375 c -0.03125,0 -0.058594,0.00391 -0.085938,0.019531 -0.03125,0.015625 -0.082031,0.058594 -0.152343,0.125 C 3.625,-5.203125 3.59375,-5.167969 3.550781,-5.128906 3.503906,-5.085938 3.46875,-5.058594 3.445313,-5.039063 3.207031,-5.199219 2.980469,-5.296875 2.773438,-5.332031 2.5625,-5.367188 2.410156,-5.378906 2.316406,-5.375 c -0.726562,0.023437 -1.230468,0.183594 -1.511718,0.484375 -0.289063,0.308594 -0.421875,0.636719 -0.40625,0.988281 0,0.210938 0.042968,0.402344 0.132812,0.570313 0.089844,0.171875 0.214844,0.324218 0.378906,0.453125 0.175782,0.152343 0.382813,0.261718 0.613282,0.328125 0.226562,0.074218 0.550781,0.148437 0.972656,0.222656 0.097656,0.015625 0.242187,0.054687 0.441406,0.117187 0.191406,0.066407 0.375,0.175782 0.542969,0.328125 0.164062,0.160157 0.25,0.378907 0.265625,0.660157 -0.00391,0.316406 -0.113281,0.574218 -0.332031,0.777343 -0.222657,0.203125 -0.566407,0.308594 -1.027344,0.3125 -0.5,-0.003906 -0.875,-0.160156 -1.125,-0.464843 C 1.003906,-0.902344 0.824219,-1.3125 0.71875,-1.835938 0.699219,-1.90625 0.679688,-1.960938 0.664063,-1.996094 0.640625,-2.023438 0.605469,-2.039063 0.550781,-2.039063 c -0.074218,0 -0.121093,0.023438 -0.136718,0.070313 -0.019532,0.046875 -0.023438,0.125 -0.015625,0.230469 v 1.582031 c -0.003907,0.1054687 0,0.1757813 0.015625,0.21875 0.011718,0.042969 0.050781,0.066406 0.113281,0.070313 0.023437,0 0.050781,-0.011719 0.085937,-0.039063 C 0.644531,0.0664063 0.714844,0 0.828125,-0.105469 0.832031,-0.113281 0.847656,-0.132813 0.875,-0.167969 0.898438,-0.199219 0.964844,-0.269531 1.066406,-0.382813 1.335938,-0.136719 1.589844,0.0078125 1.832031,0.0625 2.070313,0.113281 2.253906,0.136719 2.386719,0.132813 3.066406,0.113281 3.5625,-0.0546875 3.871094,-0.375 4.171875,-0.699219 4.320313,-1.085938 4.320313,-1.535156 Z m 0,0"
           id="path54" />
      </g>
    </g>
    <rect
       style="fill:none;fill-opacity:0.295775;stroke:#000000;stroke-width:0.222201;stroke-dasharray:none"
       id="rect58"
       width="82.069145"
       height="9.2060089"
       x="31.498672"
       y="2.8820381"
       ry="3.1118903" />
    <g
       transform="matrix(0.463767,0,0,0.463767,98.032988,5.67919)"
       ns4:version="1.10.2"
       ns4:texconverter="pdflatex"
       ns4:pdfconverter="inkscape"
       ns4:text="SSKK"
       ns4:preamble="C:\Users\Nanoplasmonics\AppData\Roaming\inkscape\extensions\textext\default_packages.tex"
       ns4:scale="1.3146143351713162"
       ns4:alignment="middle center"
       ns4:stroke-to-path="0"
       ns4:inkscapeversion="1.4.2"
       ns4:jacobian_sqrt="0.463767"
       id="g11">
      <defs
         id="id-db709172-62c9-4287-989b-b7bcbeb85ff0">
        <g
           id="id-eee37e21-2b0b-445a-827c-fdf4312439db">
          <g
             id="id-7657edd5-cccd-4c3a-810c-689de198ebf7">
            <path
               d="m 3.484375,-3.875 -1.28125,-0.296875 c -0.625,-0.15625 -1,-0.6875 -1,-1.265625 0,-0.703125 0.53125,-1.3125 1.3125,-1.3125 1.65625,0 1.875,1.640625 1.9375,2.078125 0.015625,0.0625 0.015625,0.125 0.125,0.125 0.125,0 0.125,-0.046875 0.125,-0.234375 v -2 c 0,-0.171875 0,-0.25 -0.109375,-0.25 -0.0625,0 -0.078125,0.015625 -0.140625,0.140625 l -0.359375,0.5625 C 3.796875,-6.625 3.390625,-7.03125 2.5,-7.03125 c -1.109375,0 -1.9375,0.875 -1.9375,1.9375 0,0.828125 0.53125,1.5625 1.296875,1.828125 0.109375,0.03125 0.625,0.15625 1.328125,0.328125 0.265625,0.0625 0.5625,0.140625 0.84375,0.5 0.203125,0.265625 0.3125,0.59375 0.3125,0.921875 0,0.703125 -0.5,1.421875 -1.34375,1.421875 -0.28125,0 -1.046875,-0.046875 -1.578125,-0.53125 C 0.84375,-1.171875 0.8125,-1.796875 0.8125,-2.15625 0.796875,-2.265625 0.71875,-2.265625 0.6875,-2.265625 c -0.125,0 -0.125,0.078125 -0.125,0.25 v 2 c 0,0.171875 0,0.234375 0.109375,0.234375 0.0625,0 0.078125,-0.015625 0.140625,-0.125 0,-0.015625 0.03125,-0.046875 0.359375,-0.578125 0.3125,0.34375 0.953125,0.703125 1.84375,0.703125 1.15625,0 1.953125,-0.96875 1.953125,-2.078125 0,-0.984375 -0.65625,-1.8125 -1.484375,-2.015625 z m 0,0"
               id="id-64deeab2-420f-491e-b0cf-a7f058b16d63" />
          </g>
          <g
             id="id-8bd09c28-6e23-4ce3-ba9e-6027c45b796a">
            <path
               d="M 3.984375,-4.171875 5.78125,-5.90625 C 5.859375,-5.984375 6.390625,-6.484375 7.203125,-6.5 V -6.8125 C 6.9375,-6.78125 6.625,-6.78125 6.34375,-6.78125 c -0.359375,0 -0.921875,0 -1.265625,-0.03125 V -6.5 c 0.40625,0.015625 0.46875,0.234375 0.46875,0.328125 0,0.15625 -0.109375,0.265625 -0.1875,0.328125 L 2.25,-2.859375 V -6.03125 C 2.25,-6.390625 2.265625,-6.5 3.03125,-6.5 h 0.234375 v -0.3125 c -0.34375,0.03125 -1.078125,0.03125 -1.46875,0.03125 -0.375,0 -1.125,0 -1.46875,-0.03125 V -6.5 H 0.5625 c 0.765625,0 0.796875,0.109375 0.796875,0.46875 v 5.25 c 0,0.359375 -0.03125,0.46875 -0.796875,0.46875 H 0.328125 V 0 c 0.34375,-0.03125 1.09375,-0.03125 1.46875,-0.03125 0.375,0 1.125,0 1.46875,0.03125 V -0.3125 H 3.03125 C 2.265625,-0.3125 2.25,-0.421875 2.25,-0.78125 V -2.515625 L 3.40625,-3.625 5.203125,-0.953125 c 0.0625,0.09375 0.15625,0.21875 0.15625,0.34375 0,0.296875 -0.390625,0.296875 -0.59375,0.296875 V 0 C 5.109375,-0.03125 5.8125,-0.03125 6.1875,-0.03125 c 0.359375,0 0.734375,0.015625 1.15625,0.03125 v -0.3125 c -0.546875,0 -0.75,-0.03125 -1.046875,-0.46875 z m 0,0"
               id="id-dc23767d-8257-4dbf-818a-3cc20a7206b0" />
          </g>
        </g>
      </defs>
      <g
         fill="#000000"
         fill-opacity="1"
         id="id-c6a5ea5e-54bb-41c0-94d6-f32d6fb0237e"
         transform="translate(-149.275,-127.734)">
        <g
           transform="translate(148.712,134.765)"
           id="g7">
          <path
             d="m 3.484375,-3.875 -1.28125,-0.296875 c -0.625,-0.15625 -1,-0.6875 -1,-1.265625 0,-0.703125 0.53125,-1.3125 1.3125,-1.3125 1.65625,0 1.875,1.640625 1.9375,2.078125 0.015625,0.0625 0.015625,0.125 0.125,0.125 0.125,0 0.125,-0.046875 0.125,-0.234375 v -2 c 0,-0.171875 0,-0.25 -0.109375,-0.25 -0.0625,0 -0.078125,0.015625 -0.140625,0.140625 l -0.359375,0.5625 C 3.796875,-6.625 3.390625,-7.03125 2.5,-7.03125 c -1.109375,0 -1.9375,0.875 -1.9375,1.9375 0,0.828125 0.53125,1.5625 1.296875,1.828125 0.109375,0.03125 0.625,0.15625 1.328125,0.328125 0.265625,0.0625 0.5625,0.140625 0.84375,0.5 0.203125,0.265625 0.3125,0.59375 0.3125,0.921875 0,0.703125 -0.5,1.421875 -1.34375,1.421875 -0.28125,0 -1.046875,-0.046875 -1.578125,-0.53125 C 0.84375,-1.171875 0.8125,-1.796875 0.8125,-2.15625 0.796875,-2.265625 0.71875,-2.265625 0.6875,-2.265625 c -0.125,0 -0.125,0.078125 -0.125,0.25 v 2 c 0,0.171875 0,0.234375 0.109375,0.234375 0.0625,0 0.078125,-0.015625 0.140625,-0.125 0,-0.015625 0.03125,-0.046875 0.359375,-0.578125 0.3125,0.34375 0.953125,0.703125 1.84375,0.703125 1.15625,0 1.953125,-0.96875 1.953125,-2.078125 0,-0.984375 -0.65625,-1.8125 -1.484375,-2.015625 z m 0,0"
             id="id-4b1c59e8-331a-409f-b380-14ae9c59c9f6" />
        </g>
        <g
           transform="translate(154.247,134.765)"
           id="g8">
          <path
             d="m 3.484375,-3.875 -1.28125,-0.296875 c -0.625,-0.15625 -1,-0.6875 -1,-1.265625 0,-0.703125 0.53125,-1.3125 1.3125,-1.3125 1.65625,0 1.875,1.640625 1.9375,2.078125 0.015625,0.0625 0.015625,0.125 0.125,0.125 0.125,0 0.125,-0.046875 0.125,-0.234375 v -2 c 0,-0.171875 0,-0.25 -0.109375,-0.25 -0.0625,0 -0.078125,0.015625 -0.140625,0.140625 l -0.359375,0.5625 C 3.796875,-6.625 3.390625,-7.03125 2.5,-7.03125 c -1.109375,0 -1.9375,0.875 -1.9375,1.9375 0,0.828125 0.53125,1.5625 1.296875,1.828125 0.109375,0.03125 0.625,0.15625 1.328125,0.328125 0.265625,0.0625 0.5625,0.140625 0.84375,0.5 0.203125,0.265625 0.3125,0.59375 0.3125,0.921875 0,0.703125 -0.5,1.421875 -1.34375,1.421875 -0.28125,0 -1.046875,-0.046875 -1.578125,-0.53125 C 0.84375,-1.171875 0.8125,-1.796875 0.8125,-2.15625 0.796875,-2.265625 0.71875,-2.265625 0.6875,-2.265625 c -0.125,0 -0.125,0.078125 -0.125,0.25 v 2 c 0,0.171875 0,0.234375 0.109375,0.234375 0.0625,0 0.078125,-0.015625 0.140625,-0.125 0,-0.015625 0.03125,-0.046875 0.359375,-0.578125 0.3125,0.34375 0.953125,0.703125 1.84375,0.703125 1.15625,0 1.953125,-0.96875 1.953125,-2.078125 0,-0.984375 -0.65625,-1.8125 -1.484375,-2.015625 z m 0,0"
             id="id-150e2afa-7efb-48b1-9ea7-c46c598616db" />
        </g>
        <g
           transform="translate(159.782,134.765)"
           id="g9">
          <path
             d="M 3.984375,-4.171875 5.78125,-5.90625 C 5.859375,-5.984375 6.390625,-6.484375 7.203125,-6.5 V -6.8125 C 6.9375,-6.78125 6.625,-6.78125 6.34375,-6.78125 c -0.359375,0 -0.921875,0 -1.265625,-0.03125 V -6.5 c 0.40625,0.015625 0.46875,0.234375 0.46875,0.328125 0,0.15625 -0.109375,0.265625 -0.1875,0.328125 L 2.25,-2.859375 V -6.03125 C 2.25,-6.390625 2.265625,-6.5 3.03125,-6.5 h 0.234375 v -0.3125 c -0.34375,0.03125 -1.078125,0.03125 -1.46875,0.03125 -0.375,0 -1.125,0 -1.46875,-0.03125 V -6.5 H 0.5625 c 0.765625,0 0.796875,0.109375 0.796875,0.46875 v 5.25 c 0,0.359375 -0.03125,0.46875 -0.796875,0.46875 H 0.328125 V 0 c 0.34375,-0.03125 1.09375,-0.03125 1.46875,-0.03125 0.375,0 1.125,0 1.46875,0.03125 V -0.3125 H 3.03125 C 2.265625,-0.3125 2.25,-0.421875 2.25,-0.78125 V -2.515625 L 3.40625,-3.625 5.203125,-0.953125 c 0.0625,0.09375 0.15625,0.21875 0.15625,0.34375 0,0.296875 -0.390625,0.296875 -0.59375,0.296875 V 0 C 5.109375,-0.03125 5.8125,-0.03125 6.1875,-0.03125 c 0.359375,0 0.734375,0.015625 1.15625,0.03125 v -0.3125 c -0.546875,0 -0.75,-0.03125 -1.046875,-0.46875 z m 0,0"
             id="id-765d965b-d3ef-4dd4-90fb-132556b5cbf5" />
        </g>
        <g
           transform="translate(167.531,134.765)"
           id="g10">
          <path
             d="M 3.984375,-4.171875 5.78125,-5.90625 C 5.859375,-5.984375 6.390625,-6.484375 7.203125,-6.5 V -6.8125 C 6.9375,-6.78125 6.625,-6.78125 6.34375,-6.78125 c -0.359375,0 -0.921875,0 -1.265625,-0.03125 V -6.5 c 0.40625,0.015625 0.46875,0.234375 0.46875,0.328125 0,0.15625 -0.109375,0.265625 -0.1875,0.328125 L 2.25,-2.859375 V -6.03125 C 2.25,-6.390625 2.265625,-6.5 3.03125,-6.5 h 0.234375 v -0.3125 c -0.34375,0.03125 -1.078125,0.03125 -1.46875,0.03125 -0.375,0 -1.125,0 -1.46875,-0.03125 V -6.5 H 0.5625 c 0.765625,0 0.796875,0.109375 0.796875,0.46875 v 5.25 c 0,0.359375 -0.03125,0.46875 -0.796875,0.46875 H 0.328125 V 0 c 0.34375,-0.03125 1.09375,-0.03125 1.46875,-0.03125 0.375,0 1.125,0 1.46875,0.03125 V -0.3125 H 3.03125 C 2.265625,-0.3125 2.25,-0.421875 2.25,-0.78125 V -2.515625 L 3.40625,-3.625 5.203125,-0.953125 c 0.0625,0.09375 0.15625,0.21875 0.15625,0.34375 0,0.296875 -0.390625,0.296875 -0.59375,0.296875 V 0 C 5.109375,-0.03125 5.8125,-0.03125 6.1875,-0.03125 c 0.359375,0 0.734375,0.015625 1.15625,0.03125 v -0.3125 c -0.546875,0 -0.75,-0.03125 -1.046875,-0.46875 z m 0,0"
             id="id-d283d1a1-d388-43ab-9e6e-304e0959fcca" />
        </g>
      </g>
    </g>
  </g>
</svg>
