<?xml version="1.0" encoding="UTF-8"?>
<svg xmlns="http://www.w3.org/2000/svg" xmlns:xlink="http://www.w3.org/1999/xlink" width="360pt" height="120pt" viewBox="0 0 360 120" version="1.1">
<g id="surface1">
<path style="fill:none;stroke-width:1.6;stroke-linecap:square;stroke-linejoin:miter;stroke:rgb(0%,0%,0%);stroke-opacity:1;stroke-miterlimit:3.25;" d="M 14.765625 59.328125 L 14.789063 58.421875 L 14.902344 56.4375 L 15.019531 55.21875 L 15.132813 54.253906 L 15.246094 53.429688 L 15.363281 52.699219 L 15.476563 52.039063 L 15.59375 51.429688 L 15.820313 50.324219 L 15.9375 49.820313 L 16.050781 49.339844 L 16.28125 48.441406 L 16.742188 46.835938 L 16.855469 46.464844 L 16.972656 46.105469 L 17.199219 45.414063 L 17.660156 44.132813 L 17.777344 43.828125 L 17.890625 43.53125 L 18.121094 42.953125 L 18.582031 41.859375 L 19.5 39.867188 L 19.613281 39.636719 L 19.730469 39.40625 L 19.960938 38.953125 L 20.417969 38.085938 L 21.339844 36.464844 L 21.550781 36.105469 L 21.765625 35.75 L 22.195313 35.066406 L 23.054688 33.761719 L 24.769531 31.382813 L 24.878906 31.242188 L 24.984375 31.105469 L 25.199219 30.832031 L 25.628906 30.292969 L 26.488281 29.257813 L 28.203125 27.328125 L 28.308594 27.21875 L 28.414063 27.105469 L 28.625 26.882813 L 29.046875 26.449219 L 29.886719 25.601563 L 31.570313 24.011719 L 31.992188 23.636719 L 32.414063 23.265625 L 33.253906 22.542969 L 34.9375 21.179688 L 35.164063 21 L 35.394531 20.824219 L 35.851563 20.480469 L 36.761719 19.804688 L 38.589844 18.53125 L 38.703125 18.457031 L 38.816406 18.378906 L 39.042969 18.230469 L 39.5 17.929688 L 40.414063 17.351563 L 42.238281 16.25 L 42.347656 16.191406 L 42.453125 16.128906 L 42.664063 16.007813 L 43.089844 15.765625 L 43.945313 15.296875 L 45.648438 14.402344 L 45.753906 14.347656 L 45.859375 14.296875 L 46.074219 14.1875 L 46.5 13.980469 L 47.351563 13.570313 L 49.054688 12.789063 L 49.171875 12.738281 L 49.285156 12.6875 L 49.515625 12.589844 L 49.980469 12.390625 L 50.902344 12.003906 L 52.75 11.28125 L 52.863281 11.234375 L 52.980469 11.191406 L 53.210938 11.105469 L 53.671875 10.9375 L 54.59375 10.609375 L 56.441406 9.992188 L 56.554688 9.957031 L 56.667969 9.917969 L 57.347656 9.707031 L 58.253906 9.4375 L 60.066406 8.925781 L 60.179688 8.894531 L 60.292969 8.867188 L 60.519531 8.804688 L 60.972656 8.6875 L 61.878906 8.460938 L 63.691406 8.042969 L 63.902344 7.996094 L 64.117188 7.949219 L 64.539063 7.863281 L 65.382813 7.6875 L 65.59375 7.648438 L 65.804688 7.605469 L 66.230469 7.527344 L 67.179688 7.351563 L 67.285156 7.335938 L 67.496094 7.296875 L 67.921875 7.226563 L 68.765625 7.089844 L 70.457031 6.839844 L 70.570313 6.824219 L 70.6875 6.8125 L 70.914063 6.78125 L 71.375 6.722656 L 72.289063 6.609375 L 72.40625 6.597656 L 72.519531 6.585938 L 72.75 6.558594 L 73.207031 6.507813 L 74.125 6.417969 L 74.351563 6.394531 L 74.582031 6.375 L 75.039063 6.335938 L 75.15625 6.324219 L 75.269531 6.316406 L 75.5 6.296875 L 75.957031 6.261719 L 76.074219 6.253906 L 76.1875 6.246094 L 76.417969 6.230469 L 76.875 6.199219 L 77.792969 6.144531 L 77.898438 6.136719 L 78.003906 6.132813 L 78.21875 6.121094 L 78.648438 6.101563 L 78.753906 6.09375 L 78.859375 6.089844 L 79.503906 6.066406 L 79.609375 6.0625 L 79.71875 6.058594 L 79.929688 6.050781 L 80.039063 6.046875 L 80.144531 6.042969 L 80.359375 6.039063 L 80.464844 6.035156 L 80.574219 6.03125 L 80.785156 6.027344 L 80.894531 6.023438 L 81 6.023438 L 81.214844 6.015625 L 81.320313 6.015625 L 81.429688 6.011719 L 81.644531 6.011719 L 81.75 6.007813 L 81.964844 6.007813 L 82.070313 6.003906 L 82.390625 6.003906 L 82.5 6 L 83.570313 6 L 83.675781 6.003906 L 84.105469 6.003906 L 84.210938 6.007813 L 84.425781 6.007813 L 84.636719 6.011719 L 84.742188 6.015625 L 84.847656 6.015625 L 85.058594 6.019531 L 85.164063 6.023438 L 85.269531 6.023438 L 85.476563 6.03125 L 85.582031 6.03125 L 85.6875 6.035156 L 85.898438 6.039063 L 86.316406 6.054688 L 86.527344 6.0625 L 86.734375 6.070313 L 87.367188 6.09375 L 87.574219 6.101563 L 87.996094 6.121094 L 88.101563 6.128906 L 88.203125 6.132813 L 88.414063 6.144531 L 88.832031 6.167969 L 88.9375 6.171875 L 89.042969 6.179688 L 89.253906 6.191406 L 89.671875 6.21875 L 89.882813 6.234375 L 90.09375 6.246094 L 90.511719 6.277344 L 91.351563 6.34375 L 91.464844 6.351563 L 91.578125 6.363281 L 91.804688 6.378906 L 92.261719 6.421875 L 93.171875 6.507813 L 93.398438 6.53125 L 93.628906 6.554688 L 94.082031 6.601563 L 94.992188 6.703125 L 95.105469 6.714844 L 95.21875 6.730469 L 95.449219 6.757813 L 95.902344 6.8125 L 96.8125 6.929688 L 98.632813 7.1875 L 98.742188 7.203125 L 99.058594 7.25 L 99.484375 7.316406 L 100.332031 7.453125 L 102.03125 7.746094 L 102.136719 7.761719 L 102.246094 7.78125 L 102.457031 7.820313 L 102.882813 7.898438 L 103.730469 8.0625 L 105.429688 8.40625 L 105.546875 8.429688 L 105.660156 8.453125 L 105.890625 8.503906 L 106.351563 8.601563 L 107.273438 8.804688 L 109.113281 9.234375 L 112.796875 10.175781 L 113.023438 10.238281 L 113.25 10.296875 L 113.699219 10.421875 L 114.605469 10.675781 L 116.414063 11.207031 L 120.027344 12.335938 L 126.773438 14.699219 L 134.085938 17.582031 L 140.914063 20.503906 L 148.3125 23.789063 L 155.578125 26.949219 L 155.789063 27.035156 L 156 27.125 L 156.425781 27.300781 L 157.269531 27.648438 L 158.964844 28.324219 L 159.070313 28.367188 L 159.175781 28.40625 L 159.386719 28.492188 L 159.8125 28.652344 L 160.660156 28.976563 L 162.351563 29.59375 L 162.46875 29.636719 L 162.582031 29.675781 L 162.8125 29.757813 L 163.269531 29.917969 L 164.191406 30.226563 L 166.027344 30.808594 L 166.140625 30.84375 L 166.257813 30.878906 L 166.484375 30.945313 L 166.945313 31.078125 L 167.863281 31.335938 L 169.699219 31.804688 L 169.808594 31.828125 L 169.914063 31.851563 L 170.128906 31.902344 L 170.558594 32 L 171.414063 32.179688 L 171.523438 32.199219 L 171.628906 32.222656 L 171.84375 32.265625 L 172.273438 32.34375 L 173.128906 32.496094 L 173.238281 32.511719 L 173.34375 32.527344 L 173.558594 32.5625 L 173.988281 32.628906 L 174.09375 32.640625 L 174.203125 32.65625 L 174.414063 32.6875 L 174.84375 32.742188 L 174.953125 32.757813 L 175.058594 32.769531 L 175.273438 32.792969 L 175.703125 32.84375 L 175.808594 32.851563 L 175.917969 32.863281 L 176.128906 32.886719 L 176.558594 32.921875 L 176.664063 32.933594 L 177.191406 32.972656 L 177.398438 32.984375 L 177.609375 33 L 177.820313 33.011719 L 177.925781 33.015625 L 178.03125 33.023438 L 178.242188 33.03125 L 178.34375 33.035156 L 178.976563 33.058594 L 179.082031 33.058594 L 179.1875 33.0625 L 179.292969 33.0625 L 179.394531 33.066406 L 179.605469 33.066406 L 179.710938 33.070313 L 180.238281 33.070313 L 180.34375 33.066406 L 180.550781 33.066406 L 180.65625 33.0625 L 180.761719 33.0625 L 180.867188 33.058594 L 180.972656 33.058594 L 181.183594 33.050781 L 181.289063 33.050781 L 181.390625 33.046875 L 181.707031 33.035156 L 181.8125 33.027344 L 182.023438 33.019531 L 182.128906 33.011719 L 182.234375 33.007813 L 182.441406 32.996094 L 182.546875 32.988281 L 182.652344 32.984375 L 183.285156 32.9375 L 183.398438 32.925781 L 183.511719 32.917969 L 183.738281 32.898438 L 184.195313 32.851563 L 184.421875 32.828125 L 184.652344 32.804688 L 185.109375 32.75 L 185.335938 32.71875 L 185.5625 32.691406 L 186.019531 32.625 L 186.929688 32.484375 L 187.046875 32.464844 L 187.386719 32.40625 L 187.84375 32.324219 L 188.753906 32.144531 L 188.871094 32.121094 L 189.210938 32.050781 L 189.667969 31.949219 L 190.578125 31.734375 L 190.6875 31.710938 L 190.792969 31.683594 L 191.003906 31.632813 L 191.429688 31.523438 L 192.28125 31.296875 L 193.984375 30.804688 L 194.195313 30.742188 L 194.410156 30.675781 L 194.835938 30.542969 L 195.683594 30.265625 L 197.386719 29.6875 L 197.503906 29.644531 L 197.617188 29.605469 L 197.847656 29.523438 L 198.308594 29.355469 L 199.230469 29.015625 L 201.078125 28.308594 L 204.765625 26.804688 L 212.007813 23.644531 L 218.765625 20.644531 L 226.09375 17.507813 L 232.933594 14.808594 L 239.636719 12.445313 L 239.75 12.410156 L 239.867188 12.371094 L 240.09375 12.296875 L 240.546875 12.152344 L 241.457031 11.859375 L 243.277344 11.300781 L 246.914063 10.253906 L 247.019531 10.226563 L 247.125 10.195313 L 247.335938 10.140625 L 247.761719 10.023438 L 248.609375 9.800781 L 250.308594 9.375 L 250.414063 9.347656 L 250.519531 9.324219 L 250.730469 9.269531 L 251.15625 9.167969 L 252.003906 8.96875 L 253.703125 8.589844 L 253.816406 8.566406 L 253.933594 8.539063 L 254.160156 8.492188 L 254.621094 8.394531 L 255.542969 8.207031 L 257.382813 7.851563 L 257.496094 7.832031 L 257.609375 7.808594 L 257.839844 7.765625 L 258.300781 7.683594 L 259.222656 7.527344 L 261.0625 7.230469 L 261.167969 7.214844 L 261.277344 7.199219 L 261.492188 7.167969 L 261.917969 7.105469 L 262.777344 6.984375 L 262.886719 6.96875 L 262.992188 6.953125 L 264.496094 6.761719 L 264.605469 6.75 L 264.710938 6.738281 L 264.925781 6.710938 L 266.214844 6.570313 L 266.320313 6.558594 L 266.429688 6.546875 L 266.644531 6.523438 L 267.074219 6.484375 L 267.933594 6.402344 L 268.144531 6.386719 L 268.351563 6.367188 L 268.773438 6.332031 L 270.039063 6.238281 L 270.457031 6.210938 L 271.300781 6.160156 L 271.40625 6.152344 L 271.511719 6.148438 L 271.722656 6.136719 L 272.144531 6.117188 L 272.25 6.109375 L 272.351563 6.105469 L 272.5625 6.097656 L 272.984375 6.078125 L 273.617188 6.054688 L 273.828125 6.050781 L 274.25 6.035156 L 274.351563 6.035156 L 274.457031 6.03125 L 274.667969 6.027344 L 274.785156 6.023438 L 274.898438 6.019531 L 275.011719 6.019531 L 275.125 6.015625 L 275.238281 6.015625 L 275.355469 6.011719 L 275.582031 6.007813 L 275.8125 6.007813 L 275.925781 6.003906 L 276.269531 6.003906 L 276.382813 6 L 277.523438 6 L 277.636719 6.003906 L 277.980469 6.003906 L 278.09375 6.007813 L 278.324219 6.007813 L 278.4375 6.011719 L 278.550781 6.011719 L 278.664063 6.015625 L 278.78125 6.015625 L 279.007813 6.023438 L 279.238281 6.027344 L 279.351563 6.03125 L 279.464844 6.03125 L 279.691406 6.039063 L 280.148438 6.050781 L 280.265625 6.054688 L 280.378906 6.058594 L 280.605469 6.070313 L 281.0625 6.085938 L 281.175781 6.09375 L 281.292969 6.097656 L 281.519531 6.109375 L 281.976563 6.128906 L 282.082031 6.136719 L 282.191406 6.140625 L 282.402344 6.152344 L 282.828125 6.179688 L 282.9375 6.1875 L 283.042969 6.191406 L 283.253906 6.207031 L 283.683594 6.234375 L 283.894531 6.25 L 284.109375 6.265625 L 285.386719 6.371094 L 285.492188 6.382813 L 285.601563 6.390625 L 285.8125 6.410156 L 287.089844 6.539063 L 287.199219 6.550781 L 287.304688 6.5625 L 287.519531 6.589844 L 287.945313 6.636719 L 288.796875 6.742188 L 288.914063 6.757813 L 289.027344 6.773438 L 289.71875 6.867188 L 290.644531 7 L 290.761719 7.015625 L 290.875 7.035156 L 291.105469 7.070313 L 291.566406 7.144531 L 292.492188 7.296875 L 292.609375 7.316406 L 292.722656 7.335938 L 292.953125 7.378906 L 293.414063 7.460938 L 294.339844 7.636719 L 296.1875 8.015625 L 296.300781 8.042969 L 296.414063 8.066406 L 297.09375 8.21875 L 298 8.433594 L 299.816406 8.894531 L 300.042969 8.957031 L 300.269531 9.015625 L 300.722656 9.140625 L 301.628906 9.402344 L 303.445313 9.957031 L 303.550781 9.988281 L 303.65625 10.023438 L 303.867188 10.089844 L 304.289063 10.230469 L 305.136719 10.515625 L 306.828125 11.121094 L 307.25 11.277344 L 307.675781 11.441406 L 308.519531 11.773438 L 310.210938 12.472656 L 310.328125 12.519531 L 310.441406 12.570313 L 310.671875 12.667969 L 311.128906 12.871094 L 312.046875 13.289063 L 313.882813 14.167969 L 313.996094 14.222656 L 314.109375 14.28125 L 314.800781 14.632813 L 315.714844 15.113281 L 317.550781 16.132813 L 317.660156 16.191406 L 317.765625 16.253906 L 317.980469 16.378906 L 318.40625 16.632813 L 319.265625 17.152344 L 320.976563 18.242188 L 321.085938 18.3125 L 321.191406 18.386719 L 321.40625 18.527344 L 321.832031 18.816406 L 322.691406 19.414063 L 324.402344 20.671875 L 324.507813 20.75 L 324.613281 20.832031 L 324.824219 20.992188 L 325.242188 21.320313 L 326.082031 21.992188 L 327.761719 23.417969 L 327.867188 23.507813 L 328.183594 23.789063 L 328.601563 24.171875 L 329.441406 24.953125 L 331.121094 26.621094 L 331.347656 26.855469 L 331.574219 27.097656 L 332.03125 27.585938 L 332.941406 28.597656 L 333.054688 28.726563 L 333.171875 28.859375 L 333.398438 29.121094 L 333.851563 29.660156 L 334.765625 30.785156 L 334.878906 30.929688 L 334.992188 31.078125 L 335.21875 31.371094 L 335.675781 31.976563 L 336.585938 33.238281 L 338.410156 36.039063 L 338.515625 36.214844 L 338.832031 36.753906 L 339.257813 37.5 L 340.109375 39.085938 L 340.214844 39.292969 L 340.535156 39.933594 L 340.957031 40.828125 L 341.808594 42.777344 L 341.914063 43.039063 L 342.019531 43.304688 L 342.234375 43.851563 L 342.660156 45.011719 L 342.765625 45.316406 L 342.871094 45.628906 L 343.082031 46.277344 L 343.507813 47.679688 L 343.613281 48.058594 L 343.722656 48.453125 L 343.933594 49.28125 L 344.039063 49.722656 L 344.144531 50.183594 L 344.359375 51.179688 L 344.464844 51.726563 L 344.570313 52.3125 L 344.675781 52.945313 L 344.785156 53.644531 L 344.890625 54.429688 L 344.996094 55.347656 L 345.101563 56.503906 L 345.207031 58.332031 L 345.238281 59.613281 "/>
<path style="fill:none;stroke-width:1.6;stroke-linecap:square;stroke-linejoin:miter;stroke:rgb(0%,0%,0%);stroke-opacity:1;stroke-miterlimit:3.25;" d="M 14.765625 60.671875 L 14.789063 61.578125 L 14.902344 63.5625 L 15.019531 64.78125 L 15.132813 65.746094 L 15.246094 66.570313 L 15.363281 67.300781 L 15.476563 67.960938 L 15.59375 68.570313 L 15.820313 69.675781 L 15.9375 70.179688 L 16.050781 70.660156 L 16.28125 71.558594 L 16.742188 73.164063 L 16.855469 73.535156 L 16.972656 73.894531 L 17.199219 74.585938 L 17.660156 75.867188 L 17.777344 76.171875 L 17.890625 76.46875 L 18.121094 77.046875 L 18.582031 78.140625 L 19.5 80.132813 L 19.613281 80.363281 L 19.730469 80.59375 L 19.960938 81.046875 L 20.417969 81.914063 L 21.339844 83.535156 L 21.550781 83.894531 L 21.765625 84.25 L 22.195313 84.933594 L 23.054688 86.238281 L 24.769531 88.617188 L 24.878906 88.757813 L 24.984375 88.894531 L 25.199219 89.167969 L 25.628906 89.707031 L 26.488281 90.742188 L 28.203125 92.671875 L 28.308594 92.78125 L 28.414063 92.894531 L 28.625 93.117188 L 29.046875 93.550781 L 29.886719 94.398438 L 31.570313 95.988281 L 31.992188 96.363281 L 32.414063 96.734375 L 33.253906 97.457031 L 34.9375 98.820313 L 35.164063 99 L 35.394531 99.175781 L 35.851563 99.519531 L 36.761719 100.195313 L 38.589844 101.46875 L 38.703125 101.542969 L 38.816406 101.621094 L 39.042969 101.769531 L 39.5 102.070313 L 40.414063 102.648438 L 42.238281 103.75 L 42.347656 103.808594 L 42.453125 103.871094 L 42.664063 103.992188 L 43.089844 104.234375 L 43.945313 104.703125 L 45.648438 105.597656 L 45.753906 105.652344 L 45.859375 105.703125 L 46.074219 105.8125 L 46.5 106.019531 L 47.351563 106.429688 L 49.054688 107.210938 L 49.171875 107.261719 L 49.285156 107.3125 L 49.515625 107.410156 L 49.980469 107.609375 L 50.902344 107.996094 L 52.75 108.71875 L 52.863281 108.765625 L 52.980469 108.808594 L 53.210938 108.894531 L 53.671875 109.0625 L 54.59375 109.390625 L 56.441406 110.007813 L 56.554688 110.042969 L 56.667969 110.082031 L 57.347656 110.292969 L 58.253906 110.5625 L 60.066406 111.074219 L 60.179688 111.105469 L 60.292969 111.132813 L 60.519531 111.195313 L 60.972656 111.3125 L 61.878906 111.539063 L 63.691406 111.957031 L 63.902344 112.003906 L 64.117188 112.050781 L 64.539063 112.136719 L 65.382813 112.3125 L 65.59375 112.351563 L 65.804688 112.394531 L 66.230469 112.472656 L 67.179688 112.648438 L 67.285156 112.664063 L 67.496094 112.703125 L 67.921875 112.773438 L 68.765625 112.910156 L 70.457031 113.160156 L 70.570313 113.175781 L 70.6875 113.1875 L 70.914063 113.21875 L 71.375 113.277344 L 72.289063 113.390625 L 72.40625 113.402344 L 72.519531 113.414063 L 72.75 113.441406 L 73.207031 113.492188 L 74.125 113.582031 L 74.351563 113.605469 L 74.582031 113.625 L 75.039063 113.664063 L 75.15625 113.675781 L 75.269531 113.683594 L 75.5 113.703125 L 75.957031 113.738281 L 76.074219 113.746094 L 76.1875 113.753906 L 76.417969 113.769531 L 76.875 113.800781 L 77.792969 113.855469 L 77.898438 113.863281 L 78.003906 113.867188 L 78.21875 113.878906 L 78.648438 113.898438 L 78.753906 113.90625 L 78.859375 113.910156 L 79.503906 113.933594 L 79.609375 113.9375 L 79.71875 113.941406 L 79.929688 113.949219 L 80.039063 113.953125 L 80.144531 113.957031 L 80.359375 113.960938 L 80.464844 113.964844 L 80.574219 113.96875 L 80.785156 113.972656 L 80.894531 113.976563 L 81 113.976563 L 81.214844 113.984375 L 81.320313 113.984375 L 81.429688 113.988281 L 81.644531 113.988281 L 81.75 113.992188 L 81.964844 113.992188 L 82.070313 113.996094 L 82.390625 113.996094 L 82.5 114 L 83.570313 114 L 83.675781 113.996094 L 84.105469 113.996094 L 84.210938 113.992188 L 84.425781 113.992188 L 84.636719 113.988281 L 84.742188 113.984375 L 84.847656 113.984375 L 85.058594 113.980469 L 85.164063 113.976563 L 85.269531 113.976563 L 85.476563 113.96875 L 85.582031 113.96875 L 85.6875 113.964844 L 85.898438 113.960938 L 86.316406 113.945313 L 86.527344 113.9375 L 86.734375 113.929688 L 87.367188 113.90625 L 87.574219 113.898438 L 87.996094 113.878906 L 88.101563 113.871094 L 88.203125 113.867188 L 88.414063 113.855469 L 88.832031 113.832031 L 88.9375 113.828125 L 89.042969 113.820313 L 89.253906 113.808594 L 89.671875 113.78125 L 89.882813 113.765625 L 90.09375 113.753906 L 90.511719 113.722656 L 91.351563 113.65625 L 91.464844 113.648438 L 91.578125 113.636719 L 91.804688 113.621094 L 92.261719 113.578125 L 93.171875 113.492188 L 93.398438 113.46875 L 93.628906 113.445313 L 94.082031 113.398438 L 94.992188 113.296875 L 95.105469 113.285156 L 95.21875 113.269531 L 95.449219 113.242188 L 95.902344 113.1875 L 96.8125 113.070313 L 98.632813 112.8125 L 98.742188 112.796875 L 99.058594 112.75 L 99.484375 112.683594 L 100.332031 112.546875 L 102.03125 112.253906 L 102.136719 112.238281 L 102.246094 112.21875 L 102.457031 112.179688 L 102.882813 112.101563 L 103.730469 111.9375 L 105.429688 111.59375 L 105.546875 111.570313 L 105.660156 111.546875 L 105.890625 111.496094 L 106.351563 111.398438 L 107.273438 111.195313 L 109.113281 110.765625 L 112.796875 109.824219 L 113.023438 109.761719 L 113.25 109.703125 L 113.699219 109.578125 L 114.605469 109.324219 L 116.414063 108.792969 L 120.027344 107.664063 L 126.773438 105.300781 L 134.085938 102.417969 L 140.914063 99.496094 L 148.3125 96.210938 L 155.578125 93.050781 L 155.789063 92.964844 L 156 92.875 L 156.425781 92.699219 L 157.269531 92.351563 L 158.964844 91.675781 L 159.070313 91.632813 L 159.175781 91.59375 L 159.386719 91.507813 L 159.8125 91.347656 L 160.660156 91.023438 L 162.351563 90.40625 L 162.46875 90.363281 L 162.582031 90.324219 L 162.8125 90.242188 L 163.269531 90.082031 L 164.191406 89.773438 L 166.027344 89.191406 L 166.140625 89.15625 L 166.257813 89.121094 L 166.484375 89.054688 L 166.945313 88.921875 L 167.863281 88.664063 L 169.699219 88.195313 L 169.808594 88.171875 L 169.914063 88.148438 L 170.128906 88.097656 L 170.558594 88 L 171.414063 87.820313 L 171.523438 87.800781 L 171.628906 87.777344 L 171.84375 87.734375 L 172.273438 87.65625 L 173.128906 87.503906 L 173.238281 87.488281 L 173.34375 87.472656 L 173.558594 87.4375 L 173.988281 87.371094 L 174.09375 87.359375 L 174.203125 87.34375 L 174.414063 87.3125 L 174.84375 87.257813 L 174.953125 87.242188 L 175.058594 87.230469 L 175.273438 87.207031 L 175.703125 87.15625 L 175.808594 87.148438 L 175.917969 87.136719 L 176.128906 87.113281 L 176.558594 87.078125 L 176.664063 87.066406 L 177.191406 87.027344 L 177.398438 87.015625 L 177.609375 87 L 177.820313 86.988281 L 177.925781 86.984375 L 178.03125 86.976563 L 178.242188 86.96875 L 178.34375 86.964844 L 178.976563 86.941406 L 179.082031 86.941406 L 179.1875 86.9375 L 179.292969 86.9375 L 179.394531 86.933594 L 179.605469 86.933594 L 179.710938 86.929688 L 180.238281 86.929688 L 180.34375 86.933594 L 180.550781 86.933594 L 180.65625 86.9375 L 180.761719 86.9375 L 180.867188 86.941406 L 180.972656 86.941406 L 181.183594 86.949219 L 181.289063 86.949219 L 181.390625 86.953125 L 181.707031 86.964844 L 181.8125 86.972656 L 182.023438 86.980469 L 182.128906 86.988281 L 182.234375 86.992188 L 182.441406 87.003906 L 182.546875 87.011719 L 182.652344 87.015625 L 183.285156 87.0625 L 183.398438 87.074219 L 183.511719 87.082031 L 183.738281 87.101563 L 184.195313 87.148438 L 184.421875 87.171875 L 184.652344 87.195313 L 185.109375 87.25 L 185.335938 87.28125 L 185.5625 87.308594 L 186.019531 87.375 L 186.929688 87.515625 L 187.046875 87.535156 L 187.386719 87.59375 L 187.84375 87.675781 L 188.753906 87.855469 L 188.871094 87.878906 L 189.210938 87.949219 L 189.667969 88.050781 L 190.578125 88.265625 L 190.6875 88.289063 L 190.792969 88.316406 L 191.003906 88.367188 L 191.429688 88.476563 L 192.28125 88.703125 L 193.984375 89.195313 L 194.195313 89.257813 L 194.410156 89.324219 L 194.835938 89.457031 L 195.683594 89.734375 L 197.386719 90.3125 L 197.503906 90.355469 L 197.617188 90.394531 L 197.847656 90.476563 L 198.308594 90.644531 L 199.230469 90.984375 L 201.078125 91.691406 L 204.765625 93.195313 L 212.007813 96.355469 L 218.765625 99.355469 L 226.09375 102.492188 L 232.933594 105.191406 L 239.636719 107.554688 L 239.75 107.589844 L 239.867188 107.628906 L 240.09375 107.703125 L 240.546875 107.847656 L 241.457031 108.140625 L 243.277344 108.699219 L 246.914063 109.746094 L 247.019531 109.773438 L 247.125 109.804688 L 247.335938 109.859375 L 247.761719 109.976563 L 248.609375 110.199219 L 250.308594 110.625 L 250.414063 110.652344 L 250.519531 110.675781 L 250.730469 110.730469 L 251.15625 110.832031 L 252.003906 111.03125 L 253.703125 111.410156 L 253.816406 111.433594 L 253.933594 111.460938 L 254.160156 111.507813 L 254.621094 111.605469 L 255.542969 111.792969 L 257.382813 112.148438 L 257.496094 112.167969 L 257.609375 112.191406 L 257.839844 112.234375 L 258.300781 112.316406 L 259.222656 112.472656 L 261.0625 112.769531 L 261.167969 112.785156 L 261.277344 112.800781 L 261.492188 112.832031 L 261.917969 112.894531 L 262.777344 113.015625 L 262.886719 113.03125 L 262.992188 113.046875 L 264.496094 113.238281 L 264.605469 113.25 L 264.710938 113.261719 L 264.925781 113.289063 L 266.214844 113.429688 L 266.320313 113.441406 L 266.429688 113.453125 L 266.644531 113.476563 L 267.074219 113.515625 L 267.933594 113.597656 L 268.144531 113.613281 L 268.351563 113.632813 L 268.773438 113.667969 L 270.039063 113.761719 L 270.457031 113.789063 L 271.300781 113.839844 L 271.40625 113.847656 L 271.511719 113.851563 L 271.722656 113.863281 L 272.144531 113.882813 L 272.25 113.890625 L 272.351563 113.894531 L 272.5625 113.902344 L 272.984375 113.921875 L 273.617188 113.945313 L 273.828125 113.949219 L 274.25 113.964844 L 274.351563 113.964844 L 274.457031 113.96875 L 274.667969 113.972656 L 274.785156 113.976563 L 274.898438 113.980469 L 275.011719 113.980469 L 275.125 113.984375 L 275.238281 113.984375 L 275.355469 113.988281 L 275.582031 113.992188 L 275.8125 113.992188 L 275.925781 113.996094 L 276.269531 113.996094 L 276.382813 114 L 277.523438 114 L 277.636719 113.996094 L 277.980469 113.996094 L 278.09375 113.992188 L 278.324219 113.992188 L 278.4375 113.988281 L 278.550781 113.988281 L 278.664063 113.984375 L 278.78125 113.984375 L 279.007813 113.976563 L 279.238281 113.972656 L 279.351563 113.96875 L 279.464844 113.96875 L 279.691406 113.960938 L 280.148438 113.949219 L 280.265625 113.945313 L 280.378906 113.941406 L 280.605469 113.929688 L 281.0625 113.914063 L 281.175781 113.90625 L 281.292969 113.902344 L 281.519531 113.890625 L 281.976563 113.871094 L 282.082031 113.863281 L 282.191406 113.859375 L 282.402344 113.847656 L 282.828125 113.820313 L 282.9375 113.8125 L 283.042969 113.808594 L 283.253906 113.792969 L 283.683594 113.765625 L 283.894531 113.75 L 284.109375 113.734375 L 285.386719 113.628906 L 285.492188 113.617188 L 285.601563 113.609375 L 285.8125 113.589844 L 287.089844 113.460938 L 287.199219 113.449219 L 287.304688 113.4375 L 287.519531 113.410156 L 287.945313 113.363281 L 288.796875 113.257813 L 288.914063 113.242188 L 289.027344 113.226563 L 289.71875 113.132813 L 290.644531 113 L 290.761719 112.984375 L 290.875 112.964844 L 291.105469 112.929688 L 291.566406 112.855469 L 292.492188 112.703125 L 292.609375 112.683594 L 292.722656 112.664063 L 292.953125 112.621094 L 293.414063 112.539063 L 294.339844 112.363281 L 296.1875 111.984375 L 296.300781 111.957031 L 296.414063 111.933594 L 297.09375 111.78125 L 298 111.566406 L 299.816406 111.105469 L 300.042969 111.042969 L 300.269531 110.984375 L 300.722656 110.859375 L 301.628906 110.597656 L 303.445313 110.042969 L 303.550781 110.011719 L 303.65625 109.976563 L 303.867188 109.910156 L 304.289063 109.769531 L 305.136719 109.484375 L 306.828125 108.878906 L 307.25 108.722656 L 307.675781 108.558594 L 308.519531 108.226563 L 310.210938 107.527344 L 310.328125 107.480469 L 310.441406 107.429688 L 310.671875 107.332031 L 311.128906 107.128906 L 312.046875 106.710938 L 313.882813 105.832031 L 313.996094 105.777344 L 314.109375 105.71875 L 314.800781 105.367188 L 315.714844 104.886719 L 317.550781 103.867188 L 317.660156 103.808594 L 317.765625 103.746094 L 317.980469 103.621094 L 318.40625 103.367188 L 319.265625 102.847656 L 320.976563 101.757813 L 321.085938 101.6875 L 321.191406 101.613281 L 321.40625 101.472656 L 321.832031 101.183594 L 322.691406 100.585938 L 324.402344 99.328125 L 324.507813 99.25 L 324.613281 99.167969 L 324.824219 99.007813 L 325.242188 98.679688 L 326.082031 98.007813 L 327.761719 96.582031 L 327.867188 96.492188 L 328.183594 96.210938 L 328.601563 95.828125 L 329.441406 95.046875 L 331.121094 93.378906 L 331.347656 93.144531 L 331.574219 92.902344 L 332.03125 92.414063 L 332.941406 91.402344 L 333.054688 91.273438 L 333.171875 91.140625 L 333.398438 90.878906 L 333.851563 90.339844 L 334.765625 89.214844 L 334.878906 89.070313 L 334.992188 88.921875 L 335.21875 88.628906 L 335.675781 88.023438 L 336.585938 86.761719 L 338.410156 83.960938 L 338.515625 83.785156 L 338.832031 83.246094 L 339.257813 82.5 L 340.109375 80.914063 L 340.214844 80.707031 L 340.535156 80.066406 L 340.957031 79.171875 L 341.808594 77.222656 L 341.914063 76.960938 L 342.019531 76.695313 L 342.234375 76.148438 L 342.660156 74.988281 L 342.765625 74.683594 L 342.871094 74.371094 L 343.082031 73.722656 L 343.507813 72.320313 L 343.613281 71.941406 L 343.722656 71.546875 L 343.933594 70.71875 L 344.039063 70.277344 L 344.144531 69.816406 L 344.359375 68.820313 L 344.464844 68.273438 L 344.570313 67.6875 L 344.675781 67.054688 L 344.785156 66.355469 L 344.890625 65.570313 L 344.996094 64.652344 L 345.101563 63.496094 L 345.207031 61.667969 L 345.238281 60.386719 "/>
<path style="fill:none;stroke-width:1.6;stroke-linecap:square;stroke-linejoin:miter;stroke:rgb(0%,0%,99.998474%);stroke-opacity:1;stroke-miterlimit:3.25;" d="M 14.765625 59.570313 L 14.789063 58.988281 L 14.902344 57.710938 L 15.019531 56.917969 L 15.132813 56.289063 L 15.246094 55.742188 L 15.363281 55.257813 L 15.476563 54.8125 L 15.59375 54.398438 L 15.820313 53.644531 L 15.9375 53.292969 L 16.050781 52.960938 L 16.28125 52.324219 L 16.742188 51.167969 L 16.855469 50.894531 L 16.972656 50.628906 L 17.199219 50.113281 L 17.660156 49.132813 L 17.777344 48.898438 L 17.890625 48.664063 L 18.121094 48.210938 L 18.582031 47.332031 L 19.5 45.679688 L 21.339844 42.667969 L 21.445313 42.5 L 21.550781 42.335938 L 21.765625 42.007813 L 22.195313 41.359375 L 23.054688 40.09375 L 24.769531 37.6875 L 28.203125 33.265625 L 28.414063 33.007813 L 29.046875 32.246094 L 29.886719 31.253906 L 31.570313 29.335938 L 34.9375 25.761719 L 35.050781 25.648438 L 35.164063 25.53125 L 35.394531 25.304688 L 35.851563 24.851563 L 36.761719 23.964844 L 38.589844 22.261719 L 38.816406 22.058594 L 39.042969 21.851563 L 39.5 21.449219 L 40.414063 20.65625 L 42.238281 19.140625 L 42.347656 19.054688 L 42.453125 18.96875 L 42.664063 18.800781 L 43.089844 18.464844 L 43.945313 17.808594 L 45.648438 16.554688 L 45.753906 16.476563 L 45.859375 16.402344 L 46.074219 16.253906 L 46.5 15.957031 L 47.351563 15.378906 L 49.054688 14.277344 L 49.171875 14.207031 L 49.285156 14.136719 L 49.515625 13.992188 L 49.980469 13.714844 L 50.902344 13.171875 L 52.75 12.15625 L 52.863281 12.09375 L 52.980469 12.035156 L 53.210938 11.914063 L 53.671875 11.675781 L 54.59375 11.222656 L 56.441406 10.375 L 56.554688 10.324219 L 56.667969 10.277344 L 56.894531 10.179688 L 57.347656 9.988281 L 58.253906 9.625 L 58.367188 9.578125 L 59.160156 9.277344 L 60.066406 8.953125 L 60.179688 8.910156 L 60.292969 8.871094 L 60.519531 8.796875 L 60.972656 8.644531 L 61.878906 8.355469 L 63.691406 7.835938 L 63.902344 7.78125 L 64.117188 7.726563 L 64.539063 7.617188 L 65.382813 7.417969 L 65.488281 7.394531 L 65.59375 7.367188 L 65.804688 7.320313 L 66.230469 7.230469 L 67.074219 7.058594 L 67.496094 6.980469 L 67.921875 6.90625 L 68.765625 6.765625 L 68.871094 6.746094 L 69.609375 6.636719 L 70.457031 6.527344 L 70.570313 6.511719 L 70.6875 6.5 L 70.914063 6.472656 L 71.375 6.421875 L 71.601563 6.398438 L 71.832031 6.378906 L 72.289063 6.335938 L 72.40625 6.324219 L 72.519531 6.316406 L 72.75 6.296875 L 72.976563 6.28125 L 73.207031 6.265625 L 73.320313 6.257813 L 73.4375 6.25 L 73.664063 6.234375 L 74.125 6.210938 L 74.238281 6.203125 L 74.351563 6.199219 L 74.582031 6.1875 L 74.695313 6.183594 L 74.8125 6.179688 L 75.039063 6.171875 L 75.15625 6.167969 L 75.382813 6.160156 L 75.5 6.15625 L 75.613281 6.152344 L 75.726563 6.152344 L 75.84375 6.148438 L 75.957031 6.144531 L 76.1875 6.144531 L 76.300781 6.140625 L 76.53125 6.140625 L 76.644531 6.136719 L 77.21875 6.136719 L 77.332031 6.140625 L 77.675781 6.140625 L 77.792969 6.144531 L 77.898438 6.144531 L 78.003906 6.148438 L 78.113281 6.148438 L 78.21875 6.152344 L 78.328125 6.15625 L 78.433594 6.15625 L 78.648438 6.164063 L 78.753906 6.167969 L 78.859375 6.167969 L 79.074219 6.175781 L 79.183594 6.179688 L 79.289063 6.1875 L 79.503906 6.195313 L 79.609375 6.199219 L 79.71875 6.203125 L 79.929688 6.214844 L 80.359375 6.238281 L 80.464844 6.246094 L 80.574219 6.25 L 80.785156 6.265625 L 81.214844 6.292969 L 81.320313 6.300781 L 81.429688 6.308594 L 81.644531 6.328125 L 82.070313 6.363281 L 82.179688 6.371094 L 82.285156 6.382813 L 82.5 6.402344 L 82.925781 6.441406 L 83.035156 6.453125 L 83.140625 6.464844 L 83.355469 6.484375 L 83.78125 6.53125 L 84.636719 6.632813 L 84.742188 6.648438 L 84.847656 6.660156 L 85.058594 6.6875 L 85.476563 6.742188 L 86.316406 6.863281 L 86.527344 6.894531 L 86.734375 6.929688 L 87.15625 6.996094 L 87.996094 7.132813 L 88.101563 7.152344 L 88.203125 7.171875 L 88.414063 7.207031 L 88.832031 7.285156 L 89.671875 7.441406 L 91.351563 7.785156 L 91.464844 7.808594 L 91.578125 7.835938 L 91.804688 7.886719 L 92.261719 7.988281 L 93.171875 8.195313 L 94.992188 8.644531 L 98.632813 9.644531 L 98.742188 9.675781 L 99.058594 9.769531 L 99.484375 9.898438 L 100.332031 10.152344 L 102.03125 10.6875 L 105.429688 11.816406 L 112.796875 14.5 L 120.027344 17.324219 L 126.773438 20 L 134.085938 22.832031 L 140.914063 25.300781 L 141.03125 25.339844 L 141.144531 25.378906 L 141.378906 25.457031 L 141.839844 25.617188 L 142.765625 25.929688 L 144.613281 26.535156 L 148.3125 27.6875 L 148.425781 27.71875 L 148.539063 27.753906 L 148.765625 27.820313 L 149.222656 27.953125 L 150.128906 28.214844 L 151.945313 28.71875 L 152.171875 28.78125 L 152.398438 28.839844 L 152.851563 28.960938 L 153.761719 29.199219 L 155.578125 29.648438 L 155.683594 29.675781 L 155.789063 29.699219 L 156 29.75 L 156.425781 29.851563 L 157.269531 30.042969 L 158.964844 30.414063 L 159.175781 30.460938 L 159.386719 30.503906 L 159.8125 30.589844 L 160.660156 30.757813 L 162.351563 31.078125 L 162.46875 31.097656 L 162.582031 31.117188 L 162.8125 31.160156 L 163.269531 31.238281 L 164.191406 31.390625 L 164.417969 31.429688 L 165.109375 31.535156 L 166.027344 31.671875 L 166.140625 31.6875 L 166.257813 31.707031 L 166.484375 31.738281 L 166.945313 31.800781 L 167.863281 31.921875 L 169.699219 32.136719 L 169.808594 32.144531 L 169.914063 32.15625 L 170.128906 32.179688 L 170.558594 32.222656 L 171.414063 32.304688 L 171.523438 32.3125 L 171.628906 32.324219 L 171.84375 32.339844 L 172.273438 32.375 L 173.128906 32.441406 L 173.238281 32.449219 L 173.34375 32.457031 L 173.558594 32.472656 L 173.988281 32.5 L 174.09375 32.507813 L 174.203125 32.511719 L 174.414063 32.527344 L 174.84375 32.550781 L 174.953125 32.554688 L 175.058594 32.5625 L 175.273438 32.574219 L 175.703125 32.59375 L 175.808594 32.597656 L 175.917969 32.601563 L 176.128906 32.613281 L 176.558594 32.628906 L 176.769531 32.636719 L 176.980469 32.640625 L 177.191406 32.648438 L 177.398438 32.65625 L 177.503906 32.65625 L 177.609375 32.660156 L 177.820313 32.664063 L 178.03125 32.671875 L 178.242188 32.675781 L 178.34375 32.675781 L 178.449219 32.679688 L 178.660156 32.679688 L 178.765625 32.683594 L 178.976563 32.683594 L 179.082031 32.6875 L 179.5 32.6875 L 179.605469 32.691406 L 180.34375 32.691406 L 180.445313 32.6875 L 180.867188 32.6875 L 180.972656 32.683594 L 181.289063 32.683594 L 181.390625 32.679688 L 181.601563 32.675781 L 181.707031 32.675781 L 181.8125 32.671875 L 182.023438 32.667969 L 182.128906 32.667969 L 182.234375 32.664063 L 182.441406 32.660156 L 182.652344 32.652344 L 182.863281 32.648438 L 183.285156 32.632813 L 183.738281 32.617188 L 184.195313 32.597656 L 184.308594 32.59375 L 184.421875 32.585938 L 184.652344 32.578125 L 185.109375 32.554688 L 185.335938 32.539063 L 185.5625 32.527344 L 186.019531 32.5 L 186.929688 32.4375 L 187.046875 32.429688 L 187.160156 32.421875 L 187.386719 32.402344 L 187.84375 32.367188 L 188.753906 32.289063 L 188.871094 32.277344 L 188.984375 32.265625 L 189.210938 32.246094 L 189.667969 32.199219 L 190.578125 32.105469 L 190.6875 32.09375 L 191.003906 32.058594 L 191.429688 32.007813 L 192.28125 31.902344 L 193.984375 31.671875 L 194.195313 31.640625 L 194.410156 31.609375 L 194.835938 31.546875 L 195.683594 31.410156 L 197.386719 31.125 L 197.503906 31.101563 L 197.617188 31.082031 L 197.847656 31.042969 L 198.308594 30.957031 L 199.230469 30.78125 L 201.078125 30.40625 L 201.191406 30.382813 L 201.308594 30.359375 L 202 30.207031 L 202.921875 30 L 204.765625 29.566406 L 204.992188 29.511719 L 205.21875 29.453125 L 205.671875 29.34375 L 206.578125 29.109375 L 208.386719 28.628906 L 212.007813 27.589844 L 218.765625 25.410156 L 226.09375 22.761719 L 232.933594 20.117188 L 239.636719 17.457031 L 246.914063 14.613281 L 253.703125 12.121094 L 253.816406 12.078125 L 253.933594 12.039063 L 254.160156 11.960938 L 254.621094 11.800781 L 255.542969 11.488281 L 257.382813 10.875 L 261.0625 9.734375 L 261.167969 9.703125 L 261.277344 9.671875 L 261.492188 9.609375 L 261.917969 9.484375 L 262.777344 9.242188 L 264.496094 8.777344 L 264.605469 8.75 L 264.710938 8.722656 L 265.355469 8.558594 L 266.214844 8.34375 L 267.933594 7.941406 L 268.144531 7.894531 L 268.351563 7.851563 L 268.773438 7.757813 L 269.617188 7.582031 L 269.722656 7.5625 L 269.828125 7.539063 L 270.039063 7.5 L 270.457031 7.417969 L 271.300781 7.257813 L 271.40625 7.238281 L 271.511719 7.222656 L 271.722656 7.183594 L 272.144531 7.109375 L 272.984375 6.972656 L 273.089844 6.957031 L 273.195313 6.9375 L 273.828125 6.84375 L 274.667969 6.722656 L 274.785156 6.707031 L 274.898438 6.695313 L 275.125 6.664063 L 275.582031 6.605469 L 275.695313 6.59375 L 275.8125 6.578125 L 276.039063 6.550781 L 276.496094 6.5 L 276.722656 6.476563 L 276.953125 6.453125 L 277.410156 6.410156 L 277.636719 6.386719 L 277.867188 6.367188 L 278.324219 6.328125 L 278.550781 6.3125 L 278.78125 6.296875 L 278.894531 6.285156 L 279.007813 6.277344 L 279.238281 6.261719 L 279.351563 6.257813 L 279.691406 6.234375 L 280.148438 6.210938 L 280.265625 6.207031 L 280.378906 6.199219 L 280.605469 6.191406 L 280.71875 6.183594 L 280.835938 6.179688 L 281.175781 6.167969 L 281.292969 6.164063 L 281.40625 6.160156 L 281.519531 6.160156 L 281.632813 6.15625 L 281.75 6.152344 L 281.863281 6.148438 L 281.976563 6.148438 L 282.082031 6.144531 L 282.296875 6.144531 L 282.402344 6.140625 L 282.617188 6.140625 L 282.722656 6.136719 L 283.363281 6.136719 L 283.46875 6.140625 L 283.789063 6.140625 L 283.894531 6.144531 L 284 6.144531 L 284.109375 6.148438 L 284.214844 6.148438 L 284.320313 6.152344 L 284.535156 6.15625 L 284.746094 6.164063 L 284.960938 6.171875 L 285.066406 6.171875 L 285.171875 6.179688 L 285.386719 6.1875 L 285.492188 6.191406 L 285.601563 6.195313 L 285.8125 6.207031 L 285.917969 6.210938 L 286.027344 6.21875 L 286.238281 6.230469 L 286.347656 6.234375 L 286.664063 6.257813 L 287.089844 6.285156 L 287.199219 6.292969 L 287.304688 6.300781 L 287.519531 6.320313 L 287.945313 6.355469 L 288.050781 6.367188 L 288.15625 6.375 L 288.371094 6.398438 L 288.796875 6.441406 L 288.914063 6.453125 L 289.027344 6.46875 L 289.257813 6.492188 L 289.71875 6.550781 L 289.835938 6.5625 L 289.953125 6.578125 L 290.183594 6.609375 L 290.644531 6.675781 L 290.761719 6.691406 L 290.875 6.710938 L 291.566406 6.816406 L 292.492188 6.980469 L 292.609375 7 L 292.722656 7.023438 L 292.953125 7.066406 L 293.414063 7.15625 L 294.339844 7.355469 L 294.457031 7.378906 L 294.570313 7.40625 L 295.261719 7.570313 L 296.1875 7.804688 L 296.300781 7.835938 L 296.414063 7.863281 L 297.09375 8.050781 L 298 8.320313 L 298.453125 8.460938 L 298.910156 8.605469 L 299.816406 8.910156 L 300.042969 8.988281 L 300.722656 9.234375 L 301.628906 9.578125 L 303.445313 10.324219 L 304.289063 10.699219 L 305.136719 11.09375 L 306.828125 11.933594 L 307.25 12.152344 L 307.675781 12.378906 L 308.519531 12.84375 L 310.210938 13.828125 L 310.328125 13.898438 L 310.441406 13.96875 L 310.671875 14.109375 L 311.128906 14.394531 L 312.046875 14.980469 L 313.882813 16.222656 L 317.550781 18.972656 L 317.660156 19.058594 L 317.765625 19.144531 L 317.980469 19.316406 L 318.40625 19.667969 L 319.265625 20.382813 L 320.976563 21.871094 L 324.402344 25.101563 L 324.613281 25.3125 L 324.824219 25.519531 L 325.242188 25.945313 L 326.082031 26.808594 L 327.761719 28.601563 L 331.121094 32.445313 L 331.347656 32.71875 L 331.574219 32.996094 L 332.03125 33.554688 L 332.941406 34.691406 L 334.765625 37.0625 L 334.992188 37.367188 L 335.21875 37.675781 L 335.675781 38.300781 L 336.585938 39.578125 L 338.410156 42.273438 L 338.621094 42.601563 L 338.832031 42.933594 L 339.257813 43.609375 L 340.109375 45.007813 L 340.214844 45.1875 L 340.320313 45.371094 L 340.535156 45.738281 L 340.957031 46.488281 L 341.808594 48.070313 L 341.914063 48.277344 L 342.019531 48.488281 L 342.234375 48.914063 L 342.660156 49.804688 L 342.765625 50.035156 L 342.871094 50.273438 L 343.082031 50.753906 L 343.507813 51.78125 L 343.613281 52.054688 L 343.722656 52.332031 L 343.933594 52.917969 L 344.039063 53.226563 L 344.144531 53.546875 L 344.359375 54.230469 L 344.464844 54.601563 L 344.570313 54.996094 L 344.675781 55.421875 L 344.785156 55.886719 L 344.890625 56.402344 L 344.996094 57.003906 L 345.101563 57.753906 L 345.207031 58.929688 L 345.238281 59.753906 "/>
<path style="fill:none;stroke-width:1.6;stroke-linecap:square;stroke-linejoin:miter;stroke:rgb(0%,0%,99.998474%);stroke-opacity:1;stroke-miterlimit:3.25;" d="M 14.765625 60.429688 L 14.789063 61.011719 L 14.902344 62.289063 L 15.019531 63.082031 L 15.132813 63.710938 L 15.246094 64.257813 L 15.363281 64.742188 L 15.476563 65.1875 L 15.59375 65.601563 L 15.820313 66.355469 L 15.9375 66.707031 L 16.050781 67.039063 L 16.28125 67.675781 L 16.742188 68.832031 L 16.855469 69.105469 L 16.972656 69.371094 L 17.199219 69.886719 L 17.660156 70.867188 L 17.777344 71.101563 L 17.890625 71.335938 L 18.121094 71.789063 L 18.582031 72.667969 L 19.5 74.320313 L 21.339844 77.332031 L 21.445313 77.5 L 21.550781 77.664063 L 21.765625 77.992188 L 22.195313 78.640625 L 23.054688 79.90625 L 24.769531 82.3125 L 28.203125 86.734375 L 28.414063 86.992188 L 29.046875 87.753906 L 29.886719 88.746094 L 31.570313 90.664063 L 34.9375 94.238281 L 35.050781 94.351563 L 35.164063 94.46875 L 35.394531 94.695313 L 35.851563 95.148438 L 36.761719 96.035156 L 38.589844 97.738281 L 38.816406 97.941406 L 39.042969 98.148438 L 39.5 98.550781 L 40.414063 99.34375 L 42.238281 100.859375 L 42.347656 100.945313 L 42.453125 101.03125 L 42.664063 101.199219 L 43.089844 101.535156 L 43.945313 102.191406 L 45.648438 103.445313 L 45.753906 103.523438 L 45.859375 103.597656 L 46.074219 103.746094 L 46.5 104.042969 L 47.351563 104.621094 L 49.054688 105.722656 L 49.171875 105.792969 L 49.285156 105.863281 L 49.515625 106.007813 L 49.980469 106.285156 L 50.902344 106.828125 L 52.75 107.84375 L 52.863281 107.90625 L 52.980469 107.964844 L 53.210938 108.085938 L 53.671875 108.324219 L 54.59375 108.777344 L 56.441406 109.625 L 56.554688 109.675781 L 56.667969 109.722656 L 56.894531 109.820313 L 57.347656 110.011719 L 58.253906 110.375 L 58.367188 110.421875 L 59.160156 110.722656 L 60.066406 111.046875 L 60.179688 111.089844 L 60.292969 111.128906 L 60.519531 111.203125 L 60.972656 111.355469 L 61.878906 111.644531 L 63.691406 112.164063 L 63.902344 112.21875 L 64.117188 112.273438 L 64.539063 112.382813 L 65.382813 112.582031 L 65.488281 112.605469 L 65.59375 112.632813 L 65.804688 112.679688 L 66.230469 112.769531 L 67.074219 112.941406 L 67.496094 113.019531 L 67.921875 113.09375 L 68.765625 113.234375 L 68.871094 113.253906 L 69.609375 113.363281 L 70.457031 113.472656 L 70.570313 113.488281 L 70.6875 113.5 L 70.914063 113.527344 L 71.375 113.578125 L 71.601563 113.601563 L 71.832031 113.621094 L 72.289063 113.664063 L 72.40625 113.675781 L 72.519531 113.683594 L 72.75 113.703125 L 72.976563 113.71875 L 73.207031 113.734375 L 73.320313 113.742188 L 73.4375 113.75 L 73.664063 113.765625 L 74.125 113.789063 L 74.238281 113.796875 L 74.351563 113.800781 L 74.582031 113.8125 L 74.695313 113.816406 L 74.8125 113.820313 L 75.039063 113.828125 L 75.15625 113.832031 L 75.382813 113.839844 L 75.5 113.84375 L 75.613281 113.847656 L 75.726563 113.847656 L 75.84375 113.851563 L 75.957031 113.855469 L 76.1875 113.855469 L 76.300781 113.859375 L 76.53125 113.859375 L 76.644531 113.863281 L 77.21875 113.863281 L 77.332031 113.859375 L 77.675781 113.859375 L 77.792969 113.855469 L 77.898438 113.855469 L 78.003906 113.851563 L 78.113281 113.851563 L 78.21875 113.847656 L 78.328125 113.84375 L 78.433594 113.84375 L 78.648438 113.835938 L 78.753906 113.832031 L 78.859375 113.832031 L 79.074219 113.824219 L 79.183594 113.820313 L 79.289063 113.8125 L 79.503906 113.804688 L 79.609375 113.800781 L 79.71875 113.796875 L 79.929688 113.785156 L 80.359375 113.761719 L 80.464844 113.753906 L 80.574219 113.75 L 80.785156 113.734375 L 81.214844 113.707031 L 81.320313 113.699219 L 81.429688 113.691406 L 81.644531 113.671875 L 82.070313 113.636719 L 82.179688 113.628906 L 82.285156 113.617188 L 82.5 113.597656 L 82.925781 113.558594 L 83.035156 113.546875 L 83.140625 113.535156 L 83.355469 113.515625 L 83.78125 113.46875 L 84.636719 113.367188 L 84.742188 113.351563 L 84.847656 113.339844 L 85.058594 113.3125 L 85.476563 113.257813 L 86.316406 113.136719 L 86.527344 113.105469 L 86.734375 113.070313 L 87.15625 113.003906 L 87.996094 112.867188 L 88.101563 112.847656 L 88.203125 112.828125 L 88.414063 112.792969 L 88.832031 112.714844 L 89.671875 112.558594 L 91.351563 112.214844 L 91.464844 112.191406 L 91.578125 112.164063 L 91.804688 112.113281 L 92.261719 112.011719 L 93.171875 111.804688 L 94.992188 111.355469 L 98.632813 110.355469 L 98.742188 110.324219 L 99.058594 110.230469 L 99.484375 110.101563 L 100.332031 109.847656 L 102.03125 109.3125 L 105.429688 108.183594 L 112.796875 105.5 L 120.027344 102.675781 L 126.773438 100 L 134.085938 97.167969 L 140.914063 94.699219 L 141.03125 94.660156 L 141.144531 94.621094 L 141.378906 94.542969 L 141.839844 94.382813 L 142.765625 94.070313 L 144.613281 93.464844 L 148.3125 92.3125 L 148.425781 92.28125 L 148.539063 92.246094 L 148.765625 92.179688 L 149.222656 92.046875 L 150.128906 91.785156 L 151.945313 91.28125 L 152.171875 91.21875 L 152.398438 91.160156 L 152.851563 91.039063 L 153.761719 90.800781 L 155.578125 90.351563 L 155.683594 90.324219 L 155.789063 90.300781 L 156 90.25 L 156.425781 90.148438 L 157.269531 89.957031 L 158.964844 89.585938 L 159.175781 89.539063 L 159.386719 89.496094 L 159.8125 89.410156 L 160.660156 89.242188 L 162.351563 88.921875 L 162.46875 88.902344 L 162.582031 88.882813 L 162.8125 88.839844 L 163.269531 88.761719 L 164.191406 88.609375 L 164.417969 88.570313 L 165.109375 88.464844 L 166.027344 88.328125 L 166.140625 88.3125 L 166.257813 88.292969 L 166.484375 88.261719 L 166.945313 88.199219 L 167.863281 88.078125 L 169.699219 87.863281 L 169.808594 87.855469 L 169.914063 87.84375 L 170.128906 87.820313 L 170.558594 87.777344 L 171.414063 87.695313 L 171.523438 87.6875 L 171.628906 87.675781 L 171.84375 87.660156 L 172.273438 87.625 L 173.128906 87.558594 L 173.238281 87.550781 L 173.34375 87.542969 L 173.558594 87.527344 L 173.988281 87.5 L 174.09375 87.492188 L 174.203125 87.488281 L 174.414063 87.472656 L 174.84375 87.449219 L 174.953125 87.445313 L 175.058594 87.4375 L 175.273438 87.425781 L 175.703125 87.40625 L 175.808594 87.402344 L 175.917969 87.398438 L 176.128906 87.386719 L 176.558594 87.371094 L 176.769531 87.363281 L 176.980469 87.359375 L 177.191406 87.351563 L 177.398438 87.34375 L 177.503906 87.34375 L 177.609375 87.339844 L 177.820313 87.335938 L 178.03125 87.328125 L 178.242188 87.324219 L 178.34375 87.324219 L 178.449219 87.320313 L 178.660156 87.320313 L 178.765625 87.316406 L 178.976563 87.316406 L 179.082031 87.3125 L 179.5 87.3125 L 179.605469 87.308594 L 180.34375 87.308594 L 180.445313 87.3125 L 180.867188 87.3125 L 180.972656 87.316406 L 181.289063 87.316406 L 181.390625 87.320313 L 181.601563 87.324219 L 181.707031 87.324219 L 181.8125 87.328125 L 182.023438 87.332031 L 182.128906 87.332031 L 182.234375 87.335938 L 182.441406 87.339844 L 182.652344 87.347656 L 182.863281 87.351563 L 183.285156 87.367188 L 183.738281 87.382813 L 184.195313 87.402344 L 184.308594 87.40625 L 184.421875 87.414063 L 184.652344 87.421875 L 185.109375 87.445313 L 185.335938 87.460938 L 185.5625 87.472656 L 186.019531 87.5 L 186.929688 87.5625 L 187.046875 87.570313 L 187.160156 87.578125 L 187.386719 87.597656 L 187.84375 87.632813 L 188.753906 87.710938 L 188.871094 87.722656 L 188.984375 87.734375 L 189.210938 87.753906 L 189.667969 87.800781 L 190.578125 87.894531 L 190.6875 87.90625 L 191.003906 87.941406 L 191.429688 87.992188 L 192.28125 88.097656 L 193.984375 88.328125 L 194.195313 88.359375 L 194.410156 88.390625 L 194.835938 88.453125 L 195.683594 88.589844 L 197.386719 88.875 L 197.503906 88.898438 L 197.617188 88.917969 L 197.847656 88.957031 L 198.308594 89.042969 L 199.230469 89.21875 L 201.078125 89.59375 L 201.191406 89.617188 L 201.308594 89.640625 L 202 89.792969 L 202.921875 90 L 204.765625 90.433594 L 204.992188 90.488281 L 205.21875 90.546875 L 205.671875 90.65625 L 206.578125 90.890625 L 208.386719 91.371094 L 212.007813 92.410156 L 218.765625 94.589844 L 226.09375 97.238281 L 232.933594 99.882813 L 239.636719 102.542969 L 246.914063 105.386719 L 253.703125 107.878906 L 253.816406 107.921875 L 253.933594 107.960938 L 254.160156 108.039063 L 254.621094 108.199219 L 255.542969 108.511719 L 257.382813 109.125 L 261.0625 110.265625 L 261.167969 110.296875 L 261.277344 110.328125 L 261.492188 110.390625 L 261.917969 110.515625 L 262.777344 110.757813 L 264.496094 111.222656 L 264.605469 111.25 L 264.710938 111.277344 L 265.355469 111.441406 L 266.214844 111.65625 L 267.933594 112.058594 L 268.144531 112.105469 L 268.351563 112.148438 L 268.773438 112.242188 L 269.617188 112.417969 L 269.722656 112.4375 L 269.828125 112.460938 L 270.039063 112.5 L 270.457031 112.582031 L 271.300781 112.742188 L 271.40625 112.761719 L 271.511719 112.777344 L 271.722656 112.816406 L 272.144531 112.890625 L 272.984375 113.027344 L 273.089844 113.042969 L 273.195313 113.0625 L 273.828125 113.15625 L 274.667969 113.277344 L 274.785156 113.292969 L 274.898438 113.304688 L 275.125 113.335938 L 275.582031 113.394531 L 275.695313 113.40625 L 275.8125 113.421875 L 276.039063 113.449219 L 276.496094 113.5 L 276.722656 113.523438 L 276.953125 113.546875 L 277.410156 113.589844 L 277.636719 113.613281 L 277.867188 113.632813 L 278.324219 113.671875 L 278.550781 113.6875 L 278.78125 113.703125 L 278.894531 113.714844 L 279.007813 113.722656 L 279.238281 113.738281 L 279.351563 113.742188 L 279.691406 113.765625 L 280.148438 113.789063 L 280.265625 113.792969 L 280.378906 113.800781 L 280.605469 113.808594 L 280.71875 113.816406 L 280.835938 113.820313 L 281.175781 113.832031 L 281.292969 113.835938 L 281.40625 113.839844 L 281.519531 113.839844 L 281.632813 113.84375 L 281.75 113.847656 L 281.863281 113.851563 L 281.976563 113.851563 L 282.082031 113.855469 L 282.296875 113.855469 L 282.402344 113.859375 L 282.617188 113.859375 L 282.722656 113.863281 L 283.363281 113.863281 L 283.46875 113.859375 L 283.789063 113.859375 L 283.894531 113.855469 L 284 113.855469 L 284.109375 113.851563 L 284.214844 113.851563 L 284.320313 113.847656 L 284.535156 113.84375 L 284.746094 113.835938 L 284.960938 113.828125 L 285.066406 113.828125 L 285.171875 113.820313 L 285.386719 113.8125 L 285.492188 113.808594 L 285.601563 113.804688 L 285.8125 113.792969 L 285.917969 113.789063 L 286.027344 113.78125 L 286.238281 113.769531 L 286.347656 113.765625 L 286.664063 113.742188 L 287.089844 113.714844 L 287.199219 113.707031 L 287.304688 113.699219 L 287.519531 113.679688 L 287.945313 113.644531 L 288.050781 113.632813 L 288.15625 113.625 L 288.371094 113.601563 L 288.796875 113.558594 L 288.914063 113.546875 L 289.027344 113.53125 L 289.257813 113.507813 L 289.71875 113.449219 L 289.835938 113.4375 L 289.953125 113.421875 L 290.183594 113.390625 L 290.644531 113.324219 L 290.761719 113.308594 L 290.875 113.289063 L 291.566406 113.183594 L 292.492188 113.019531 L 292.609375 113 L 292.722656 112.976563 L 292.953125 112.933594 L 293.414063 112.84375 L 294.339844 112.644531 L 294.457031 112.621094 L 294.570313 112.59375 L 295.261719 112.429688 L 296.1875 112.195313 L 296.300781 112.164063 L 296.414063 112.136719 L 297.09375 111.949219 L 298 111.679688 L 298.453125 111.539063 L 298.910156 111.394531 L 299.816406 111.089844 L 300.042969 111.011719 L 300.722656 110.765625 L 301.628906 110.421875 L 303.445313 109.675781 L 304.289063 109.300781 L 305.136719 108.90625 L 306.828125 108.066406 L 307.25 107.847656 L 307.675781 107.621094 L 308.519531 107.15625 L 310.210938 106.171875 L 310.328125 106.101563 L 310.441406 106.03125 L 310.671875 105.890625 L 311.128906 105.605469 L 312.046875 105.019531 L 313.882813 103.777344 L 317.550781 101.027344 L 317.660156 100.941406 L 317.765625 100.855469 L 317.980469 100.683594 L 318.40625 100.332031 L 319.265625 99.617188 L 320.976563 98.128906 L 324.402344 94.898438 L 324.613281 94.6875 L 324.824219 94.480469 L 325.242188 94.054688 L 326.082031 93.191406 L 327.761719 91.398438 L 331.121094 87.554688 L 331.347656 87.28125 L 331.574219 87.003906 L 332.03125 86.445313 L 332.941406 85.308594 L 334.765625 82.9375 L 334.992188 82.632813 L 335.21875 82.324219 L 335.675781 81.699219 L 336.585938 80.421875 L 338.410156 77.726563 L 338.621094 77.398438 L 338.832031 77.066406 L 339.257813 76.390625 L 340.109375 74.992188 L 340.214844 74.8125 L 340.320313 74.628906 L 340.535156 74.261719 L 340.957031 73.511719 L 341.808594 71.929688 L 341.914063 71.722656 L 342.019531 71.511719 L 342.234375 71.085938 L 342.660156 70.195313 L 342.765625 69.964844 L 342.871094 69.726563 L 343.082031 69.246094 L 343.507813 68.21875 L 343.613281 67.945313 L 343.722656 67.667969 L 343.933594 67.082031 L 344.039063 66.773438 L 344.144531 66.453125 L 344.359375 65.769531 L 344.464844 65.398438 L 344.570313 65.003906 L 344.675781 64.578125 L 344.785156 64.113281 L 344.890625 63.597656 L 344.996094 62.996094 L 345.101563 62.246094 L 345.207031 61.070313 L 345.238281 60.246094 "/>
</g>
</svg>
